<svg width="248" height="250" viewBox="0 0 248 250" fill="none" xmlns="http://www.w3.org/2000/svg">
    <path d="M217.402 209.286C211.027 215.857 205.321 219.723 200.955 222.634C158.366 251.071 109.679 242.875 94.625 240.071C70.3392 235.554 49.8392 232.366 32.2232 216.446C-7.80362 180.286 -5.85719 104.857 24.7321 58.125C28.3571 52.5893 58.8928 7.33036 107.679 0.946431C108.875 0.794645 109.759 0.70536 110.545 0.616074C118.089 -0.187498 164.866 -4.40178 203.009 27.5536C208.464 32.125 217.25 40.375 225.402 52.9643C255.196 98.9732 255.286 170.232 217.402 209.286Z" fill="#F4F6FF"/>
    <path d="M64.6696 47.7143C63.9911 47.4554 63.6071 46.7232 63.7946 46.0089C64.2143 44.4464 64.7054 42.875 65.2589 41.3393C65.5268 40.5982 66.3482 40.2054 67.0982 40.4732C67.1071 40.4732 67.1161 40.4821 67.125 40.4821C67.8571 40.7589 68.2232 41.5714 67.9643 42.3125C67.4375 43.7679 66.9732 45.2589 66.5714 46.75C66.3661 47.5179 65.5804 47.9732 64.8125 47.7679C64.7679 47.75 64.7143 47.7322 64.6696 47.7143ZM69.2232 36.0804C69.1696 36.0625 69.1161 36.0357 69.0714 36.0089C68.3661 35.6429 68.0982 34.7768 68.4643 34.0714C69.2232 32.6339 70.0446 31.2054 70.9196 29.8482C71.3482 29.1786 72.2321 28.9821 72.9018 29.4107C73.5714 29.8393 73.7679 30.7232 73.3393 31.3929C72.5089 32.6875 71.7232 34.0446 71.0089 35.4107C70.6696 36.0625 69.8928 36.3393 69.2232 36.0804ZM76.2321 25.7411C76.0803 25.6875 75.9375 25.5982 75.8125 25.4911C75.2143 24.9732 75.1428 24.0714 75.6518 23.4643C76.7053 22.2321 77.8304 21.0268 78.9911 19.8929C79.5536 19.3393 80.4643 19.3482 81.0179 19.9107C81.5714 20.4732 81.5625 21.3839 81 21.9375C79.9018 23.0179 78.8304 24.1607 77.8304 25.3304C77.4286 25.8036 76.7857 25.9554 76.2321 25.7411ZM85.375 17.2232C85.125 17.125 84.9018 16.9643 84.7411 16.7411C84.2678 16.1071 84.4018 15.2054 85.0446 14.7321C86.3482 13.7679 87.7143 12.8482 89.0982 11.9911C89.7768 11.5804 90.6518 11.7857 91.0714 12.4643C91.4821 13.1429 91.2768 14.0179 90.5982 14.4375C89.2857 15.25 87.9911 16.125 86.75 17.0357C86.3303 17.3393 85.8214 17.3929 85.375 17.2232ZM96.1875 10.9554C95.8393 10.8214 95.5446 10.5536 95.3839 10.1964C95.0625 9.47322 95.3928 8.625 96.125 8.30358C97.6071 7.65179 99.1428 7.05358 100.679 6.52679C101.429 6.26786 102.241 6.66965 102.5 7.41965C102.759 8.16965 102.357 8.98215 101.607 9.24108C100.143 9.74108 98.6875 10.3036 97.2768 10.9286C96.9196 11.0893 96.5268 11.0893 96.1875 10.9554ZM108.116 7.24108C107.67 7.07143 107.312 6.67858 107.223 6.16965C107.071 5.39286 107.58 4.64286 108.357 4.49108C109.955 4.1875 111.58 3.9375 113.196 3.76786C113.982 3.6875 114.687 4.25893 114.777 5.04465C114.857 5.83036 114.286 6.53572 113.5 6.625C111.964 6.78572 110.42 7.01786 108.902 7.3125C108.625 7.36608 108.357 7.33929 108.116 7.24108ZM158.42 22.8571C158.232 22.7857 158.062 22.6786 157.911 22.5268C156.83 21.4286 155.687 20.3661 154.509 19.3661C153.911 18.8482 153.83 17.9464 154.348 17.3482C154.866 16.7411 155.768 16.6696 156.366 17.1875C157.607 18.2411 158.812 19.3661 159.946 20.5179C160.5 21.0804 160.5 21.9911 159.929 22.5446C159.527 22.9464 158.929 23.0536 158.42 22.8571ZM120.562 6.25893C120.009 6.04465 119.625 5.5 119.643 4.875C119.67 4.08036 120.33 3.46429 121.125 3.49108C122.75 3.54465 124.384 3.66965 126 3.86608C126.786 3.96429 127.348 4.67858 127.25 5.46429C127.152 6.25 126.438 6.8125 125.652 6.71429C124.125 6.52679 122.562 6.41072 121.027 6.35715C120.866 6.34822 120.714 6.32143 120.562 6.25893ZM148.696 15.0089C148.607 14.9732 148.518 14.9286 148.437 14.8839C147.134 14.0536 145.786 13.2768 144.411 12.5536C143.705 12.1875 143.437 11.3214 143.804 10.6161C144.17 9.91072 145.036 9.64286 145.741 10.0089C147.179 10.7589 148.607 11.5893 149.973 12.4554C150.643 12.8839 150.839 13.7679 150.411 14.4375C150.045 15.0268 149.321 15.25 148.696 15.0089ZM132.92 8.08929C132.241 7.83036 131.857 7.09822 132.045 6.38393C132.25 5.61608 133.036 5.16072 133.804 5.36608C135.375 5.78572 136.938 6.26786 138.473 6.82143C138.482 6.82143 138.491 6.83036 138.5 6.83036C139.223 7.10715 139.598 7.91965 139.339 8.65179C139.071 9.40179 138.25 9.78572 137.509 9.51786C136.054 9 134.562 8.52679 133.071 8.13393C133.018 8.125 132.964 8.10715 132.92 8.08929Z" fill="#C6D1FF"/>
    <path d="M164.813 30.6429C164.545 30.5447 164.313 30.3661 164.143 30.1072C163.723 29.4911 163.295 28.884 162.848 28.2858C162.375 27.6518 162.509 26.7501 163.143 26.2768C163.777 25.8036 164.679 25.9376 165.152 26.5715C165.616 27.1965 166.08 27.8483 166.518 28.4911C166.964 29.1429 166.795 30.0358 166.143 30.4822C165.732 30.759 165.232 30.8036 164.813 30.6429Z" fill="#C6D1FF"/>
    <path d="M173.33 73.5268C172.687 73.2768 172.295 72.5893 172.437 71.8929C172.589 71.1697 172.732 70.4286 172.848 69.6964C172.982 68.9107 173.714 68.3839 174.5 68.5179C175.286 68.6518 175.812 69.3839 175.679 70.1697C175.554 70.9375 175.402 71.7232 175.241 72.4822C175.08 73.2589 174.321 73.75 173.545 73.5893C173.473 73.5804 173.402 73.5536 173.33 73.5268Z" fill="#C6D1FF"/>
    <path d="M98.7143 114.268C98.0983 114.036 97.4822 113.786 96.8751 113.527C96.1429 113.214 95.8036 112.375 96.1161 111.652C96.4286 110.92 97.2679 110.58 97.9911 110.884C99.4018 111.482 100.839 112.018 102.277 112.491C103.027 112.741 103.438 113.545 103.196 114.304C102.946 115.054 102.143 115.464 101.384 115.223C100.491 114.929 99.5983 114.607 98.7143 114.268ZM90.1161 110.116C90.0447 110.089 89.9643 110.054 89.8929 110.009C88.5179 109.196 87.1608 108.313 85.8572 107.384C85.2143 106.929 85.0626 106.027 85.5179 105.384C85.9822 104.741 86.8751 104.589 87.5179 105.045C88.7501 105.929 90.0447 106.768 91.3483 107.536C92.0268 107.938 92.2501 108.821 91.8483 109.5C91.5001 110.116 90.759 110.357 90.1161 110.116ZM108.696 117.063C108.063 116.821 107.679 116.161 107.804 115.464C107.946 114.688 108.696 114.17 109.473 114.313C110.964 114.58 112.491 114.795 114 114.938C114.786 115.018 115.366 115.714 115.295 116.5C115.223 117.286 114.518 117.866 113.732 117.795C112.143 117.643 110.536 117.42 108.964 117.134C108.866 117.125 108.777 117.098 108.696 117.063ZM80.2947 102.714C80.1251 102.652 79.9643 102.554 79.8215 102.42C78.6608 101.321 77.5268 100.161 76.4643 98.9733C75.9376 98.384 75.9911 97.4733 76.5804 96.9465C77.1697 96.4197 78.0804 96.4643 78.6072 97.0625C79.6161 98.1965 80.6876 99.2947 81.7947 100.339C82.3751 100.884 82.3929 101.795 81.8572 102.366C81.4376 102.795 80.8215 102.92 80.2947 102.714ZM120.955 117.911C120.438 117.714 120.063 117.223 120.036 116.634C120 115.839 120.616 115.17 121.411 115.143C122.92 115.08 124.455 114.946 125.964 114.759C126.75 114.661 127.464 115.214 127.571 116C127.67 116.786 127.116 117.5 126.33 117.607C124.741 117.813 123.134 117.946 121.536 118.009C121.33 118.009 121.134 117.982 120.955 117.911ZM133.107 116.045C132.696 115.884 132.357 115.536 132.232 115.08C132.027 114.313 132.482 113.527 133.241 113.321C134.705 112.929 136.179 112.464 137.607 111.955C138.348 111.688 139.17 112.071 139.446 112.821C139.714 113.563 139.33 114.384 138.58 114.661C137.08 115.205 135.536 115.688 133.991 116.098C133.688 116.17 133.375 116.152 133.107 116.045ZM144.554 111.58C144.241 111.455 143.964 111.232 143.795 110.902C143.429 110.196 143.696 109.33 144.402 108.964C145.75 108.259 147.08 107.491 148.366 106.679C149.036 106.25 149.92 106.455 150.348 107.125C150.777 107.795 150.571 108.679 149.902 109.107C148.554 109.964 147.152 110.768 145.732 111.509C145.357 111.705 144.929 111.723 144.554 111.58ZM154.759 104.714C154.545 104.634 154.339 104.491 154.179 104.304C153.67 103.696 153.741 102.795 154.348 102.286C155.509 101.304 156.643 100.259 157.714 99.1876C158.277 98.6251 159.179 98.6251 159.741 99.1876C160.304 99.7501 160.304 100.652 159.741 101.214C158.616 102.348 157.42 103.446 156.196 104.473C155.786 104.821 155.232 104.902 154.759 104.714ZM163.214 95.7768C163.089 95.7322 162.973 95.6608 162.866 95.5804C162.232 95.1072 162.107 94.2054 162.58 93.5715C163.491 92.3572 164.366 91.0983 165.179 89.8126C165.598 89.1429 166.491 88.9465 167.161 89.3661C167.83 89.7858 168.036 90.6697 167.607 91.3483C166.759 92.7054 165.839 94.0358 164.875 95.3036C164.482 95.8304 163.795 96 163.214 95.7768ZM169.491 85.2143C169.464 85.2054 169.438 85.1965 169.411 85.1786C168.688 84.8483 168.375 84.0001 168.696 83.2768C169.161 82.259 169.598 81.2143 170 80.1697C170.143 79.7947 170.286 79.4108 170.42 79.0358C170.688 78.2858 171.509 77.9018 172.25 78.1697C173.009 78.4286 173.384 79.259 173.116 80.0001C172.973 80.4018 172.83 80.7947 172.67 81.1965C172.25 82.2947 171.786 83.3929 171.304 84.4643C171 85.1608 170.196 85.4822 169.491 85.2143Z" fill="#C6D1FF"/>
    <path d="M72.3215 93.3036C72.0536 93.2054 71.8125 93.0179 71.6429 92.7679C71.2054 92.125 70.7858 91.4554 70.375 90.7858C69.9643 90.1072 70.1697 89.2233 70.8483 88.8125C71.5268 88.4018 72.4018 88.6072 72.8215 89.2858C73.2143 89.9197 73.6161 90.5536 74.0268 91.1608C74.4733 91.8215 74.2947 92.7054 73.634 93.1518C73.2322 93.4286 72.7411 93.4643 72.3215 93.3036Z" fill="#C6D1FF"/>
    <path d="M80.0804 78.4643C80.1697 78.7322 80.4197 78.9197 80.7054 78.9286L88.8661 79.0357C90.8572 82.2857 93.375 85.2411 96.375 87.759L95.2768 95.8393C95.2411 96.125 95.384 96.4018 95.6429 96.5268L104.384 100.929C104.643 101.054 104.946 101.009 105.152 100.813L110.991 95.125C114.804 96.0447 118.679 96.3125 122.473 95.9732L127.411 102.464C127.58 102.688 127.884 102.786 128.152 102.696L137.446 99.634C137.714 99.5447 137.902 99.2947 137.911 99.009L138.018 90.8482C141.268 88.8572 144.223 86.3393 146.741 83.3304L154.821 84.4286C155.107 84.4643 155.384 84.3214 155.509 84.0625L159.911 75.3214C160.036 75.0625 159.991 74.7589 159.795 74.5536L154.107 68.7143C155.027 64.9018 155.295 61.0268 154.955 57.2322L161.446 52.2947C161.67 52.125 161.768 51.8214 161.679 51.5536L158.616 42.2589C158.527 41.9911 158.277 41.8036 157.991 41.7947L149.83 41.6875C147.839 38.4375 145.321 35.4822 142.321 32.9643L143.42 24.8839C143.455 24.5982 143.313 24.3214 143.054 24.1964L134.313 19.7947C134.054 19.6697 133.75 19.7143 133.545 19.9107L127.705 25.5982C123.893 24.6786 120.018 24.4107 116.223 24.75L111.286 18.2589C111.116 18.0357 110.813 17.9375 110.545 18.0268L101.25 21.0804C100.982 21.1697 100.795 21.4197 100.786 21.7054L100.679 29.8661C97.4286 31.8572 94.4733 34.375 91.9554 37.3839L83.875 36.2857C83.5893 36.25 83.3125 36.3929 83.1875 36.6518L78.7858 45.3929C78.6608 45.6518 78.7054 45.9554 78.9018 46.1607L84.5893 52C83.6697 55.8125 83.4018 59.6875 83.7411 63.4822L77.25 68.4197C77.0268 68.5893 76.9286 68.8929 77.0179 69.1607L80.0804 78.4643Z" fill="#869FFF"/>
    <path d="M110.938 82.8839C110.17 82.5893 109.411 82.25 108.661 81.875C108.429 81.7589 108.196 81.6339 107.964 81.5089C106.83 80.8928 105.741 80.1785 104.723 79.3928C104.705 79.3839 104.696 79.375 104.679 79.3571C104.643 79.3303 104.598 79.2946 104.563 79.2678C104.482 79.2053 104.411 79.1428 104.339 79.0893C104.143 78.9285 104.08 78.6607 104.161 78.4375C104.179 78.3839 104.214 78.3303 104.25 78.2857C104.446 78.0357 104.813 78 105.054 78.1964C106.321 79.2232 107.705 80.116 109.179 80.8571C116.473 84.5357 124.804 83.9553 131.348 80.0625C134.991 77.9018 138.08 74.7053 140.116 70.6518C140.473 69.9375 140.795 69.2143 141.071 68.4821C142.964 63.5446 143.098 58.1518 141.42 53.0625C139.491 47.2143 135.402 42.4732 129.911 39.7053C118.563 33.9821 104.688 38.5625 98.9643 49.9107C98.6161 50.6071 98.2947 51.3214 98.0179 52.0535C96.8125 55.2053 96.3125 58.5803 96.5536 61.9464C96.5625 62.0357 96.5447 62.116 96.5179 62.1964C96.4375 62.4018 96.25 62.5446 96.0268 62.5625C95.7143 62.5803 95.4375 62.3482 95.4108 62.0357C95.1518 58.5 95.6786 54.9553 96.9465 51.6518C97.2411 50.8928 97.5715 50.1428 97.9375 49.4018C103.938 37.491 118.518 32.6875 130.42 38.6875C136.188 41.5982 140.482 46.5803 142.5 52.7143C144.259 58.0535 144.116 63.7143 142.134 68.9018C141.839 69.6696 141.5 70.4285 141.125 71.1785C138.214 76.9464 133.232 81.241 127.098 83.2589C121.777 85.0089 116.116 84.866 110.938 82.8839Z" fill="#C6D1FF"/>
    <path d="M118.416 48.9195V62.0532L115.926 59.6085C115.561 59.2501 114.97 59.2511 114.606 59.6108C114.242 59.9705 114.243 60.5527 114.608 60.9111L118.729 64.9567C119.093 65.3143 119.683 65.3143 120.047 64.9567L124.168 60.9111C124.533 60.5527 124.534 59.9705 124.17 59.6108C123.806 59.2511 123.215 59.2501 122.85 59.6085L120.283 62.1291V48.9195C120.283 48.4117 119.865 48 119.349 48C118.834 48 118.416 48.4117 118.416 48.9195Z" fill="white"/>
    <path d="M106.867 61.7249C106.867 61.2171 106.449 60.8054 105.933 60.8054C105.418 60.8054 105 61.2171 105 61.7249V69.0805C105 69.5883 105.418 70 105.933 70H132.067C132.582 70 133 69.5883 133 69.0805V61.7249C133 61.2171 132.582 60.8054 132.067 60.8054C131.551 60.8054 131.133 61.2171 131.133 61.7249V68.1611H106.867V61.7249Z" fill="white"/>
    <path d="M243.696 82.0178C243.955 82.2767 244.027 82.6874 243.839 83.0267C243.491 83.6606 243.125 84.2946 242.741 84.9106C242.491 85.3124 241.964 85.4285 241.571 85.1785C241.17 84.9285 241.054 84.4017 241.304 84.0088C241.67 83.4285 242.018 82.8213 242.348 82.2142C242.571 81.8035 243.089 81.6517 243.5 81.8749C243.571 81.9196 243.643 81.9642 243.696 82.0178Z" fill="#C6D1FF"/>
    <path d="M240.054 87.4552C240.357 87.7588 240.393 88.2499 240.116 88.5892C239.33 89.5535 238.491 90.491 237.616 91.3749C237.429 91.5624 237.241 91.741 237.054 91.9285C236.714 92.2499 236.17 92.2142 235.848 91.9017C235.527 91.5624 235.536 91.0267 235.875 90.6963C236.054 90.5177 236.232 90.3481 236.411 90.1695C237.25 89.3302 238.054 88.4374 238.795 87.5177C239.089 87.1517 239.625 87.0981 239.991 87.3927C240.009 87.4195 240.036 87.4374 240.054 87.4552ZM233.687 93.5892C233.714 93.6159 233.741 93.6517 233.768 93.6784C234.054 94.0534 233.973 94.5892 233.598 94.8749C232.393 95.7767 231.116 96.616 229.821 97.366C229.411 97.5981 228.893 97.4552 228.661 97.0535C228.429 96.6427 228.571 96.1249 228.973 95.8927C230.214 95.1785 231.429 94.3749 232.58 93.5177C232.92 93.2499 233.393 93.2945 233.687 93.5892ZM226.027 97.982C226.107 98.0624 226.17 98.1517 226.214 98.2588C226.393 98.6963 226.187 99.1874 225.759 99.3749C224.366 99.9552 222.929 100.455 221.482 100.866C221.027 100.991 220.562 100.732 220.437 100.277C220.312 99.8213 220.571 99.357 221.027 99.232C222.411 98.8481 223.786 98.366 225.107 97.8124C225.42 97.6606 225.786 97.7499 226.027 97.982ZM217.518 100.366C217.643 100.491 217.732 100.652 217.759 100.839C217.83 101.303 217.509 101.741 217.045 101.803C215.554 102.027 214.036 102.161 212.527 102.196C212.054 102.205 211.67 101.839 211.652 101.366C211.643 100.893 212.009 100.509 212.482 100.491C213.911 100.455 215.366 100.33 216.786 100.116C217.062 100.08 217.33 100.178 217.518 100.366ZM208.679 100.598C208.857 100.768 208.946 101.018 208.929 101.286C208.884 101.75 208.464 102.098 208 102.053C206.5 101.911 205 101.67 203.527 101.339C203.071 101.241 202.777 100.786 202.884 100.321C202.982 99.866 203.437 99.5713 203.902 99.6785C205.304 99.991 206.741 100.223 208.17 100.357C208.366 100.366 208.545 100.464 208.679 100.598ZM200.062 98.6784C200.286 98.9017 200.375 99.2499 200.268 99.5713C200.107 100.018 199.625 100.241 199.179 100.089C197.759 99.5802 196.357 98.982 195.018 98.3124C194.598 98.0981 194.429 97.5892 194.643 97.1695C194.857 96.7499 195.366 96.5802 195.786 96.7945C197.062 97.4374 198.402 98.0088 199.75 98.491C199.875 98.5177 199.973 98.5892 200.062 98.6784ZM192.179 94.7052C192.464 94.9909 192.518 95.4374 192.286 95.7767C192.027 96.1695 191.491 96.2677 191.107 96.0088C189.857 95.1695 188.652 94.2499 187.509 93.2588C187.161 92.9463 187.116 92.4106 187.42 92.0624C187.723 91.7052 188.268 91.6695 188.616 91.9731C189.705 92.9195 190.857 93.7945 192.045 94.5981C192.098 94.6338 192.143 94.6695 192.179 94.7052ZM182.741 85.4552C182.777 85.491 182.812 85.5267 182.839 85.5713C183.554 86.5892 184.33 87.5802 185.161 88.5267C185.286 88.6695 185.411 88.8124 185.536 88.9463C185.848 89.2945 185.821 89.8302 185.473 90.1517C185.125 90.4642 184.571 90.4463 184.268 90.0892C184.134 89.9374 184 89.7945 183.875 89.6427C183.009 88.6517 182.196 87.616 181.446 86.5445C181.179 86.1606 181.268 85.6249 181.652 85.357C182 85.1249 182.455 85.1695 182.741 85.4552Z" fill="#C6D1FF"/>
    <path d="M237.134 39.0803C237.464 39.4107 237.464 39.9375 237.143 40.2768C236.812 40.616 236.277 40.625 235.937 40.2946C234.92 39.3125 233.839 38.375 232.714 37.5268C232.348 37.241 232.268 36.7053 232.553 36.3303C232.839 35.9553 233.375 35.8839 233.75 36.1696C234.92 37.0625 236.062 38.0357 237.134 39.0803C237.125 39.0714 237.134 39.0803 237.134 39.0803ZM240.071 42.2946C240.089 42.3125 240.116 42.3393 240.134 42.366C241.062 43.5178 241.937 44.741 242.723 45.991C242.973 46.3928 242.857 46.9107 242.455 47.1607C242.053 47.4107 241.536 47.2857 241.286 46.8928C240.536 45.6964 239.705 44.5357 238.812 43.4285C238.518 43.0625 238.571 42.5268 238.937 42.2321C239.277 41.9553 239.768 41.991 240.071 42.2946ZM230.214 33.8303C230.482 34.0982 230.545 34.5178 230.348 34.8571C230.116 35.2589 229.589 35.4018 229.187 35.1607C227.964 34.4464 226.687 33.8035 225.393 33.25C224.964 33.0625 224.759 32.5625 224.946 32.1339C225.134 31.7053 225.634 31.5 226.062 31.6875C227.42 32.2678 228.759 32.9464 230.045 33.6875C230.107 33.7321 230.161 33.7768 230.214 33.8303ZM244.678 49.6607C244.75 49.7321 244.803 49.8125 244.848 49.9018C245.473 51.2411 246.027 52.6428 246.491 54.0446C246.634 54.491 246.393 54.9732 245.946 55.116C245.5 55.2589 245.018 55.0178 244.875 54.5714C244.437 53.2321 243.911 51.9018 243.312 50.6161C243.116 50.1875 243.295 49.6875 243.723 49.4821C244.053 49.3393 244.437 49.4196 244.678 49.6607ZM222.223 30.4018C222.437 30.616 222.527 30.9375 222.437 31.241C222.303 31.6964 221.83 31.9553 221.384 31.8214C220.027 31.4285 218.634 31.1071 217.241 30.8839C216.777 30.8125 216.464 30.366 216.536 29.9107C216.616 29.4464 217.053 29.1339 217.509 29.2053C218.973 29.4464 220.428 29.7768 221.857 30.1875C222.009 30.2321 222.134 30.3035 222.223 30.4018ZM213.652 28.991C213.812 29.1518 213.911 29.3839 213.902 29.6339C213.884 30.1071 213.482 30.4643 213.018 30.4464C211.607 30.3839 210.17 30.4107 208.768 30.5268C208.295 30.5625 207.893 30.2143 207.848 29.741C207.812 29.2768 208.161 28.866 208.625 28.8303C210.098 28.7143 211.598 28.6875 213.08 28.75C213.312 28.7589 213.509 28.8482 213.652 28.991ZM204.991 29.6785C205.107 29.7946 205.187 29.9375 205.223 30.116C205.312 30.5803 205.018 31.0268 204.562 31.116C203.178 31.3928 201.795 31.7678 200.455 32.2143C200.009 32.366 199.527 32.125 199.375 31.6785C199.223 31.2321 199.464 30.75 199.911 30.5982C201.312 30.1339 202.759 29.741 204.214 29.4464C204.509 29.3928 204.795 29.4821 204.991 29.6785Z" fill="#C6D1FF"/>
    <path d="M247.384 57.9643C247.5 58.0803 247.58 58.2321 247.616 58.4018C247.759 59.1161 247.875 59.8393 247.973 60.5446C248.036 61.0089 247.705 61.4375 247.241 61.5C246.777 61.5625 246.348 61.2321 246.286 60.7678C246.196 60.0893 246.08 59.4018 245.946 58.7232C245.857 58.2589 246.161 57.8125 246.616 57.7232C246.911 57.6786 247.196 57.7678 247.384 57.9643Z" fill="#C6D1FF"/>
    <path d="M239.125 65.2499C239.143 65.0714 239.045 64.8928 238.875 64.8124L234.107 62.6249C233.786 60.1964 233.08 57.8035 231.964 55.5357L234.714 51.0714C234.812 50.9107 234.795 50.7142 234.679 50.5714L230.696 45.7053C230.58 45.5624 230.384 45.5089 230.214 45.5714L225.295 47.3928C223.295 45.8571 221.089 44.6874 218.768 43.9017L217.554 38.8035C217.509 38.6249 217.357 38.491 217.179 38.4732L210.92 37.8482C210.741 37.8303 210.562 37.9285 210.482 38.0982L208.295 42.866C205.866 43.1874 203.473 43.8928 201.205 45.0089L196.741 42.2589C196.58 42.1606 196.384 42.1785 196.241 42.2946L191.375 46.2767C191.232 46.3928 191.179 46.5892 191.241 46.7589L193.062 51.6785C191.527 53.6785 190.357 55.8839 189.571 58.2053L184.464 59.4196C184.286 59.4642 184.152 59.616 184.134 59.7946L183.509 66.0535C183.491 66.2321 183.589 66.4107 183.759 66.491L188.527 68.6785C188.848 71.1071 189.554 73.4999 190.67 75.7678L187.92 80.2321C187.821 80.3928 187.839 80.5892 187.955 80.7321L191.937 85.5982C192.054 85.741 192.25 85.7946 192.42 85.7321L197.339 83.9106C199.339 85.4464 201.545 86.616 203.866 87.4017L205.08 92.4999C205.125 92.6785 205.277 92.8124 205.455 92.8303L211.714 93.4553C211.893 93.4731 212.071 93.3749 212.152 93.2053L214.339 88.4374C216.768 88.116 219.161 87.4106 221.429 86.2946L225.893 89.0446C226.054 89.1428 226.25 89.1249 226.393 89.0089L231.259 85.0267C231.402 84.9106 231.455 84.7142 231.393 84.5446L229.571 79.6249C231.107 77.6249 232.277 75.4196 233.062 73.0982L238.161 71.8839C238.339 71.8392 238.473 71.6874 238.491 71.5089L239.125 65.2499Z" fill="#3A5EE6"/>
    <path d="M222.5 54.2857C222.884 54.6696 223.25 55.0714 223.598 55.491C224.286 56.3393 224.893 57.25 225.402 58.2143C225.429 58.2589 225.446 58.3035 225.473 58.3482C225.643 58.6875 225.571 59.0803 225.321 59.3393C225.259 59.4018 225.188 59.4553 225.107 59.5C224.688 59.7143 224.179 59.5446 223.964 59.1339C223.5 58.2321 222.938 57.375 222.295 56.5803C222.259 56.5357 222.223 56.491 222.188 56.4553C220.643 54.6071 218.688 53.2053 216.5 52.3393C215.313 51.866 214.054 51.5535 212.75 51.4196C212.741 51.4196 212.732 51.4196 212.714 51.4196C212.679 51.4196 212.652 51.4107 212.616 51.4107C208.804 51.0357 205.08 52.1607 202.116 54.5803C201.732 54.8928 201.366 55.2232 201.027 55.5714C198.705 57.9018 197.268 60.9285 196.938 64.25C196.563 68.0625 197.688 71.7857 200.107 74.75C202.536 77.7053 205.964 79.5535 209.777 79.9285C213.589 80.3035 217.313 79.1785 220.277 76.7589C220.652 76.4464 221.009 76.125 221.357 75.7768C222.839 74.2946 223.973 72.5 224.688 70.5178C224.732 70.3928 224.804 70.2946 224.884 70.2053C225.107 69.9821 225.455 69.8928 225.777 70.0089C226.214 70.1696 226.446 70.6518 226.295 71.0982C225.5 73.3125 224.232 75.3125 222.571 76.9732C222.188 77.3571 221.786 77.7232 221.366 78.0714C218.054 80.7857 213.884 82.0446 209.625 81.625C205.366 81.2053 201.527 79.1518 198.813 75.8303C196.098 72.5178 194.839 68.3482 195.259 64.0893C195.625 60.3839 197.232 56.991 199.83 54.3839C200.214 54 200.625 53.625 201.054 53.2768C207.455 47.991 216.75 48.5535 222.5 54.2857Z" fill="#C6D1FF"/>
    <g clipPath="url(#clip0_4666_49822)">
        <path d="M205.207 73.2395L216.854 61.4882L216.862 65.3549C216.863 65.7863 217.214 66.1354 217.645 66.1345C218.077 66.1336 218.426 65.783 218.425 65.3516L218.413 59.5924C218.413 59.5921 218.413 59.5917 218.413 59.5914C218.411 59.1605 218.06 58.8105 217.627 58.8128C217.627 58.8128 217.627 58.8128 217.626 58.8128L211.867 58.8524C211.436 58.8553 211.088 59.2074 211.091 59.639C211.094 60.0704 211.447 60.4178 211.878 60.4149L215.745 60.3883L204.098 72.1396C203.794 72.4461 203.796 72.9407 204.102 73.2445C204.409 73.5482 204.904 73.546 205.207 73.2395Z" fill="white"/>
    </g>
    <path d="M13.1071 131.839C12.7232 131.723 12.4375 131.366 12.4375 130.937C12.4375 130.143 12.4732 129.339 12.5179 128.545C12.5536 128.027 13 127.634 13.5089 127.67C14.0268 127.705 14.4196 128.152 14.3839 128.661C14.3393 129.42 14.3125 130.187 14.3036 130.946C14.3036 131.464 13.8839 131.884 13.3661 131.875C13.2768 131.884 13.1875 131.866 13.1071 131.839Z" fill="#C6D1FF"/>
    <path d="M13.8036 124.67C13.3482 124.536 13.0625 124.071 13.1518 123.598C13.4107 122.25 13.7411 120.911 14.125 119.598C14.2054 119.321 14.2947 119.045 14.3839 118.768C14.5447 118.277 15.0893 118.036 15.5625 118.161C16.0536 118.321 16.3214 118.848 16.1697 119.339C16.0804 119.607 16 119.866 15.9197 120.134C15.5447 121.384 15.2322 122.67 14.9911 123.946C14.8929 124.455 14.4018 124.786 13.8929 124.687C13.8661 124.687 13.8304 124.679 13.8036 124.67ZM16.7768 115.42C16.7322 115.411 16.6875 115.393 16.6518 115.375C16.1786 115.161 15.9822 114.598 16.1964 114.134C16.8929 112.625 17.6875 111.152 18.5625 109.75C18.8393 109.312 19.4107 109.179 19.8482 109.446C20.2857 109.723 20.4197 110.295 20.1518 110.732C19.3214 112.071 18.5625 113.482 17.8929 114.92C17.6964 115.339 17.2232 115.554 16.7768 115.42ZM21.9107 107.17C21.7947 107.134 21.6875 107.08 21.5893 107C21.1875 106.679 21.125 106.08 21.4554 105.679C22.5 104.393 23.6339 103.152 24.8304 102.009C25.2054 101.652 25.7947 101.661 26.1518 102.036C26.5089 102.411 26.5 103 26.125 103.357C24.9822 104.455 23.9018 105.634 22.9107 106.857C22.6607 107.161 22.2679 107.268 21.9107 107.17ZM28.9197 100.429C28.7322 100.375 28.5625 100.259 28.4375 100.089C28.125 99.6786 28.2143 99.0893 28.625 98.7768C29.9554 97.7857 31.3572 96.8661 32.7947 96.0446C33.2411 95.7857 33.8125 95.9464 34.0714 96.3928C34.3304 96.8393 34.1697 97.4107 33.7232 97.6696C32.3572 98.4553 31.0179 99.3303 29.75 100.277C29.5089 100.464 29.1964 100.509 28.9197 100.429ZM37.3661 95.5982C37.1072 95.5178 36.8839 95.3303 36.7679 95.0625C36.5714 94.5893 36.7947 94.0357 37.2679 93.8393C38.7947 93.1964 40.384 92.6518 41.9732 92.1964C42.4732 92.0536 42.9911 92.3482 43.125 92.8482C43.259 93.3482 42.9732 93.8661 42.4732 94C40.9554 94.4286 39.4464 94.9553 37.9822 95.5625C37.7857 95.6518 37.5625 95.6607 37.3661 95.5982ZM46.7143 92.9732C46.375 92.875 46.1161 92.5893 46.0536 92.2143C45.9732 91.7053 46.3304 91.2232 46.8393 91.1518C48.4732 90.9018 50.1429 90.75 51.8036 90.7053C52.3215 90.6964 52.75 91.0982 52.7679 91.6161C52.7857 92.1339 52.375 92.5625 51.8572 92.5803C50.2768 92.625 48.6875 92.7678 47.125 93C46.9822 93.0268 46.8482 93.0089 46.7143 92.9732ZM56.4286 92.7143C56.0089 92.5893 55.7232 92.1786 55.7679 91.7232C55.8214 91.2053 56.2768 90.8303 56.7947 90.8839C58.4375 91.0446 60.0982 91.3125 61.7143 91.6696C62.2143 91.7946 62.5357 92.2857 62.4197 92.7857C62.3036 93.2857 61.8036 93.6071 61.3036 93.4911C59.7589 93.1428 58.1786 92.8928 56.6072 92.7411C56.5447 92.7411 56.4822 92.7321 56.4286 92.7143ZM70.3839 96.7589C70.3304 96.7411 70.2768 96.7232 70.2322 96.6964C69.0089 96.0803 67.7411 95.5268 66.4464 95.0357C66.25 94.9643 66.0536 94.8928 65.8661 94.8214C65.375 94.6428 65.125 94.1161 65.2947 93.625C65.4643 93.1339 66.0089 92.8661 66.4911 93.0536C66.6964 93.125 66.9018 93.2053 67.1072 93.2768C68.4554 93.7857 69.7947 94.3661 71.0714 95.0089C71.5357 95.2411 71.7232 95.8036 71.4911 96.2678C71.2857 96.6964 70.8125 96.8839 70.3839 96.7589Z" fill="#C6D1FF"/>
    <path d="M41.8303 170.036C41.3393 169.893 41.0625 169.375 41.1964 168.884C41.3393 168.384 41.8571 168.098 42.3571 168.241C43.8571 168.67 45.3928 169.009 46.9196 169.25C47.4286 169.33 47.7768 169.813 47.6964 170.321C47.6161 170.83 47.1339 171.179 46.625 171.098C45.0178 170.848 43.4107 170.491 41.8393 170.045C41.8393 170.036 41.8393 170.036 41.8303 170.036ZM37.3125 168.455C37.2768 168.446 37.25 168.438 37.2143 168.42C35.7143 167.786 34.2321 167.063 32.8125 166.259C32.3661 166 32.2053 165.429 32.4643 164.982C32.7232 164.536 33.2946 164.375 33.7411 164.634C35.0893 165.402 36.5 166.098 37.9375 166.696C38.4107 166.893 38.6428 167.446 38.4375 167.92C38.2589 168.366 37.7678 168.589 37.3125 168.455ZM51.2768 171.527C50.875 171.411 50.5982 171.036 50.6071 170.598C50.625 170.08 51.0536 169.679 51.5714 169.696C53.125 169.75 54.6964 169.705 56.25 169.571C56.7678 169.527 57.2232 169.911 57.2678 170.42C57.3125 170.937 56.9286 171.393 56.4196 171.438C54.8036 171.58 53.1518 171.625 51.5178 171.571C51.4286 171.563 51.3482 171.545 51.2768 171.527ZM29 163.714C28.9018 163.688 28.8036 163.634 28.7053 163.571C27.3928 162.598 26.1339 161.536 24.9553 160.411C24.5803 160.054 24.5714 159.464 24.9286 159.089C25.2857 158.714 25.875 158.705 26.25 159.063C27.375 160.134 28.5803 161.152 29.8214 162.08C30.2321 162.393 30.3214 162.973 30.0089 163.393C29.7857 163.696 29.375 163.821 29 163.714ZM60.7946 170.679C60.4732 170.58 60.2232 170.321 60.1428 169.973C60.0357 169.464 60.3571 168.973 60.8661 168.866C62.3839 168.545 63.9018 168.125 65.375 167.616C65.8661 167.446 66.3928 167.705 66.5625 168.196C66.7321 168.688 66.4732 169.214 65.9821 169.384C64.4375 169.911 62.8482 170.357 61.2589 170.687C61.0982 170.732 60.9464 170.723 60.7946 170.679ZM69.8393 167.58C69.5982 167.509 69.3839 167.339 69.2678 167.089C69.0446 166.625 69.2321 166.063 69.7053 165.839C71.1071 165.161 72.4821 164.393 73.7857 163.554C74.2232 163.277 74.8036 163.402 75.0803 163.83C75.3571 164.268 75.2321 164.848 74.8036 165.125C73.4375 166.009 72 166.813 70.5268 167.527C70.2946 167.634 70.0536 167.643 69.8393 167.58ZM77.8839 162.402C77.7143 162.348 77.5536 162.25 77.4286 162.107C77.0982 161.705 77.1518 161.116 77.5536 160.786C78.75 159.795 79.9018 158.714 80.9643 157.589C81.3214 157.214 81.9107 157.196 82.2857 157.554C82.6607 157.911 82.6786 158.5 82.3214 158.875C81.2053 160.063 80 161.188 78.75 162.232C78.5 162.438 78.1696 162.491 77.8839 162.402Z" fill="#C6D1FF"/>
    <path d="M22.0625 157.08C21.8929 157.027 21.7322 156.929 21.6072 156.777C21.0982 156.161 20.6072 155.518 20.1429 154.884C19.8393 154.464 19.9375 153.884 20.3482 153.58C20.7679 153.277 21.3482 153.375 21.6518 153.786C22.0893 154.393 22.5625 155 23.0447 155.598C23.375 156 23.3125 156.589 22.9107 156.92C22.6697 157.107 22.3482 157.161 22.0625 157.08Z" fill="#C6D1FF"/>
    <path d="M26.2679 145.714C26.3483 145.902 26.5358 146.018 26.7322 146.009L32.4911 145.652C34.0625 147.839 36 149.786 38.259 151.402L37.9197 157.161C37.9108 157.366 38.0268 157.554 38.2143 157.625L44.6161 160.268C44.8036 160.348 45.0179 160.295 45.1518 160.143L48.9643 155.821C51.7054 156.268 54.4465 156.25 57.1072 155.804L60.9375 160.116C61.0715 160.268 61.2858 160.312 61.4733 160.241L67.8661 157.58C68.0536 157.5 68.1697 157.312 68.1608 157.116L67.8036 151.357C69.9911 149.786 71.9375 147.848 73.5536 145.589L79.3125 145.929C79.5179 145.937 79.7054 145.821 79.7768 145.634L82.4197 139.232C82.5 139.045 82.4465 138.83 82.2947 138.696L77.9733 134.884C78.4197 132.143 78.4018 129.402 77.9554 126.741L82.2679 122.911C82.4197 122.777 82.4643 122.562 82.3929 122.375L79.7322 115.982C79.6518 115.795 79.4643 115.679 79.2679 115.687L73.509 116.045C71.9375 113.857 70 111.911 67.7411 110.295L68.0804 104.536C68.0893 104.33 67.9733 104.143 67.7858 104.071L61.384 101.429C61.1965 101.348 60.9822 101.402 60.8483 101.554L57.0358 105.875C54.2947 105.429 51.5536 105.446 48.8929 105.893L45.0625 101.58C44.9286 101.429 44.7143 101.384 44.5268 101.455L38.134 104.116C37.9465 104.196 37.8304 104.384 37.8393 104.58L38.1965 110.339C36.009 111.911 34.0625 113.848 32.4465 116.107L26.6875 115.768C26.4822 115.759 26.2947 115.875 26.2233 116.062L23.5804 122.464C23.5 122.652 23.5536 122.866 23.7054 123L28.0268 126.812C27.5804 129.554 27.5983 132.295 28.0447 134.955L23.7322 138.786C23.5804 138.92 23.5358 139.134 23.6072 139.321L26.2679 145.714Z" fill="#3A5EE6"/>
    <path d="M48.0894 147.687C47.5179 147.518 46.9554 147.321 46.4019 147.089C45.2947 146.634 44.2233 146.062 43.2322 145.393C43.1876 145.366 43.1429 145.33 43.0983 145.304C42.759 145.071 42.6162 144.643 42.7322 144.268C42.759 144.179 42.8037 144.089 42.8572 144C43.1519 143.571 43.7322 143.473 44.1608 143.759C45.0804 144.393 46.0715 144.929 47.1072 145.357C47.1608 145.384 47.2233 145.402 47.2769 145.429C49.7412 146.42 52.3572 146.759 54.9287 146.455C56.3215 146.295 57.7055 145.937 59.0358 145.402C59.0447 145.402 59.0537 145.393 59.0715 145.393C59.1072 145.375 59.134 145.366 59.1697 145.348C63.0537 143.732 66.0804 140.696 67.6876 136.804C67.8929 136.304 68.0805 135.786 68.2322 135.277C69.268 131.812 69.0805 128.125 67.6697 124.741C66.0537 120.857 63.018 117.83 59.1251 116.223C55.2322 114.616 50.9465 114.625 47.0626 116.241C43.1787 117.857 40.1519 120.893 38.5447 124.786C38.3394 125.277 38.1608 125.786 38.009 126.295C37.3483 128.509 37.1787 130.839 37.5179 133.116C37.5358 133.259 37.5269 133.393 37.4912 133.527C37.3929 133.866 37.1072 134.134 36.7322 134.187C36.2233 134.259 35.7412 133.911 35.6697 133.402C35.2858 130.848 35.4733 128.241 36.2144 125.768C36.384 125.196 36.5804 124.634 36.8126 124.08C38.6072 119.723 41.9912 116.33 46.3483 114.518C50.6965 112.705 55.4912 112.696 59.8483 114.5C64.2054 116.295 67.5983 119.679 69.4019 124.036C70.9733 127.821 71.1876 131.946 70.0269 135.821C69.8572 136.393 69.6519 136.964 69.4197 137.536C65.9555 145.937 56.6519 150.241 48.0894 147.687Z" fill="#C6D1FF"/>
    <g clipPath="url(#clip1_4666_49822)">
        <path d="M58.0766 123.044L46.4297 134.796L46.4218 130.929C46.4209 130.498 46.0704 130.149 45.6389 130.149C45.2074 130.15 44.8584 130.501 44.8593 130.932L44.871 136.692C44.871 136.692 44.8711 136.692 44.8711 136.693C44.8725 137.123 45.2243 137.473 45.6566 137.471C45.6569 137.471 45.6572 137.471 45.6576 137.471L51.4166 137.432C51.848 137.429 52.1955 137.077 52.1925 136.645C52.1896 136.213 51.8374 135.866 51.406 135.869L47.5394 135.896L59.1864 124.144C59.4901 123.838 59.4879 123.343 59.1814 123.039C58.875 122.736 58.3803 122.738 58.0766 123.044Z" fill="white"/>
    </g>
    <path d="M116.179 187.571C115.473 187.634 114.821 187.161 114.688 186.446C114.384 184.893 114.143 183.312 113.973 181.732C113.893 180.964 114.446 180.277 115.214 180.187C115.223 180.187 115.232 180.187 115.241 180.187C116 180.116 116.67 180.67 116.759 181.429C116.92 182.929 117.152 184.437 117.438 185.911C117.589 186.67 117.089 187.402 116.33 187.554C116.277 187.562 116.223 187.562 116.179 187.571ZM115.188 175.429C115.134 175.437 115.08 175.437 115.018 175.437C114.25 175.42 113.634 174.768 113.661 174C113.705 172.411 113.821 170.812 114 169.25C114.089 168.482 114.777 167.937 115.545 168.018C116.313 168.107 116.866 168.795 116.777 169.562C116.607 171.054 116.5 172.571 116.455 174.08C116.438 174.795 115.884 175.366 115.188 175.429ZM116.893 163.375C116.741 163.393 116.58 163.375 116.42 163.339C115.67 163.143 115.223 162.384 115.42 161.634C115.813 160.098 116.286 158.571 116.813 157.071C117.071 156.339 117.866 155.964 118.598 156.214C119.33 156.473 119.705 157.268 119.455 158C118.955 159.42 118.509 160.875 118.134 162.33C117.964 162.92 117.464 163.321 116.893 163.375ZM121.25 152C120.991 152.027 120.732 151.973 120.482 151.848C119.795 151.491 119.527 150.652 119.884 149.964C120.616 148.562 121.411 147.17 122.259 145.83C122.67 145.179 123.536 144.982 124.188 145.393C124.839 145.804 125.036 146.67 124.625 147.321C123.821 148.589 123.063 149.911 122.366 151.25C122.134 151.687 121.705 151.955 121.25 152ZM128.036 141.884C127.679 141.92 127.304 141.812 127.009 141.562C126.42 141.062 126.348 140.179 126.848 139.589C127.866 138.384 128.955 137.205 130.08 136.089C130.625 135.545 131.509 135.545 132.054 136.089C132.598 136.634 132.598 137.518 132.054 138.062C130.982 139.125 129.955 140.25 128.982 141.393C128.732 141.687 128.384 141.848 128.036 141.884ZM136.884 133.518C136.42 133.562 135.946 133.366 135.643 132.964C135.179 132.348 135.304 131.473 135.92 131.009C137.188 130.054 138.509 129.152 139.848 128.304C140.5 127.893 141.366 128.089 141.777 128.741C142.188 129.393 141.991 130.259 141.339 130.67C140.063 131.473 138.813 132.33 137.607 133.241C137.384 133.411 137.143 133.5 136.884 133.518ZM187.625 125.652C187.429 125.67 187.232 125.643 187.036 125.58C185.616 125.08 184.161 124.643 182.705 124.268C181.955 124.071 181.509 123.312 181.696 122.562C181.884 121.812 182.652 121.366 183.402 121.554C184.938 121.946 186.473 122.411 187.964 122.937C188.696 123.196 189.08 123.991 188.821 124.723C188.625 125.25 188.152 125.607 187.625 125.652ZM147.366 127.33C146.786 127.384 146.214 127.071 145.964 126.509C145.652 125.804 145.964 124.973 146.67 124.661C148.116 124.018 149.607 123.42 151.098 122.902C151.83 122.652 152.625 123.036 152.875 123.759C153.125 124.491 152.741 125.286 152.018 125.536C150.598 126.027 149.188 126.589 147.813 127.205C147.67 127.277 147.518 127.312 147.366 127.33ZM175.75 122.937C175.661 122.946 175.563 122.946 175.464 122.937C173.973 122.768 172.446 122.661 170.946 122.625C170.179 122.607 169.563 121.964 169.589 121.187C169.607 120.42 170.25 119.804 171.027 119.83C172.607 119.875 174.214 119.982 175.786 120.161C176.554 120.25 177.107 120.937 177.018 121.705C176.938 122.375 176.393 122.884 175.75 122.937ZM158.964 123.634C158.259 123.696 157.607 123.223 157.473 122.509C157.321 121.75 157.813 121.018 158.571 120.866C160.125 120.562 161.705 120.312 163.286 120.143C163.295 120.143 163.304 120.143 163.313 120.143C164.071 120.071 164.741 120.625 164.821 121.384C164.902 122.152 164.357 122.839 163.589 122.929C162.089 123.098 160.589 123.321 159.116 123.616C159.071 123.625 159.018 123.634 158.964 123.634Z" fill="#C6D1FF"/>
    <path d="M196.554 129.723C196.277 129.75 195.991 129.687 195.741 129.545C195.116 129.187 194.473 128.839 193.83 128.5C193.143 128.143 192.875 127.304 193.232 126.616C193.589 125.929 194.429 125.661 195.116 126.018C195.795 126.366 196.473 126.741 197.134 127.116C197.804 127.5 198.036 128.357 197.652 129.027C197.411 129.437 196.991 129.687 196.554 129.723Z" fill="#C6D1FF"/>
    <path d="M222.384 163.634C221.714 163.696 221.08 163.259 220.902 162.58C220.723 161.884 220.527 161.178 220.321 160.482C220.098 159.741 220.527 158.964 221.259 158.741C222 158.518 222.777 158.946 223 159.678C223.214 160.411 223.42 161.152 223.607 161.893C223.795 162.643 223.339 163.402 222.598 163.589C222.527 163.616 222.455 163.625 222.384 163.634Z" fill="#C6D1FF"/>
    <path d="M174.5 231.268C173.857 231.321 173.214 231.375 172.571 231.411C171.804 231.455 171.143 230.866 171.098 230.089C171.054 229.321 171.652 228.652 172.42 228.616C173.911 228.536 175.402 228.393 176.857 228.187C177.625 228.08 178.33 228.616 178.438 229.384C178.545 230.152 178.009 230.857 177.241 230.964C176.33 231.08 175.411 231.187 174.5 231.268ZM165.188 231.312C165.107 231.321 165.027 231.321 164.946 231.312C163.393 231.187 161.821 230.991 160.286 230.741C159.527 230.616 159.009 229.893 159.134 229.134C159.259 228.375 159.982 227.857 160.741 227.982C162.196 228.223 163.688 228.402 165.17 228.527C165.938 228.589 166.509 229.259 166.455 230.036C166.393 230.714 165.848 231.25 165.188 231.312ZM184.429 229.437C183.768 229.5 183.143 229.08 182.964 228.429C182.759 227.687 183.188 226.911 183.929 226.705C185.348 226.304 186.777 225.839 188.161 225.312C188.884 225.045 189.688 225.411 189.964 226.125C190.232 226.848 189.866 227.652 189.152 227.929C187.688 228.482 186.196 228.973 184.696 229.393C184.607 229.42 184.518 229.429 184.429 229.437ZM153.411 229.036C153.232 229.054 153.054 229.036 152.875 228.973C151.384 228.509 149.902 227.973 148.455 227.393C147.741 227.098 147.393 226.286 147.688 225.571C147.982 224.857 148.795 224.509 149.509 224.804C150.875 225.357 152.295 225.866 153.705 226.304C154.446 226.536 154.857 227.312 154.625 228.054C154.455 228.616 153.964 228.991 153.411 229.036ZM195.527 224.929C194.991 224.973 194.446 224.705 194.17 224.205C193.804 223.527 194.054 222.679 194.732 222.312C196.027 221.607 197.313 220.839 198.554 220.027C199.196 219.607 200.063 219.786 200.491 220.429C200.911 221.071 200.732 221.937 200.089 222.366C198.786 223.223 197.429 224.036 196.063 224.777C195.902 224.857 195.714 224.911 195.527 224.929ZM205.366 218.089C204.938 218.125 204.491 217.964 204.188 217.616C203.679 217.036 203.741 216.152 204.321 215.643C205.438 214.67 206.527 213.634 207.554 212.58C208.089 212.027 208.973 212.009 209.527 212.554C210.08 213.089 210.098 213.973 209.554 214.527C208.473 215.643 207.321 216.732 206.152 217.75C205.929 217.955 205.652 218.062 205.366 218.089ZM213.482 209.277C213.152 209.304 212.813 209.223 212.527 209.009C211.902 208.554 211.768 207.679 212.232 207.054C213.107 205.857 213.946 204.616 214.723 203.357C215.125 202.696 215.991 202.491 216.643 202.893C217.304 203.295 217.509 204.161 217.107 204.812C216.295 206.134 215.411 207.446 214.491 208.705C214.241 209.045 213.866 209.241 213.482 209.277ZM219.482 198.893C219.259 198.911 219.018 198.875 218.795 198.777C218.089 198.464 217.768 197.643 218.08 196.937C218.679 195.58 219.223 194.187 219.696 192.786C219.946 192.054 220.741 191.661 221.473 191.911C222.205 192.161 222.598 192.955 222.348 193.687C221.848 195.161 221.268 196.634 220.643 198.062C220.429 198.545 219.973 198.848 219.482 198.893ZM223.054 187.446C222.929 187.455 222.795 187.455 222.661 187.429C221.902 187.286 221.411 186.545 221.554 185.795C221.83 184.348 222.054 182.866 222.214 181.393C222.295 180.625 222.991 180.071 223.75 180.152C224.518 180.232 225.071 180.92 224.991 181.687C224.821 183.241 224.589 184.795 224.295 186.321C224.179 186.946 223.661 187.393 223.054 187.446ZM224.027 175.509C224 175.509 223.973 175.509 223.938 175.518C223.17 175.536 222.527 174.929 222.5 174.161C222.473 173.071 222.402 171.973 222.313 170.884C222.277 170.491 222.241 170.098 222.196 169.714C222.107 168.946 222.661 168.259 223.429 168.17C224.205 168.071 224.884 168.634 224.973 169.402C225.018 169.812 225.063 170.223 225.098 170.634C225.196 171.777 225.268 172.929 225.304 174.08C225.321 174.821 224.759 175.437 224.027 175.509Z" fill="#C6D1FF"/>
    <path d="M142.402 224.214C142.125 224.241 141.839 224.178 141.58 224.036C140.929 223.661 140.268 223.259 139.616 222.848C138.964 222.437 138.768 221.571 139.188 220.92C139.598 220.268 140.464 220.071 141.116 220.491C141.732 220.884 142.357 221.259 142.982 221.616C143.652 222 143.884 222.857 143.491 223.527C143.25 223.928 142.839 224.17 142.402 224.214Z" fill="#C6D1FF"/>
    <path d="M142.839 207.893C143.036 208.089 143.33 208.143 143.589 208.027L150.777 204.625C153.911 206.625 157.384 208.134 161.089 209.045L163.589 216.589C163.679 216.857 163.92 217.036 164.205 217.036L173.741 217.152C174.018 217.152 174.268 216.982 174.366 216.723L177.045 209.241C180.777 208.411 184.286 206.991 187.464 205.062L194.571 208.634C194.821 208.759 195.125 208.714 195.321 208.518L202.143 201.857C202.339 201.661 202.393 201.366 202.277 201.107L198.875 193.92C200.875 190.786 202.384 187.312 203.295 183.607L210.839 181.107C211.107 181.018 211.286 180.777 211.286 180.491L211.402 170.955C211.402 170.678 211.232 170.428 210.964 170.33L203.482 167.652C202.652 163.92 201.232 160.411 199.304 157.232L202.875 150.125C203 149.875 202.955 149.571 202.759 149.375L196.098 142.553C195.902 142.357 195.607 142.303 195.348 142.42L188.161 145.821C185.027 143.821 181.554 142.312 177.848 141.402L175.348 133.857C175.259 133.589 175.018 133.411 174.732 133.411L165.196 133.295C164.92 133.295 164.67 133.464 164.571 133.723L161.893 141.205C158.161 142.036 154.652 143.455 151.473 145.384L144.366 141.812C144.116 141.687 143.813 141.732 143.616 141.928L136.795 148.589C136.598 148.786 136.545 149.08 136.661 149.339L140.063 156.527C138.063 159.661 136.554 163.134 135.643 166.839L128.098 169.339C127.83 169.428 127.652 169.67 127.652 169.955L127.536 179.491C127.536 179.768 127.705 180.018 127.964 180.116L135.446 182.795C136.277 186.527 137.696 190.036 139.625 193.214L136.054 200.321C135.929 200.571 135.973 200.875 136.17 201.071L142.839 207.893Z" fill="#869FFF"/>
    <path d="M171.75 198.544C170.946 198.616 170.143 198.652 169.33 198.634C169.071 198.634 168.821 198.625 168.563 198.616C167.304 198.562 166.045 198.402 164.813 198.152C164.795 198.152 164.777 198.143 164.759 198.143C164.714 198.134 164.661 198.125 164.616 198.116C164.527 198.098 164.429 198.071 164.339 198.053C164.098 198 163.929 197.794 163.911 197.562C163.902 197.509 163.911 197.446 163.92 197.384C163.991 197.08 164.286 196.893 164.589 196.964C166.143 197.321 167.741 197.509 169.339 197.527C177.295 197.625 184.348 193.545 188.42 187.33C190.679 183.875 192.018 179.759 192.071 175.33C192.08 174.553 192.054 173.786 191.982 173.018C191.527 167.884 189.33 163.107 185.679 159.366C181.491 155.071 175.875 152.669 169.875 152.598C157.482 152.455 147.295 162.402 147.152 174.786C147.143 175.553 147.17 176.312 147.241 177.062C147.536 180.339 148.536 183.509 150.196 186.348C150.241 186.42 150.268 186.5 150.268 186.58C150.286 186.786 150.188 187 149.991 187.116C149.723 187.268 149.384 187.178 149.223 186.911C147.482 183.928 146.429 180.598 146.116 177.161C146.045 176.366 146.018 175.571 146.027 174.768C146.179 161.768 156.893 151.321 169.884 151.473C176.179 151.544 182.071 154.071 186.473 158.58C190.304 162.5 192.607 167.518 193.089 172.911C193.161 173.714 193.196 174.518 193.179 175.339C193.107 181.634 190.58 187.527 186.071 191.928C182.161 195.768 177.143 198.062 171.75 198.544Z" fill="#F4F6FF"/>
    <path d="M182.995 175.992C182.964 175.272 182.259 174.697 180.897 174.282C179.84 173.966 178.498 173.775 177.048 173.744V168.216C177.043 168.123 177.017 168.035 176.97 167.957C176.825 167.33 176.126 166.823 174.888 166.45C173.722 166.098 172.199 165.906 170.598 165.906C169.003 165.906 167.495 166.098 166.35 166.45C165.413 166.74 164.289 167.279 164.289 168.206C164.289 168.263 164.294 168.32 164.304 168.377L164.361 170.739C160.994 170.097 157.746 172.309 157.109 175.671C157.036 176.054 157 176.437 157 176.826C157 180.245 159.782 183.027 163.201 183.027C164.625 183.027 166.003 182.54 167.107 181.638C168.076 181.866 169.215 181.991 170.422 182.001C170.686 183.436 173.795 184.094 176.69 184.094C178.286 184.094 179.793 183.897 180.938 183.54C181.876 183.25 183 182.706 183 181.778V176.09C183 176.059 183 176.023 182.995 175.992ZM175.965 171.081C175.965 171.148 175.716 171.506 174.592 171.848C173.541 172.164 172.085 172.35 170.604 172.35C169.324 172.35 168.07 172.216 167.076 171.962C167.06 171.956 167.05 171.956 167.034 171.951C166.542 171.563 165.998 171.252 165.413 171.034L165.377 169.574C165.734 169.755 166.107 169.9 166.496 170.004C167.62 170.33 169.075 170.506 170.604 170.506C172.199 170.506 173.727 170.314 174.893 169.962C175.281 169.848 175.659 169.698 176.017 169.511V170.869C175.96 170.941 175.965 171.008 175.965 171.081ZM166.661 167.45C167.708 167.128 169.106 166.947 170.598 166.947C172.08 166.947 173.536 167.128 174.587 167.45C175.711 167.792 175.96 168.144 175.96 168.211C175.96 168.284 175.706 168.641 174.582 168.978C173.53 169.294 172.08 169.475 170.598 169.475C169.169 169.475 167.811 169.309 166.78 169.009C165.667 168.688 165.356 168.335 165.33 168.221C165.33 168.211 165.325 168.211 165.325 168.211C165.33 168.113 165.568 167.781 166.661 167.45ZM166.677 180.649C164.568 182.566 161.3 182.416 159.383 180.307C157.466 178.199 157.616 174.93 159.725 173.013C160.673 172.148 161.916 171.672 163.201 171.672C163.719 171.672 164.232 171.749 164.729 171.9C166.527 172.459 167.879 173.951 168.262 175.79C168.329 176.132 168.366 176.484 168.366 176.831C168.371 178.287 167.754 179.67 166.677 180.649ZM167.993 180.763C168.412 180.25 168.749 179.675 168.987 179.059C169.428 179.095 169.883 179.121 170.36 179.126V179.219L170.391 180.975C169.588 180.965 168.785 180.893 167.993 180.763ZM169.376 176.215C169.676 176.235 169.992 176.246 170.313 176.251L170.344 178.085C169.982 178.08 169.624 178.064 169.283 178.038C169.36 177.639 169.402 177.23 169.402 176.826C169.402 176.624 169.391 176.422 169.376 176.215ZM170.65 175.22C170.635 175.22 170.614 175.22 170.598 175.22C170.101 175.22 169.619 175.199 169.174 175.168C168.977 174.474 168.666 173.821 168.246 173.241C169.024 173.34 169.806 173.391 170.593 173.391C172.194 173.391 173.722 173.2 174.888 172.848C175.276 172.734 175.649 172.583 176.007 172.402V173.759C173.784 173.821 171.5 174.288 170.65 175.22ZM171.334 176.044C171.334 176.039 171.334 176.033 171.339 176.023C171.386 175.883 171.754 175.541 172.826 175.241C173.831 174.956 175.141 174.8 176.519 174.8H176.607C178.089 174.8 179.54 174.971 180.596 175.293C181.7 175.624 181.959 175.966 181.964 176.044V176.049C181.959 176.127 181.7 176.484 180.55 176.826C179.488 177.142 178.089 177.313 176.613 177.313C175.183 177.313 173.826 177.147 172.795 176.852C171.681 176.531 171.375 176.173 171.344 176.064C171.334 176.044 171.334 176.044 171.334 176.044ZM180.638 182.555C179.591 182.882 178.187 183.063 176.696 183.063C175.198 183.063 173.8 182.887 172.764 182.571C171.671 182.234 171.443 181.887 171.443 181.809C171.443 181.804 171.443 181.804 171.443 181.799L171.417 180.297C171.831 180.499 172.261 180.654 172.707 180.768C173.795 181.053 175.178 181.214 176.597 181.214C178.198 181.214 179.716 181.022 180.876 180.67C181.254 180.556 181.617 180.406 181.964 180.229V181.784H181.969C181.969 181.856 181.731 182.214 180.638 182.555ZM181.974 178.743H181.969C181.969 178.795 181.938 178.857 181.938 178.914C181.938 178.986 181.695 179.338 180.576 179.68C179.514 180.002 178.099 180.178 176.602 180.178C173.732 180.178 171.8 179.53 171.396 179.028L171.391 178.592L171.37 177.401C171.733 177.582 172.111 177.727 172.5 177.836C173.624 178.163 175.079 178.339 176.607 178.339C178.182 178.339 179.685 178.152 180.84 177.81C181.234 177.701 181.612 177.551 181.974 177.365V178.743Z" fill="white"/>
    <path d="M76.75 247.804C73.8482 245.277 67.625 243.259 67.625 243.259L63.875 243.339C62.9196 244.411 62.4911 246.482 62.3125 247.786C63.0179 248.205 64.3393 248.58 66.7679 248.696C71.25 248.902 74.875 248.25 76.75 247.804Z" fill="url(#paint0_linear_4666_49822)"/>
    <path d="M76.75 247.803C74.875 248.25 71.25 248.911 66.7678 248.696C64.3393 248.58 63.0179 248.214 62.3125 247.786C62.2946 247.893 62.2857 247.991 62.2768 248.08C62.2143 248.616 62.5357 249.116 63.0536 249.268C66.4732 250.321 74.0089 249.982 76.9375 249.795C77.5625 249.759 77.8929 249.018 77.4911 248.536C77.2768 248.295 77.0268 248.045 76.75 247.803Z" fill="url(#paint1_linear_4666_49822)"/>
    <path d="M65.625 240.098L64.1786 243.08C64.1786 243.652 64.5804 244.152 65.1429 244.268C65.7232 244.393 66.4911 244.473 67.2411 244.286C67.7054 244.17 68.0536 243.768 68.1072 243.286L69.9286 240.089H65.625V240.098Z" fill="url(#paint2_linear_4666_49822)"/>
    <path d="M3.69642 240.652C2.60714 238.223 2.91964 237.134 0.758921 237.375C0.499992 237.402 0.285706 237.455 0.0982064 237.518C-0.0357222 237.92 -0.0446508 238.366 0.0982064 238.786C0.642849 240.357 1.06249 243.402 3.15178 246.045C3.58928 246.598 4.26785 246.92 4.97321 246.937L7.35714 246.973C5.10714 245.17 4.60714 242.67 3.69642 240.652Z" fill="url(#paint3_linear_4666_49822)"/>
    <path d="M7.51789 243.375C5.68753 242.089 5.73218 236.473 5.73218 236.473L2.91968 235.036L0.794678 236.571C0.464321 236.812 0.232178 237.152 0.107178 237.518C0.285749 237.455 0.508963 237.402 0.767892 237.375C2.92861 237.134 2.61611 238.223 3.70539 240.652C4.60718 242.67 5.10718 245.17 7.36611 246.973L9.00004 247C9.73218 247.009 10.1607 246.17 9.71432 245.589C9.15182 244.857 8.39289 243.991 7.51789 243.375Z" fill="url(#paint4_linear_4666_49822)"/>
    <path d="M5.75001 232.393L2.59822 235.036C2.38393 235.366 2.45536 235.812 2.76786 236.054C3.31251 236.482 4.25893 236.964 5.41072 236.464L8.86608 234.589L5.75001 232.393Z" fill="url(#paint5_linear_4666_49822)"/>
    <path d="M3.66072 233.696L6.24108 235.625C6.61608 235.973 7.55358 236.009 7.97323 235.714C12.2589 232.625 52.8929 213.946 60.9464 211.027L54.8036 198.125C54.8036 198.125 2.57144 232.696 3.66072 233.696Z" fill="url(#paint6_linear_4666_49822)"/>
    <path d="M86.1964 208.634C81.4018 206.062 68.0536 203.839 68.0536 203.839L52.5268 199.634C52.5268 199.634 48.2589 212.348 55.7321 214.643C63.2053 216.937 74 215.848 78.5268 215.25C78.5268 215.25 72.4732 219.598 65.2321 240.652C65.2321 240.652 67.6696 240.705 69.6518 241.17C69.6518 241.17 85.8214 221.045 87.5178 215.848C88.6428 212.429 90.2053 210.786 86.1964 208.634Z" fill="url(#paint7_linear_4666_49822)"/>
    <path d="M95.4911 166.696C92.1339 166.455 81.9286 168.679 81.9286 168.679L87.1697 172.991C87.1697 172.991 91.3036 171.982 94.0536 171.446C94.0536 171.446 100.848 167.08 95.4911 166.696Z" fill="url(#paint8_linear_4666_49822)"/>
    <path d="M107.491 169.75C107.491 169.75 102.991 173.929 100.259 175.062C97.5268 176.196 95.9285 177.437 94.2321 174.411C92.5357 171.384 93.1875 168.107 95.4553 165.661C95.4553 165.661 98.9285 161.848 100.857 161.75C102.786 161.643 107.491 169.75 107.491 169.75Z" fill="url(#paint9_linear_4666_49822)"/>
    <path d="M97.8303 166.054L97.9732 166.464C97.9732 166.464 100.83 163.571 101.955 164.839C103.08 166.098 106.321 171.527 108.839 172.062C111.268 172.58 113.464 170.58 113.625 168.705C113.634 168.589 113.545 168.482 113.429 168.464L113.125 168.42C112.92 168.393 112.857 168.125 113.027 168C113.187 167.884 113.143 167.625 112.946 167.589C112.187 167.42 110.812 166.732 109.312 164.107C107.179 160.384 104.643 158.321 101.875 159.223C101.696 159.277 101.536 159.125 101.58 158.946C101.652 158.589 101.571 158.089 100.83 157.652C99.5267 156.884 97.3035 158.17 96.1874 161.25C96.1339 161.393 95.9553 161.455 95.8303 161.366C95.3928 161.027 94.4999 160.616 94.1874 162.616C93.8749 164.652 94.3303 165.634 94.5624 165.982C94.6249 166.08 94.741 166.116 94.8482 166.071L97.2321 165.062C97.3571 165.009 97.4999 165.071 97.5446 165.196L97.8303 166.054Z" fill="url(#paint10_linear_4666_49822)"/>
    <path d="M97.3571 166.33C97.3571 166.33 100.437 164.259 98.9553 163.071C97.4731 161.884 95.4285 165.196 95.7321 166.464L97.3571 166.33Z" fill="url(#paint11_linear_4666_49822)"/>
    <path d="M125.446 179.536C125.446 179.536 127.982 180.438 128.446 178.929C128.911 177.42 127.607 173.402 128.438 172.848C129.268 172.295 130.696 169.518 130.241 168.259L129.205 169.241C129.205 169.241 129.911 166.92 129.134 165.929L127.17 170.982C127.17 170.973 124.563 176.982 125.446 179.536Z" fill="url(#paint12_linear_4666_49822)"/>
    <path d="M79.6876 169.5C79.6876 169.5 84.2054 164.518 94.0715 172.295C100.875 177.652 125.375 176.562 125.375 176.562C125.375 176.562 125.366 177.946 125.839 179.625C125.839 179.625 105.277 185.187 89.8393 181.411C89.8393 181.411 72.7858 200.741 71.4733 204.527C71.4733 204.527 60.3929 206.179 52.5358 199.625C52.5358 199.625 54.6429 193.089 61.4643 185.509C70.3215 175.679 79.6876 169.5 79.6876 169.5Z" fill="url(#paint13_linear_4666_49822)"/>
    <path d="M82.0536 179.464C81.9732 179.437 81.9286 179.348 81.9464 179.259C81.9732 179.17 82.0625 179.116 82.1518 179.143C82.2143 179.161 88.0268 180.795 88.9375 181.018C89.0268 181.045 89.0803 181.134 89.0625 181.223C89.0357 181.312 88.9464 181.366 88.8571 181.348C87.9375 181.116 82.1161 179.482 82.0625 179.473C82.0625 179.464 82.0625 179.464 82.0536 179.464Z" fill="url(#paint14_linear_4666_49822)"/>
    <defs>
        <linearGradient id="paint0_linear_4666_49822" x1="71.8089" y1="219.755" x2="70.7596" y2="232.646" gradientUnits="userSpaceOnUse">
            <stop stopColor="#09005D"/>
            <stop offset="1" stopColor="#1A0F91"/>
        </linearGradient>
        <linearGradient id="paint1_linear_4666_49822" x1="69.9435" y1="250.768" x2="70.0934" y2="231.132" gradientUnits="userSpaceOnUse">
            <stop stopColor="#09005D"/>
            <stop offset="1" stopColor="#1A0F91"/>
        </linearGradient>
        <linearGradient id="paint2_linear_4666_49822" x1="64.1783" y1="242.252" x2="69.9295" y2="242.252" gradientUnits="userSpaceOnUse">
            <stop stopColor="#FEBBBA"/>
            <stop offset="1" stopColor="#FF928E"/>
        </linearGradient>
        <linearGradient id="paint3_linear_4666_49822" x1="1.82762" y1="245.274" x2="13.8196" y2="226.237" gradientUnits="userSpaceOnUse">
            <stop stopColor="#09005D"/>
            <stop offset="1" stopColor="#1A0F91"/>
        </linearGradient>
        <linearGradient id="paint4_linear_4666_49822" x1="15.9002" y1="230.348" x2="7.95552" y2="238.742" gradientUnits="userSpaceOnUse">
            <stop stopColor="#09005D"/>
            <stop offset="1" stopColor="#1A0F91"/>
        </linearGradient>
        <linearGradient id="paint5_linear_4666_49822" x1="2.47505" y1="234.538" x2="8.86972" y2="234.538" gradientUnits="userSpaceOnUse">
            <stop stopColor="#FEBBBA"/>
            <stop offset="1" stopColor="#FF928E"/>
        </linearGradient>
        <linearGradient id="paint6_linear_4666_49822" x1="54.7462" y1="202.341" x2="8.64183" y2="243.238" gradientUnits="userSpaceOnUse">
            <stop stopColor="#09005D"/>
            <stop offset="1" stopColor="#1A0F91"/>
        </linearGradient>
        <linearGradient id="paint7_linear_4666_49822" x1="96.349" y1="254.82" x2="69.3684" y2="214.349" gradientUnits="userSpaceOnUse">
            <stop stopColor="#09005D"/>
            <stop offset="1" stopColor="#1A0F91"/>
        </linearGradient>
        <linearGradient id="paint8_linear_4666_49822" x1="106.98" y1="157.29" x2="84.9948" y2="172.08" gradientUnits="userSpaceOnUse">
            <stop stopColor="#FEBBBA"/>
            <stop offset="1" stopColor="#FF928E"/>
        </linearGradient>
        <linearGradient id="paint9_linear_4666_49822" x1="100.843" y1="176.38" x2="99.4438" y2="158.392" gradientUnits="userSpaceOnUse">
            <stop stopColor="#FEBBBA"/>
            <stop offset="1" stopColor="#FF928E"/>
        </linearGradient>
        <linearGradient id="paint10_linear_4666_49822" x1="107.706" y1="159.782" x2="96.4973" y2="177.168" gradientUnits="userSpaceOnUse">
            <stop stopColor="#09005D"/>
            <stop offset="1" stopColor="#1A0F91"/>
        </linearGradient>
        <linearGradient id="paint11_linear_4666_49822" x1="98.4287" y1="176.568" x2="97.0297" y2="158.58" gradientUnits="userSpaceOnUse">
            <stop stopColor="#FEBBBA"/>
            <stop offset="1" stopColor="#FF928E"/>
        </linearGradient>
        <linearGradient id="paint12_linear_4666_49822" x1="124.834" y1="179.174" x2="131.733" y2="167.457" gradientUnits="userSpaceOnUse">
            <stop stopColor="#FEBBBA"/>
            <stop offset="1" stopColor="#FF928E"/>
        </linearGradient>
        <linearGradient id="paint13_linear_4666_49822" x1="89.5666" y1="217.064" x2="88.9671" y2="174.093" gradientUnits="userSpaceOnUse">
            <stop stopColor="#FF928E"/>
            <stop offset="1" stopColor="#FE7062"/>
        </linearGradient>
        <linearGradient id="paint14_linear_4666_49822" x1="112.591" y1="130.638" x2="75.1158" y2="199.292" gradientUnits="userSpaceOnUse">
            <stop stopColor="#E1473D"/>
            <stop offset="1" stopColor="#E9605A"/>
        </linearGradient>
        <clipPath id="clip0_4666_49822">
            <rect width="20" height="20" fill="white" transform="translate(225.284 66.0789) rotate(134.744)"/>
        </clipPath>
        <clipPath id="clip1_4666_49822">
            <rect width="20" height="20" fill="white" transform="translate(38 130.205) rotate(-45.2556)"/>
        </clipPath>
    </defs>
</svg>