<svg width="350" height="232" viewBox="0 0 350 232" fill="none" xmlns="http://www.w3.org/2000/svg">
    <rect x="0.5" y="0.5" width="349" height="71" rx="7.5" stroke="#EBEBEB"/>
    <circle cx="39" cy="36" r="24" fill="#C3CEEB"/>
    <g clip-path="url(#clip0_18401_426545)">
        <path d="M47.746 26.0868L31.0687 42.9136L31.0574 37.3769C31.0561 36.7591 30.5543 36.2593 29.9364 36.2606C29.3186 36.2619 28.8188 36.7638 28.82 37.3816L28.8369 45.6282C28.8368 45.6287 28.8369 45.6292 28.8369 45.6297C28.839 46.2467 29.3427 46.7479 29.9617 46.7446C29.9622 46.7445 29.9627 46.7446 29.9631 46.7446L38.2096 46.6879C38.8273 46.6836 39.3248 46.1795 39.3206 45.5615C39.3163 44.9437 38.8121 44.4463 38.1943 44.4505L32.6578 44.4886L49.3351 27.6618C49.77 27.223 49.7669 26.5147 49.328 26.0798C48.8892 25.6449 48.1809 25.648 47.746 26.0868Z" fill="white"/>
    </g>
    <rect x="75" y="25" width="66" height="8" rx="4" fill="#67A5EB"/>
    <rect x="75" y="42" width="44" height="5" rx="2.5" fill="#C3CEEB"/>
    <rect x="260" y="28" width="73" height="5" rx="2.5" fill="#67A5EB"/>
    <rect x="289" y="42" width="44" height="5" rx="2.5" fill="#C3CEEB"/>
    <rect x="0.5" y="80.5" width="349" height="71" rx="7.5" stroke="#EBEBEB"/>
    <circle cx="39" cy="116" r="24" fill="#C3CEEB"/>
    <rect x="75" y="105" width="66" height="8" rx="4" fill="#67A5EB"/>
    <rect x="75" y="122" width="44" height="5" rx="2.5" fill="#C3CEEB"/>
    <rect x="260" y="108" width="73" height="5" rx="2.5" fill="#67A5EB"/>
    <rect x="289" y="122" width="44" height="5" rx="2.5" fill="#C3CEEB"/>
    <g clip-path="url(#clip1_18401_426545)">
        <path d="M30.8595 126.5L47.3586 109.498L47.4282 115.035C47.436 115.653 47.9431 116.147 48.5609 116.139C49.1787 116.131 49.6732 115.624 49.6654 115.006L49.5617 106.761C49.5617 106.76 49.5616 106.76 49.5616 106.759C49.553 106.142 49.0441 105.646 48.4252 105.656C48.4247 105.656 48.4242 105.656 48.4237 105.656L40.1784 105.8C39.5607 105.81 39.0685 106.32 39.0793 106.938C39.09 107.555 39.5995 108.047 40.2172 108.037L45.753 107.94L29.2539 124.942C28.8236 125.385 28.8342 126.093 29.2776 126.524C29.721 126.954 30.4292 126.943 30.8595 126.5Z" fill="white"/>
    </g>
    <rect x="0.5" y="160.5" width="349" height="71" rx="7.5" stroke="#EBEBEB"/>
    <circle cx="39" cy="196" r="24" fill="#C3CEEB"/>
    <rect x="75" y="185" width="66" height="8" rx="4" fill="#67A5EB"/>
    <rect x="75" y="202" width="44" height="5" rx="2.5" fill="#C3CEEB"/>
    <rect x="260" y="188" width="73" height="5" rx="2.5" fill="#67A5EB"/>
    <rect x="289" y="202" width="44" height="5" rx="2.5" fill="#C3CEEB"/>
    <path d="M38.4159 184.919V198.053L35.9257 195.609C35.5606 195.25 34.9696 195.251 34.6058 195.611C34.2419 195.971 34.2429 196.553 34.6081 196.911L38.7291 200.957C39.0933 201.314 39.6825 201.314 40.0467 200.957L44.1678 196.911C44.5329 196.553 44.534 195.971 44.1701 195.611C43.8063 195.251 43.2153 195.25 42.8502 195.609L40.2826 198.129V184.919C40.2826 184.412 39.8647 184 39.3493 184C38.8338 184 38.4159 184.412 38.4159 184.919Z" fill="white"/>
    <path d="M26.8667 197.725C26.8667 197.217 26.4488 196.805 25.9333 196.805C25.4179 196.805 25 197.217 25 197.725V205.081C25 205.588 25.4179 206 25.9333 206H52.0667C52.5821 206 53 205.588 53 205.081V197.725C53 197.217 52.5821 196.805 52.0667 196.805C51.5512 196.805 51.1333 197.217 51.1333 197.725V204.161H26.8667V197.725Z" fill="white"/>
    <defs>
        <clipPath id="clip0_18401_426545">
            <rect width="28.6381" height="28.6381" fill="white" transform="translate(19 36.3403) rotate(-45.2556)"/>
        </clipPath>
        <clipPath id="clip1_18401_426545">
            <rect width="28.6381" height="28.6381" fill="white" transform="translate(59.4961 115.944) rotate(134.141)"/>
        </clipPath>
    </defs>
</svg>