<svg viewBox="0 0 24 24" xmlns="http://www.w3.org/2000/svg">
    <path d="M17.6484 0.351601C17.5372 0.23995 17.4049 0.151405 17.2593 0.0910625C17.1137 0.0307202 16.9576 -0.000227339 16.8 1.25721e-06H7.2C7.04239 -0.000227339 6.88629 0.0307202 6.74068 0.0910625C6.59508 0.151405 6.46285 0.23995 6.3516 0.351601L0.351601 6.3516C0.23995 6.46285 0.151405 6.59508 0.0910625 6.74068C0.0307202 6.88629 -0.000227339 7.04239 1.25721e-06 7.2V16.8C1.25721e-06 17.1192 0.126001 17.424 0.351601 17.6484L6.3516 23.6484C6.46285 23.7601 6.59508 23.8486 6.74068 23.9089C6.88629 23.9693 7.04239 24.0002 7.2 24H16.8C17.1192 24 17.424 23.874 17.6484 23.6484L23.6484 17.6484C23.7601 17.5372 23.8486 17.4049 23.9089 17.2593C23.9693 17.1137 24.0002 16.9576 24 16.8V7.2C24.0002 7.04239 23.9693 6.88629 23.9089 6.74068C23.8486 6.59508 23.7601 6.46285 23.6484 6.3516L17.6484 0.351601ZM13.2 18H10.8V15.6H13.2V18ZM13.2 13.2H10.8V6H13.2V13.2Z"/>
</svg>
