<svg viewBox="0 0 26 26" xmlns="http://www.w3.org/2000/svg">
    <path d="M12.5411 4.72243V15.0418L10.5845 13.121C10.2976 12.8394 9.83327 12.8402 9.54738 13.1228C9.2615 13.4054 9.26231 13.8628 9.5492 14.1445L12.7872 17.3232C13.0733 17.6041 13.5363 17.6041 13.8224 17.3232L17.0604 14.1445C17.3473 13.8628 17.3481 13.4054 17.0622 13.1228C16.7763 12.8402 16.312 12.8394 16.0251 13.121L14.0078 15.1014V4.72243C14.0078 4.32344 13.6794 4 13.2744 4C12.8694 4 12.5411 4.32344 12.5411 4.72243Z"/>
    <path d="M3.46667 14.7838C3.46667 14.3848 3.13834 14.0614 2.73333 14.0614C2.32832 14.0614 2 14.3848 2 14.7838V20.5633C2 20.9623 2.32832 21.2857 2.73333 21.2857H23.2667C23.6717 21.2857 24 20.9623 24 20.5633V14.7838C24 14.3848 23.6717 14.0614 23.2667 14.0614C22.8617 14.0614 22.5333 14.3848 22.5333 14.7838V19.8408H3.46667V14.7838Z"/>
</svg>   