<svg viewBox="0 0 30 30" xmlns="http://www.w3.org/2000/svg">
    <path d="M22.9139 3.825C23.5206 3.825 24.0125 4.33987 24.0125 4.975V9C24.0125 9.63513 23.5206 10.15 22.9139 10.15H19.0691C18.4624 10.15 17.9706 9.63513 17.9706 9C17.9706 8.36487 18.4624 7.85 19.0691 7.85H20.4882C18.9383 6.41768 16.9033 5.55 14.675 5.55C10.1522 5.55 6.4261 9.12763 5.94049 13.7264C5.87383 14.3576 5.33095 14.8128 4.72792 14.743C4.1249 14.6733 3.69009 14.1049 3.75675 13.4736C4.36405 7.72249 9.01985 3.25 14.675 3.25C17.4016 3.25 19.8958 4.29038 21.8154 6.01067V4.975C21.8154 4.33987 22.3072 3.825 22.9139 3.825Z"/>
    <path d="M24.6221 14.757C25.2251 14.8267 25.6599 15.3951 25.5933 16.0264C24.986 21.7775 20.3302 26.25 14.675 26.25C11.9484 26.25 9.4542 25.2096 7.53459 23.4893V24.525C7.53459 25.1601 7.04276 25.675 6.43606 25.675C5.82937 25.675 5.33754 25.1601 5.33754 24.525V20.5C5.33754 19.8649 5.82937 19.35 6.43606 19.35H10.2809C10.8876 19.35 11.3794 19.8649 11.3794 20.5C11.3794 21.1351 10.8876 21.65 10.2809 21.65H8.86179C10.4117 23.0823 12.4467 23.95 14.675 23.95C19.1978 23.95 22.9239 20.3724 23.4095 15.7736C23.4762 15.1424 24.0191 14.6872 24.6221 14.757Z"/>
</svg>