 <svg viewBox="0 0 26 26" xmlns="http://www.w3.org/2000/svg">
    <path d="M21.4219 2H4.57812C3.15655 2 2 3.15655 2 4.57812V8.01562H3.71875V4.57812C3.71875 4.10427 4.10427 3.71875 4.57812 3.71875H21.4219C21.8957 3.71875 22.2812 4.10427 22.2812 4.57812V21.4219C22.2812 21.8957 21.8957 22.2812 21.4219 22.2812H4.57812C4.10427 22.2812 3.71875 21.8957 3.71875 21.4219V17.9844H2V21.4219C2 22.8435 3.15655 24 4.57812 24H21.4219C22.8435 24 24 22.8435 24 21.4219V4.57812C24 3.15655 22.8435 2 21.4219 2Z"/>
    <path d="M12.3125 7.65967L11.0972 8.875L14.3628 12.1406H2V13.8594H14.3628L11.0972 17.125L12.3125 18.3403L17.6528 13L12.3125 7.65967Z"/>
</svg>  