<svg viewBox="0 0 26 26" xmlns="http://www.w3.org/2000/svg">
<path d="M26 18.8005V9.95381C26 9.20717 25.3926 8.59973 24.6459 8.59973H22.8405V9.50245H24.6459C24.8948 9.50245 25.0973 9.70493 25.0973 9.95381V18.8005C25.0973 19.0493 24.8948 19.2518 24.6459 19.2518H15.7993C15.5504 19.2518 15.3479 19.0493 15.3479 18.8005V9.95381C15.3479 9.70493 15.5504 9.50245 15.7993 9.50245H17.6047V8.59973H15.7993C15.0526 8.59973 14.4452 9.20717 14.4452 9.95381V18.8005C14.4452 19.5471 15.0526 20.1545 15.7993 20.1545H24.6459C25.3926 20.1545 26 19.5471 26 18.8005Z"/>
<path d="M11.5547 18.8005V9.95381C11.5547 9.20717 10.9472 8.59973 10.2006 8.59973H8.39517V9.50245H10.2006C10.4495 9.50245 10.652 9.70493 10.652 9.95381V18.8005C10.652 19.0493 10.4495 19.2518 10.2006 19.2518H1.35396C1.10509 19.2518 0.902605 19.0493 0.902605 18.8005V9.95381C0.902605 9.70493 1.10509 9.50245 1.35396 9.50245H3.1594V8.59973H1.35396C0.607326 8.59973 -0.000113487 9.20717 -0.000113487 9.95381V18.8005C-0.000113487 19.5471 0.607326 20.1545 1.35396 20.1545H10.2006C10.9472 20.1545 11.5547 19.5471 11.5547 18.8005Z"/>
<path d="M23.1797 12.0622L22.4653 11.3477L20.5456 13.2674V6H19.5352V13.2674L17.6155 11.3477L16.9011 12.0622L20.0404 15.2015L23.1797 12.0622Z"/>
<path fill-rule="evenodd" clip-rule="evenodd" d="M19.5008 13.7995L19.5008 6L20.3008 6L20.3008 13.7995L19.5008 13.7995Z"/>
<path fill-rule="evenodd" clip-rule="evenodd" d="M5.20288 6.00005L19.502 6.00005L19.502 6.80005L5.20288 6.80005L5.20288 6.00005Z"/>
<path fill-rule="evenodd" clip-rule="evenodd" d="M5.20195 12.4996L5.20195 6L6.00195 6L6.00195 12.4996L5.20195 12.4996Z"/>
</svg>
