<svg viewBox="0 0 26 26" xmlns="http://www.w3.org/2000/svg">
    <path d="M12.787 4.2107C13.0732 3.92977 13.5361 3.92977 13.8223 4.2107L17.0602 7.38938C17.3471 7.67102 17.3479 8.12843 17.0621 8.41105C16.7762 8.69367 16.3119 8.69447 16.025 8.41284L14.0683 6.49204L14.0683 16.8113C14.0683 17.2103 13.74 17.5338 13.335 17.5338C12.93 17.5338 12.6017 17.2103 12.6017 16.8113L12.6017 6.4324L10.5843 8.41284C10.2974 8.69447 9.8331 8.69367 9.54722 8.41105C9.26133 8.12843 9.26215 7.67102 9.54903 7.38939L12.787 4.2107Z"/>
    <path d="M3.46667 14.7839C3.46667 14.3849 3.13834 14.0614 2.73333 14.0614C2.32832 14.0614 2 14.3849 2 14.7839V20.5633C2 20.9623 2.32832 21.2857 2.73333 21.2857H23.2667C23.6717 21.2857 24 20.9623 24 20.5633V14.7839C24 14.3849 23.6717 14.0614 23.2667 14.0614C22.8617 14.0614 22.5333 14.3849 22.5333 14.7839V19.8409H3.46667V14.7839Z"/>
</svg>  