<svg viewBox="0 0 21 18" xmlns="http://www.w3.org/2000/svg">
    <path d="M17.6262 7.86395L13.7773 11.8162C13.603 11.9947 13.501 12.2344 13.4917 12.487C13.4825 12.7396 13.5667 12.9864 13.7275 13.1779C13.8882 13.3693 14.1136 13.4912 14.3583 13.5189C14.603 13.5467 14.8489 13.4783 15.0464 13.3275L15.1555 13.2301L20.6658 7.57183C20.8311 7.40237 20.9317 7.17754 20.9491 6.93833C20.9665 6.69912 20.8996 6.46145 20.7606 6.26864L20.6658 6.15659L15.1555 0.49697C14.9822 0.315683 14.7482 0.20891 14.501 0.198319C14.2538 0.187728 14.0119 0.274114 13.8245 0.439944C13.637 0.605774 13.5181 0.838625 13.4917 1.09124C13.4653 1.34386 13.5335 1.59731 13.6825 1.80016L13.7773 1.91221L17.6262 5.86314H10.235C7.62043 5.86317 5.10841 6.90776 3.23051 8.77586C1.35261 10.644 0.256157 13.189 0.173165 15.8725L0.167969 16.202C0.167969 16.4673 0.270611 16.7218 0.453314 16.9094C0.636018 17.097 0.883818 17.2024 1.1422 17.2024C1.40058 17.2024 1.64838 17.097 1.83109 16.9094C2.01379 16.7218 2.11643 16.4673 2.11643 16.202C2.11635 14.044 2.93117 11.9701 4.38953 10.4163C5.8479 8.86257 7.83618 7.95003 9.93626 7.87062L10.235 7.86395H17.6262Z"/>
</svg>