<svg viewBox="0 0 20 17" xmlns="http://www.w3.org/2000/svg">
<g clip-path="url(#clip0_14923_120600)">
<path d="M12.4922 5.99219H1.73779L3.5193 4.21931C3.71809 4.02147 3.71885 3.69995 3.521 3.50116C3.32316 3.30235 3.00161 3.30162 2.80283 3.49944L0.149408 6.14006C0.14923 6.14022 0.149103 6.14039 0.148951 6.14055C-0.0493244 6.33839 -0.0499591 6.66095 0.1489 6.85946C0.149078 6.85961 0.149205 6.85979 0.149357 6.85994L2.80278 9.50056C3.00154 9.69836 3.32308 9.69767 3.52095 9.49884C3.7188 9.30005 3.71804 8.97853 3.51925 8.78069L1.73779 7.00781H12.4922C12.7727 7.00781 13 6.78047 13 6.5C13 6.21954 12.7727 5.99219 12.4922 5.99219Z"/>
</g>
<g clip-path="url(#clip1_14923_120600)">
<path d="M6.74218 10.2871L17.4966 10.2871L15.7151 12.06C15.5163 12.2578 15.5155 12.5794 15.7134 12.7781C15.9112 12.9769 16.2328 12.9777 16.4315 12.7799L19.085 10.1392C19.0851 10.1391 19.0853 10.1389 19.0854 10.1388C19.2837 9.94091 19.2843 9.61835 19.0855 9.41984C19.0853 9.41969 19.0852 9.41951 19.085 9.41936L16.4316 6.77873C16.2328 6.58094 15.9113 6.58162 15.7134 6.78046C15.5156 6.97924 15.5163 7.30076 15.7151 7.49861L17.4966 9.27148L6.74218 9.27148C6.46171 9.27148 6.23436 9.49883 6.23436 9.7793C6.23436 10.0598 6.46171 10.2871 6.74218 10.2871Z" />
</g>
<defs>
<clipPath id="clip0_14923_120600">
<rect width="13" height="13" fill="white"/>
</clipPath>
<clipPath id="clip1_14923_120600">
<rect width="13" height="13" fill="white" transform="translate(19.2344 16.2793) rotate(-180)"/>
</clipPath>
</defs>
</svg>