<svg viewBox="0 0 30 30" xmlns="http://www.w3.org/2000/svg">
    <path d="M26.375 5.25C26.375 4.81902 26.2038 4.4057 25.899 4.10095C25.5943 3.7962 25.181 3.625 24.75 3.625H5.25C4.81902 3.625 4.4057 3.7962 4.10095 4.10095C3.7962 4.4057 3.625 4.81902 3.625 5.25V24.75C3.625 25.181 3.7962 25.5943 4.10095 25.899C4.4057 26.2038 4.81902 26.375 5.25 26.375H24.75C25.181 26.375 25.5943 26.2038 25.899 25.899C26.2038 25.5943 26.375 25.181 26.375 24.75V5.25ZM2 5.25C2 4.38805 2.34241 3.5614 2.9519 2.9519C3.5614 2.34241 4.38805 2 5.25 2H24.75C25.612 2 26.4386 2.34241 27.0481 2.9519C27.6576 3.5614 28 4.38805 28 5.25V24.75C28 25.612 27.6576 26.4386 27.0481 27.0481C26.4386 27.6576 25.612 28 24.75 28H5.25C4.38805 28 3.5614 27.6576 2.9519 27.0481C2.34241 26.4386 2 25.612 2 24.75V5.25ZM18.406 10.3622C18.5586 10.2099 18.7654 10.1244 18.981 10.1245C19.1966 10.1247 19.4033 10.2105 19.5557 10.3631C19.708 10.5156 19.7935 10.7225 19.7934 10.9381C19.7932 11.1537 19.7074 11.3604 19.5549 11.5128L12.8989 18.1687H17.3969C17.6124 18.1687 17.819 18.2544 17.9714 18.4067C18.1238 18.5591 18.2094 18.7658 18.2094 18.9812C18.2094 19.1967 18.1238 19.4034 17.9714 19.5558C17.819 19.7081 17.6124 19.7937 17.3969 19.7937H10.9375C10.722 19.7937 10.5153 19.7081 10.363 19.5558C10.2106 19.4034 10.125 19.1967 10.125 18.9812V12.5219C10.125 12.3064 10.2106 12.0997 10.363 11.9474C10.5153 11.795 10.722 11.7094 10.9375 11.7094C11.153 11.7094 11.3597 11.795 11.512 11.9474C11.6644 12.0997 11.75 12.3064 11.75 12.5219V17.0199L18.406 10.3622Z"/>
</svg>