<svg viewBox="0 0 26 26" xmlns="http://www.w3.org/2000/svg">
    <path d="M12.8831 22.0908C8.4862 22.0908 4.90918 18.5138 4.90918 14.1169C4.90918 13.5898 4.4818 13.1624 3.95459 13.1624C3.42742 13.1624 3 13.5898 3 14.1169C3 19.5665 7.43349 24 12.883 24C18.3326 24 22.7661 19.5665 22.7661 14.1169C22.7661 9.25203 19.2319 5.19934 14.5966 4.38554C14.3889 4.34902 14.2194 4.1559 14.2194 3.94502V2.21033C14.2194 1.9994 14.0871 1.93668 13.9238 2.07003L10.404 4.94677C10.2407 5.08029 10.2407 5.29654 10.404 5.43006L13.9238 8.3068C14.0871 8.44032 14.2194 8.37743 14.2194 8.16655V6.63908C14.2194 6.4282 14.3884 6.28486 14.5943 6.33016C18.1712 7.11559 20.857 10.3076 20.857 14.1169C20.8569 18.5138 17.2799 22.0908 12.8831 22.0908Z"/>
</svg>