<svg viewBox="0 0 17 17" xmlns="http://www.w3.org/2000/svg">
    <path d="M15.0851 0.748813L2.27347 13.6753L2.26482 9.42194C2.26383 8.94732 1.87828 8.56337 1.40366 8.56437C0.929004 8.56533 0.545063 8.95094 0.546026 9.42553L0.558975 15.7606C0.558946 15.761 0.559009 15.7614 0.55901 15.7617C0.560609 16.2358 0.947562 16.6208 1.42306 16.6182C1.42345 16.6182 1.42382 16.6183 1.42418 16.6183L7.75913 16.5747C8.23365 16.5714 8.61589 16.1841 8.61261 15.7094C8.60937 15.2348 8.222 14.8527 7.74739 14.8559L3.49422 14.8852L16.3059 1.95872C16.64 1.62161 16.6375 1.07751 16.3004 0.743392C15.9633 0.409277 15.4192 0.411702 15.0851 0.748813Z"/>
</svg>
