<svg viewBox="0 0 18 16" xmlns="http://www.w3.org/2000/svg">
    <path d="M14 7.5625V14.5C14 14.9167 13.8542 15.2708 13.5625 15.5625C13.2708 15.8542 12.9167 16 12.5 16H1.5C1.08333 16 0.729167 15.8542 0.4375 15.5625C0.145833 15.2708 0 14.9167 0 14.5V3.5C0 3.08333 0.145833 2.72917 0.4375 2.4375C0.729167 2.14583 1.08333 2 1.5 2H12.125C12.2917 2 12.4062 2.08333 12.4688 2.25C12.5312 2.39583 12.5 2.52083 12.375 2.625L11.625 3.375C11.5625 3.45833 11.4792 3.5 11.375 3.5H1.6875C1.5625 3.5 1.5 3.5625 1.5 3.6875V14.3125C1.5 14.4375 1.5625 14.5 1.6875 14.5H12.3125C12.4375 14.5 12.5 14.4375 12.5 14.3125V8.3125C12.5 8.20833 12.5417 8.11458 12.625 8.03125L13.375 7.28125C13.4792 7.17708 13.6042 7.15625 13.75 7.21875C13.9167 7.28125 14 7.39583 14 7.5625ZM17.625 0C17.875 0 18 0.125 18 0.375V4.625C18 4.79167 17.9167 4.90625 17.75 4.96875C17.6042 5.03125 17.4792 5 17.375 4.875L15.8438 3.375L7.34375 11.875C7.17708 12.0625 7 12.0625 6.8125 11.875L6.125 11.1875C5.9375 11 5.9375 10.8229 6.125 10.6562L14.625 2.15625L13.125 0.625C13 0.520833 12.9688 0.395833 13.0312 0.25C13.0938 0.0833333 13.2083 0 13.375 0H17.625Z"/>
</svg>