<svg viewBox="0 0 26 26" xmlns="http://www.w3.org/2000/svg">
    <path d="M20.9775 13.5538C20.9589 13.1518 20.5381 12.8308 19.7244 12.5995C19.0932 12.4231 18.2918 12.3161 17.4254 12.2987V9.21293C17.4223 9.16088 17.4069 9.11171 17.379 9.06833C17.2924 8.7184 16.8747 8.43498 16.1352 8.22676C15.439 8.0301 14.5293 7.9231 13.5732 7.9231C12.6203 7.9231 11.7199 8.0301 11.0361 8.22676C10.476 8.38871 9.80461 8.68948 9.80461 9.20715C9.80461 9.23896 9.8077 9.27077 9.81389 9.30258L9.84792 10.6213C7.83674 10.2627 5.89673 11.4976 5.51615 13.3745C5.47283 13.5885 5.45117 13.8026 5.45117 14.0195C5.45117 15.9282 7.11272 17.4812 9.15484 17.4812C10.0057 17.4812 10.8288 17.2093 11.4878 16.7061C12.0664 16.8334 12.7471 16.9028 13.4681 16.9086C13.6259 17.7097 15.4823 18.0769 17.2119 18.0769C18.1649 18.0769 19.0653 17.967 19.7491 17.7675C20.3092 17.6055 20.9806 17.3019 20.9806 16.7842V13.6088C20.9806 13.5914 20.9806 13.5712 20.9775 13.5538ZM16.7788 10.8122C16.7788 10.8498 16.6302 11.0494 15.9588 11.2402C15.3307 11.4166 14.4613 11.5208 13.5763 11.5208C12.8121 11.5208 12.0633 11.4456 11.4692 11.3039C11.46 11.301 11.4538 11.301 11.4445 11.2981C11.1505 11.0812 10.8257 10.9076 10.476 10.7862L10.4544 9.97064C10.6679 10.0719 10.8906 10.1528 11.1227 10.2107C11.7941 10.3929 12.6636 10.4912 13.5763 10.4912C14.5293 10.4912 15.4421 10.3842 16.1383 10.1875C16.3703 10.1239 16.5962 10.04 16.8097 9.93593V10.6936C16.7757 10.7341 16.7788 10.7717 16.7788 10.8122ZM11.2217 8.78491C11.8467 8.60561 12.6821 8.50439 13.5732 8.50439C14.4582 8.50439 15.3276 8.60561 15.9557 8.78491C16.6272 8.97579 16.7757 9.17244 16.7757 9.21004C16.7757 9.25053 16.6241 9.45008 15.9526 9.63806C15.3245 9.81447 14.4582 9.91569 13.5732 9.91569C12.7193 9.91569 11.9086 9.82315 11.2929 9.65541C10.6276 9.4761 10.442 9.27945 10.4265 9.21582C10.4265 9.21004 10.4234 9.21004 10.4234 9.21004C10.4265 9.15509 10.5689 8.97 11.2217 8.78491ZM11.231 16.1538C9.97169 17.2238 8.0193 17.1399 6.87447 15.9629C5.72964 14.7858 5.81937 12.961 7.07868 11.8909C7.64491 11.408 8.3875 11.1419 9.15484 11.1419C9.46425 11.1419 9.77057 11.1853 10.0676 11.2692C11.1413 11.5815 11.9488 12.4144 12.1778 13.4411C12.218 13.6319 12.2397 13.8286 12.2397 14.0223C12.2428 14.835 11.8746 15.6072 11.231 16.1538ZM12.0169 16.2174C12.2675 15.9311 12.4686 15.6101 12.611 15.2659C12.874 15.2862 13.1463 15.3006 13.4309 15.3035V15.3556L13.4495 16.336C12.9699 16.3302 12.4903 16.2897 12.0169 16.2174ZM12.843 13.6782C13.0225 13.6898 13.2112 13.6955 13.4031 13.6984L13.4216 14.7222C13.205 14.7193 12.9916 14.7106 12.7873 14.6962C12.8338 14.4735 12.8585 14.245 12.8585 14.0195C12.8585 13.9067 12.8523 13.7939 12.843 13.6782ZM13.6042 13.1229C13.5949 13.1229 13.5825 13.1229 13.5732 13.1229C13.2762 13.1229 12.9885 13.1114 12.7224 13.094C12.6048 12.7065 12.4191 12.3421 12.1685 12.0182C12.6326 12.0731 13.0998 12.102 13.5702 12.102C14.5262 12.102 15.439 11.995 16.1352 11.7984C16.3672 11.7348 16.59 11.6509 16.8035 11.5497V12.3074C15.4761 12.3421 14.1116 12.6024 13.6042 13.1229ZM14.0126 13.5828C14.0126 13.5799 14.0126 13.577 14.0157 13.5712C14.0436 13.4931 14.2632 13.3022 14.9037 13.1345C15.504 12.9754 16.2868 12.8887 17.1098 12.8887H17.1624C18.0474 12.8887 18.9137 12.9841 19.5449 13.1634C20.204 13.3485 20.3587 13.5394 20.3618 13.5828V13.5857C20.3587 13.629 20.204 13.8286 19.5171 14.0195C18.8828 14.1959 18.0474 14.2913 17.1655 14.2913C16.3116 14.2913 15.5009 14.1988 14.8852 14.0339C14.2199 13.8546 14.0374 13.6551 14.0188 13.5943C14.0126 13.5828 14.0126 13.5828 14.0126 13.5828ZM19.5697 17.218C18.9446 17.4002 18.1061 17.5014 17.215 17.5014C16.3208 17.5014 15.4854 17.4031 14.8666 17.2267C14.2137 17.0387 14.0776 16.8449 14.0776 16.8016C14.0776 16.7987 14.0776 16.7987 14.0776 16.7958L14.0621 15.9571C14.3097 16.0699 14.5665 16.1566 14.8326 16.2203C15.4823 16.3793 16.3085 16.469 17.1562 16.469C18.1123 16.469 19.0189 16.362 19.712 16.1653C19.9379 16.1017 20.1545 16.0178 20.3618 15.9195V16.7871H20.3649C20.3649 16.8276 20.2225 17.0271 19.5697 17.218ZM20.3679 15.0895H20.3649C20.3649 15.1184 20.3463 15.1531 20.3463 15.1849C20.3463 15.2254 20.2009 15.4221 19.5325 15.6129C18.8982 15.7923 18.0535 15.8906 17.1593 15.8906C15.4452 15.8906 14.2911 15.5291 14.0497 15.2486L14.0467 15.0056L14.0343 14.3405C14.2509 14.4417 14.4767 14.5227 14.7088 14.5834C15.3802 14.7656 16.2497 14.8639 17.1624 14.8639C18.103 14.8639 19.0003 14.7598 19.6903 14.5689C19.9255 14.5082 20.1514 14.4243 20.3679 14.3202V15.0895Z"/>
    <path d="M21.7884 20.209C22.0588 20.4308 22.0994 20.8311 21.8636 21.0895C20.3589 22.7382 18.4209 23.9379 16.265 24.5475C13.9055 25.2146 11.3983 25.1429 9.08081 24.3421C6.7633 23.5413 4.74673 22.0498 3.30249 20.0683C1.85826 18.0868 1.05569 15.7104 1.00279 13.259C0.949899 10.8076 1.64922 8.39888 3.00664 6.35693C4.36405 4.31498 6.31441 2.73786 8.59522 1.83783C10.876 0.937795 13.3778 0.758053 15.7639 1.32279C17.9441 1.83882 19.9321 2.95379 21.5064 4.53608C21.7531 4.784 21.7298 5.18567 21.4692 5.41893C21.2086 5.6522 20.8096 5.62855 20.5614 5.38218C19.1607 3.99192 17.4005 3.01166 15.4721 2.55525C13.3379 2.05011 11.1002 2.21088 9.06011 3.01592C7.02003 3.82096 5.27551 5.23163 4.06136 7.05807C2.84721 8.88451 2.22169 11.039 2.26901 13.2317C2.31632 15.4244 3.03419 17.5499 4.32599 19.3223C5.61779 21.0947 7.42153 22.4288 9.49445 23.1451C11.5674 23.8614 13.8099 23.9255 15.9204 23.3287C17.8273 22.7896 19.5436 21.7343 20.8829 20.2849C21.1203 20.0281 21.518 19.9872 21.7884 20.209Z"/>
    <path d="M20.909 0.943152C20.7802 0.94753 20.6664 1.00198 20.5926 1.09452C20.5187 1.18707 20.4908 1.31013 20.5151 1.43665L21.1563 4.77674L17.7572 4.89183C17.6303 4.89831 17.5188 4.95364 17.4467 5.04589C17.3746 5.13814 17.3476 5.25993 17.3717 5.38504C17.3957 5.51015 17.4687 5.62856 17.5751 5.71477C17.6815 5.80097 17.8127 5.84808 17.9404 5.84595L21.825 5.71443C21.9538 5.71005 22.0676 5.6556 22.1415 5.56305C22.2153 5.47051 22.2432 5.34745 22.2189 5.22093L21.4861 1.40377C21.4618 1.27726 21.3873 1.15766 21.2791 1.07128C21.1709 0.984899 21.0378 0.938812 20.909 0.943152Z"/>
</svg>
