<svg viewBox="0 0 12 9" xmlns="http://www.w3.org/2000/svg">
<path d="M11.8366 4.13832L8.26558 0.864908C8.0477 0.665189 7.69435 0.665189 7.47648 0.864908C7.25855 1.06467 7.25855 1.38849 7.47648 1.58825L10.095 3.98852H0.557969C0.249836 3.98852 0 4.21754 0 4.49999C0 4.78241 0.249836 5.01147 0.557969 5.01147H10.095L7.47656 7.41174C7.25864 7.6115 7.25864 7.93532 7.47656 8.13508C7.58548 8.23488 7.72832 8.28488 7.87112 8.28488C8.01391 8.28488 8.15671 8.23488 8.26567 8.13508L11.8366 4.86167C12.0545 4.66191 12.0545 4.33808 11.8366 4.13832Z"/>
</svg>