<svg viewBox="0 0 15 17" xmlns="http://www.w3.org/2000/svg">
<path d="M5.92349 0.209209C6.20244 -0.0697365 6.6547 -0.0697365 6.93365 0.209209L9.0765 2.35207C9.35545 2.63101 9.35545 3.08327 9.0765 3.36222L6.93365 5.50508C6.6547 5.78402 6.20244 5.78402 5.92349 5.50508C5.64455 5.22613 5.64455 4.77387 5.92349 4.49492L6.83816 3.57941C3.8239 3.73778 1.42857 6.23202 1.42857 9.28572C1.42857 12.4416 3.98694 15 7.14286 15C10.2988 15 12.8571 12.4416 12.8571 9.28572C12.8571 7.86084 12.3346 6.51913 11.4043 5.47861C11.1413 5.18453 11.1666 4.73297 11.4607 4.47004C11.7548 4.2071 12.2063 4.23235 12.4693 4.52644C13.6315 5.82638 14.2857 7.50611 14.2857 9.28572C14.2857 13.2306 11.0877 16.4286 7.14286 16.4286C3.19797 16.4286 0 13.2306 0 9.28572C0 5.43823 3.04199 2.30124 6.85204 2.14867L5.92349 1.21936C5.64455 0.940416 5.64455 0.488155 5.92349 0.209209Z"/>
</svg>