<svg viewBox="0 0 17 17" xmlns="http://www.w3.org/2000/svg">
    <path d="M2.03463 16.3692L14.835 3.4316L14.8473 7.68492C14.8488 8.15954 15.2346 8.54315 15.7093 8.54174C16.1839 8.54036 16.5675 8.15442 16.5661 7.67983L16.5477 1.34475C16.5477 1.34436 16.5476 1.34399 16.5476 1.34363C16.5456 0.869621 16.1583 0.484929 15.6828 0.48789C15.6824 0.487923 15.6821 0.487864 15.6817 0.487866L9.3468 0.536963C8.87228 0.540648 8.49038 0.928287 8.49407 1.40299C8.49773 1.87759 8.88543 2.25937 9.36003 2.25571L13.6132 2.22276L0.812827 15.1604C0.479004 15.4978 0.481907 16.0419 0.819308 16.3757C1.15671 16.7095 1.70081 16.7066 2.03463 16.3692Z"/>
</svg>
