<svg viewBox="0 0 26 27" xmlns="http://www.w3.org/2000/svg">
    <path d="M13.676 0.992851L2.36609 15.6324L1.82628 11.3428C1.76602 10.8642 1.32915 10.525 0.850488 10.5853C0.371794 10.6455 0.0326353 11.0824 0.0928655 11.5611L0.89695 17.9501L0.897127 17.9512C0.957925 18.4292 1.39635 18.7693 1.8757 18.7073L1.87683 18.7072L8.26189 17.8722C8.74016 17.8097 9.07739 17.3713 9.01481 16.8928C8.95228 16.4144 8.51381 16.0774 8.03544 16.1399L3.74862 16.7004L15.0586 2.06094C15.3535 1.67916 15.2831 1.13058 14.9013 0.835632C14.5195 0.54068 13.971 0.611067 13.676 0.992851Z"/>
    <path d="M11.9846 25.7363L23.2945 11.0967L23.8343 15.3863C23.8946 15.8649 24.3314 16.2041 24.8101 16.1439C25.2888 16.0836 25.6279 15.6467 25.5677 15.168L24.7636 8.77903L24.7634 8.7779C24.7027 8.29993 24.2642 7.95984 23.7849 8.02178L23.7837 8.0219L17.3987 8.85686C16.9204 8.91941 16.5832 9.35783 16.6458 9.83629C16.7083 10.3147 17.1468 10.6518 17.6251 10.5892L21.912 10.0287L10.602 24.6682C10.3071 25.0499 10.3775 25.5985 10.7592 25.8935C11.141 26.1884 11.6896 26.118 11.9846 25.7363Z"/>
</svg>
