<svg viewBox="0 0 17 17" xmlns="http://www.w3.org/2000/svg">
<path d="M8.22061 0.899841L8.28056 14.3324L6.05625 12.1171C5.80803 11.8699 5.40643 11.8707 5.15926 12.119C4.91204 12.3672 4.91291 12.7688 5.1611 13.016L8.47408 16.3154C8.47427 16.3157 8.47451 16.3158 8.47467 16.316C8.72293 16.5626 9.12581 16.5616 9.37261 16.3121C9.37281 16.3119 9.37306 16.3117 9.37325 16.3115L12.6567 12.9826C12.9026 12.7332 12.8999 12.3316 12.6505 12.0856C12.4011 11.8396 11.9995 11.8423 11.7535 12.0917L9.54909 14.3267L9.48918 0.894156C9.48761 0.543857 9.20234 0.261201 8.85204 0.262757C8.50174 0.264315 8.21904 0.549541 8.22061 0.899841Z"/>
</svg>