<svg viewBox="0 0 14 14" xmlns="http://www.w3.org/2000/svg">
<path d="M0.777778 14C0.557407 14 0.372815 13.9253 0.224 13.776C0.0746668 13.6272 0 13.4426 0 13.2222V8.55556C0 8.33519 0.0746668 8.15033 0.224 8.001C0.372815 7.85219 0.557407 7.77778 0.777778 7.77778C0.998148 7.77778 1.183 7.85219 1.33233 8.001C1.48115 8.15033 1.55556 8.33519 1.55556 8.55556V11.3556L11.3556 1.55556H8.55556C8.33519 1.55556 8.15059 1.48089 8.00178 1.33156C7.85244 1.18274 7.77778 0.998148 7.77778 0.777778C7.77778 0.557407 7.85244 0.372556 8.00178 0.223222C8.15059 0.0744074 8.33519 0 8.55556 0H13.2222C13.4426 0 13.6272 0.0744074 13.776 0.223222C13.9253 0.372556 14 0.557407 14 0.777778V5.44444C14 5.66481 13.9253 5.84941 13.776 5.99822C13.6272 6.14756 13.4426 6.22222 13.2222 6.22222C13.0019 6.22222 12.8173 6.14756 12.6684 5.99822C12.5191 5.84941 12.4444 5.66481 12.4444 5.44444V2.64444L2.64444 12.4444H5.44444C5.66481 12.4444 5.84967 12.5191 5.999 12.6684C6.14782 12.8173 6.22222 13.0019 6.22222 13.2222C6.22222 13.4426 6.14782 13.6272 5.999 13.776C5.84967 13.9253 5.66481 14 5.44444 14H0.777778Z"/>
</svg>
