<svg viewBox="0 0 30 30" xmlns="http://www.w3.org/2000/svg">
    <path d="M15.5349 2.14285C19.0176 2.14285 22.2669 3.53846 24.6423 5.92366L24.642 4.28571L24.6492 4.16076C24.7111 3.6279 25.164 3.21428 25.7134 3.21428C26.3052 3.21428 26.7849 3.69398 26.7849 4.28571V8.57142L26.7777 8.69638C26.7158 9.22924 26.2629 9.64285 25.7134 9.64285H21.4277L21.3028 9.63564C20.7699 9.57375 20.3563 9.12089 20.3563 8.57142C20.3563 7.97969 20.836 7.5 21.4277 7.5L23.1878 7.50039C21.2025 5.47288 18.4691 4.28571 15.5349 4.28571C9.61754 4.28571 4.82059 9.08266 4.82059 15C4.82059 20.9173 9.61754 25.7143 15.5349 25.7143C18.4167 25.7143 21.1151 24.5727 23.1123 22.5749C23.5306 22.1564 24.209 22.1563 24.6275 22.5747C25.046 22.993 25.0461 23.6714 24.6277 24.0899C22.2327 26.4857 18.991 27.8571 15.5349 27.8571C8.43407 27.8571 2.67773 22.1008 2.67773 15C2.67773 7.89919 8.43407 2.14285 15.5349 2.14285ZM14.9992 8.57142C15.5909 8.57142 16.0706 9.05112 16.0706 9.64285V14.5562L18.9711 17.4567C19.3895 17.8751 19.3895 18.5535 18.9711 18.9719C18.5526 19.3903 17.8743 19.3903 17.4558 18.9719L14.2415 15.7576C14.0406 15.5567 13.9277 15.2842 13.9277 15V9.64285C13.9277 9.05112 14.4074 8.57142 14.9992 8.57142Z"/>
</svg>