<svg viewBox="0 0 31 29" xmlns="http://www.w3.org/2000/svg">
<path d="M0.699707 5.09796C0.699707 3.93206 1.16286 2.8139 1.98728 1.98948C2.8117 1.16506 3.92986 0.701904 5.09577 0.701904H20.9216C22.0875 0.701904 23.2056 1.16506 24.0301 1.98948C24.8545 2.8139 25.3176 3.93206 25.3176 5.09796V8.98584C24.7173 9.03092 24.1258 9.15691 23.5592 9.36038V7.73384H2.45813V20.922C2.45813 21.6216 2.73602 22.2925 3.23068 22.7871C3.72533 23.2818 4.39622 23.5597 5.09577 23.5597H16.8596L16.0894 24.8961C16.0105 25.0322 15.94 25.1732 15.8784 25.3181H5.09577C3.92986 25.3181 2.8117 24.8549 1.98728 24.0305C1.16286 23.2061 0.699707 22.0879 0.699707 20.922V5.0962V5.09796ZM5.09401 2.45857C4.39446 2.45857 3.72357 2.73646 3.22892 3.23112C2.73426 3.72577 2.45637 4.39666 2.45637 5.0962V5.97542H23.5575V5.0962C23.5575 4.39666 23.2796 3.72577 22.7849 3.23112C22.2903 2.73646 21.6194 2.45857 20.9198 2.45857H5.09401ZM21.5792 13.1691C21.1093 13.9827 20.8838 14.9144 20.9296 15.8527C20.9755 16.7911 21.2907 17.6964 21.8377 18.4602L17.6122 25.777C17.3422 26.2448 17.2691 26.8007 17.4089 27.3223C17.5487 27.844 17.89 28.2888 18.3578 28.5589C18.8256 28.8289 19.3814 28.902 19.9031 28.7622C20.4248 28.6224 20.8696 28.281 21.1396 27.8133L25.3721 20.4807C26.34 20.5679 27.3118 20.3648 28.1637 19.8972C29.0155 19.4296 29.7086 18.7187 30.1546 17.8553C30.6005 16.9919 30.779 16.0152 30.6673 15.0499C30.5556 14.0846 30.1587 13.1746 29.5273 12.4359L27.2238 16.4275C27.0003 16.7866 26.6461 17.0447 26.2359 17.1475C25.8256 17.2503 25.3915 17.1896 25.0252 16.9782C24.6588 16.7669 24.389 16.4214 24.2726 16.0148C24.1563 15.6082 24.2025 15.1723 24.4015 14.7992L26.705 10.8076C25.7113 10.623 24.6849 10.751 23.7669 11.1739C22.849 11.5969 22.0847 12.2939 21.5792 13.1691ZM19.2687 16.7809C19.0479 15.5528 19.1789 14.2873 19.6467 13.1304L16.2653 9.74899C16.1842 9.66502 16.0872 9.59804 15.9799 9.55196C15.8726 9.50588 15.7572 9.48163 15.6405 9.48061C15.5238 9.4796 15.408 9.50185 15.2999 9.54605C15.1919 9.59026 15.0937 9.65554 15.0112 9.7381C14.9286 9.82065 14.8633 9.91881 14.8191 10.0269C14.7749 10.1349 14.7527 10.2507 14.7537 10.3674C14.7547 10.4842 14.779 10.5995 14.825 10.7068C14.8711 10.8141 14.9381 10.9111 15.0221 10.9922L18.7974 14.7675L15.0221 18.5411C14.9381 18.6222 14.8711 18.7192 14.825 18.8265C14.779 18.9338 14.7547 19.0491 14.7537 19.1659C14.7527 19.2826 14.7749 19.3984 14.8191 19.5064C14.8633 19.6145 14.9286 19.7127 15.0112 19.7952C15.0937 19.8778 15.1919 19.9431 15.2999 19.9873C15.408 20.0315 15.5238 20.0537 15.6405 20.0527C15.7572 20.0517 15.8726 20.0274 15.9799 19.9813C16.0872 19.9353 16.1842 19.8683 16.2653 19.7843L19.2687 16.7809ZM11.8692 10.9922C12.0294 10.8264 12.118 10.6043 12.116 10.3738C12.114 10.1432 12.0215 9.92272 11.8585 9.7597C11.6955 9.59669 11.475 9.50422 11.2444 9.50222C11.0139 9.50022 10.7918 9.58884 10.626 9.74899L6.22995 14.1451C6.06512 14.3099 5.97253 14.5335 5.97253 14.7667C5.97253 14.9998 6.06512 15.2234 6.22995 15.3883L10.626 19.7843C10.7918 19.9445 11.0139 20.0331 11.2444 20.0311C11.475 20.0291 11.6955 19.9366 11.8585 19.7736C12.0215 19.6106 12.114 19.3901 12.116 19.1595C12.118 18.929 12.0294 18.7069 11.8692 18.5411L8.09564 14.7675L11.8692 10.9922Z"/>
</svg>
