<svg viewBox="0 0 31 30" xmlns="http://www.w3.org/2000/svg">
    <g>
        <path d="M18.0338 15C18.377 14.4554 18.7318 13.8923 19.0823 13.3117C20.2551 11.369 20.4704 9.41153 19.7222 7.49358C18.2125 3.62379 13.1658 1.26597 11.9974 0.889767L11.1759 0.625L9.89367 3.10324L10.5124 3.59165C10.5194 3.59702 11.2067 4.17726 11.2525 5.05689C11.2916 5.80777 10.8655 6.6192 9.98647 7.4688C9.37599 8.05857 8.70598 8.62887 7.99659 9.23257C5.01186 11.7722 1.62891 14.6515 1.62891 20.0984C1.62891 20.1732 1.62963 20.2476 1.63109 20.3215C1.65272 21.5235 1.91991 22.7095 2.41732 23.8114C2.91473 24.9134 3.63256 25.9095 4.52957 26.7426C6.33081 28.4353 8.74593 29.3801 11.2587 29.375H17.0064L16.2969 27.9838C13.4141 22.3308 15.4528 19.0957 18.0338 15ZM11.2587 27.4454C7.12724 27.4454 3.70416 24.2336 3.62777 20.2857C3.62661 20.2236 3.62601 20.1612 3.62596 20.0984C3.62596 15.5231 6.51895 13.0609 9.3167 10.6799C10.0181 10.0829 10.7435 9.46562 11.3986 8.83255C12.6938 7.58119 13.3157 6.27804 13.247 4.9595C13.2171 4.40073 13.0636 3.85464 12.7968 3.358C14.5343 4.27519 17.0108 6.01429 17.8536 8.1744C18.3868 9.54105 18.2245 10.9035 17.3574 12.3397C17.0163 12.9046 16.6664 13.4598 16.3281 13.9968C13.8516 17.9263 11.5025 21.6534 13.8659 27.4454H11.2587Z"/>
        <path d="M27.6435 19.9349C27.6267 19.8704 27.6093 19.8057 27.5912 19.7407C26.8669 17.1604 22.8578 13.8426 22.4031 13.4728L21.49 12.7303L20.8912 13.7304C19.5266 16.0101 18.3556 18.0894 17.8451 20.4483C17.263 23.1385 17.6548 25.8726 19.0432 28.807L19.3118 29.375H19.9941C21.196 29.3783 22.3826 29.1135 23.4626 28.601C24.5425 28.0884 25.4869 27.3418 26.2231 26.4187C26.9548 25.5156 27.4633 24.4615 27.7096 23.3373C27.9558 22.2132 27.9332 21.0492 27.6435 19.9349ZM24.64 25.2186C24.1535 25.8289 23.5442 26.3366 22.8493 26.7107C22.1543 27.0848 21.3883 27.3175 20.5978 27.3947C18.6192 22.7682 19.7866 19.6147 22.0173 15.7454C23.5004 17.086 25.3078 19.018 25.6545 20.2537C25.6691 20.3058 25.6831 20.3577 25.6965 20.4093C25.911 21.2361 25.9272 22.0996 25.7441 22.9334C25.5609 23.7672 25.1832 24.549 24.64 25.2186Z"/>
    </g>
    <defs>
        <clipPath id="clip0_1633_329">
            <rect width="30" height="30" transform="translate(0.162109)"/>
        </clipPath>
    </defs>
</svg>