<svg viewBox="0 0 21 20" xmlns="http://www.w3.org/2000/svg">
<path d="M17.8899 5.83333C17.7459 5.58385 17.5397 5.37594 17.2915 5.22989C17.0432 5.08384 16.7613 5.00464 16.4733 5H5.8066L5.32326 3.11667C5.27443 2.93487 5.16548 2.77495 5.01416 2.66298C4.86284 2.551 4.67806 2.49356 4.48993 2.5H2.82326C2.60225 2.5 2.39029 2.5878 2.23401 2.74408C2.07773 2.90036 1.98993 3.11232 1.98993 3.33333C1.98993 3.55435 2.07773 3.76631 2.23401 3.92259C2.39029 4.07887 2.60225 4.16667 2.82326 4.16667H3.8566L6.1566 12.7167C6.20543 12.8985 6.31438 13.0584 6.4657 13.1704C6.61702 13.2823 6.80179 13.3398 6.98993 13.3333H14.4899C14.6438 13.3329 14.7946 13.2898 14.9255 13.2089C15.0564 13.128 15.1623 13.0124 15.2316 12.875L17.9649 7.40833C18.0834 7.16001 18.1386 6.88623 18.1255 6.6114C18.1124 6.33658 18.0315 6.06927 17.8899 5.83333Z" />
<path d="M6.57324 17.5C7.2636 17.5 7.82324 16.9404 7.82324 16.25C7.82324 15.5596 7.2636 15 6.57324 15C5.88289 15 5.32324 15.5596 5.32324 16.25C5.32324 16.9404 5.88289 17.5 6.57324 17.5Z" />
<path d="M14.9066 17.5C15.597 17.5 16.1566 16.9404 16.1566 16.25C16.1566 15.5596 15.597 15 14.9066 15C14.2163 15 13.6566 15.5596 13.6566 16.25C13.6566 16.9404 14.2163 17.5 14.9066 17.5Z" />
</svg>