<svg viewBox="0 0 31 31" xmlns="http://www.w3.org/2000/svg">
<path fill-rule="evenodd" clip-rule="evenodd" d="M3.51622 27.9724C2.95079 27.9724 2.45319 27.5251 2.45319 26.9265C2.45319 26.3279 2.95079 25.8806 3.51622 25.8806H26.6686C27.2341 25.8806 27.7317 26.3279 27.7317 26.9265C27.7317 27.5251 27.2341 27.9724 26.6686 27.9724H3.51622ZM3.51622 27.3724C3.26064 27.3724 3.05319 27.1726 3.05319 26.9265C3.05319 26.6804 3.26064 26.4806 3.51622 26.4806H26.6686C26.9242 26.4806 27.1317 26.6804 27.1317 26.9265C27.1317 27.1726 26.9242 27.3724 26.6686 27.3724H3.51622Z"/>
<path d="M3.05319 26.9265C3.05319 27.1726 3.26064 27.3724 3.51622 27.3724H26.6686C26.9242 27.3724 27.1317 27.1726 27.1317 26.9265C27.1317 26.6804 26.9242 26.4806 26.6686 26.4806H3.51622C3.26064 26.4806 3.05319 26.6804 3.05319 26.9265Z"/>
<path d="M3.75214 14.6017C3.75214 14.1091 4.20419 13.7097 4.76182 13.7097H9.35769C9.91532 13.7097 10.3674 14.1091 10.3674 14.6017C10.3674 15.0943 9.91532 15.4936 9.35769 15.4936H4.76182C4.20419 15.4936 3.75214 15.0943 3.75214 14.6017Z"/>
<path d="M3.75214 23.2444C3.75214 22.7518 4.20419 22.3524 4.76182 22.3524H9.35769C9.91532 22.3524 10.3674 22.7518 10.3674 23.2444C10.3674 23.737 9.91532 24.1363 9.35769 24.1363H4.76182C4.20419 24.1363 3.75214 23.737 3.75214 23.2444Z"/>
<path d="M5.41238 13.8667C5.97001 13.8667 6.42206 14.2661 6.42206 14.7587L6.42206 22.9876C6.42206 23.4802 5.97001 23.8795 5.41238 23.8795C4.85475 23.8795 4.4027 23.4802 4.4027 22.9876L4.4027 14.7587C4.4027 14.2661 4.85475 13.8667 5.41238 13.8667Z"/>
<path d="M8.70535 13.8667C9.26298 13.8667 9.71503 14.2661 9.71503 14.7587L9.71503 22.9876C9.71503 23.4802 9.26298 23.8795 8.70535 23.8795C8.14771 23.8795 7.69566 23.4802 7.69566 22.9876L7.69567 14.7587C7.69567 14.2661 8.14771 13.8667 8.70535 13.8667Z"/>
<path d="M11.7853 14.6017C11.7853 14.1091 12.2374 13.7097 12.795 13.7097H17.3909C17.9485 13.7097 18.4006 14.1091 18.4006 14.6017C18.4006 15.0943 17.9485 15.4936 17.3909 15.4936H12.795C12.2374 15.4936 11.7853 15.0943 11.7853 14.6017Z"/>
<path d="M11.7853 23.2444C11.7853 22.7518 12.2374 22.3524 12.795 22.3524H17.3909C17.9485 22.3524 18.4006 22.7518 18.4006 23.2444C18.4006 23.737 17.9485 24.1363 17.3909 24.1363H12.795C12.2374 24.1363 11.7853 23.737 11.7853 23.2444Z"/>
<path d="M13.4456 13.8667C14.0032 13.8667 14.4553 14.2661 14.4553 14.7587V22.9876C14.4553 23.4802 14.0032 23.8795 13.4456 23.8795C12.8879 23.8795 12.4359 23.4802 12.4359 22.9876V14.7587C12.4359 14.2661 12.8879 13.8667 13.4456 13.8667Z"/>
<path d="M16.7385 13.8667C17.2962 13.8667 17.7482 14.2661 17.7482 14.7587V22.9876C17.7482 23.4802 17.2962 23.8795 16.7385 23.8795C16.1809 23.8795 15.7289 23.4802 15.7289 22.9876V14.7587C15.7289 14.2661 16.1809 13.8667 16.7385 13.8667Z"/>
<path d="M19.7932 14.6017C19.7932 14.1091 20.2452 13.7097 20.8028 13.7097H25.3987C25.9563 13.7097 26.4084 14.1091 26.4084 14.6017C26.4084 15.0943 25.9563 15.4936 25.3987 15.4936H20.8028C20.2452 15.4936 19.7932 15.0943 19.7932 14.6017Z"/>
<path d="M19.7932 23.2444C19.7932 22.7518 20.2452 22.3524 20.8028 22.3524H25.3987C25.9563 22.3524 26.4084 22.7518 26.4084 23.2444C26.4084 23.737 25.9563 24.1363 25.3987 24.1363H20.8028C20.2452 24.1363 19.7932 23.737 19.7932 23.2444Z"/>
<path d="M21.4534 13.8667C22.011 13.8667 22.4631 14.2661 22.4631 14.7587V22.9876C22.4631 23.4802 22.011 23.8795 21.4534 23.8795C20.8958 23.8795 20.4437 23.4802 20.4437 22.9876V14.7587C20.4437 14.2661 20.8958 13.8667 21.4534 13.8667Z"/>
<path d="M24.7464 13.8667C25.304 13.8667 25.756 14.2661 25.756 14.7587V22.9876C25.756 23.4802 25.304 23.8795 24.7464 23.8795C24.1887 23.8795 23.7367 23.4802 23.7367 22.9876V14.7587C23.7367 14.2661 24.1887 13.8667 24.7464 13.8667Z"/>
<path fill-rule="evenodd" clip-rule="evenodd" d="M27.6933 11.1929L27.693 11.1938C27.5701 11.6233 27.1778 11.9201 26.7301 11.9201H3.45442C3.00683 11.9201 2.61434 11.6234 2.49148 11.1937C2.36928 10.7641 2.54629 10.3041 2.92639 10.068L14.5644 2.84437C14.8876 2.6442 15.2965 2.6439 15.6197 2.84407L27.258 10.0679L26.9416 10.5777L15.3038 3.35415C15.1742 3.27387 15.0104 3.27387 14.8808 3.35415L3.24293 10.5777C3.11828 10.6551 3.04808 10.7923 3.05331 10.9338C3.05448 10.9655 3.05942 10.9973 3.06836 11.0288C3.07737 11.0603 3.08998 11.09 3.10567 11.1175C3.1759 11.2407 3.30781 11.3201 3.45442 11.3201H26.7301C26.8767 11.3201 27.0086 11.2407 27.0789 11.1175C27.0946 11.09 27.1072 11.0603 27.1162 11.0288C27.1251 10.9973 27.1301 10.9655 27.1312 10.9338C27.1365 10.7923 27.0663 10.6551 26.9416 10.5777L27.258 10.0679C27.6383 10.304 27.8155 10.7633 27.6933 11.1929ZM4.86178 10.5175L15.0923 4.1676L25.3228 10.5175H4.86178ZM6.9662 9.91751H23.2184L15.0923 4.87378L6.9662 9.91751Z"/>
<path d="M3.45418 11.3201H26.7299C26.9093 11.3201 27.0666 11.2013 27.1159 11.0288C27.1649 10.8566 27.0939 10.6724 26.9414 10.5777L15.3035 3.35415C15.1739 3.27388 15.0102 3.27388 14.8806 3.35415L3.24269 10.5777C3.09018 10.6724 3.01917 10.8566 3.06812 11.0288C3.11746 11.2013 3.27481 11.3201 3.45418 11.3201ZM15.0921 4.1676L25.3225 10.5175H4.86154L15.0921 4.1676Z"/>
</svg>
