<svg viewBox="0 0 30 30" xmlns="http://www.w3.org/2000/svg">
    <path d="M11.4559 5.35714C9.16677 5.35714 8.35183 5.51451 7.51412 5.96252C6.83994 6.32308 6.32364 6.83937 5.96308 7.51356C5.51507 8.35126 5.3577 9.16621 5.3577 11.4553V18.5446C5.3577 20.8338 5.51507 21.6487 5.96308 22.4864C6.32364 23.1606 6.83994 23.6769 7.51412 24.0375C8.35183 24.4855 9.16677 24.6428 11.4559 24.6428H18.5452C20.8343 24.6428 21.6493 24.4855 22.487 24.0375C23.1612 23.6769 23.6775 23.1606 24.038 22.4864C24.486 21.6487 24.6434 20.8338 24.6434 18.5446V11.4553C24.6434 9.16621 24.486 8.35126 24.038 7.51356C23.6775 6.83937 23.1612 6.32308 22.487 5.96252C21.6493 5.51451 20.8343 5.35714 18.5452 5.35714H11.4559ZM11.4559 3.21428H18.5452C21.4108 3.21428 22.4499 3.51265 23.4976 4.07292C24.5452 4.63319 25.3674 5.45537 25.9276 6.50299C26.4879 7.55061 26.7863 8.58974 26.7863 11.4553V18.5446C26.7863 21.4102 26.4879 22.4494 25.9276 23.497C25.3674 24.5446 24.5452 25.3668 23.4976 25.9271C22.4499 26.4873 21.4108 26.7857 18.5452 26.7857H11.4559C8.59031 26.7857 7.55117 26.4873 6.50355 25.9271C5.45593 25.3668 4.63376 24.5446 4.07348 23.497C3.51321 22.4494 3.21484 21.4102 3.21484 18.5446V11.4553C3.21484 8.58974 3.51321 7.55061 4.07348 6.50299C4.63376 5.45537 5.45593 4.63319 6.50355 4.07292C7.55117 3.51265 8.59031 3.21428 11.4559 3.21428ZM11.7863 20.3571C11.7863 20.9489 11.3066 21.4286 10.7148 21.4286C10.1231 21.4286 9.64341 20.9489 9.64341 20.3571V13.9286C9.64341 13.3368 10.1231 12.8571 10.7148 12.8571C11.3066 12.8571 11.7863 13.3368 11.7863 13.9286V20.3571ZM16.072 20.3571C16.072 20.9489 15.5923 21.4286 15.0006 21.4286C14.4088 21.4286 13.9291 20.9489 13.9291 20.3571V9.64285C13.9291 9.05112 14.4088 8.57142 15.0006 8.57142C15.5923 8.57142 16.072 9.05112 16.072 9.64285V20.3571ZM20.3577 20.3571C20.3577 20.9489 19.878 21.4286 19.2863 21.4286C18.6945 21.4286 18.2148 20.9489 18.2148 20.3571V16.0714C18.2148 15.4797 18.6945 15 19.2863 15C19.878 15 20.3577 15.4797 20.3577 16.0714V20.3571Z"/>
</svg>