<svg viewBox="0 0 17 16" xmlns="http://www.w3.org/2000/svg">
<path fill-rule="evenodd" clip-rule="evenodd" d="M8.5 0C4.08182 0 0.5 3.58182 0.5 8C0.5 12.4182 4.08182 16 8.5 16C12.9182 16 16.5 12.4182 16.5 8C16.5 3.58182 12.9182 0 8.5 0ZM11.9676 6.64727C12.0315 6.57429 12.0801 6.48926 12.1106 6.39721C12.1411 6.30516 12.1529 6.20794 12.1453 6.11126C12.1377 6.01459 12.1108 5.92041 12.0662 5.83428C12.0217 5.74814 11.9604 5.67179 11.8859 5.6097C11.8114 5.54762 11.7252 5.50106 11.6324 5.47277C11.5397 5.44448 11.4422 5.43503 11.3457 5.44497C11.2493 5.4549 11.1558 5.48403 11.0707 5.53064C10.9857 5.57725 10.9108 5.6404 10.8505 5.71636L7.72327 9.46836L6.10509 7.84945C5.96793 7.71698 5.78422 7.64367 5.59353 7.64533C5.40284 7.64699 5.22043 7.72347 5.08559 7.85831C4.95074 7.99316 4.87426 8.17557 4.8726 8.36625C4.87094 8.55694 4.94425 8.74065 5.07673 8.87782L7.25855 11.0596C7.33001 11.1311 7.41556 11.1868 7.50976 11.2233C7.60395 11.2598 7.70473 11.2763 7.80565 11.2717C7.90657 11.2672 8.00544 11.2416 8.09594 11.1967C8.18643 11.1518 8.26658 11.0885 8.33127 11.0109L11.9676 6.64727Z"/>
</svg>
