<svg viewBox="0 0 12 19" xmlns="http://www.w3.org/2000/svg">
    <path d="M5.99997 3C2.69161 3 0 5.69154 0 8.99997C0 12.3084 2.69161 15 5.99997 15C9.30833 15 11.9999 12.3084 11.9999 8.99997C11.9999 5.69154 9.30839 3 5.99997 3ZM9.44526 7.98652L5.67578 11.756C5.5155 11.9163 5.30245 12.0045 5.0758 12.0045C4.84916 12.0045 4.6361 11.9163 4.47582 11.756L2.55468 9.83485C2.3944 9.67458 2.30612 9.46152 2.30612 9.23488C2.30612 9.00817 2.3944 8.79511 2.55468 8.63484C2.7149 8.47456 2.92795 8.38628 3.15466 8.38628C3.3813 8.38628 3.59442 8.47456 3.75464 8.6349L5.07574 9.95594L8.24518 6.7865C8.40545 6.62623 8.61851 6.53801 8.84515 6.53801C9.0718 6.53801 9.28485 6.62623 9.44513 6.7865C9.77608 7.11745 9.77608 7.6557 9.44526 7.98652Z"/>
</svg>