<svg viewBox="0 0 28 28" xmlns="http://www.w3.org/2000/svg">
<path d="M13.9998 0.666626C6.64784 0.666626 0.666504 6.64796 0.666504 14C0.666504 21.352 6.64784 27.3333 13.9998 27.3333C21.3518 27.3333 27.3332 21.352 27.3332 14C27.3332 6.64796 21.3518 0.666626 13.9998 0.666626ZM19.5812 14.9866L13.9998 20.568L8.4185 14.9866C8.07362 14.6462 7.79979 14.2406 7.61289 13.7935C7.42599 13.3464 7.32975 12.8666 7.32975 12.382C7.32975 11.8973 7.42599 11.4176 7.61289 10.9704C7.79979 10.5233 8.07362 10.1177 8.4185 9.77729C8.75894 9.43261 9.16441 9.15895 9.61141 8.97217C10.0584 8.78539 10.538 8.68921 11.0225 8.68921C11.507 8.68921 11.9866 8.78539 12.4336 8.97217C12.8806 9.15895 13.2861 9.43261 13.6265 9.77729L13.9998 10.1493L14.3718 9.77729C14.7123 9.43261 15.1177 9.15895 15.5647 8.97217C16.0117 8.78539 16.4914 8.68921 16.9758 8.68921C17.4603 8.68921 17.9399 8.78539 18.3869 8.97217C18.8339 9.15895 19.2394 9.43261 19.5798 9.77729C19.9248 10.1177 20.1987 10.5231 20.3858 10.9702C20.5728 11.4173 20.6691 11.8971 20.6693 12.3817C20.6694 12.8663 20.5733 13.3461 20.3865 13.7933C20.1997 14.2405 19.926 14.6461 19.5812 14.9866Z"/>
</svg>