<svg viewBox="0 0 22 22"  xmlns="http://www.w3.org/2000/svg">
<path d="M21.9956 11.5344C21.9693 10.9251 21.3732 10.4385 20.2204 10.0879C19.3262 9.8205 18.1909 9.6583 16.9635 9.632V4.95497C16.9592 4.87607 16.9372 4.80155 16.8978 4.7358C16.7751 4.20542 16.1833 3.77585 15.1357 3.46025C14.1494 3.16218 12.8607 3 11.5063 3C10.1562 3 8.8807 3.16218 7.91194 3.46025C7.11855 3.70572 6.16736 4.16159 6.16736 4.9462C6.16736 4.99442 6.17175 5.04264 6.18051 5.09085L6.22873 7.08966C3.37956 6.54612 0.6312 8.4178 0.0920501 11.2626C0.0306801 11.587 0 11.9113 0 12.2401C0 15.1331 2.35386 17.4869 5.24686 17.4869C6.45228 17.4869 7.61825 17.0749 8.5519 16.3122C9.3716 16.5051 10.3359 16.6103 11.3572 16.619C11.5808 17.8332 14.2108 18.3899 16.6611 18.3899C18.0112 18.3899 19.2867 18.2234 20.2554 17.9209C21.0488 17.6754 22 17.2152 22 16.4306V11.6177C22 11.5914 22 11.5607 21.9956 11.5344ZM16.0474 7.37896C16.0474 7.43594 15.837 7.73839 14.8858 8.0277C13.996 8.2951 12.7643 8.4529 11.5107 8.4529C10.428 8.4529 9.3672 8.3389 8.5256 8.1241C8.5125 8.1197 8.5037 8.1197 8.4905 8.1154C8.0741 7.78661 7.61387 7.52361 7.11855 7.33951L7.08787 6.10341C7.39032 6.25682 7.70592 6.37956 8.0347 6.46722C8.9859 6.74337 10.2176 6.89241 11.5107 6.89241C12.8607 6.89241 14.1538 6.73022 15.1401 6.43216C15.4688 6.33572 15.7888 6.20861 16.0913 6.05081V7.19924C16.043 7.26061 16.0474 7.31759 16.0474 7.37896ZM8.1749 4.30624C9.0604 4.03447 10.2439 3.88105 11.5063 3.88105C12.7599 3.88105 13.9916 4.03447 14.8815 4.30624C15.8326 4.59554 16.043 4.8936 16.043 4.95059C16.043 5.01195 15.8283 5.31441 14.8771 5.59932C13.9872 5.86671 12.7599 6.02012 11.5063 6.02012C10.2965 6.02012 9.148 5.87986 8.2758 5.62562C7.33333 5.35386 7.07033 5.05579 7.04842 4.95935C7.04842 4.95059 7.04403 4.95059 7.04403 4.95059C7.04842 4.8673 7.25005 4.58677 8.1749 4.30624ZM8.1881 15.475C6.40407 17.0968 3.63818 16.9697 2.01634 15.1857C0.3945 13.4017 0.52162 10.6358 2.30564 9.0139C3.10779 8.2819 4.15979 7.87866 5.24686 7.87866C5.6852 7.87866 6.11915 7.94441 6.53995 8.0715C8.061 8.5449 9.205 9.8073 9.5294 11.3634C9.5864 11.6527 9.6171 11.9508 9.6171 12.2445C9.6214 13.4762 9.0998 14.6465 8.1881 15.475ZM9.3015 15.5714C9.6565 15.1375 9.9414 14.6509 10.1431 14.1293C10.5156 14.16 10.9014 14.1819 11.3046 14.1863V14.2652L11.3309 15.7511C10.6515 15.7424 9.9721 15.681 9.3015 15.5714ZM10.4718 11.7229C10.726 11.7404 10.9934 11.7492 11.2652 11.7535L11.2915 13.3052C10.9847 13.3009 10.6822 13.2877 10.3929 13.2658C10.4587 12.9283 10.4937 12.582 10.4937 12.2401C10.4937 12.0691 10.485 11.8982 10.4718 11.7229ZM11.5501 10.8813C11.537 10.8813 11.5194 10.8813 11.5063 10.8813C11.0855 10.8813 10.6778 10.8637 10.3009 10.8374C10.1343 10.25 9.8713 9.6977 9.5162 9.2068C10.1737 9.2901 10.8356 9.3339 11.5019 9.3339C12.8563 9.3339 14.1494 9.1717 15.1357 8.8737C15.4644 8.7772 15.78 8.6501 16.0825 8.4967V9.6451C14.202 9.6977 12.269 10.0922 11.5501 10.8813ZM12.1287 11.5782C12.1287 11.5738 12.1287 11.5694 12.1331 11.5607C12.1725 11.4423 12.4838 11.153 13.3911 10.8988C14.2415 10.6577 15.3505 10.5262 16.5164 10.5262H16.591C17.8446 10.5262 19.0719 10.6709 19.9661 10.9426C20.8998 11.2232 21.1189 11.5125 21.1233 11.5782V11.5826C21.1189 11.6483 20.8998 11.9508 19.9267 12.2401C19.0281 12.5075 17.8446 12.6521 16.5953 12.6521C15.3855 12.6521 14.2371 12.5119 13.3648 12.262C12.4224 11.9902 12.1638 11.6878 12.1375 11.5957C12.1287 11.5782 12.1287 11.5782 12.1287 11.5782ZM20.0012 17.0881C19.1158 17.3642 17.9279 17.5176 16.6655 17.5176C15.3987 17.5176 14.2152 17.3686 13.3385 17.1012C12.4136 16.8163 12.2208 16.5226 12.2208 16.4569C12.2208 16.4525 12.2208 16.4525 12.2208 16.4481L12.1988 15.1769C12.5495 15.3479 12.9133 15.4794 13.2903 15.5758C14.2108 15.8169 15.3812 15.9528 16.5822 15.9528C17.9366 15.9528 19.221 15.7906 20.2028 15.4925C20.5228 15.3961 20.8296 15.269 21.1233 15.1199V16.4349H21.1277C21.1277 16.4963 20.9261 16.7988 20.0012 17.0881ZM21.1321 13.8619H21.1277C21.1277 13.9058 21.1014 13.9584 21.1014 14.0066C21.1014 14.0679 20.8954 14.366 19.9486 14.6553C19.05 14.9271 17.8534 15.0761 16.5866 15.0761C14.1582 15.0761 12.5232 14.5282 12.1813 14.103L12.1769 13.7348L12.1594 12.7266C12.4662 12.8801 12.7862 13.0028 13.115 13.0948C14.0662 13.371 15.2979 13.52 16.591 13.52C17.9235 13.52 19.1947 13.3622 20.1721 13.0729C20.5053 12.9809 20.8253 12.8538 21.1321 12.696V13.8619Z"/>
</svg>
