<svg viewBox="0 0 24 24" xmlns="http://www.w3.org/2000/svg">
<path d="M23.1593 17.918C22.9775 21.4965 18.0124 24 12.0822 24C6.04021 24 1 21.4011 1 17.7143V6.2857L1.00516 6.082C1.18702 2.5035 6.15211 0 12.0822 0C18.1243 0 23.1645 2.59886 23.1645 6.2857V17.7143L23.1593 17.918ZM20.9493 10.132C18.9141 11.6524 15.6753 12.5714 12.0822 12.5714C8.48991 12.5714 5.25164 11.6527 3.21636 10.1328L3.21645 12C3.21645 13.9938 7.10731 16 12.0822 16C17.0572 16 20.948 13.9938 20.948 12L20.9493 10.132ZM12.0822 2.28571C7.10731 2.28571 3.21645 4.29192 3.21645 6.2857C3.21645 8.2795 7.10731 10.2857 12.0822 10.2857C17.0572 10.2857 20.948 8.2795 20.948 6.2857C20.948 4.29192 17.0572 2.28571 12.0822 2.28571ZM20.9493 15.8463C18.9141 17.3667 15.6753 18.2857 12.0822 18.2857C8.48991 18.2857 5.25164 17.367 3.21636 15.8471L3.21645 17.7143L3.22219 17.8472C3.38992 19.7963 7.21781 21.7143 12.0822 21.7143C17.0572 21.7143 20.948 19.7081 20.948 17.7143L20.9493 15.8463Z"/>
</svg>
