<svg viewBox="0 0 32 32" xmlns="http://www.w3.org/2000/svg">
<path d="M15.4774 0C20.0279 0 29 10.6432 29 18.2251C29 25.6809 22.9559 31.725 15.5 31.725C8.04416 31.725 2 25.6809 2 18.2251C2 10.6409 10.9326 0 15.4774 0ZM15.4774 2.70001C14.5965 2.70001 11.7811 4.81341 9.42673 7.618C6.50631 11.0968 4.70001 14.9308 4.70001 18.2251C4.70001 24.1897 9.53536 29.025 15.5 29.025C21.4647 29.025 26.3001 24.1897 26.3001 18.2251C26.3001 14.9328 24.4859 11.0999 21.5525 7.62013C19.1884 4.81564 16.3604 2.70001 15.4774 2.70001Z"/>
</svg>
