<svg viewBox="0 0 26 26" xmlns="http://www.w3.org/2000/svg">
<path d="M12.9816 0C16.6894 0 24 8.72254 24 14.9361C24 21.0465 19.0751 26 13 26C6.92486 26 2 21.0465 2 14.9361C2 8.72059 9.27837 0 12.9816 0ZM12.9816 2.21277C12.2638 2.21277 9.96971 3.94479 8.05139 6.24327C5.67179 9.09438 4.2 12.2365 4.2 14.9361C4.2 19.8245 8.13988 23.7872 13 23.7872C17.8601 23.7872 21.8 19.8245 21.8 14.9361C21.8 12.238 20.3219 9.09684 17.9316 6.24501C16.0053 3.94662 13.7011 2.21277 12.9816 2.21277Z"/>
<path d="M14 10.8C14 10.3582 13.5523 10 13 10C12.4477 10 12 10.3582 12 10.8V17.2C12 17.6418 12.4477 18 13 18C13.5523 18 14 17.6418 14 17.2V10.8Z"/>
<path d="M16.2 15C16.6418 15 17 14.5523 17 14C17 13.4477 16.6418 13 16.2 13H9.8C9.35817 13 9 13.4477 9 14C9 14.5523 9.35817 15 9.8 15H16.2Z"/>
</svg>
