<svg viewBox="0 0 26 26" xmlns="http://www.w3.org/2000/svg">
<path d="M12.9816 0C16.6895 0 24 8.72255 24 14.9362C24 21.0465 19.0752 26 13 26C6.92486 26 2 21.0465 2 14.9362C2 8.72058 9.27839 0 12.9816 0ZM12.9816 2.21276C12.2639 2.21276 9.96978 3.94478 8.05139 6.24326C5.6718 9.09437 4.2 12.2364 4.2 14.9362C4.2 19.8245 8.13989 23.7871 13 23.7871C17.8601 23.7871 21.8001 19.8245 21.8001 14.9362C21.8001 12.238 20.3219 9.09684 17.9317 6.245C16.0054 3.94661 13.7011 2.21276 12.9816 2.21276Z"/>
<path d="M9.76776 12.5607C9.41075 12.2037 9.41075 11.6248 9.76776 11.2678C10.1248 10.9107 10.7037 10.9107 11.0607 11.2678L16.2322 16.4393C16.5893 16.7963 16.5893 17.3752 16.2322 17.7322C15.8752 18.0893 15.2963 18.0893 14.9393 17.7322L9.76776 12.5607Z"/>
<path d="M14.9393 11.2678C15.2963 10.9107 15.8752 10.9107 16.2322 11.2678C16.5893 11.6248 16.5893 12.2037 16.2322 12.5607L11.0607 17.7322C10.7037 18.0893 10.1248 18.0893 9.76776 17.7322C9.41075 17.3752 9.41075 16.7963 9.76776 16.4393L14.9393 11.2678Z"/>
</svg>
