<svg viewBox="0 0 17 18" xmlns="http://www.w3.org/2000/svg">
<path d="M12.25 12.5C11.84 12.5 11.5 12.84 11.5 13.25V14.75C11.5 15.44 10.94 16 10.25 16H2.75C2.06 16 1.5 15.44 1.5 14.75V2.75C1.5 2.06 2.06 1.5 2.75 1.5H6V6.25C6 6.66 6.34 7 6.75 7H11.5V8.25C11.5 8.66 11.84 9 12.25 9C12.66 9 13 8.66 13 8.25V6.25C13 6.05 12.92 5.86 12.78 5.72L7.28 0.22C7.13948 0.0793075 6.94885 0.000175052 6.75 0H2.75C1.23 0 0 1.23 0 2.75V14.75C0 16.27 1.23 17.5 2.75 17.5H10.25C11.77 17.5 13 16.27 13 14.75V13.25C13 12.84 12.66 12.5 12.25 12.5ZM7.5 2.56L10.44 5.5H7.5V2.56Z"/>
<path d="M5.22 11.2775C5.15 11.2075 5.1 11.1275 5.06 11.0375V11.0275C4.98 10.8475 4.98 10.6375 5.06 10.4575C5.1 10.3675 5.15 10.2875 5.22 10.2175L8.22 7.2175C8.51 6.9275 8.99 6.9275 9.28 7.2175C9.57 7.5075 9.57 7.9875 9.28 8.2775L7.56 9.9975H16.25C16.66 9.9975 17 10.3375 17 10.7475C17 11.1575 16.66 11.4975 16.25 11.4975H7.56L9.28 13.2175C9.41948 13.3586 9.4977 13.5491 9.4977 13.7475C9.4977 13.9459 9.41948 14.1364 9.28 14.2775C9.13 14.4275 8.94 14.4975 8.75 14.4975C8.56 14.4975 8.37 14.4275 8.22 14.2775L5.22 11.2775Z"/>
</svg>
