<svg viewBox="0 0 19 18" xmlns="http://www.w3.org/2000/svg">
<path d="M12.5356 12.5C12.1256 12.5 11.7856 12.84 11.7856 13.25V14.75C11.7856 15.44 11.2256 16 10.5356 16H3.03564C2.34564 16 1.78564 15.44 1.78564 14.75V2.75C1.78564 2.06 2.34564 1.5 3.03564 1.5H6.28564V6.25C6.28564 6.66 6.62564 7 7.03564 7H11.7856V8.25C11.7856 8.66 12.1256 9 12.5356 9C12.9456 9 13.2856 8.66 13.2856 8.25V6.25C13.2856 6.05 13.2056 5.86 13.0656 5.72L7.56564 0.22C7.42513 0.0793075 7.23449 0.000175052 7.03564 0H3.03564C1.51564 0 0.285645 1.23 0.285645 2.75V14.75C0.285645 16.27 1.51564 17.5 3.03564 17.5H10.5356C12.0556 17.5 13.2856 16.27 13.2856 14.75V13.25C13.2856 12.84 12.9456 12.5 12.5356 12.5ZM7.78564 2.56L10.7256 5.5H7.78564V2.56ZM18.2256 11.04C18.1856 11.13 18.1356 11.21 18.0656 11.28L15.0656 14.28C14.9156 14.43 14.7256 14.5 14.5356 14.5C14.3456 14.5 14.1556 14.43 14.0056 14.28C13.8662 14.1389 13.7879 13.9484 13.7879 13.75C13.7879 13.5516 13.8662 13.3611 14.0056 13.22L15.7256 11.5H7.03564C6.62564 11.5 6.28564 11.16 6.28564 10.75C6.28564 10.34 6.62564 10 7.03564 10H15.7256L14.0056 8.28C13.7156 7.99 13.7156 7.51 14.0056 7.22C14.2956 6.93 14.7756 6.93 15.0656 7.22L18.0656 10.22C18.1356 10.29 18.1856 10.37 18.2256 10.46C18.3056 10.64 18.3056 10.85 18.2256 11.03V11.04Z"/>
</svg>
