<svg width="24" height="22" viewBox="0 0 24 22" xmlns="http://www.w3.org/2000/svg">
<path fill-rule="evenodd" clip-rule="evenodd" d="M6.51425 0.685547C6.87798 0.685547 7.2268 0.830037 7.484 1.08723C7.74119 1.34442 7.88568 1.69325 7.88568 2.05698V4.79983C7.88568 5.16356 7.74119 5.51239 7.484 5.76958C7.2268 6.02677 6.87798 6.17126 6.51425 6.17126C6.15053 6.17126 5.8017 6.02677 5.5445 5.76958C5.28731 5.51239 5.14282 5.16356 5.14282 4.79983V2.05698C5.14282 1.69325 5.28731 1.34442 5.5445 1.08723C5.8017 0.830037 6.15053 0.685547 6.51425 0.685547V0.685547Z" stroke="#59779A" stroke-linecap="round" stroke-linejoin="round"/>
<path d="M22.9715 3.42822H7.88574" stroke="#59779A" stroke-linecap="round" stroke-linejoin="round"/>
<path d="M5.14285 3.42822H1.02856" stroke="#59779A" stroke-linecap="round" stroke-linejoin="round"/>
<path fill-rule="evenodd" clip-rule="evenodd" d="M6.51425 14.3999C6.87798 14.3999 7.2268 14.5444 7.484 14.8016C7.74119 15.0588 7.88568 15.4076 7.88568 15.7713V18.5142C7.88568 18.8779 7.74119 19.2267 7.484 19.4839C7.2268 19.7411 6.87798 19.8856 6.51425 19.8856C6.15053 19.8856 5.8017 19.7411 5.5445 19.4839C5.28731 19.2267 5.14282 18.8779 5.14282 18.5142V15.7713C5.14282 15.4076 5.28731 15.0588 5.5445 14.8016C5.8017 14.5444 6.15053 14.3999 6.51425 14.3999Z" stroke="#59779A" stroke-linecap="round" stroke-linejoin="round"/>
<path d="M22.9715 17.1426H7.88574" stroke="#59779A" stroke-linecap="round" stroke-linejoin="round"/>
<path d="M5.14285 17.1426H1.02856" stroke="#59779A" stroke-linecap="round" stroke-linejoin="round"/>
<path fill-rule="evenodd" clip-rule="evenodd" d="M17.4857 7.54248C17.8494 7.54248 18.1982 7.68697 18.4554 7.94416C18.7126 8.20136 18.8571 8.55018 18.8571 8.91391V11.6568C18.8571 12.0205 18.7126 12.3693 18.4554 12.6265C18.1982 12.8837 17.8494 13.0282 17.4857 13.0282C17.122 13.0282 16.7731 12.8837 16.5159 12.6265C16.2587 12.3693 16.1143 12.0205 16.1143 11.6568V8.91391C16.1143 8.55018 16.2587 8.20136 16.5159 7.94416C16.7731 7.68697 17.122 7.54248 17.4857 7.54248V7.54248Z" stroke="#59779A" stroke-linecap="round" stroke-linejoin="round"/>
<path d="M16.1143 10.2856H1.02856" stroke="#59779A" stroke-linecap="round" stroke-linejoin="round"/>
<path d="M22.9715 10.2856H18.8572" stroke="#59779A" stroke-linecap="round" stroke-linejoin="round"/>
</svg>