<svg viewBox="0 0 32 32" xmlns="http://www.w3.org/2000/svg">
<path d="M15.6227 0.0438064C16.5858 0.261516 17.191 1.22251 16.9742 2.19066C16.8741 2.63669 16.7374 3.00786 16.5378 3.31767C13.729 7.67509 14.1807 10.5495 16.0546 10.8279C17.8865 11.1001 18.9106 9.92336 18.6154 7.18366C18.5461 6.5405 18.4882 5.9983 18.4416 5.55698C18.3988 5.15211 18.4974 4.74489 18.7204 4.40493C19.2518 3.59487 20.3361 3.37098 21.1424 3.90483C22.1114 4.54635 23.1967 5.63843 24.4367 7.1923C27.9591 11.606 29.0477 15.4649 28.9984 19.4164C28.9066 26.7781 23.4435 32 15.9992 32C8.52347 32 3 26.7469 3 19.3923C3.03801 12.8881 6.56275 5.82158 13.1547 1.09563C13.41 0.912599 13.7473 0.6649 14.1654 0.353372C14.5832 0.0421363 15.1152 -0.0708818 15.6227 0.0438064ZM12.9202 4.60006C8.14819 8.74692 5.62972 14.3166 5.6 19.4C5.6 25.2712 9.92848 29.3878 15.9992 29.3878C22.0415 29.3878 26.3248 25.2934 26.3986 19.3837C26.4408 15.9957 25.5173 12.7224 22.4083 8.82637C21.9949 8.30835 21.6066 7.85457 21.2458 7.46565C21.4575 11.4729 19.1483 13.9283 15.6741 13.4121C12.1555 12.8891 11.0172 9.16462 12.9202 4.60006Z"/>
</svg>
