<svg viewBox="0 0 32 34" xmlns="http://www.w3.org/2000/svg">
    <path d="M17.6246 2.90516C18.098 2.98579 18.5457 3.17859 18.9478 3.52099C19.6064 4.08189 19.9201 4.78893 20.1625 5.82117C20.2246 6.08542 20.3319 6.39348 20.4661 6.69246C20.774 6.83179 21.0752 6.98666 21.3688 7.15645C21.6586 7.08023 21.9369 6.97901 22.1592 6.86887C23.7227 6.09402 25.0344 6.13473 26.1085 7.36805C26.1994 7.47237 26.2536 7.54147 26.3717 7.69662L27.0684 8.61255C27.2558 8.85888 27.3359 8.97111 27.4541 9.18053C28.22 10.5376 27.9214 11.8014 26.9532 13.1709C26.7925 13.3982 26.6285 13.6956 26.4913 14.0086C26.5779 14.3416 26.65 14.6792 26.7072 15.0207C26.9539 15.231 27.216 15.4153 27.4475 15.5411C28.3378 16.0247 28.9144 16.5091 29.2797 17.3184C29.5026 17.8125 29.5784 18.3203 29.5457 18.8294C29.5284 19.0985 29.5011 19.2485 29.4283 19.5844L29.1792 20.7327C29.1064 21.0686 29.0692 21.2161 28.9739 21.4661C28.7936 21.9389 28.5164 22.36 28.1126 22.7C27.451 23.257 26.7333 23.4232 25.7339 23.4425C25.4811 23.4473 25.179 23.4885 24.8785 23.559C24.6832 23.8463 24.4751 24.1237 24.2551 24.3901C24.2589 24.7132 24.289 25.0308 24.3407 25.2905C24.5479 26.3314 24.5572 27.1133 24.1962 27.9248C23.9758 28.4201 23.6528 28.8024 23.2605 29.0957C23.0532 29.2508 22.9265 29.3226 22.6355 29.4737L21.6404 29.9903C21.3494 30.1415 21.2182 30.2035 20.9758 30.282C20.5171 30.4304 20.0353 30.4661 19.5329 30.3459C18.71 30.1492 18.1369 29.66 17.4939 28.8454C17.324 28.6301 17.0917 28.3957 16.8392 28.1847C16.6778 28.1925 16.5159 28.1964 16.3536 28.1964C16.1913 28.1964 16.0294 28.1925 15.868 28.1847C15.6155 28.3957 15.3832 28.6301 15.2133 28.8454C14.5703 29.66 13.9972 30.1492 13.1743 30.3459C12.6719 30.4661 12.1901 30.4304 11.7314 30.282C11.489 30.2035 11.3579 30.1415 11.0668 29.9903L10.0717 29.4737C9.98425 29.4284 9.92998 29.3997 9.86658 29.3646C8.41451 28.5596 7.98883 27.1877 8.36647 25.2905C8.41817 25.0308 8.44834 24.7132 8.45211 24.3901C8.23213 24.1237 8.02406 23.8463 7.82868 23.559C7.52818 23.4885 7.2261 23.4473 6.9733 23.4425C5.97395 23.4232 5.25622 23.257 4.59466 22.7C4.19081 22.36 3.91361 21.9389 3.73333 21.4661C3.63805 21.2161 3.60083 21.0686 3.52799 20.7327L3.27894 19.5844C3.20182 19.2288 3.17341 19.0702 3.15878 18.7821C3.13136 18.2419 3.22846 17.7053 3.48601 17.1961C3.86128 16.4544 4.41673 15.999 5.25967 15.5411C5.4912 15.4153 5.75334 15.231 5.99996 15.0207C6.05726 14.6792 6.12935 14.3416 6.21591 14.0086C6.0787 13.6956 5.91467 13.3982 5.75403 13.1709C4.78585 11.8014 4.48717 10.5376 5.25316 9.18053C5.37136 8.97111 5.45141 8.85888 5.63879 8.61255L6.33554 7.69662C6.45357 7.54147 6.50782 7.47237 6.59867 7.36805C7.67282 6.13473 8.9845 6.09402 10.5481 6.86887C10.7703 6.97901 11.0486 7.08023 11.3384 7.15645C11.632 6.98666 11.9332 6.83179 12.2411 6.69246C12.3753 6.39348 12.4827 6.08542 12.5447 5.82117C12.7871 4.78893 13.1008 4.08189 13.7594 3.52099C14.1615 3.17859 14.6092 2.98579 15.0826 2.90516C15.2828 2.87107 15.4146 2.86079 15.6251 2.85805L16.9072 2.85714C17.231 2.85714 17.3744 2.86255 17.6246 2.90516ZM17.0021 5.21453L15.8 5.21429C15.2465 5.21429 14.9697 5.21429 14.6929 6.39286C14.5393 7.04705 14.2151 7.8828 13.7676 8.59778C13.0562 8.84574 12.3871 9.19325 11.7749 9.62484C10.9813 9.5416 10.1805 9.28678 9.61352 9.0058C8.57893 8.49308 8.40474 8.72206 8.05637 9.18002L7.35962 10.0959C7.01124 10.5539 6.83706 10.7829 7.52328 11.7536C7.90952 12.2999 8.32168 13.1088 8.5607 13.9411C8.31595 14.6474 8.15352 15.3961 8.0858 16.1741C7.53044 16.8038 6.83367 17.3323 6.26619 17.6406C5.24968 18.1928 5.31195 18.4799 5.43647 19.0541L5.68553 20.2025C5.81005 20.7767 5.87232 21.0638 7.01335 21.0857C7.64422 21.0979 8.47805 21.245 9.23082 21.5459C9.61315 22.2233 10.0783 22.8416 10.6115 23.3851C10.7159 24.2308 10.663 25.1245 10.5327 25.7792C10.2961 26.9676 10.5449 27.0968 11.0424 27.3551L12.0375 27.8718C12.5351 28.1301 12.7838 28.2592 13.5179 27.3291C13.9296 26.8076 14.5739 26.2007 15.2788 25.7659C15.6307 25.8143 15.9894 25.8393 16.3536 25.8393C16.7178 25.8393 17.0766 25.8143 17.4284 25.7659C18.1333 26.2007 18.7776 26.8076 19.1893 27.3291C19.9234 28.2592 20.1722 28.1301 20.6697 27.8718L21.6648 27.3551C22.1623 27.0968 22.4111 26.9676 22.1746 25.7792C22.0442 25.1245 21.9913 24.2308 22.0957 23.3851C22.6289 22.8416 23.0941 22.2233 23.4764 21.5459C24.2292 21.245 25.063 21.0979 25.6939 21.0857C26.8349 21.0638 26.8972 20.7767 27.0217 20.2025L27.2707 19.0541C27.3953 18.4799 27.4575 18.1928 26.441 17.6406C25.8735 17.3323 25.1768 16.8038 24.6214 16.1741C24.5537 15.3961 24.3913 14.6474 24.1465 13.9411C24.3855 13.1088 24.7977 12.2999 25.1839 11.7536C25.8702 10.7829 25.696 10.5539 25.3476 10.0959L24.6509 9.18002C24.3025 8.72206 24.1283 8.49308 23.0937 9.0058C22.5267 9.28678 21.7259 9.5416 20.9323 9.62484C20.3201 9.19325 19.651 8.84574 18.9396 8.59778C18.4922 7.8828 18.168 7.04705 18.0143 6.39286C17.7538 5.28361 17.4933 5.21836 17.0021 5.21453ZM16.3536 11.6964C19.1052 11.6964 21.3358 14.0709 21.3358 17C21.3358 19.9291 19.1052 22.3036 16.3536 22.3036C13.602 22.3036 11.3715 19.9291 11.3715 17C11.3715 14.0709 13.602 11.6964 16.3536 11.6964ZM16.3536 14.0536C14.825 14.0536 13.5858 15.3727 13.5858 17C13.5858 18.6273 14.825 19.9464 16.3536 19.9464C17.8823 19.9464 19.1215 18.6273 19.1215 17C19.1215 15.3727 17.8823 14.0536 16.3536 14.0536Z"/>
</svg>