<svg viewBox="0 0 131 120" xmlns="http://www.w3.org/2000/svg">
    <path d="M68.5 90C73.1944 90 77 86.1944 77 81.5C77 76.8056 73.1944 73 68.5 73C63.8056 73 60 76.8056 60 81.5C60 86.1944 63.8056 90 68.5 90Z"/>
    <path d="M21.75 30.25C26.4444 30.25 30.25 26.4444 30.25 21.75C30.25 17.0556 26.4444 13.25 21.75 13.25C17.0556 13.25 13.25 17.0556 13.25 21.75C13.25 26.4444 17.0556 30.25 21.75 30.25Z"/>
    <path d="M119.5 60C119.454 44.2338 113.171 29.1264 102.022 17.978C90.8736 6.82949 75.7662 0.545996 60 0.500025C49.8479 0.355214 39.8509 3.00146 31.1 8.15002L35.775 15.375C39.0971 13.7783 42.502 12.3596 45.975 11.125C38.9493 24.9882 35.0332 40.2174 34.5 55.75H9C9.47621 48.7326 11.5087 41.9092 14.95 35.775L8.575 30.25C3.28681 39.2726 0.499439 49.5419 0.500001 60C0.498884 67.814 2.03713 75.5516 5.02689 82.771C8.01665 89.9904 12.3993 96.5501 17.9247 102.075C23.45 107.601 30.0096 111.983 37.229 114.973C44.4484 117.963 52.186 119.501 60 119.5C67.5764 119.571 75.0905 118.126 82.1 115.25L79.55 107.175C72.582 110.155 65.0141 111.464 57.45 111C48.3867 97.0603 43.3832 80.8726 43 64.25H119.075C119.426 62.8622 119.57 61.4299 119.5 60V60ZM46.4 109.3C37.9487 106.767 30.2256 102.25 23.875 96.125C15.4424 87.4964 10.1966 76.2554 9 64.25H34.5C35.0848 79.9622 39.1492 95.3487 46.4 109.3V109.3ZM43 55.75C43.338 39.1815 48.1869 23.0186 57.025 9.00002H62.975C71.8131 23.0186 76.662 39.1815 77 55.75H43ZM85.5 55.75C85.1767 40.0001 81.0968 24.5551 73.6 10.7C83.5997 13.5823 92.4887 19.4325 99.0911 27.4768C105.693 35.5211 109.698 45.3802 110.575 55.75H85.5Z"/>
    <path d="M130.778 107.551L109.422 70.8163C109.104 70.2704 108.554 70 108 70C107.446 70 106.891 70.2704 106.578 70.8163L85.222 107.551C84.5906 108.643 85.3812 110 86.6441 110H129.356C130.619 110 131.409 108.643 130.778 107.551ZM106.357 85.102C106.357 84.8776 106.542 84.6939 106.768 84.6939H109.232C109.458 84.6939 109.643 84.8776 109.643 85.102V94.4898C109.643 94.7143 109.458 94.898 109.232 94.898H106.768C106.542 94.898 106.357 94.7143 106.357 94.4898V85.102ZM108 103.061C107.355 103.048 106.741 102.784 106.29 102.327C105.838 101.869 105.586 101.253 105.586 100.612C105.586 99.9713 105.838 99.3558 106.29 98.898C106.741 98.4401 107.355 98.1763 108 98.1633C108.645 98.1763 109.259 98.4401 109.71 98.898C110.162 99.3558 110.414 99.9713 110.414 100.612C110.414 101.253 110.162 101.869 109.71 102.327C109.259 102.784 108.645 103.048 108 103.061V103.061Z"/>
</svg>