<svg viewBox="0 0 20 20" xmlns="http://www.w3.org/2000/svg">
<path d="M11.6667 3.54425C11.6667 3.32323 11.7545 3.11127 11.9107 2.95499C12.067 2.79871 12.279 2.71091 12.5 2.71091C12.721 2.71091 12.933 2.79871 13.0893 2.95499C13.2455 3.11127 13.3333 3.32323 13.3333 3.54425V9.16592C13.3333 9.27642 13.3772 9.3824 13.4554 9.46054C13.5335 9.53868 13.6395 9.58258 13.75 9.58258C13.8605 9.58258 13.9665 9.53868 14.0446 9.46054C14.1228 9.3824 14.1667 9.27642 14.1667 9.16592V5.00008C14.1667 4.77907 14.2545 4.56711 14.4107 4.41083C14.567 4.25455 14.779 4.16675 15 4.16675C15.221 4.16675 15.433 4.25455 15.5893 4.41083C15.7455 4.56711 15.8333 4.77907 15.8333 5.00008V12.2959C15.8333 14.1117 14.86 16.0526 14.2383 17.1184C13.775 17.9142 12.9217 18.3342 12.0525 18.3342H10.2458C9.74281 18.3342 9.24973 18.1941 8.82186 17.9296C8.39398 17.6651 8.04823 17.2867 7.82334 16.8368L7.7125 16.6151C7.36184 15.9137 6.92453 15.2592 6.41084 14.6667L4.5675 12.5401L2.74167 11.1201C2.66625 11.0615 2.60525 10.9864 2.56336 10.9006C2.52147 10.8148 2.49979 10.7206 2.5 10.6251C2.5 10.2209 2.71667 9.92092 2.99333 9.74175C3.24 9.58258 3.535 9.51425 3.795 9.48342C4.325 9.42092 4.97 9.48508 5.53584 9.59508C5.93225 9.67611 6.31372 9.81807 6.66667 10.0159V3.54425C6.66667 3.32323 6.75447 3.11127 6.91075 2.95499C7.06703 2.79871 7.27899 2.71091 7.5 2.71091C7.72102 2.71091 7.93298 2.79871 8.08926 2.95499C8.24554 3.11127 8.33334 3.32323 8.33334 3.54425V8.75008C8.33334 8.86059 8.37723 8.96657 8.45537 9.04471C8.53351 9.12285 8.6395 9.16675 8.75 9.16675C8.86051 9.16675 8.96649 9.12285 9.04463 9.04471C9.12277 8.96657 9.16667 8.86059 9.16667 8.75008V2.50008C9.16667 2.27907 9.25447 2.06711 9.41075 1.91083C9.56703 1.75455 9.77899 1.66675 10 1.66675C10.221 1.66675 10.433 1.75455 10.5893 1.91083C10.7455 2.06711 10.8333 2.27907 10.8333 2.50008V8.75008C10.8333 8.86059 10.8772 8.96657 10.9554 9.04471C11.0335 9.12285 11.1395 9.16675 11.25 9.16675C11.3605 9.16675 11.4665 9.12285 11.5446 9.04471C11.6228 8.96657 11.6667 8.86059 11.6667 8.75008V3.54425Z" />
</svg>