<svg  viewBox="0 0 16 16" xmlns="http://www.w3.org/2000/svg">
    <path d="M8.0002 1.2C11.7538 1.2 14.8002 4.2464 14.8002 8C14.8002 11.7536 11.7538 14.8 8.0002 14.8C4.2466 14.8 1.2002 11.7536 1.2002 8C1.2002 4.2464 4.2466 1.2 8.0002 1.2ZM8.0002 7.2C7.60255 7.2 7.2802 7.52236 7.2802 7.92V10.88C7.2802 11.2776 7.60255 11.6 8.0002 11.6C8.39784 11.6 8.7202 11.2776 8.7202 10.88V7.92C8.7202 7.52236 8.39784 7.2 8.0002 7.2ZM8.0002 4.4C7.55837 4.4 7.2002 4.75817 7.2002 5.2C7.2002 5.64183 7.55837 6 8.0002 6C8.44202 6 8.8002 5.64183 8.8002 5.2C8.8002 4.75817 8.44202 4.4 8.0002 4.4Z"/>
</svg>