<svg viewBox="0 0 30 29" xmlns="http://www.w3.org/2000/svg">
    <path d="M24.3286 7.0875C24.3286 7.56218 24.1321 8.01741 23.7822 8.35306C23.4324 8.68871 22.9578 8.87727 22.4631 8.87727C21.9683 8.87727 21.4938 8.68871 21.1439 8.35306C20.794 8.01741 20.5975 7.56218 20.5975 7.0875C20.5975 6.61282 20.794 6.15759 21.1439 5.82194C21.4938 5.48629 21.9683 5.29773 22.4631 5.29773C22.9578 5.29773 23.4324 5.48629 23.7822 5.82194C24.1321 6.15759 24.3286 6.61282 24.3286 7.0875ZM20.2244 0C17.6322 0.00151729 15.1466 0.990084 13.3137 2.74855C11.4808 4.50701 10.4503 6.89157 10.4487 9.37841C10.4487 9.93252 10.5234 10.4666 10.6129 10.9591C10.626 11.0211 10.6234 11.0853 10.6052 11.1461C10.587 11.2069 10.5538 11.2626 10.5084 11.3085L1.20293 20.2373C0.433126 20.9754 0.00043034 21.9766 0 23.0208V26.1307C0 27.5138 1.17009 28.6364 2.61181 28.6364H6.34297C7.03566 28.6364 7.69999 28.3724 8.1898 27.9025C8.67961 27.4326 8.95478 26.7952 8.95478 26.1307V24.3409H11.5681C12.5979 24.3409 13.4337 23.5391 13.4337 22.5511V20.0455H16.0455C16.5286 20.0458 16.993 19.8663 17.3409 19.5447C17.6889 19.2232 17.8933 18.7847 17.911 18.3215C18.6513 18.5048 19.4334 18.6136 20.2244 18.6136C22.8165 18.6121 25.3021 17.6236 27.135 15.8651C28.968 14.1066 29.9984 11.7221 30 9.23523C30 4.0363 25.5928 0 20.2244 0ZM12.6874 9.37841C12.689 7.46118 13.4836 5.62291 14.8967 4.26722C16.3098 2.91153 18.2259 2.14924 20.2244 2.14773C24.4062 2.14773 27.7613 5.27052 27.7613 9.23523C27.7597 11.1525 26.9652 12.9907 25.552 14.3464C24.1389 15.7021 22.2228 16.4644 20.2244 16.4659C19.2095 16.4659 18.1648 16.2211 17.232 15.8359C17.0616 15.7657 16.8757 15.7372 16.691 15.753C16.5063 15.7687 16.3286 15.8283 16.1738 15.9262C16.0191 16.0242 15.8921 16.1575 15.8043 16.3141C15.7165 16.4708 15.6706 16.646 15.6709 16.8239V17.8977H13.0605C12.0307 17.8977 11.195 18.6995 11.195 19.6875V22.1932H8.58316C7.55336 22.1932 6.71758 22.995 6.71758 23.983V26.1307C6.71758 26.2256 6.67827 26.3167 6.60829 26.3838C6.53832 26.4509 6.44342 26.4886 6.34446 26.4886H2.6133C2.51435 26.4886 2.41944 26.4509 2.34947 26.3838C2.2795 26.3167 2.24019 26.2256 2.24019 26.1307V23.0208C2.24019 22.5468 2.43719 22.0901 2.78643 21.755L12.0934 12.8277C12.393 12.5378 12.6153 12.1829 12.7416 11.7931C12.8678 11.4033 12.8943 10.99 12.8188 10.5883C12.7387 10.1894 12.6947 9.78458 12.6874 9.37841Z"/>
</svg>