<svg viewBox="0 0 28 28" xmlns="http://www.w3.org/2000/svg">
    <path d="M15.3334 1.99984C15.3334 1.64622 15.1929 1.30708 14.9428 1.05703C14.6928 0.80698 14.3536 0.666504 14 0.666504C13.6464 0.666504 13.3073 0.80698 13.0572 1.05703C12.8072 1.30708 12.6667 1.64622 12.6667 1.99984V3.33317C12.6667 3.68679 12.8072 4.02593 13.0572 4.27598C13.3073 4.52603 13.6464 4.6665 14 4.6665C14.3536 4.6665 14.6928 4.52603 14.9428 4.27598C15.1929 4.02593 15.3334 3.68679 15.3334 3.33317V1.99984ZM6.27602 4.3905C6.02455 4.14763 5.68775 4.01323 5.33815 4.01627C4.98856 4.01931 4.65414 4.15954 4.40693 4.40675C4.15972 4.65396 4.01949 4.98837 4.01645 5.33797C4.01342 5.68756 4.14781 6.02437 4.39069 6.27584L5.72402 7.60917C5.97549 7.85205 6.31229 7.98644 6.66189 7.9834C7.01148 7.98037 7.3459 7.84014 7.59311 7.59293C7.84032 7.34572 7.98055 7.0113 7.98359 6.66171C7.98662 6.31211 7.85223 5.97531 7.60935 5.72384L6.27602 4.3905ZM23.6094 6.27584C23.8522 6.02437 23.9866 5.68756 23.9836 5.33797C23.9805 4.98837 23.8403 4.65396 23.5931 4.40675C23.3459 4.15954 23.0115 4.01931 22.6619 4.01627C22.3123 4.01323 21.9755 4.14763 21.724 4.3905L20.3907 5.72384C20.1478 5.97531 20.0134 6.31211 20.0165 6.66171C20.0195 7.0113 20.1597 7.34572 20.4069 7.59293C20.6541 7.84014 20.9886 7.98037 21.3382 7.9834C21.6877 7.98644 22.0246 7.85205 22.276 7.60917L23.6094 6.27584ZM14 5.99984C12.2814 5.99973 10.6084 6.55308 9.22883 7.57796C7.84923 8.60284 6.83635 10.0448 6.34018 11.6902C5.844 13.3356 5.89091 15.0971 6.47395 16.7138C7.05699 18.3305 8.14517 19.7165 9.57735 20.6665H18.4227C19.8549 19.7165 20.9431 18.3305 21.5261 16.7138C22.1091 15.0971 22.156 13.3356 21.6599 11.6902C21.1637 10.0448 20.1508 8.60284 18.7712 7.57796C17.3916 6.55308 15.7186 5.99973 14 5.99984ZM18 21.9998H10V23.3332C10 24.394 10.4214 25.4115 11.1716 26.1616C11.9217 26.9117 12.9392 27.3332 14 27.3332C15.0609 27.3332 16.0783 26.9117 16.8284 26.1616C17.5786 25.4115 18 24.394 18 23.3332V21.9998ZM2.00002 12.6665C1.6464 12.6665 1.30726 12.807 1.05721 13.057C0.807163 13.3071 0.666687 13.6462 0.666687 13.9998C0.666687 14.3535 0.807163 14.6926 1.05721 14.9426C1.30726 15.1927 1.6464 15.3332 2.00002 15.3332H3.33335C3.68698 15.3332 4.02611 15.1927 4.27616 14.9426C4.52621 14.6926 4.66669 14.3535 4.66669 13.9998C4.66669 13.6462 4.52621 13.3071 4.27616 13.057C4.02611 12.807 3.68698 12.6665 3.33335 12.6665H2.00002ZM24.6667 12.6665C24.3131 12.6665 23.9739 12.807 23.7239 13.057C23.4738 13.3071 23.3334 13.6462 23.3334 13.9998C23.3334 14.3535 23.4738 14.6926 23.7239 14.9426C23.9739 15.1927 24.3131 15.3332 24.6667 15.3332H26C26.3536 15.3332 26.6928 15.1927 26.9428 14.9426C27.1929 14.6926 27.3334 14.3535 27.3334 13.9998C27.3334 13.6462 27.1929 13.3071 26.9428 13.057C26.6928 12.807 26.3536 12.6665 26 12.6665H24.6667Z"/>
</svg>