<svg viewBox="0 0 20 20" xmlns="http://www.w3.org/2000/svg">
<path d="M3.75 11.25C3.40278 11.25 3.10778 11.1283 2.865 10.885C2.62167 10.6422 2.5 10.3472 2.5 10C2.5 9.65278 2.62167 9.35778 2.865 9.115C3.10778 8.87167 3.40278 8.75 3.75 8.75C4.09722 8.75 4.39222 8.87167 4.635 9.115C4.87833 9.35778 5 9.65278 5 10C5 10.3472 4.87833 10.6422 4.635 10.885C4.39222 11.1283 4.09722 11.25 3.75 11.25ZM3.75 6.25C3.40278 6.25 3.10778 6.12833 2.865 5.885C2.62167 5.64222 2.5 5.34722 2.5 5C2.5 4.65278 2.62167 4.35778 2.865 4.115C3.10778 3.87167 3.40278 3.75 3.75 3.75C4.09722 3.75 4.39222 3.87167 4.635 4.115C4.87833 4.35778 5 4.65278 5 5C5 5.34722 4.87833 5.64222 4.635 5.885C4.39222 6.12833 4.09722 6.25 3.75 6.25ZM3.75 16.25C3.40278 16.25 3.10778 16.1283 2.865 15.885C2.62167 15.6422 2.5 15.3472 2.5 15C2.5 14.6528 2.62167 14.3578 2.865 14.115C3.10778 13.8717 3.40278 13.75 3.75 13.75C4.09722 13.75 4.39222 13.8717 4.635 14.115C4.87833 14.3578 5 14.6528 5 15C5 15.3472 4.87833 15.6422 4.635 15.885C4.39222 16.1283 4.09722 16.25 3.75 16.25ZM7.5 15.8333C7.26389 15.8333 7.06611 15.7533 6.90667 15.5933C6.74667 15.4339 6.66667 15.2361 6.66667 15C6.66667 14.7639 6.74667 14.5661 6.90667 14.4067C7.06611 14.2467 7.26389 14.1667 7.5 14.1667H16.6667C16.9028 14.1667 17.1006 14.2467 17.26 14.4067C17.42 14.5661 17.5 14.7639 17.5 15C17.5 15.2361 17.42 15.4339 17.26 15.5933C17.1006 15.7533 16.9028 15.8333 16.6667 15.8333H7.5ZM7.5 10.8333C7.26389 10.8333 7.06611 10.7533 6.90667 10.5933C6.74667 10.4339 6.66667 10.2361 6.66667 10C6.66667 9.76389 6.74667 9.56583 6.90667 9.40583C7.06611 9.24639 7.26389 9.16667 7.5 9.16667H16.6667C16.9028 9.16667 17.1006 9.24639 17.26 9.40583C17.42 9.56583 17.5 9.76389 17.5 10C17.5 10.2361 17.42 10.4339 17.26 10.5933C17.1006 10.7533 16.9028 10.8333 16.6667 10.8333H7.5ZM7.5 5.83333C7.26389 5.83333 7.06611 5.75361 6.90667 5.59417C6.74667 5.43417 6.66667 5.23611 6.66667 5C6.66667 4.76389 6.74667 4.56583 6.90667 4.40583C7.06611 4.24639 7.26389 4.16667 7.5 4.16667H16.6667C16.9028 4.16667 17.1006 4.24639 17.26 4.40583C17.42 4.56583 17.5 4.76389 17.5 5C17.5 5.23611 17.42 5.43417 17.26 5.59417C17.1006 5.75361 16.9028 5.83333 16.6667 5.83333H7.5Z" />
</svg>