<svg viewBox="0 0 23 24" xmlns="http://www.w3.org/2000/svg">
<path fill-rule="evenodd" clip-rule="evenodd" d="M3.31579 9.85535C2.45103 9.85535 1.75 10.5564 1.75 11.4211V20.6843C1.75 21.5491 2.45103 22.2501 3.31579 22.2501H19.5263C20.3911 22.2501 21.0921 21.5491 21.0921 20.6843V11.4211C21.0921 10.5564 20.3911 9.85535 19.5263 9.85535H3.31579ZM0.25 11.4211C0.25 9.72795 1.6226 8.35535 3.31579 8.35535H19.5263C21.2195 8.35535 22.5921 9.72795 22.5921 11.4211V20.6843C22.5921 22.3775 21.2195 23.7501 19.5263 23.7501H3.31579C1.6226 23.7501 0.25 22.3775 0.25 20.6843V11.4211Z"/>
<path fill-rule="evenodd" clip-rule="evenodd" d="M7.94829 1.75C7.22593 1.75 6.53315 2.03696 6.02236 2.54775C5.51157 3.05854 5.22461 3.75132 5.22461 4.47368V8.35526H17.6193V4.47368C17.6193 3.75132 17.3324 3.05854 16.8216 2.54775C16.3108 2.03696 15.618 1.75 14.8957 1.75H7.94829ZM4.9617 1.48709C5.75379 0.694994 6.8281 0.25 7.94829 0.25H14.8957C16.0159 0.25 17.0902 0.694994 17.8823 1.48709C18.6744 2.27918 19.1193 3.35349 19.1193 4.47368V9.10526C19.1193 9.51948 18.7836 9.85526 18.3693 9.85526H4.47461C4.0604 9.85526 3.72461 9.51948 3.72461 9.10526V4.47368C3.72461 3.35349 4.1696 2.27918 4.9617 1.48709Z"/>
<path d="M14.2005 15.5895C14.2005 17.1243 12.9563 18.3684 11.4215 18.3684C9.88675 18.3684 8.64258 17.1243 8.64258 15.5895C8.64258 14.0547 9.88675 12.8105 11.4215 12.8105C12.9563 12.8105 14.2005 14.0547 14.2005 15.5895Z"/>
</svg>
