<svg viewBox="0 0 21 21" xmlns="http://www.w3.org/2000/svg">
<g clip-path="url(#clip0_14900_119880)">
<path d="M18.8636 5.11365L2.61365 5.11365C2.28213 5.11365 1.96418 5.24534 1.72976 5.47976C1.49534 5.71418 1.36365 6.03213 1.36365 6.36365L1.36365 15.1136C1.36365 15.4452 1.49534 15.7631 1.72976 15.9975C1.96418 16.232 2.28213 16.3636 2.61365 16.3636H18.8636C19.1952 16.3636 19.5131 16.232 19.7475 15.9975C19.982 15.7631 20.1136 15.4452 20.1136 15.1136V6.36365C20.1136 6.03213 19.982 5.71418 19.7475 5.47976C19.5131 5.24534 19.1952 5.11365 18.8636 5.11365ZM6.59802 15.1136L2.61365 11.6996L2.61365 9.77771L6.59802 6.36365L14.8793 6.36365L18.8636 9.77771V11.6996L14.8793 15.1136H6.59802ZM13.8636 10.7386C13.8636 11.3567 13.6804 11.9609 13.337 12.4748C12.9936 12.9887 12.5056 13.3892 11.9345 13.6258C11.3635 13.8623 10.7352 13.9242 10.129 13.8036C9.5228 13.683 8.96598 13.3854 8.52894 12.9484C8.0919 12.5113 7.79427 11.9545 7.67369 11.3483C7.55311 10.7421 7.615 10.1138 7.85152 9.54276C8.08805 8.97174 8.48859 8.48368 9.00249 8.14031C9.51639 7.79693 10.1206 7.61365 10.7386 7.61365C11.5674 7.61365 12.3623 7.94289 12.9484 8.52894C13.5344 9.11499 13.8636 9.90985 13.8636 10.7386Z" />
</g>
<defs>
<clipPath id="clip0_14900_119880">
<rect width="20" height="20" fill="white" transform="translate(0.738647 0.738647)"/>
</clipPath>
</defs>
</svg>