<svg viewBox="0 0 26 30" xmlns="http://www.w3.org/2000/svg">
    <path d="M13 0C12.4783 0 11.9565 0.138246 11.4911 0.414777L1.50893 6.3596C0.578036 6.91505 0 7.9469 0 9.05541V20.9427C0 22.0512 0.578036 23.0831 1.50893 23.6385L11.4911 29.5834C11.9554 29.8611 12.4777 30 13 30C13.5223 30 14.0446 29.8611 14.5089 29.5834L24.4911 23.6385C25.422 23.0855 26 22.0536 26 20.9451V9.05541C26 7.9469 25.422 6.91505 24.4911 6.3596L14.5089 0.414777C14.0435 0.138246 13.5217 0 13 0ZM13 1.43512C13.2809 1.43512 13.5618 1.50994 13.8125 1.65957L23.7946 7.6044C24.2961 7.90367 24.6071 8.45926 24.6071 9.05541V20.9427C24.6071 21.5413 24.2961 22.0968 23.7946 22.3961L13.8125 28.3409C13.3111 28.6402 12.6889 28.6402 12.1875 28.3409L2.20536 22.3961C1.70393 22.0968 1.39286 21.5412 1.39286 20.9451V9.05541C1.39286 8.45926 1.70393 7.90128 2.20536 7.6044L12.1875 1.65957C12.4382 1.50994 12.7191 1.43512 13 1.43512ZM13 3.49965C12.8799 3.49965 12.7597 3.5318 12.6518 3.59645C12.4359 3.72573 12.3036 3.96313 12.3036 4.21931V25.7835C12.3036 26.1809 12.6146 26.5018 13 26.5018C13.3854 26.5018 13.6964 26.1809 13.6964 25.7835V15.7185H16.4821C16.8675 15.7185 17.1786 15.3977 17.1786 15.0002C17.1786 14.6028 16.8675 14.282 16.4821 14.282H13.6964V5.46177L19.5091 8.92354C19.5044 8.95467 19.5 8.98361 19.5 9.01473V20.9857C19.5 21.3832 19.8111 21.704 20.1964 21.704C20.5818 21.704 20.8929 21.3832 20.8929 20.9857V9.74749L22.1696 10.5088C22.5039 10.7075 22.9287 10.5903 23.1213 10.2455C23.314 9.90073 23.198 9.46222 22.8661 9.2635L13.3482 3.59645C13.2403 3.5318 13.1201 3.49965 13 3.49965ZM9.05357 7.09937C8.66821 7.09937 8.35714 7.42019 8.35714 7.81763V18.7664L4.58482 9.92191C4.4525 9.61066 4.12765 9.43863 3.80497 9.50807C3.47997 9.57989 3.25 9.87185 3.25 10.2118V19.7886C3.25 20.1861 3.56107 20.5069 3.94643 20.5069C4.33179 20.5069 4.64286 20.1861 4.64286 19.7886V13.6282L8.41518 22.4728C8.52893 22.7361 8.78196 22.9011 9.05357 22.9011C9.1 22.9011 9.14855 22.8962 9.1973 22.8866C9.51998 22.8148 9.75 22.5228 9.75 22.1828V7.81763C9.75 7.42019 9.43893 7.09937 9.05357 7.09937Z"/>
</svg>