<svg viewBox="0 0 26 26" xmlns="http://www.w3.org/2000/svg">
    <path d="M22.2816 1.90142L24.094 3.71375C25.4329 5.05269 25.4329 7.22354 24.094 8.56248L21.0001 11.6563L8.59602 24.0605C7.63156 25.0249 6.3235 25.5667 4.95958 25.5667H2.77157C1.47764 25.5667 0.428711 24.5178 0.428711 23.2238V21.0359C0.428711 19.6719 0.970587 18.3637 1.93512 17.3993L14.3396 4.9955L14.3391 4.99526L17.4329 1.90142C18.7719 0.562482 20.9427 0.562482 22.2816 1.90142ZM15.8573 6.7103L3.55132 19.0156C3.01547 19.5514 2.71443 20.2781 2.71443 21.0359V23.2238C2.71443 23.2554 2.74001 23.281 2.77157 23.281H4.95958C5.71731 23.281 6.44401 22.98 6.97982 22.4442L19.2859 10.1389L15.8573 6.7103ZM19.0492 3.51767L17.5716 4.99526L21.0001 8.42383L22.4777 6.94624C22.924 6.49992 22.924 5.77631 22.4777 5.32999L20.6654 3.51767C20.2191 3.07135 19.4955 3.07135 19.0492 3.51767Z"/>
</svg>
