<svg viewBox="0 0 26 26" xmlns="http://www.w3.org/2000/svg">
    <path d="M7.5271 11.2172C7.69783 11.2385 7.86144 11.2457 8.03216 11.2457C9.08495 11.2457 10.0951 10.89 10.9202 10.2213C11.8805 9.44594 12.4852 8.34335 12.6203 7.11273C12.7555 5.8821 12.3998 4.67992 11.6245 3.7196C10.0239 1.73495 7.10741 1.42195 5.12275 3.02248C4.16243 3.79785 3.55779 4.90044 3.42263 6.13107C3.28748 7.3617 3.64315 8.56387 4.41852 9.52419C5.201 10.4845 6.30359 11.0892 7.5271 11.2172V11.2172ZM5.54956 6.3587C5.62069 5.69715 5.94791 5.10673 6.46008 4.68703C6.90823 4.32425 7.44886 4.1393 8.01793 4.1393C8.11041 4.1393 8.19577 4.14641 8.28825 4.15352C8.9498 4.22466 9.54022 4.55188 9.95991 5.07116C10.3796 5.59044 10.5646 6.23777 10.4934 6.89932C10.4223 7.56087 10.0951 8.15129 9.5829 8.57099C9.07073 8.99068 8.41629 9.17563 7.75474 9.1045C7.09318 9.03336 6.50276 8.70614 6.08307 8.18686C5.67049 7.66758 5.47842 7.02025 5.54956 6.3587V6.3587Z"/>
    <path d="M21.8881 16.4668C20.2876 14.4821 17.3711 14.1691 15.3864 15.7697C14.4261 16.545 13.8215 17.6476 13.6863 18.8783C13.5511 20.1089 13.9068 21.3111 14.6822 22.2714C15.4576 23.2317 16.5601 23.8364 17.7908 23.9715C17.9615 23.9928 18.1251 24 18.2958 24C19.3486 24 20.3587 23.6443 21.1839 22.9756C23.1686 21.368 23.4887 18.4515 21.8881 16.4668V16.4668ZM19.8466 21.304C19.3273 21.7237 18.68 21.9086 18.0184 21.8375C17.3569 21.7663 16.7664 21.4391 16.3467 20.9198C15.927 20.4005 15.7421 19.7532 15.8132 19.0917C15.8844 18.4301 16.2116 17.8397 16.7238 17.42C17.1861 17.0501 17.7339 16.8723 18.2816 16.8723C19.0072 16.8723 19.7328 17.1924 20.2236 17.797C21.0843 18.8711 20.9136 20.4432 19.8466 21.304Z"/>
    <path d="M22.6278 4.90742C22.2579 4.44505 21.5892 4.37391 21.1269 4.74381L3.4001 19.0277C2.93772 19.3976 2.86659 20.0662 3.23649 20.5286C3.44989 20.7918 3.75577 20.927 4.06876 20.927C4.30351 20.927 4.53825 20.8487 4.73743 20.6922L22.4642 6.41548C22.9266 6.03846 22.9977 5.3698 22.6278 4.90742V4.90742Z"/>
</svg> 