<svg viewBox="0 0 31 30" xmlns="http://www.w3.org/2000/svg">
<path fill-rule="evenodd" clip-rule="evenodd" d="M28.877 15C28.877 22.1797 23.0567 28 15.877 28C8.69725 28 2.87695 22.1797 2.87695 15C2.87695 7.8203 8.69725 2 15.877 2C23.0567 2 28.877 7.8203 28.877 15ZM30.877 15C30.877 23.2843 24.1612 30 15.877 30C7.59268 30 0.876953 23.2843 0.876953 15C0.876953 6.71573 7.59268 0 15.877 0C24.1612 0 30.877 6.71573 30.877 15Z"/>
<rect x="14.627" y="7.5" width="2.5" height="15" rx="1.25"/>
<rect x="23.377" y="13.75" width="2.5" height="15" rx="1.25" transform="rotate(90 23.377 13.75)"/>
</svg>
