<svg viewBox="0 0 26 26" xmlns="http://www.w3.org/2000/svg">
    <path d="M13.2571 21.484C12.5991 21.484 11.9687 22.0626 11.9991 22.742C12.0296 23.4236 12.5519 24.0001 13.2571 24.0001C13.9152 24.0001 14.5456 23.4214 14.5152 22.742C14.4847 22.0604 13.9624 21.484 13.2571 21.484Z"/>
    <path d="M13.259 2C9.80781 2 7 4.80781 7 8.25905C7 8.95379 7.56328 9.51707 8.25803 9.51707C8.95277 9.51707 9.51605 8.95379 9.51605 8.25905C9.51605 6.19522 11.1952 4.51605 13.259 4.51605C15.3229 4.51605 17.002 6.19522 17.002 8.25905C17.002 10.3229 15.3229 12.002 13.259 12.002C12.5643 12.002 12.001 12.5653 12.001 13.2601V18.3911C12.001 19.0858 12.5643 19.6491 13.259 19.6491C13.9538 19.6491 14.5171 19.0859 14.5171 18.391V14.391C17.3674 13.8071 19.5181 11.2795 19.5181 8.25905C19.5181 4.80781 16.7103 2 13.259 2Z"/>
</svg>   