<svg viewBox="0 0 16 16" xmlns="http://www.w3.org/2000/svg">
    <path d="M8 15C6.14348 15 4.36301 14.2625 3.05025 12.9497C1.7375 11.637 1 9.85652 1 8C1 6.14348 1.7375 4.36301 3.05025 3.05025C4.36301 1.7375 6.14348 1 8 1C9.85652 1 11.637 1.7375 12.9497 3.05025C14.2625 4.36301 15 6.14348 15 8C15 9.85652 14.2625 11.637 12.9497 12.9497C11.637 14.2625 9.85652 15 8 15ZM8 16C10.1217 16 12.1566 15.1571 13.6569 13.6569C15.1571 12.1566 16 10.1217 16 8C16 5.87827 15.1571 3.84344 13.6569 2.34315C12.1566 0.842855 10.1217 0 8 0C5.87827 0 3.84344 0.842855 2.34315 2.34315C0.842855 3.84344 0 5.87827 0 8C0 10.1217 0.842855 12.1566 2.34315 13.6569C3.84344 15.1571 5.87827 16 8 16Z"/>
    <path d="M5.25497 5.786C5.2536 5.81829 5.25886 5.85053 5.2704 5.88072C5.28195 5.91091 5.29956 5.93841 5.32213 5.96155C5.3447 5.98468 5.37177 6.00296 5.40167 6.01524C5.43156 6.02753 5.46366 6.03357 5.49597 6.033H6.32097C6.45897 6.033 6.56897 5.92 6.58697 5.783C6.67697 5.127 7.12697 4.649 7.92897 4.649C8.61497 4.649 9.24297 4.992 9.24297 5.817C9.24297 6.452 8.86897 6.744 8.27797 7.188C7.60497 7.677 7.07197 8.248 7.10997 9.175L7.11297 9.392C7.11402 9.45761 7.14083 9.52017 7.1876 9.5662C7.23437 9.61222 7.29736 9.63801 7.36297 9.638H8.17397C8.24028 9.638 8.30387 9.61166 8.35075 9.56478C8.39763 9.51789 8.42397 9.4543 8.42397 9.388V9.283C8.42397 8.565 8.69697 8.356 9.43397 7.797C10.043 7.334 10.678 6.82 10.678 5.741C10.678 4.23 9.40197 3.5 8.00497 3.5C6.73797 3.5 5.34997 4.09 5.25497 5.786ZM6.81197 11.549C6.81197 12.082 7.23697 12.476 7.82197 12.476C8.43097 12.476 8.84997 12.082 8.84997 11.549C8.84997 10.997 8.42997 10.609 7.82097 10.609C7.23697 10.609 6.81197 10.997 6.81197 11.549Z"/>
</svg>