<svg viewBox="0 0 28 28" xmlns="http://www.w3.org/2000/svg">
    <path d="M13.9298 20.8218C12.131 20.8218 10.4692 20.2732 9.0815 19.3473L4.06189 24.3709C3.66769 24.7653 3.01668 24.7653 2.60569 24.3709L1.62918 23.3937C1.23515 22.9993 1.23515 22.3478 1.62918 21.9363L6.66592 16.9298C5.74098 15.541 5.19259 13.8779 5.19259 12.0776C5.19259 7.2597 9.11576 3.33337 13.9298 3.33337C18.7438 3.33337 22.667 7.2597 22.667 12.0776C22.667 16.8953 18.7609 20.8218 13.9298 20.8218ZM13.9298 6.76248C11.0003 6.76248 8.61894 9.14571 8.61894 12.0776C8.61894 15.0095 11.0003 17.3927 13.9298 17.3927C16.8593 17.3927 19.2406 15.0095 19.2406 12.0776C19.2406 9.14571 16.8593 6.76248 13.9298 6.76248Z"/>
</svg>