<svg viewBox="0 0 14 14" xmlns="http://www.w3.org/2000/svg">
<g clip-path="url(#clip0_14900_119934)">
<path d="M7.30017 8.53384C7.20392 8.82259 6.79617 8.82259 6.69992 8.53384L6.13554 6.83897C6.01132 6.46639 5.80202 6.12787 5.52423 5.85024C5.24645 5.5726 4.90781 5.36349 4.53517 5.23947L2.84117 4.67509C2.55242 4.57884 2.55242 4.17109 2.84117 4.07484L4.53604 3.51047C4.90862 3.38624 5.24714 3.17694 5.52477 2.89916C5.80241 2.62137 6.01152 2.28274 6.13554 1.91009L6.69992 0.216092C6.72067 0.152864 6.76086 0.0978041 6.81475 0.0587692C6.86865 0.0197334 6.9335 -0.0012846 7.00004 -0.0012846C7.06659 -0.0012846 7.13144 0.0197334 7.18533 0.0587692C7.23923 0.0978041 7.27942 0.152864 7.30017 0.216092L7.86454 1.91097C7.98868 2.28345 8.19785 2.62191 8.47547 2.89954C8.7531 3.17716 9.09156 3.38633 9.46404 3.51047L11.1589 4.07484C11.2221 4.09559 11.2772 4.13578 11.3162 4.18968C11.3553 4.24357 11.3763 4.30842 11.3763 4.37497C11.3763 4.44151 11.3553 4.50636 11.3162 4.56026C11.2772 4.61415 11.2221 4.65434 11.1589 4.67509L9.46404 5.23947C9.09156 5.3636 8.7531 5.57277 8.47547 5.8504C8.19785 6.12803 7.98868 6.46649 7.86454 6.83897L7.30017 8.53384ZM10.6803 12.9955C10.6677 13.0334 10.6436 13.0663 10.6112 13.0897C10.5789 13.1131 10.54 13.1257 10.5 13.1257C10.4601 13.1257 10.4212 13.1131 10.3889 13.0897C10.3565 13.0663 10.3323 13.0334 10.3198 12.9955L9.98117 11.9787C9.82979 11.5255 9.47454 11.1702 9.02129 11.0188L8.00454 10.6802C7.96665 10.6677 7.93368 10.6435 7.91031 10.6111C7.88693 10.5788 7.87435 10.5399 7.87435 10.5C7.87435 10.4601 7.88693 10.4212 7.91031 10.3888C7.93368 10.3564 7.96665 10.3323 8.00454 10.3197L9.02129 9.98109C9.24483 9.90662 9.44796 9.7811 9.61457 9.61449C9.78118 9.44788 9.90669 9.24476 9.98117 9.02122L10.3198 8.00447C10.3323 7.96657 10.3565 7.9336 10.3889 7.91023C10.4212 7.88686 10.4601 7.87428 10.5 7.87428C10.54 7.87428 10.5789 7.88686 10.6112 7.91023C10.6436 7.9336 10.6677 7.96657 10.6803 8.00447L11.0189 9.02122C11.0934 9.24476 11.2189 9.44788 11.3855 9.61449C11.5521 9.7811 11.7553 9.90662 11.9788 9.98109L12.9955 10.3197C13.0334 10.3323 13.0664 10.3564 13.0898 10.3888C13.1132 10.4212 13.1257 10.4601 13.1257 10.5C13.1257 10.5399 13.1132 10.5788 13.0898 10.6111C13.0664 10.6435 13.0334 10.6677 12.9955 10.6802L11.9788 11.0188C11.7553 11.0933 11.5521 11.2188 11.3855 11.3854C11.2189 11.5521 11.0934 11.7552 11.0189 11.9787L10.6803 12.9955ZM4.49492 13.9133C4.48628 13.9383 4.47009 13.9599 4.44861 13.9752C4.42713 13.9904 4.40141 13.9987 4.37504 13.9987C4.34867 13.9987 4.32296 13.9904 4.30148 13.9752C4.27999 13.9599 4.26381 13.9383 4.25517 13.9133L4.02942 13.2361C3.92879 12.9333 3.69167 12.6962 3.38892 12.5956L2.71167 12.3698C2.68675 12.3612 2.66515 12.345 2.64986 12.3235C2.63457 12.3021 2.62635 12.2763 2.62635 12.25C2.62635 12.2236 2.63457 12.1979 2.64986 12.1764C2.66515 12.1549 2.68675 12.1387 2.71167 12.1301L3.38892 11.9043C3.53812 11.8547 3.67369 11.771 3.78487 11.6598C3.89606 11.5486 3.97979 11.413 4.02942 11.2638L4.25517 10.5866C4.26381 10.5617 4.27999 10.5401 4.30148 10.5248C4.32296 10.5095 4.34867 10.5013 4.37504 10.5013C4.40141 10.5013 4.42713 10.5095 4.44861 10.5248C4.47009 10.5401 4.48628 10.5617 4.49492 10.5866L4.72067 11.2638C4.7703 11.413 4.85403 11.5486 4.96522 11.6598C5.0764 11.771 5.21197 11.8547 5.36117 11.9043L6.03754 12.1301C6.06246 12.1387 6.08406 12.1549 6.09935 12.1764C6.11464 12.1979 6.12286 12.2236 6.12286 12.25C6.12286 12.2763 6.11464 12.3021 6.09935 12.3235C6.08406 12.345 6.06246 12.3612 6.03754 12.3698L5.36029 12.5956C5.05754 12.6962 4.82042 12.9333 4.71979 13.2361L4.49492 13.9125V13.9133Z"/>
</g>
<defs>
<clipPath id="clip0_14900_119934">
<rect width="14" height="14" fill="white" transform="translate(14 14) rotate(-180)"/>
</clipPath>
</defs>
</svg>