<svg viewBox="0 0 34 32" xmlns="http://www.w3.org/2000/svg">
    <path d="M12.1992 14.5938C12.5473 14.5938 12.8812 14.4456 13.1273 14.1819C13.3734 13.9181 13.5117 13.5605 13.5117 13.1875C13.5117 12.8145 13.3734 12.4569 13.1273 12.1931C12.8812 11.9294 12.5473 11.7812 12.1992 11.7812C11.8511 11.7812 11.5173 11.9294 11.2711 12.1931C11.025 12.4569 10.8867 12.8145 10.8867 13.1875C10.8867 13.5605 11.025 13.9181 11.2711 14.1819C11.5173 14.4456 11.8511 14.5938 12.1992 14.5938ZM12.1992 20.2188C12.5473 20.2188 12.8812 20.0706 13.1273 19.8069C13.3734 19.5431 13.5117 19.1855 13.5117 18.8125C13.5117 18.4395 13.3734 18.0819 13.1273 17.8181C12.8812 17.5544 12.5473 17.4062 12.1992 17.4062C11.8511 17.4062 11.5173 17.5544 11.2711 17.8181C11.025 18.0819 10.8867 18.4395 10.8867 18.8125C10.8867 19.1855 11.025 19.5431 11.2711 19.8069C11.5173 20.0706 11.8511 20.2188 12.1992 20.2188ZM13.5117 24.4375C13.5117 24.8105 13.3734 25.1681 13.1273 25.4319C12.8812 25.6956 12.5473 25.8438 12.1992 25.8438C11.8511 25.8438 11.5173 25.6956 11.2711 25.4319C11.025 25.1681 10.8867 24.8105 10.8867 24.4375C10.8867 24.0645 11.025 23.7069 11.2711 23.4431C11.5173 23.1794 11.8511 23.0312 12.1992 23.0312C12.5473 23.0312 12.8812 23.1794 13.1273 23.4431C13.3734 23.7069 13.5117 24.0645 13.5117 24.4375ZM15.2617 13.1875C15.2617 12.9389 15.3539 12.7004 15.518 12.5246C15.6821 12.3488 15.9047 12.25 16.1367 12.25H22.2617C22.4938 12.25 22.7163 12.3488 22.8804 12.5246C23.0445 12.7004 23.1367 12.9389 23.1367 13.1875C23.1367 13.4361 23.0445 13.6746 22.8804 13.8504C22.7163 14.0262 22.4938 14.125 22.2617 14.125H16.1367C15.9047 14.125 15.6821 14.0262 15.518 13.8504C15.3539 13.6746 15.2617 13.4361 15.2617 13.1875ZM15.2617 18.8125C15.2617 18.5639 15.3539 18.3254 15.518 18.1496C15.6821 17.9738 15.9047 17.875 16.1367 17.875H22.2617C22.4938 17.875 22.7163 17.9738 22.8804 18.1496C23.0445 18.3254 23.1367 18.5639 23.1367 18.8125C23.1367 19.0611 23.0445 19.2996 22.8804 19.4754C22.7163 19.6512 22.4938 19.75 22.2617 19.75H16.1367C15.9047 19.75 15.6821 19.6512 15.518 19.4754C15.3539 19.2996 15.2617 19.0611 15.2617 18.8125ZM15.2617 24.4375C15.2617 24.1889 15.3539 23.9504 15.518 23.7746C15.6821 23.5988 15.9047 23.5 16.1367 23.5H22.2617C22.4938 23.5 22.7163 23.5988 22.8804 23.7746C23.0445 23.9504 23.1367 24.1889 23.1367 24.4375C23.1367 24.6861 23.0445 24.9246 22.8804 25.1004C22.7163 25.2762 22.4938 25.375 22.2617 25.375H16.1367C15.9047 25.375 15.6821 25.2762 15.518 25.1004C15.3539 24.9246 15.2617 24.6861 15.2617 24.4375ZM19.6367 1C20.1798 0.999695 20.7096 1.17986 21.1531 1.51568C21.5966 1.85149 21.9319 2.32642 22.113 2.875H24.8867C25.5829 2.875 26.2506 3.17132 26.7429 3.69876C27.2352 4.22621 27.5117 4.94158 27.5117 5.6875V28.1875C27.5117 28.9334 27.2352 29.6488 26.7429 30.1762C26.2506 30.7037 25.5829 31 24.8867 31H9.13672C8.44053 31 7.77285 30.7037 7.28056 30.1762C6.78828 29.6488 6.51172 28.9334 6.51172 28.1875V5.6875C6.51172 4.94158 6.78828 4.22621 7.28056 3.69876C7.77285 3.17132 8.44053 2.875 9.13672 2.875H11.9105C12.0915 2.32642 12.4269 1.85149 12.8704 1.51568C13.3139 1.17986 13.8436 0.999695 14.3867 1H19.6367ZM20.5117 3.8125C20.5117 3.56386 20.4195 3.3254 20.2554 3.14959C20.0913 2.97377 19.8688 2.875 19.6367 2.875H14.3867C14.1547 2.875 13.9321 2.97377 13.768 3.14959C13.6039 3.3254 13.5117 3.56386 13.5117 3.8125C13.5117 4.06114 13.6039 4.2996 13.768 4.47541C13.9321 4.65123 14.1547 4.75 14.3867 4.75H19.6367C19.8688 4.75 20.0913 4.65123 20.2554 4.47541C20.4195 4.2996 20.5117 4.06114 20.5117 3.8125ZM24.8867 4.75H22.113C21.9319 5.29858 21.5966 5.77351 21.1531 6.10932C20.7096 6.44514 20.1798 6.62531 19.6367 6.625H14.3867C13.8436 6.62531 13.3139 6.44514 12.8704 6.10932C12.4269 5.77351 12.0915 5.29858 11.9105 4.75H9.13672C8.90466 4.75 8.68209 4.84877 8.518 5.02459C8.3539 5.2004 8.26172 5.43886 8.26172 5.6875V28.1875C8.26172 28.4361 8.3539 28.6746 8.518 28.8504C8.68209 29.0262 8.90466 29.125 9.13672 29.125H24.8867C25.1188 29.125 25.3413 29.0262 25.5054 28.8504C25.6695 28.6746 25.7617 28.4361 25.7617 28.1875V5.6875C25.7617 5.43886 25.6695 5.2004 25.5054 5.02459C25.3413 4.84877 25.1188 4.75 24.8867 4.75Z"/>
</svg>