<svg viewBox="0 0 22 22" xmlns="http://www.w3.org/2000/svg">
<path d="M2.11082 10.0608H8.52749C9.52995 10.0608 10.3473 9.24343 10.3473 8.24097V1.81979C10.3473 0.817323 9.52995 0 8.52749 0H2.11082C1.10836 0 0.291034 0.817323 0.291034 1.81979V8.23645C0.286519 9.24343 1.10384 10.0608 2.11082 10.0608ZM1.39284 1.81979C1.39284 1.42693 1.71345 1.10632 2.10631 1.10632H8.52297C8.91583 1.10632 9.23644 1.42693 9.23644 1.81979V8.23645C9.23644 8.62931 8.91583 8.94992 8.52297 8.94992H2.11082C1.71796 8.94992 1.39736 8.62931 1.39736 8.23645V1.81979H1.39284Z"/>
<path d="M21.5536 4.63748L17.9817 1.06564C17.765 0.848889 17.4173 0.848889 17.2005 1.06564C16.9838 1.28239 16.9838 1.63009 17.2005 1.84684L19.8286 4.47492H12.116C11.8089 4.47492 11.5605 4.72327 11.5605 5.03033C11.5605 5.33739 11.8089 5.58575 12.116 5.58575H19.8286L17.2005 8.21383C16.9838 8.43058 16.9838 8.77828 17.2005 8.99503C17.3089 9.1034 17.4489 9.15759 17.5934 9.15759C17.7379 9.15759 17.8779 9.1034 17.9862 8.99503L21.5581 5.42319C21.7703 5.20193 21.7703 4.85423 21.5536 4.63748Z"/>
<path d="M21.717 20.1802V13.7635C21.717 12.761 20.8997 11.9437 19.8972 11.9437H13.476C12.4736 11.9437 11.6562 12.761 11.6562 13.7635V20.1802C11.6562 21.1826 12.4736 22 13.476 22H19.8927C20.8997 22 21.717 21.1826 21.717 20.1802ZM20.6107 20.1802C20.6107 20.573 20.2901 20.8936 19.8972 20.8936H13.476C13.0832 20.8936 12.7626 20.573 12.7626 20.1802V13.7635C12.7626 13.3707 13.0832 13.05 13.476 13.05H19.8927C20.2856 13.05 20.6062 13.3707 20.6062 13.7635V20.1802H20.6107Z"/>
<path d="M4.4079 21.0969C4.54788 21.0969 4.69238 21.0427 4.80076 20.9344C5.01751 20.7176 5.01751 20.3699 4.80076 20.1532L2.17268 17.5251H9.88533C10.1924 17.5251 10.4407 17.2767 10.4407 16.9697C10.4407 16.6626 10.1924 16.4142 9.88533 16.4142H2.17268L4.80076 13.7862C5.01751 13.5694 5.01751 13.2217 4.80076 13.005C4.58401 12.7882 4.23631 12.7882 4.01956 13.005L0.447718 16.5768C0.230969 16.7936 0.230969 17.1413 0.447718 17.358L4.01956 20.9298C4.12793 21.0427 4.26792 21.0969 4.4079 21.0969Z"/>
</svg>
