<svg viewBox="0 0 28 28" xmlns="http://www.w3.org/2000/svg">
<path d="M27.6657 24.0524C26.4296 23.1 23.1384 20.4695 20.0731 17.3085C18.0358 15.2062 17.1692 13.1016 15.6246 11.5085C14.5472 10.3973 13.5448 9.64313 13.1409 9.35514C13.0326 9.27789 12.886 9.29396 12.7934 9.3895V9.3895C12.6847 9.5016 12.5048 9.5016 12.3961 9.3895L11.1091 8.06225C10.588 7.52485 10.5879 6.6707 11.109 6.13324V6.13324C11.1849 6.05401 11.2273 5.94852 11.2273 5.83879C11.2273 5.72905 11.1849 5.62356 11.109 5.54433V5.54433C11.0018 5.43379 10.9894 5.24835 11.0887 5.13072C11.7429 4.3561 14.1804 1.79257 17.1468 2.6656C17.5509 2.78553 17.9112 2.98945 18.0134 2.88539C18.1524 2.7426 17.6228 2.19382 17.3125 1.8765C13.4026 -2.1242 9.13479 1.39039 8.22948 2.2261C8.13005 2.31788 7.97774 2.31437 7.88361 2.21715V2.21715C7.84675 2.17867 7.8025 2.14805 7.7535 2.12713C7.7045 2.10621 7.65177 2.09543 7.59849 2.09543C7.54521 2.09543 7.49249 2.10621 7.44349 2.12713C7.39449 2.14805 7.35023 2.17867 7.31338 2.21715L3.00212 6.66335C2.9262 6.74258 2.88381 6.84807 2.88381 6.9578C2.88381 6.96531 2.88401 6.97279 2.88441 6.98025C2.89498 7.18064 3.0675 7.33996 3.09432 7.53883C3.13288 7.82475 3.02551 8.23628 2.14584 8.34187C1.58868 8.40953 1.23963 8.53506 1.04178 8.70072C0.732934 9.01221 0.425108 9.32471 0.118306 9.63821C0.0423849 9.71744 0 9.82293 0 9.93266C0 10.0424 0.0423849 10.1479 0.118306 10.2271L3.34463 13.5552C3.38152 13.5937 3.42582 13.6244 3.47486 13.6453C3.5239 13.6662 3.57666 13.677 3.62998 13.677C3.6833 13.677 3.73606 13.6662 3.7851 13.6453V13.6453C3.87635 13.6063 3.95692 13.5118 4.02552 13.4401C4.26422 13.1907 4.80894 12.6213 4.82387 12.6023C4.98393 12.3979 5.10619 12.0386 5.17058 11.4637C5.29182 10.3977 5.82087 10.4313 6.08124 10.5168C6.18192 10.5499 6.25989 10.6295 6.35731 10.6712V10.6712C6.4064 10.6922 6.45924 10.703 6.51263 10.703C6.56602 10.703 6.61886 10.6922 6.66794 10.6712C6.71703 10.6502 6.76135 10.6195 6.79821 10.5808V10.5808C7.30992 10.053 8.15678 10.053 8.66849 10.5808L9.95471 11.9075C10.0654 12.0217 10.0655 12.2031 9.95482 12.3173V12.3173C9.86086 12.4144 9.84491 12.562 9.92011 12.6742C10.1985 13.0895 10.9305 14.125 12.0096 15.238C13.5537 16.8306 15.5948 17.7242 17.6326 19.8265C20.697 22.9875 23.2472 26.3814 24.172 27.6568C24.5211 28.137 24.5766 28.0926 25.0026 27.6526L27.6606 24.911C28.0876 24.4696 28.1314 24.4127 27.6657 24.0524Z"/>
<path d="M16.081 8.51004C15.4584 9.1328 15.4879 10.1471 16.1015 10.7787V10.7787C16.2905 10.9736 16.4716 11.1744 16.6469 11.3805C17.4594 12.336 18.9102 12.4958 19.7971 11.6089L21.4658 9.93993C21.9599 9.44577 22.6777 9.2787 23.3765 9.2766C23.7925 9.27534 24.208 9.21814 24.6119 9.10516C25.379 8.89057 26.0779 8.48201 26.6412 7.91886C27.2045 7.35571 27.6133 6.65695 27.8281 5.88993V5.88993C28.1093 4.88615 26.9244 4.483 26.1873 5.2201L24.897 6.51046C24.3918 7.01569 23.6554 7.21303 22.9653 7.02814L22.5082 6.90571C21.818 6.7208 21.2788 6.18165 21.0939 5.4914L20.9711 5.03315C20.7862 4.34287 20.9836 3.60635 21.489 3.10112L22.7781 1.81251C23.5154 1.07548 23.1125 -0.109571 22.1087 0.171854V0.171854C21.3419 0.386848 20.6435 0.79606 20.081 1.35993C19.5176 1.9226 19.1087 2.62095 18.8936 3.38762C18.7804 3.79146 18.7229 4.20708 18.7215 4.62309C18.719 5.32134 18.5519 6.03849 18.0583 6.53229L16.081 8.51004ZM11.4277 15.6001V15.6001C10.7819 14.9331 9.70721 14.8838 9.05079 15.5403L6.53243 18.059C6.03832 18.5532 5.32049 18.7202 4.62168 18.7225C4.20595 18.7239 3.79059 18.7812 3.38699 18.8943C2.62019 19.1092 1.92175 19.5182 1.35909 20.0817C-0.452857 21.8923 -0.45239 24.8294 1.35909 26.6404C1.78959 27.0712 2.30076 27.413 2.8634 27.6462C3.42604 27.8794 4.02911 27.9994 4.63815 27.9994C5.24719 27.9994 5.85026 27.8794 6.4129 27.6462C6.97553 27.413 7.48671 27.0712 7.9172 26.6404C8.48065 26.0774 8.88959 25.3787 9.10462 24.6117C9.21792 24.2077 9.27537 23.7918 9.2768 23.3755C9.27919 22.6772 9.44637 21.96 9.94019 21.4662L12.1579 19.2487C13.027 18.3797 12.8923 16.963 11.9828 16.1364C11.7928 15.9637 11.6076 15.7856 11.4277 15.6001ZM6.17519 25.2326C5.66991 25.7379 4.93343 25.9352 4.24321 25.7502L3.7858 25.6276C3.09556 25.4426 2.55647 24.9034 2.37162 24.2132L2.24907 23.7555C2.06421 23.0652 2.26176 22.3287 2.76728 21.8235L3.1025 21.4885C3.60756 20.9838 4.34337 20.7866 5.03313 20.9711L5.4902 21.0934C6.18086 21.2782 6.72036 21.8176 6.90526 22.5082L7.02788 22.9662C7.21264 23.6563 7.01529 24.3925 6.51015 24.8977L6.17519 25.2326Z"/>
</svg>
