<svg viewBox="0 0 24 26" xmlns="http://www.w3.org/2000/svg">
    <path d="M21.1427 8.42847V20.4285C21.1427 23.2688 18.8402 25.5713 15.9999 25.5713H7.99986C5.15954 25.5713 2.857 23.2688 2.857 20.4285V8.42847H2.0458C1.23145 8.42847 0.571289 7.76831 0.571289 6.95396V5.28561C0.571289 3.54986 1.97839 2.14275 3.71415 2.14275H5.60119C6.1997 1.10666 7.31768 0.428467 8.57129 0.428467H15.4284C16.682 0.428467 17.8 1.10666 18.3985 2.14275H20.2856C22.0213 2.14275 23.4284 3.54986 23.4284 5.28561V6.95396C23.4284 7.76831 22.7683 8.42847 21.9539 8.42847H21.1427ZM19.9999 6.14275H21.1427V5.28561C21.1427 4.81222 20.759 4.42847 20.2856 4.42847H17.6421C17.1207 4.42847 16.6653 4.07548 16.5354 3.57048C16.4068 3.07086 15.9528 2.71418 15.4284 2.71418H8.57129C8.04688 2.71418 7.59296 3.07086 7.46437 3.57048C7.33439 4.07548 6.87905 4.42847 6.35758 4.42847H3.71415C3.24076 4.42847 2.857 4.81222 2.857 5.28561V6.14275H3.99986H19.9999ZM5.14272 8.42847V20.4285C5.14272 22.0064 6.4219 23.2856 7.99986 23.2856H15.9999C17.5778 23.2856 18.857 22.0064 18.857 20.4285V8.42847H5.14272Z"/>
</svg>
