<svg viewBox="0 0 24 24" xmlns="http://www.w3.org/2000/svg">
    <path d="M5.53601 21.8861C5.69777 21.9702 5.8794 22.0087 6.06139 21.9974C6.24338 21.9861 6.41886 21.9255 6.56901 21.8221L19.569 12.8221C19.7018 12.73 19.8104 12.6072 19.8854 12.464C19.9604 12.3209 19.9995 12.1617 19.9995 12.0001C19.9995 11.8385 19.9604 11.6793 19.8854 11.5361C19.8104 11.3929 19.7018 11.2701 19.569 11.1781L6.56901 2.17806C6.41915 2.07351 6.24346 2.01212 6.0611 2.00056C5.87874 1.98901 5.69671 2.02774 5.53486 2.11254C5.373 2.19734 5.23753 2.32494 5.14322 2.48144C5.0489 2.63794 4.99937 2.81734 5.00001 3.00006V21.0001C4.99998 21.1826 5.04991 21.3617 5.14439 21.5178C5.23888 21.674 5.37431 21.8014 5.53601 21.8861Z"/>
    <path d="M7 4.90906L17.243 12.0001L7 19.0911V4.90906Z"/>
</svg>