<svg viewBox="0 0 22 24" xmlns="http://www.w3.org/2000/svg">
<path fill-rule="evenodd" clip-rule="evenodd" d="M3.2 10.5499C2.39919 10.5499 1.75 11.1991 1.75 11.9999V20.7999C1.75 21.6007 2.39919 22.2499 3.2 22.2499H18.6C19.4008 22.2499 20.05 21.6007 20.05 20.7999V11.9999C20.05 11.1991 19.4008 10.5499 18.6 10.5499H3.2ZM0.25 11.9999C0.25 10.3707 1.57076 9.04993 3.2 9.04993H18.6C20.2292 9.04993 21.55 10.3707 21.55 11.9999V20.7999C21.55 22.4292 20.2292 23.7499 18.6 23.7499H3.2C1.57076 23.7499 0.25 22.4292 0.25 20.7999V11.9999Z"/>
<path fill-rule="evenodd" clip-rule="evenodd" d="M7.60078 1.75C6.92448 1.75 6.27588 2.01866 5.79766 2.49688C5.31944 2.9751 5.05078 3.6237 5.05078 4.3V9.8C5.05078 10.2142 4.71499 10.55 4.30078 10.55C3.88657 10.55 3.55078 10.2142 3.55078 9.8V4.3C3.55078 3.22587 3.97748 2.19574 4.737 1.43622C5.49652 0.676695 6.52665 0.25 7.60078 0.25H14.2008C14.615 0.25 14.9508 0.585786 14.9508 1C14.9508 1.41421 14.615 1.75 14.2008 1.75H7.60078Z"/>
<path d="M13.8697 16.4551C13.8697 18.0954 12.54 19.4251 10.8997 19.4251C9.2594 19.4251 7.92969 18.0954 7.92969 16.4551C7.92969 14.8148 9.2594 13.4851 10.8997 13.4851C12.54 13.4851 13.8697 14.8148 13.8697 16.4551Z"/>
</svg>
