<svg viewBox="0 0 31 30" xmlns="http://www.w3.org/2000/svg">
    <path d="M20.1878 12.2857H22.318C22.5408 12.2857 22.7545 12.376 22.912 12.5367C23.0695 12.6975 23.158 12.9155 23.158 13.1428C23.158 13.3702 23.0695 13.5882 22.912 13.7489C22.7545 13.9097 22.5408 14 22.318 14H10.558C10.3353 14 10.1216 13.9097 9.96408 13.7489C9.80655 13.5882 9.71805 13.3702 9.71805 13.1428C9.71805 12.9155 9.80655 12.6975 9.96408 12.5367C10.1216 12.376 10.3353 12.2857 10.558 12.2857H11.8298C11.5921 12.0166 11.444 11.6775 11.4069 11.3171C11.3697 10.9568 11.4455 10.5937 11.6232 10.28L15.8232 2.8571C16.046 2.46337 16.4129 2.17608 16.8433 2.05841C17.2736 1.94075 17.7322 2.00235 18.118 2.22967L22.4827 4.8011C22.8685 5.02844 23.1501 5.40287 23.2654 5.84202C23.3807 6.28117 23.3203 6.74908 23.0976 7.14282L20.1878 12.2857ZM21.6427 6.28568L17.278 3.71424L13.078 11.1371L15.0268 12.2857H18.2491L21.6427 6.28568ZM23.0908 10.5714L24.0602 8.85711C24.3104 8.8667 24.5554 8.93325 24.7772 9.05189C24.999 9.17054 25.192 9.33827 25.342 9.54282L29.542 15.2565C29.7601 15.5533 29.878 15.9142 29.878 16.2851V24.2857C29.878 24.7404 29.701 25.1764 29.386 25.4979C29.0709 25.8194 28.6436 26 28.198 26H4.67805C4.23248 26 3.80517 25.8194 3.49011 25.4979C3.17505 25.1764 2.99805 24.7404 2.99805 24.2857V16.2851C2.99805 15.9142 3.11595 15.5533 3.33405 15.2565L7.53405 9.54282C7.69053 9.32992 7.89345 9.15711 8.12673 9.03809C8.36 8.91907 8.61723 8.85711 8.87805 8.85711H10.4959L9.69117 10.28C9.63871 10.3727 9.59484 10.4703 9.56013 10.5714H8.87805L5.09805 15.7143H27.778L23.998 10.5714H23.0908ZM4.67805 24.2857H28.198V17.4286H4.67805V24.2857Z"/>
</svg>
