<svg viewBox="0 0 26 26" xmlns="http://www.w3.org/2000/svg">
    <path d="M23.1554 11.1243L19.2648 7.239C19.1843 7.15843 19.075 7.11328 18.9612 7.11328H18.0308L19.1368 6.00734C19.3046 5.83949 19.3046 5.56741 19.1368 5.39973L15.8629 2.12589C15.6951 1.95804 15.423 1.95804 15.2552 2.12589L10.2632 7.11781C10.2439 7.11513 10.2245 7.11328 10.2045 7.11328H7.31265C7.19852 7.11328 7.08925 7.1586 7.00868 7.23933L3.12589 11.1245C3.04817 11.2022 3 11.3098 3 11.4285V23.5703C3 23.8076 3.19235 24 3.42969 24H22.8517C23.0891 24 23.2814 23.8076 23.2814 23.5703V19.2182C23.2814 18.9809 23.0891 18.7885 22.8517 18.7885C22.6144 18.7885 22.422 18.9809 22.422 19.2182V23.1406H3.85937V11.8581H22.422V15.7805C22.422 16.0179 22.6144 16.2102 22.8517 16.2102C23.0891 16.2102 23.2814 16.0179 23.2814 15.7805V11.4285C23.2814 11.3096 23.2331 11.2022 23.1554 11.1243ZM15.5591 3.03729L18.2252 5.70354L14.8728 9.05594H11.3346L10.4375 8.15897L15.5591 3.03729ZM4.46648 10.9988L7.49057 7.97266H9.44296C9.36592 8.13261 9.39328 8.33017 9.52588 8.46277L10.1192 9.05594H8.76453C8.52719 9.05594 8.33484 9.24846 8.33484 9.48563C8.33484 9.72296 8.52719 9.91531 8.76453 9.91531H17.5167C17.7541 9.91531 17.9464 9.72296 17.9464 9.48563C17.9464 9.24846 17.7541 9.05594 17.5167 9.05594H16.088L17.1715 7.97266H18.7833L21.8133 10.9988H4.46648Z"/>
    <path d="M9.3595 17.4993C9.3595 19.5843 11.0558 21.2807 13.1408 21.2807C15.2258 21.2807 16.922 19.5843 16.922 17.4993C16.922 15.4145 15.2258 13.7181 13.1408 13.7181C11.0558 13.7181 9.3595 15.4143 9.3595 17.4993ZM16.0626 17.4993C16.0626 19.1105 14.7519 20.4214 13.1408 20.4214C11.5298 20.4214 10.2189 19.1105 10.2189 17.4993C10.2189 15.8883 11.5298 14.5774 13.1408 14.5774C14.7519 14.5774 16.0626 15.8881 16.0626 17.4993Z"/>
    <path d="M12.1125 16.9973C11.9446 16.8294 11.6725 16.8294 11.5047 16.9973C11.337 17.1651 11.337 17.4372 11.5047 17.6049L12.4475 18.5475C12.5314 18.6315 12.6413 18.6734 12.7513 18.6734C12.8612 18.6734 12.9712 18.6315 13.0551 18.5475L14.7777 16.8249C14.9456 16.6572 14.9456 16.3852 14.7777 16.2173C14.6099 16.0495 14.3378 16.0495 14.1701 16.2173L12.7513 17.6361L12.1125 16.9973Z"/>
    <path d="M22.8517 17.0694C22.7386 17.0694 22.6278 17.1154 22.5479 17.1955C22.468 17.2754 22.422 17.3862 22.422 17.4991C22.422 17.6126 22.468 17.723 22.5479 17.8034C22.6278 17.8833 22.7386 17.9288 22.8517 17.9288C22.9647 17.9288 23.0755 17.8833 23.1555 17.8034C23.2354 17.723 23.2814 17.6123 23.2814 17.4991C23.2814 17.3862 23.2354 17.2757 23.1555 17.1955C23.0755 17.1154 22.9647 17.0694 22.8517 17.0694Z"/>
</svg>