<svg viewBox="0 0 31 31" xmlns="http://www.w3.org/2000/svg">
    <path d="M19.7222 5.03572C20.9725 5.03572 21.6184 5.16045 22.291 5.52012C22.9142 5.85342 23.4097 6.34894 23.743 6.97216C24.0832 7.60832 24.2132 8.22068 24.2263 9.34336C25.1317 9.40151 25.7083 9.55952 26.3026 9.87738C27.0131 10.2574 27.5772 10.8214 27.9572 11.5319C28.3699 12.3037 28.5131 13.0453 28.5131 14.5134V21.2723C28.5131 22.7404 28.3699 23.4821 27.9572 24.2538C27.5772 24.9643 27.0131 25.5283 26.3026 25.9083C25.5309 26.3211 24.7892 26.4643 23.3212 26.4643H7.99079C6.52273 26.4643 5.78106 26.3211 5.00933 25.9083C4.2988 25.5283 3.73477 24.9643 3.35478 24.2538C2.94205 23.4821 2.79883 22.7404 2.79883 21.2723V9.32143H2.80097L2.80109 9.26283C2.81941 8.19105 2.95122 7.59294 3.28322 6.97216C3.61653 6.34894 4.11204 5.85342 4.73527 5.52012C5.40778 5.16045 6.05369 5.03572 7.30403 5.03572H19.7222ZM23.3212 11.4643H4.94169V21.2723C4.94169 22.4169 5.02037 22.8244 5.24438 23.2432C5.42466 23.5803 5.6828 23.8385 6.0199 24.0187C6.43875 24.2427 6.84622 24.3214 7.99079 24.3214H23.3212C24.4657 24.3214 24.8732 24.2427 25.292 24.0187C25.6291 23.8385 25.8873 23.5803 26.0676 23.2432C26.2916 22.8244 26.3703 22.4169 26.3703 21.2723V14.5134C26.3703 13.3688 26.2916 12.9614 26.0676 12.5425C25.8873 12.2054 25.6291 11.9473 25.292 11.767C24.8732 11.543 24.4657 11.4643 23.3212 11.4643ZM22.0845 16.8214C22.6763 16.8214 23.156 17.3011 23.156 17.8929C23.156 18.4846 22.6763 18.9643 22.0845 18.9643H19.9417C19.35 18.9643 18.8703 18.4846 18.8703 17.8929C18.8703 17.3011 19.35 16.8214 19.9417 16.8214H22.0845ZM19.7222 7.17858H7.30403C6.37719 7.17858 6.06547 7.23877 5.74584 7.40972C5.49605 7.54331 5.30641 7.73294 5.17282 7.98273C5.01614 8.2757 4.9525 8.56201 4.94297 9.32143H22.0833C22.0737 8.56201 22.0101 8.2757 21.8534 7.98273C21.7198 7.73294 21.5302 7.54331 21.2804 7.40972C20.9608 7.23877 20.649 7.17858 19.7222 7.17858Z"/>
</svg>