<svg viewBox="0 0 30 30" xmlns="http://www.w3.org/2000/svg">
    <path d="M25.714 13.7634C25.714 12.6188 25.6353 12.2114 25.4113 11.7925C25.231 11.4554 24.9729 11.1973 24.6358 11.017C24.2169 10.793 23.8095 10.7143 22.6649 10.7143H4.28544V20.5223C4.28544 21.6669 4.36412 22.0744 4.58813 22.4932C4.76841 22.8303 5.02655 23.0885 5.36365 23.2687C5.7825 23.4927 6.18997 23.5714 7.33454 23.5714H24.1979L22.8135 22.1862C22.3951 21.7678 22.3951 21.0894 22.8135 20.671C23.232 20.2525 23.9103 20.2525 24.3288 20.671L27.5431 23.8852C27.9615 24.3037 27.9615 24.9821 27.5431 25.4005L24.3288 28.6148C23.9103 29.0332 23.232 29.0332 22.8135 28.6148C22.3951 28.1963 22.3951 27.518 22.8135 27.0995L24.1979 25.7143H7.33454C5.86648 25.7143 5.12481 25.5711 4.35308 25.1583C3.64255 24.7783 3.07852 24.2143 2.69853 23.5038C2.2858 22.7321 2.14258 21.9904 2.14258 20.5223V8.57143H2.14472L2.14484 8.51283C2.16316 7.44105 2.29497 6.84294 2.62697 6.22216C2.96028 5.59894 3.45579 5.10342 4.07902 4.77012C4.75153 4.41045 5.39744 4.28572 6.64778 4.28572H19.0659C20.3163 4.28572 20.9622 4.41045 21.6347 4.77012C22.2579 5.10342 22.7535 5.59894 23.0868 6.22216C23.427 6.85832 23.557 7.47068 23.57 8.59336C24.4755 8.65151 25.052 8.80952 25.6464 9.12738C26.3569 9.50738 26.9209 10.0714 27.3009 10.7819C27.7136 11.5537 27.8569 12.2953 27.8569 13.7634V18.2143C27.8569 18.806 27.3772 19.2857 26.7854 19.2857C26.1937 19.2857 25.714 18.806 25.714 18.2143V13.7634ZM21.4283 16.0714C22.02 16.0714 22.4997 16.5511 22.4997 17.1429C22.4997 17.7346 22.02 18.2143 21.4283 18.2143H19.2854C18.6937 18.2143 18.214 17.7346 18.214 17.1429C18.214 16.5511 18.6937 16.0714 19.2854 16.0714H21.4283ZM19.0659 6.42858H6.64778C5.72094 6.42858 5.40923 6.48877 5.08959 6.65972C4.8398 6.79331 4.65016 6.98294 4.51657 7.23273C4.35989 7.5257 4.29625 7.81201 4.28672 8.57143H21.427C21.4175 7.81201 21.3538 7.5257 21.1972 7.23273C21.0636 6.98294 20.8739 6.79331 20.6241 6.65972C20.3045 6.48877 19.9928 6.42858 19.0659 6.42858Z"/>
</svg>