<svg viewBox="0 0 30 31" xmlns="http://www.w3.org/2000/svg">
    <path d="M20.3074 21.4522C20.7258 21.0338 21.4042 21.0338 21.8226 21.4522C22.241 21.8706 22.241 22.549 21.8226 22.9674L20.4361 24.3527H28.565C29.1145 24.3527 29.5673 24.7663 29.6292 25.2992L29.6364 25.4241C29.6364 26.0158 29.1567 26.4955 28.565 26.4955H20.4382L21.8226 27.8808C22.2089 28.267 22.2386 28.8748 21.9118 29.2951L21.8226 29.396C21.4042 29.8144 20.7258 29.8144 20.3074 29.396L17.0931 26.1817C16.6747 25.7633 16.6747 25.0849 17.0931 24.6665L20.3074 21.4522ZM25.3507 14.5446C25.3507 13.4001 25.272 12.9926 25.048 12.5738C24.8678 12.2367 24.6096 11.9785 24.2725 11.7982C23.8537 11.5742 23.4462 11.4955 22.3016 11.4955H3.92215V21.3036C3.92215 22.4481 4.00084 22.8556 4.22485 23.2745C4.40513 23.6116 4.66327 23.8697 5.00037 24.05C5.41922 24.274 5.82669 24.3527 6.97125 24.3527H13.565C14.1567 24.3527 14.6364 24.8324 14.6364 25.4241C14.6364 26.0158 14.1567 26.4955 13.565 26.4955H6.97125C5.50319 26.4955 4.76153 26.3523 3.9898 25.9396C3.27927 25.5596 2.71524 24.9956 2.33525 24.285C1.92252 23.5133 1.7793 22.7716 1.7793 21.3036V9.35268H1.78144L1.78156 9.29408C1.79988 8.2223 1.93169 7.62419 2.26369 7.00341C2.597 6.38019 3.09251 5.88467 3.71574 5.55137C4.38825 5.1917 5.03416 5.06697 6.2845 5.06697H18.7027C19.953 5.06697 20.5989 5.1917 21.2714 5.55137C21.8947 5.88467 22.3902 6.38019 22.7235 7.00341C23.0637 7.63957 23.1937 8.25193 23.2068 9.37461C24.1122 9.43276 24.6887 9.59077 25.2831 9.90863C25.9936 10.2886 26.5576 10.8527 26.9376 11.5632C27.3504 12.3349 27.4936 13.0766 27.4936 14.5446V21.1384C27.4936 21.7301 27.0139 22.2098 26.4222 22.2098C25.8304 22.2098 25.3507 21.7301 25.3507 21.1384V14.5446ZM21.065 16.8527C21.6567 16.8527 22.1364 17.3324 22.1364 17.9241C22.1364 18.5158 21.6567 18.9955 21.065 18.9955H18.9222C18.3304 18.9955 17.8507 18.5158 17.8507 17.9241C17.8507 17.3324 18.3304 16.8527 18.9222 16.8527H21.065ZM18.7027 7.20983H6.2845C5.35765 7.20983 5.04594 7.27002 4.72631 7.44097C4.47651 7.57456 4.28688 7.76419 4.15329 8.01398C3.99661 8.30695 3.93297 8.59326 3.92344 9.35268H21.0637C21.0542 8.59326 20.9906 8.30695 20.8339 8.01398C20.7003 7.76419 20.5107 7.57456 20.2609 7.44097C19.9412 7.27002 19.6295 7.20983 18.7027 7.20983Z"/>
</svg>