<svg viewBox="0 0 24 24" xmlns="http://www.w3.org/2000/svg">
    <path fill-rule="evenodd" clip-rule="evenodd" d="M12 0C5.37273 0 0 5.37273 0 12C0 18.6273 5.37273 24 12 24C18.6273 24 24 18.6273 24 12C24 5.37273 18.6273 0 12 0ZM16.044 9.49855C16.2427 9.2928 16.3527 9.01723 16.3502 8.7312C16.3477 8.44517 16.233 8.17155 16.0307 7.96929C15.8284 7.76703 15.5548 7.6523 15.2688 7.64981C14.9828 7.64733 14.7072 7.75728 14.5015 7.956L12 10.4575L9.49855 7.956C9.39791 7.85181 9.27754 7.7687 9.14444 7.71153C9.01135 7.65435 8.8682 7.62426 8.72335 7.623C8.5785 7.62174 8.43485 7.64934 8.30078 7.7042C8.16671 7.75905 8.04491 7.84005 7.94248 7.94248C7.84005 8.04491 7.75905 8.16671 7.7042 8.30078C7.64934 8.43485 7.62174 8.5785 7.623 8.72335C7.62426 8.8682 7.65435 9.01135 7.71153 9.14444C7.7687 9.27754 7.85181 9.39791 7.956 9.49855L10.4575 12L7.956 14.5015C7.85181 14.6021 7.7687 14.7225 7.71153 14.8556C7.65435 14.9887 7.62426 15.1318 7.623 15.2767C7.62174 15.4215 7.64934 15.5652 7.7042 15.6992C7.75905 15.8333 7.84005 15.9551 7.94248 16.0575C8.04491 16.16 8.16671 16.241 8.30078 16.2958C8.43485 16.3507 8.5785 16.3783 8.72335 16.377C8.8682 16.3757 9.01135 16.3456 9.14444 16.2885C9.27754 16.2313 9.39791 16.1482 9.49855 16.044L12 13.5425L14.5015 16.044C14.7072 16.2427 14.9828 16.3527 15.2688 16.3502C15.5548 16.3477 15.8284 16.233 16.0307 16.0307C16.233 15.8284 16.3477 15.5548 16.3502 15.2688C16.3527 14.9828 16.2427 14.7072 16.044 14.5015L13.5425 12L16.044 9.49855Z"/>
</svg>
