<svg viewBox="0 0 10 10" xmlns="http://www.w3.org/2000/svg">
    <path d="M0.80764 0.807396C0.865697 0.749192 0.934667 0.703013 1.0106 0.671505C1.08653 0.639997 1.16793 0.623779 1.25014 0.623779C1.33235 0.623779 1.41375 0.639997 1.48968 0.671505C1.56561 0.703013 1.63458 0.749192 1.69264 0.807396L5.00014 4.11615L8.30764 0.807396C8.36575 0.749286 8.43474 0.703191 8.51066 0.671742C8.58659 0.640293 8.66796 0.624107 8.75014 0.624107C8.83232 0.624107 8.9137 0.640293 8.98962 0.671742C9.06554 0.703191 9.13453 0.749286 9.19264 0.807396C9.25075 0.865506 9.29685 0.934492 9.32829 1.01042C9.35974 1.08634 9.37593 1.16772 9.37593 1.2499C9.37593 1.33208 9.35974 1.41345 9.32829 1.48938C9.29685 1.5653 9.25075 1.63429 9.19264 1.6924L5.88389 4.9999L9.19264 8.3074C9.25075 8.36551 9.29685 8.43449 9.32829 8.51042C9.35974 8.58634 9.37593 8.66772 9.37593 8.7499C9.37593 8.83208 9.35974 8.91345 9.32829 8.98938C9.29685 9.0653 9.25075 9.13429 9.19264 9.1924C9.13453 9.25051 9.06554 9.2966 8.98962 9.32805C8.9137 9.3595 8.83232 9.37569 8.75014 9.37569C8.66796 9.37569 8.58659 9.3595 8.51066 9.32805C8.43474 9.2966 8.36575 9.25051 8.30764 9.1924L5.00014 5.88365L1.69264 9.1924C1.63453 9.25051 1.56554 9.2966 1.48962 9.32805C1.4137 9.3595 1.33232 9.37569 1.25014 9.37569C1.16796 9.37569 1.08659 9.3595 1.01066 9.32805C0.934737 9.2966 0.86575 9.25051 0.80764 9.1924C0.74953 9.13429 0.703435 9.0653 0.671986 8.98938C0.640537 8.91345 0.624351 8.83208 0.624351 8.7499C0.624351 8.66772 0.640537 8.58634 0.671986 8.51042C0.703435 8.43449 0.74953 8.36551 0.80764 8.3074L4.11639 4.9999L0.80764 1.6924C0.749436 1.63434 0.703258 1.56537 0.671749 1.48944C0.640241 1.41351 0.624023 1.33211 0.624023 1.2499C0.624023 1.16769 0.640241 1.08629 0.671749 1.01035C0.703258 0.934423 0.749436 0.865453 0.80764 0.807396Z"/>
</svg>