<svg width="28" height="24" viewBox="0 0 28 24" xmlns="http://www.w3.org/2000/svg">
    <path d="M17.4134 10.2857H19.5436C19.7664 10.2857 19.9801 10.376 20.1376 10.5367C20.2951 10.6975 20.3836 10.9155 20.3836 11.1428C20.3836 11.3702 20.2951 11.5882 20.1376 11.7489C19.9801 11.9097 19.7664 12 19.5436 12H7.78363C7.56085 12 7.34719 11.9097 7.18966 11.7489C7.03213 11.5882 6.94363 11.3702 6.94363 11.1428C6.94363 10.9155 7.03213 10.6975 7.18966 10.5367C7.34719 10.376 7.56085 10.2857 7.78363 10.2857H9.05539C8.81764 10.0166 8.66957 9.67747 8.63245 9.31712C8.59532 8.95676 8.67105 8.59367 8.84875 8.27997L13.0488 0.857097C13.2715 0.463371 13.6385 0.176077 14.0688 0.0584117C14.4992 -0.0592534 14.9578 0.00234888 15.3436 0.229668L19.7083 2.8011C20.0941 3.02844 20.3757 3.40287 20.491 3.84202C20.6063 4.28117 20.5459 4.74908 20.3232 5.14282L17.4134 10.2857V10.2857ZM18.8683 4.28568L14.5036 1.71424L10.3036 9.13711L12.2524 10.2857H15.4747L18.8683 4.28568ZM20.3164 8.5714L21.2858 6.85711C21.536 6.8667 21.781 6.93325 22.0028 7.05189C22.2246 7.17053 22.4176 7.33827 22.5676 7.54282L26.7676 13.2565C26.9857 13.5533 27.1036 13.9142 27.1036 14.2851V22.2857C27.1036 22.7404 26.9266 23.1764 26.6116 23.4979C26.2965 23.8194 25.8692 24 25.4236 24H1.90363C1.45807 24 1.03075 23.8194 0.715693 23.4979C0.400632 23.1764 0.223633 22.7404 0.223633 22.2857V14.2851C0.223633 13.9142 0.341532 13.5533 0.559633 13.2565L4.75963 7.54282C4.91612 7.32992 5.11904 7.15711 5.35231 7.03809C5.58559 6.91907 5.84282 6.85711 6.10363 6.85711H7.72147L6.91675 8.27997C6.8643 8.37275 6.82043 8.47031 6.78571 8.5714H6.10363L2.32363 13.7143H25.0036L21.2236 8.5714H20.3164ZM1.90363 22.2857H25.4236V15.4286H1.90363V22.2857Z"/>
</svg>
