<svg  viewBox="0 0 43 40" xmlns="http://www.w3.org/2000/svg">
<path fill-rule="evenodd" clip-rule="evenodd" d="M32.6171 6.80358C31.4407 6.04019 30.6029 5.70955 30.6029 5.70955C30.6029 5.70955 31.153 5.73155 31.9407 5.78857C32.2433 5.81048 32.581 5.83755 32.936 5.87053C33.219 5.89681 33.513 5.92685 33.809 5.96101C33.2881 5.5514 32.7709 5.18277 32.2589 4.85176C29.1562 2.84583 26.2417 2.22056 23.8135 2.22056C21.6706 2.22056 19.9077 2.70513 18.7287 3.15711C17.7785 3.52134 17.2075 3.86441 17.1221 3.91566L17.1184 3.9179L18.3443 1.9691L18.436 1.01556C18.7667 1.04737 19.0575 1.24836 19.204 1.54664C19.2662 1.67308 19.2986 1.80933 19.3019 1.9458C20.493 1.57684 22.0303 1.26262 23.8135 1.26262C26.8502 1.26262 30.5493 2.17919 34.4012 5.20799C34.7381 5.47292 34.858 5.92942 34.6948 6.32575C34.6095 6.53284 34.4578 6.69718 34.2715 6.79987C34.9653 7.33107 35.7097 7.98139 36.4418 8.76429C39.0952 11.602 41.5504 16.1488 40.8918 22.9328C40.8542 23.3195 40.5868 23.6452 40.2148 23.7574C40.0446 23.8087 39.8679 23.8106 39.7029 23.7688C39.488 26.6686 38.2237 31.4631 32.7812 35.5505C32.4549 35.7955 32.0093 35.807 31.6708 35.579C31.5338 35.4867 31.4265 35.3633 31.3542 35.2229C31.2994 35.2741 31.2437 35.3253 31.1868 35.3768C29.6391 36.7777 27.284 38.3085 24.1025 38.7508C24.0589 38.7569 24.0148 38.7599 23.9706 38.7599H23.9392C23.5437 38.7599 23.1889 38.5169 23.046 38.1481C23.0225 38.0873 23.0054 38.0251 22.9948 37.9625C22.2098 38.1186 21.2864 38.2256 20.2302 38.2256C18.4528 38.2256 16.3027 37.9233 13.7839 37.0401C13.3025 36.8713 13.0379 36.3548 13.1819 35.8654C13.3261 35.3761 13.8285 35.0856 14.3245 35.2046C15.0377 35.3757 15.7485 35.461 16.4898 35.461C21.3107 35.461 25.0873 31.8626 25.0873 27.555C25.0873 25.4318 24.1867 23.4843 22.6702 22.0469C22.666 22.0522 22.6618 22.0577 22.6576 22.0631C22.3114 22.5104 21.8942 23.0513 21.5988 23.4398C21.1208 24.1106 20.9531 24.4815 20.991 24.8174C21.154 25.9101 20.8173 26.9848 20.1963 27.7714C20.1883 27.7816 20.1801 27.7915 20.1717 27.8013C19.9259 28.088 19.4587 28.4954 19.0425 28.8583C19.0236 28.8749 19.0047 28.8913 18.9858 28.9077C18.5668 29.2734 18.1566 29.6317 17.8586 29.9298C17.8508 29.9375 17.8429 29.9452 17.8348 29.9527C17.0926 30.6454 16.124 30.7447 15.5468 30.7447C15.3869 30.7447 15.2431 30.7326 15.1458 30.7244L15.1405 30.724C15.1392 30.7239 15.1379 30.7238 15.1365 30.7236C15.0411 30.7157 15.005 30.7133 14.981 30.7133H14.8867C14.8709 30.7133 14.8589 30.7135 14.8501 30.7139C14.8322 30.7251 14.8003 30.747 14.7487 30.7874C14.6784 30.8426 14.5896 30.918 14.4664 31.0265C14.2307 31.2478 13.9484 31.3446 13.7596 31.3919C13.5405 31.4467 13.3104 31.4676 13.0951 31.4676C12.5357 31.4676 11.8945 31.3423 11.3674 31.2116C10.8253 31.0771 10.3318 30.9183 10.0416 30.8158C10.0315 30.8122 10.0214 30.8085 10.0114 30.8045C9.73519 30.6965 9.52846 30.514 9.38742 30.3634C9.23915 30.2051 9.11058 30.0246 9.00071 29.8482C8.78104 29.4955 8.58546 29.0765 8.42358 28.6771C8.11117 27.9062 7.85042 27.0208 7.80472 26.5866C7.77439 26.2984 7.84465 26.0251 7.89692 25.8542C7.95707 25.6575 8.0407 25.4523 8.12786 25.2583C8.29943 24.8761 8.52477 24.4501 8.71881 24.0832L8.72708 24.0676C8.86458 23.8075 8.98522 23.5791 9.07825 23.3881C9.12438 23.2933 9.15875 23.2178 9.18251 23.16C9.19899 23.1199 9.20566 23.0996 9.2072 23.0951C9.25981 22.8466 9.42359 21.6292 9.59095 20.3183C9.75571 19.0276 9.91246 17.7422 9.94342 17.479C9.96939 17.2583 9.96557 17.1511 9.94327 17.0492C9.91911 16.9387 9.85699 16.7652 9.66791 16.4546C9.66609 16.4516 9.66428 16.4486 9.66249 16.4456C9.66182 16.4445 9.66115 16.4433 9.66049 16.4422C9.2418 15.7304 9.2207 15.0305 9.39698 14.1743C7.25829 12.6888 1.82347 8.67495 1.48713 8.39976C1.4849 8.39794 1.48268 8.39611 1.48047 8.39426C1.28147 8.22843 1.07907 7.98282 1.01766 7.64505C0.987224 7.47768 0.998321 7.31985 1.03421 7.18228C1.05168 7.11531 1.07421 7.05612 1.09807 7.00515C1.11 6.97967 1.1223 6.95616 1.13454 6.93461C1.14067 6.92384 1.14679 6.91353 1.15287 6.90369C1.15591 6.89878 1.15894 6.89397 1.16195 6.88927C1.16346 6.88693 1.16496 6.88461 1.16646 6.88232L1.16871 6.8789L1.16983 6.87721C1.17039 6.87637 1.17095 6.87553 1.968 7.4069C1.968 7.4069 1.90514 7.5012 2.09373 7.65835C2.10902 7.67087 2.13653 7.69234 2.17529 7.72206C2.18149 7.72681 2.18798 7.73178 2.19477 7.73695C2.29191 7.81116 2.44744 7.92811 2.64942 8.07892C2.92203 8.28245 3.27926 8.54765 3.6918 8.85263C5.83148 10.4345 9.45918 13.0864 10.4862 13.7562C10.1718 14.8878 10.1718 15.4222 10.4862 15.9565C10.9262 16.6794 10.9577 17.0566 10.8948 17.591C10.8319 18.1254 10.2661 22.7459 10.1404 23.3116C10.0897 23.54 9.84433 24.0039 9.57388 24.5154C9.1743 25.2709 8.7199 26.1302 8.75739 26.4864C8.82025 27.0835 9.6375 29.6295 10.3604 29.9125C10.8948 30.101 12.215 30.5097 13.0951 30.5097C13.4094 30.5097 13.6922 30.4469 13.818 30.3211C14.3524 29.8496 14.5096 29.7553 14.8867 29.7553H14.981C15.053 29.7553 15.1315 29.7619 15.2166 29.769H15.2167C15.3176 29.7775 15.4275 29.7867 15.5468 29.7867C16.0497 29.7867 16.7097 29.6925 17.1812 29.2524C17.5072 28.9264 17.9449 28.5446 18.3562 28.1859C18.8172 27.7837 19.245 27.4105 19.4444 27.1779C19.9159 26.5806 20.1673 25.7634 20.0416 24.9462C19.9473 24.1918 20.3559 23.5317 20.8274 22.8717C21.4246 22.0858 22.5248 20.6714 22.5248 20.6714C22.6015 20.7291 22.677 20.788 22.7516 20.8478C22.9269 20.9884 23.0964 21.1348 23.2598 21.2867C24.9947 22.8977 26.0452 25.1165 26.0452 27.555C26.0452 31.7999 22.8415 35.3382 18.5549 36.212C17.8899 36.3476 17.199 36.4189 16.4898 36.4189C15.6725 36.4189 14.8867 36.3247 14.1009 36.1361C14.9428 36.4313 15.7392 36.658 16.4898 36.8283C17.2358 36.9974 17.9369 37.1108 18.5928 37.1798C19.1739 37.2411 19.7198 37.2677 20.2302 37.2677C21.5868 37.2677 22.7003 37.0796 23.5586 36.8473C24.9475 36.4712 25.668 35.979 25.668 35.979C25.668 35.979 25.4818 36.2184 25.147 36.589C24.8723 36.8929 24.4978 37.2851 24.044 37.7056C24.0198 37.7281 23.9953 37.7507 23.9706 37.7733C23.9695 37.7743 23.9683 37.7755 23.9671 37.7765C23.9579 37.785 23.9486 37.7935 23.9392 37.802H23.9706C24.5675 37.719 25.1333 37.5945 25.668 37.4379C28.3976 36.6382 30.3209 34.9996 31.4599 33.7561C32.2954 32.8439 32.7089 32.1441 32.7089 32.1441C32.7089 32.1441 32.6361 32.6644 32.5203 33.3097C32.4691 33.5952 32.4095 33.9051 32.3442 34.2053C32.3004 34.4061 32.2541 34.6026 32.2059 34.7845C32.6306 34.4656 33.0283 34.1423 33.4009 33.816C38.0052 29.7831 38.7494 25.295 38.7823 22.9408C38.7838 22.8329 38.7838 22.7293 38.7827 22.6305C38.7827 22.63 38.7826 22.6295 38.7826 22.629C38.7826 22.629 38.7826 22.6289 38.7826 22.6288C38.7826 22.6288 38.7826 22.6287 38.7826 22.6286C38.7826 22.6284 38.7826 22.6283 38.7826 22.6282C38.7826 22.6277 38.7826 22.6271 38.7826 22.6266V22.6265C38.7826 22.6264 38.7826 22.6263 38.7826 22.6262C38.7826 22.6245 38.7826 22.6229 38.7825 22.6213C38.7825 22.6212 38.7825 22.6212 38.7825 22.6211C38.7736 21.9242 38.7054 21.4652 38.6857 21.3328L38.6832 21.316C38.6823 21.3091 38.6815 21.3038 38.681 21.3C38.6834 21.3037 38.687 21.3086 38.6916 21.3147C38.6949 21.3193 38.6989 21.3245 38.7033 21.3302C38.7577 21.4013 38.8915 21.5656 39.0576 21.768C39.1532 21.8844 39.2594 22.0134 39.3674 22.1445L39.3675 22.1446L39.3676 22.1447L39.3677 22.1448L39.3688 22.1462C39.4948 22.2991 39.623 22.4548 39.7393 22.5965C39.8113 22.6844 39.8788 22.767 39.9383 22.8401C39.979 22.4209 40.0073 22.0108 40.024 21.6098C40.024 21.6097 40.024 21.6096 40.024 21.6096C40.024 21.6085 40.0241 21.6076 40.0241 21.6065C40.0241 21.606 40.0241 21.6055 40.0242 21.6049C40.0242 21.6047 40.0242 21.6044 40.0242 21.6042C40.0242 21.6041 40.0242 21.6041 40.0242 21.604C40.0242 21.6038 40.0242 21.6037 40.0242 21.6035C40.0242 21.6032 40.0243 21.6028 40.0243 21.6024C40.0243 21.602 40.0243 21.6016 40.0243 21.6012C40.0243 21.6012 40.0243 21.6011 40.0243 21.6011C40.0265 21.548 40.0285 21.4951 40.0302 21.4424C40.3121 13.0491 35.4694 8.65443 32.6171 6.80358ZM11.1662 5.06766C11.1888 5.14345 11.2122 5.22133 11.2365 5.30063C11.3757 5.75553 11.5415 6.25752 11.7121 6.68395C11.872 6.20417 12.059 5.7728 12.2669 5.38499C13.6139 2.87227 15.8328 2.18865 17.1843 2.01407C17.8789 1.92434 18.3443 1.9691 18.3443 1.9691C18.436 1.01556 18.4355 1.01551 18.4349 1.01545L18.4337 1.01535L18.431 1.01509L18.4243 1.01448C18.4215 1.01424 18.4184 1.01399 18.415 1.0137C18.412 1.01345 18.4087 1.01319 18.4053 1.01291C18.3903 1.01173 18.3705 1.01032 18.3463 1.00886C18.298 1.00595 18.2317 1.00287 18.1494 1.00123C17.9852 0.997921 17.7561 1.00027 17.4788 1.02126C16.9264 1.06306 16.1688 1.17986 15.3457 1.48261C14.1742 1.91358 12.895 2.71498 11.9001 4.1501C11.885 4.09503 11.8712 4.0444 11.8589 3.99891C11.8371 3.91772 11.8199 3.85315 11.8085 3.80929C11.8028 3.78736 11.7984 3.77063 11.7956 3.7596L11.7925 3.74741L11.7916 3.74416C11.7093 3.42141 11.4652 3.1645 11.1472 3.06583C10.829 2.96715 10.4824 3.04083 10.2319 3.2604L10.8633 3.98077C10.2319 3.2604 10.2315 3.26074 10.2312 3.26108L10.2303 3.26181L10.2285 3.26344L10.2241 3.26733C10.2209 3.27021 10.217 3.27367 10.2126 3.27769C10.2037 3.28575 10.1924 3.29608 10.179 3.30869C10.1522 3.33388 10.1167 3.3682 10.074 3.41147C9.98885 3.4979 9.87469 3.62068 9.74475 3.77845C9.48573 4.09299 9.15866 4.55314 8.87502 5.14787C8.46965 5.99784 8.15853 7.11426 8.25136 8.44486C7.19748 8.06459 6.10578 7.67461 5.16405 7.34087C4.44796 7.08709 3.81721 6.86533 3.35485 6.70479C3.124 6.62464 2.93313 6.55904 2.79388 6.51214C2.72467 6.48884 2.66513 6.4691 2.61857 6.45418C2.61731 6.45378 2.61573 6.45327 2.61384 6.45265C2.5887 6.44452 2.50902 6.41874 2.43876 6.4047C2.42139 6.40122 2.40391 6.39822 2.38636 6.39572C2.12682 6.35864 1.86684 6.38419 1.63054 6.4916C1.51586 6.54373 1.42016 6.60929 1.34251 6.67876C1.30412 6.71311 1.27098 6.74765 1.24256 6.78095C1.22836 6.79759 1.21535 6.81389 1.20345 6.82971C1.19749 6.83761 1.19182 6.8454 1.18641 6.85303C1.1837 6.85686 1.18106 6.86064 1.17848 6.8644L1.17467 6.86999L1.1728 6.87277L1.17187 6.87415C1.17141 6.87484 1.17095 6.87553 1.968 7.4069C1.968 7.4069 2.03086 7.3126 2.25089 7.34404C2.26112 7.34608 2.2884 7.35425 2.33126 7.36803C2.33241 7.36841 2.33357 7.36878 2.33473 7.36915C2.44097 7.4034 2.63909 7.47074 2.9082 7.56384C3.23076 7.67542 3.65529 7.824 4.14577 7.99693C5.34789 8.42075 6.94614 8.9908 8.41014 9.52087C8.78944 9.65814 9.15972 9.79282 9.51177 9.92148C9.38689 9.5337 9.30289 9.16205 9.2526 8.80742C9.00287 7.04631 9.58431 5.70472 10.117 4.88826C10.503 4.29666 10.8633 3.98077 10.8633 3.98077C10.8633 3.98077 10.9846 4.45659 11.1662 5.06766ZM2.00105 8.26845C2.00102 8.26844 2.00169 8.26863 2.00312 8.26905C2.0018 8.26868 2.00108 8.26846 2.00105 8.26845Z"/>
<path d="M18.5664 26.3919C18.4696 26.5129 18.1304 26.8205 17.8072 27.1133C17.7108 27.2008 17.6158 27.2868 17.5292 27.3663C17.3981 27.4864 17.2633 27.6066 17.1299 27.7254L17.1298 27.7255C16.8793 27.9486 16.6341 28.1671 16.429 28.3722C16.3033 28.4978 16.0518 28.5607 15.6746 28.5607H14.7316C14.9207 28.3087 15.2562 27.9254 15.6208 27.5362C15.8217 27.3501 16.0247 27.1722 16.2089 27.0205C16.5313 26.7538 16.8535 26.5735 17.1356 26.4158C17.6511 26.1274 18.0321 25.9143 18.0321 25.386C18.0519 24.3148 17.3332 24.1074 16.8001 24.1003C16.9591 24.0634 17.1382 24.0344 17.3091 24.0344C16.7119 23.8773 15.9575 24.0344 15.6118 24.3803C15.3603 24.6107 15.3045 25.2324 15.2485 25.854C15.2206 26.1649 15.1927 26.4757 15.1403 26.7376C14.9995 27.4695 14.5563 27.8736 13.8783 28.4919L13.8773 28.4928L13.8753 28.4946C13.7971 28.5659 13.7158 28.6401 13.6315 28.7179C13.6118 28.7363 13.5922 28.754 13.573 28.7712L11.4941 28.3092C11.4941 28.3092 12.8771 27.5863 13.0972 26.7691C13.2942 26.0653 12.7853 23.899 12.6543 23.3417C12.6391 23.2767 12.6289 23.2336 12.6257 23.2172C12.6276 23.2192 12.6318 23.223 12.638 23.2287C12.7332 23.3158 13.3032 23.8372 13.5687 24.6631C14.0716 23.2801 14.7316 21.96 14.9202 21.8342C15.0823 21.7262 16.9846 20.7132 17.5171 20.43C17.2843 21.0619 17.0613 21.6875 16.9005 22.1486C16.3347 22.3058 15.769 22.6201 15.3603 23.2487C15.5803 23.0916 16.2719 22.9972 16.7748 22.9344C17.2148 22.9029 18.5664 23.6259 18.9122 24.9774V25.0403C18.975 25.5432 18.8179 26.0147 18.5664 26.3919Z"/>
<path d="M17.5 22.0848C18.145 22.026 18.6794 22.1559 18.8187 22.2115C20.0446 19.8856 21.019 18.6283 21.2705 18.6283C21.2971 18.6249 21.3547 18.6269 21.4377 18.6298C22.1358 18.6538 24.6315 18.7397 25.671 16.2394C26.7856 13.5148 25.2164 11.1867 25.109 11.0274L25.1052 11.0217C26.4253 15.3593 23.5021 17.7796 21.5218 17.811C20.4217 17.811 18.9444 18.5339 18.9444 18.5339L17.5 22.0848Z"/>
<path d="M25.1074 11.0217C25.1085 11.0222 25.1101 11.0229 25.1123 11.0241C25.2481 11.09 27.5964 12.2292 28.2735 15.7644C29.8354 17.5873 30.8146 19.8638 31.0795 22.2744C31.0795 22.4316 31.2995 22.6516 31.5196 22.8402C31.8024 23.123 32.0853 23.406 32.0853 23.6889C32.0853 24.4433 32.0225 25.1976 31.8968 25.9206C31.8411 26.1431 31.5884 26.2918 31.3131 26.4539L31.2866 26.4695C31.2759 26.4758 31.2652 26.4821 31.2545 26.4885C31.2381 26.4981 31.2216 26.5079 31.2053 26.5178C31.1625 26.5462 31.1149 26.5764 31.0665 26.607L31.0664 26.6071C30.9013 26.7116 30.7267 26.822 30.7023 26.8949C30.0623 29.1639 28.7226 31.1905 26.9319 32.7257C29.8878 31.0623 32.1165 28.2659 33.0369 24.9403C33.3423 23.6302 33.3944 22.2576 33.1541 20.8599C32.0225 14.4478 25.4846 11.1789 25.1074 11.0217Z"/>
<path d="M17.5498 11.3379C18.1302 11.3673 19.3717 11.3079 20.5458 10.4561C20.665 10.7345 20.7833 11.0149 20.8972 11.2889C19.4532 11.6763 18.1585 11.4766 17.5498 11.3379Z"/>
<path d="M21.8748 10.9325C22.657 10.5725 23.4473 10.0091 24.167 9.14735C23.4713 8.94817 22.7517 8.80625 22.0135 8.72704C21.7936 9.07278 21.5736 9.38709 21.3535 9.63855C21.4837 9.95965 21.6714 10.4244 21.8748 10.9325Z"/>
<path d="M28.1497 20.7656C28.464 19.1626 28.4954 17.7796 28.4012 16.648C29.627 18.2825 30.3814 20.2627 30.6015 22.3059C30.6329 22.5573 30.8843 22.8088 31.1358 23.0602C31.3558 23.2488 31.6073 23.5002 31.6073 23.6574C31.6073 24.3804 31.5444 25.1033 31.4187 25.8263C31.3889 25.9157 31.1331 26.0615 30.9192 26.1835L30.8843 26.2034C30.5699 26.3606 30.2871 26.5177 30.2242 26.7692C29.5327 29.1895 28.0554 31.3269 26.0752 32.8356C28.9983 29.7867 30.4128 24.7575 28.1497 20.7656Z"/>
<path fill-rule="evenodd" clip-rule="evenodd" d="M14.2164 8.82133C14.2164 8.82133 13.6506 4.76655 16.4795 3.0692C16.4696 3.07347 16.4503 3.08071 16.4229 3.09103C15.8444 3.30849 11.6359 4.89045 14.2164 8.82133ZM20.3143 5.11235C22.4831 4.29511 25.5006 3.85505 30.1841 4.73516C28.1096 3.69789 25.9407 3.16355 23.7718 3.13211C22.9546 3.13211 22.2002 3.19498 21.5087 3.32071C19.0571 3.76075 17.0454 5.52097 16.3538 7.8784C16.3538 7.8784 16.8568 7.09259 18.0512 6.27534L18.101 6.20768C18.5423 5.6086 19.2072 4.7061 19.8428 3.94935C20.0314 4.35797 20.2514 4.86089 20.3143 5.11235ZM31.1899 10.3301C35.6218 13.2532 37.6335 16.4908 39.048 20.2941C38.9852 16.2707 37.6335 12.8132 35.0247 10.0472L34.9618 9.98424C32.6673 7.56399 29.3039 6.43243 25.9721 6.90391C24.7148 7.06107 23.4575 7.31253 22.4831 7.62686C22.326 7.65829 22.1688 7.68972 22.0116 7.75259H22.0746C22.326 7.72116 26.9151 7.50113 31.1899 10.3301ZM35.2761 30.321C34.8046 30.9497 34.2703 31.6098 33.6417 32.2384C37.6964 24.4432 33.8302 17.3081 33.6731 17.0252C33.956 17.3081 34.2389 17.6224 34.4903 17.9053C37.6021 21.3628 37.9793 26.5491 35.2761 30.321ZM10.4682 6.14822C10.3489 6.60356 9.28924 10.6479 12.8648 10.7701C10.7275 9.48142 10.476 6.14961 10.476 6.11818L10.4742 6.12502L10.4722 6.13303L10.4682 6.14822ZM16.6996 14.5735L15.0651 17.371C15.0651 17.371 16.5739 16.6795 17.1711 15.7993C17.6426 15.0449 16.6996 14.5735 16.6996 14.5735ZM15.6085 27.5363C15.8094 27.3502 16.0124 27.1724 16.1966 27.0206C16.5189 26.7539 16.8412 26.5736 17.1233 26.4159C17.6388 26.1275 18.0197 25.9144 18.0197 25.3862C18.0395 24.315 17.3208 24.1076 16.7878 24.1003C16.796 24.0984 16.8043 24.0966 16.8125 24.0947C16.5211 24.1598 16.2909 24.2547 16.2909 24.2547C16.2909 24.2547 17.2025 24.0975 17.5482 24.7576C17.894 25.4176 17.6111 25.7948 17.0454 26.172C16.7629 26.3603 16.1533 26.9548 15.6085 27.5363ZM18.5856 17.8424C18.4405 17.9667 17.9545 19.2099 17.5048 20.4302C16.9723 20.7133 15.07 21.7263 14.9079 21.8343C14.7193 21.96 14.0593 23.2801 13.5564 24.6632C13.2908 23.8373 12.721 23.3159 12.6257 23.2288C12.6195 23.2231 12.6153 23.2192 12.6134 23.2173C12.6166 23.2337 12.6268 23.2768 12.642 23.3417C12.773 23.8991 13.2819 26.0654 13.0849 26.7692C12.8648 27.5864 11.4818 28.3093 11.4818 28.3093L13.5607 28.7713C13.1511 29.1377 12.8535 29.2523 12.6134 29.2523C12.079 29.1581 11.4503 29.0009 11.0103 28.8438C10.696 28.4351 10.2245 27.0835 10.0988 26.5178C10.1666 26.2916 10.3809 25.8864 10.5661 25.5364H10.5661L10.5662 25.5363L10.5662 25.5361L10.5664 25.5358C10.6384 25.3996 10.706 25.2718 10.7588 25.1661L10.8112 25.0657C11.1564 24.4047 11.3591 24.0168 11.4189 23.6574C11.5447 23.123 11.9533 19.8227 12.1105 18.4396C12.519 18.974 13.0849 19.8541 12.9591 20.4198C13.8707 19.1311 13.2106 17.8738 12.8963 17.3709C12.6134 16.868 12.2361 15.8622 12.5505 14.7935C12.8648 13.7248 13.9964 10.7701 13.9964 10.7701C13.9964 10.7701 14.3736 11.4303 14.9079 11.3045C15.4423 11.1788 19.7485 4.70368 19.7485 4.70368C19.7485 4.70368 20.9115 7.2497 19.6857 9.10421C18.4284 10.9588 17.2025 11.3045 17.2025 11.3045C17.2025 11.3045 17.3263 11.327 17.5383 11.3377C18.1471 11.4763 19.4419 11.676 20.8859 11.2886C21.4022 12.5303 21.8288 13.6388 21.8545 13.8191C21.8385 13.8562 21.7895 13.9731 21.7183 14.1426L21.718 14.1435L21.7178 14.1438L21.7177 14.1441L21.7176 14.1444C21.3666 14.9803 20.4816 17.0885 20.3772 17.2452C20.3142 17.3081 19.8743 17.4338 19.56 17.4967C19.0255 17.6538 18.7112 17.7481 18.5856 17.8424ZM19.4342 6.58959C19.4342 6.58959 19.7171 7.84688 18.9941 8.69556C18.0826 9.73278 17.2968 9.70136 17.3283 9.70136L19.4342 6.58959ZM12.1733 24.4433L11.9218 25.7006C11.9218 25.7006 12.4248 25.6376 12.4248 26.2035C12.4248 26.6435 11.9218 27.2407 11.5133 27.2722C11.1046 27.3036 10.9474 26.8007 11.0418 26.5178C11.136 26.2663 12.1733 24.4433 12.1733 24.4433ZM16.9824 13.9447C18.0826 14.1648 18.3969 15.4535 17.7998 16.145C17.2025 16.8052 15.6937 17.7481 14.8137 17.9681C14.625 18.691 13.022 18.3767 13.6192 16.0822C13.6192 16.0822 13.9021 17.1823 14.185 17.088C14.4679 16.9938 17.674 11.9646 17.674 11.9646C17.674 11.9646 17.2653 13.2847 16.9824 13.9447ZM15.8671 25.6465C15.8501 25.9509 15.8221 26.4477 15.5995 26.7692C15.6213 26.7473 15.689 26.6758 15.7772 26.5826L15.7774 26.5826C15.9423 26.4083 16.179 26.1582 16.3224 26.0149C16.4202 25.9267 16.5303 25.8569 16.6355 25.7902C16.8681 25.6427 17.0768 25.5104 17.0768 25.229C17.0768 24.789 16.4795 24.6946 16.2281 24.7576C15.9766 24.8204 15.9138 25.229 15.8823 25.449C15.8756 25.496 15.8718 25.5642 15.8671 25.6465ZM30.467 26.8635C29.7754 29.3467 28.2038 31.547 26.1607 33.1186C26.4175 32.9958 26.6695 32.8647 26.9166 32.7257C28.7071 31.1904 30.047 29.1638 30.687 26.8949C30.7112 26.822 30.8859 26.7115 31.051 26.607L31.0512 26.6069C31.0996 26.5763 31.1472 26.5461 31.1899 26.5177C31.1995 26.5119 31.2092 26.5062 31.2189 26.5005L31.2392 26.4884C31.2499 26.4821 31.2605 26.4757 31.2713 26.4694L31.2978 26.4538C31.5731 26.2918 31.8258 26.143 31.8814 25.9205C32.0071 25.1976 32.07 24.4432 32.07 23.6888C32.07 23.4059 31.7871 23.123 31.5042 22.8402C31.2842 22.6516 31.0641 22.4315 31.0641 22.2743C30.7993 19.8639 29.8201 17.5872 28.2582 15.7644C28.2722 15.8379 28.2855 15.9124 28.2981 15.9879C29.7126 17.7796 30.6241 19.9483 30.8755 22.243C30.8755 22.3604 31.0161 22.513 31.1527 22.6614C31.1988 22.7115 31.2445 22.7611 31.2842 22.8087C31.5671 23.0916 31.8499 23.3745 31.8499 23.6574C31.8499 24.4118 31.7871 25.1661 31.6614 25.8891C31.5985 26.1406 31.2842 26.3292 30.9699 26.4863C30.9274 26.5146 30.88 26.5446 30.8319 26.5751L30.8312 26.5756L30.831 26.5757C30.6659 26.6801 30.4913 26.7906 30.467 26.8635ZM25.0921 11.0216L25.0923 11.0217C25.4718 11.18 32.0073 14.449 33.1387 20.8599C33.3791 22.2575 33.327 23.6301 33.0216 24.9402C33.3234 23.8499 33.4845 22.7028 33.4845 21.52C33.4845 15.6476 29.5415 10.6869 24.165 9.14734C23.4453 10.0091 22.6551 10.5725 21.8729 10.9325C22.4065 12.2646 23.0489 13.8939 23.0489 14.0077C23.0489 14.1963 22.4517 15.7365 22.3889 15.7993C22.3259 15.8307 21.6031 15.8936 21.3201 15.8936C21.0058 16.648 20.6915 17.3709 20.6286 17.4653C20.5343 17.591 20.2514 17.6852 19.6542 17.8424C19.5903 17.8616 19.52 17.8821 19.4479 17.903C19.1652 17.9852 18.8556 18.0752 18.8055 18.1253C18.6484 18.3139 17.7997 20.5456 17.2339 22.1172C17.3196 22.1029 17.4041 22.0923 17.4869 22.0847L18.9313 18.5338C18.9313 18.5338 20.4086 17.811 21.5087 17.811C23.489 17.7795 26.4121 15.3592 25.0921 11.0216ZM11.9848 12.7504C12.2047 12.3417 12.0162 12.0589 11.8276 11.9017L11.7647 11.8388C11.3875 11.6502 9.0301 10.7701 6.7041 9.95292C8.7472 11.3045 11.0104 12.6246 11.3875 12.8132C11.6704 12.939 11.859 12.9704 11.9848 12.7504Z"/>
</svg>
