<svg viewBox="0 0 40 40" xmlns="http://www.w3.org/2000/svg">
<path d="M1.03882 1C0.922038 1 0.876395 1.13348 0.950222 1.20731C1.00274 1.46989 1.08548 1.70225 1.16366 1.92178C1.2213 2.08365 1.27647 2.23856 1.31519 2.39346C1.31519 2.66718 1.49768 2.84968 1.68017 2.84968C2.04502 2.84968 2.31873 2.94092 2.59247 3.03217C2.77495 3.03217 2.8662 2.94092 2.77495 2.75843C2.71768 2.52935 2.62446 2.30026 2.54042 2.09374C2.49057 1.97124 2.44395 1.85668 2.40998 1.75476C2.40998 1.57228 2.2275 1.29855 2.04502 1.29855C1.90813 1.2529 1.74837 1.20725 1.58862 1.1616C1.42906 1.11601 1.26949 1.07041 1.13271 1.02482C1.09787 1.00743 1.06637 1 1.03882 1Z"/>
<path d="M40 32.3193H31.7885L25.8582 26.389L23.9422 28.3048C24.1169 24.898 23.3715 22.1602 21.706 20.0915C21.5644 19.6613 21.3974 19.2058 21.205 18.725C21.1883 18.6583 21.1686 18.5947 21.1475 18.5352C20.6216 16.5579 20.1066 14.914 19.654 13.7069C19.4715 13.342 19.289 12.977 19.1978 12.7033H20.3838L25.9493 18.1777L31.5148 12.7033H39.7263L30.055 22.2833L30.785 23.0132L40 32.3193Z"/>
<path d="M21.1895 18.6938C21.1946 18.7041 21.1998 18.7145 21.205 18.725C21.3946 19.1989 21.5349 19.6235 21.6516 20.0246C21.6272 19.9947 21.6025 19.9651 21.5776 19.9355C21.5238 19.8032 21.4666 19.6675 21.4053 19.5284C21.3333 19.2442 21.2613 18.9659 21.1895 18.6938Z"/>
<path d="M21.1032 18.8815C21.1067 18.8901 21.1102 18.8988 21.1137 18.9075C21.2207 19.1214 21.3172 19.3284 21.4053 19.5284C21.4298 19.6249 21.4542 19.722 21.4787 19.8198C21.512 19.8582 21.545 19.8967 21.5776 19.9355C21.6391 20.0866 21.6961 20.2333 21.7498 20.3756C21.8157 20.6201 21.8753 20.8583 21.9348 21.0965L21.935 21.462L21.6612 21.1885C21.6612 21.1507 21.6455 21.0971 21.6272 21.0345C21.6013 20.9459 21.57 20.8391 21.57 20.7323C21.488 20.2405 21.3324 19.6015 21.1032 18.8815Z"/>
<path d="M21.0959 18.8635C21.073 18.7885 21.0486 18.712 21.0225 18.6338C21.0503 18.7174 21.0772 18.8 21.1032 18.8815C21.1008 18.8755 21.0983 18.8695 21.0959 18.8635Z"/>
<path fill-rule="evenodd" clip-rule="evenodd" d="M20.84 18.6338C20.9577 19.0457 20.9995 19.4577 21.0388 19.8452C21.0604 20.0584 21.0813 20.2642 21.1137 20.4585C21.1137 20.641 21.1137 20.8235 21.205 20.8235L21.4787 21.0972V20.7323C21.3962 20.1543 21.3136 19.5765 21.0959 18.8635C20.9196 18.4338 20.7488 18.1777 20.7488 18.1777V18.5425C20.7488 19.0898 20.7488 19.5462 20.6575 20.0023V20.3673L20.9313 20.641C20.9313 20.641 21.0225 20.5498 21.0225 20.3673C21.0225 19.8885 20.9528 19.4098 20.8742 18.8701C20.8629 18.7927 20.8515 18.714 20.84 18.6338ZM20.7488 18.1777C20.7488 18.1777 20.7488 18.36 20.84 18.6338C20.84 18.36 20.7488 18.1777 20.7488 18.1777Z"/>
<path d="M21.9799 21.009C21.9026 20.7171 21.8113 20.4113 21.706 20.0915C21.688 20.0691 21.6699 20.0468 21.6516 20.0246C21.6862 20.1434 21.7187 20.2602 21.7498 20.3756C21.8334 20.5974 21.9089 20.8085 21.9799 21.009Z"/>
<path d="M22.2085 21.6445C22.1442 21.4729 22.0798 21.2912 22.0119 21.0993C22.0014 21.0695 21.9907 21.0393 21.9799 21.009C21.9959 21.0694 22.0114 21.1293 22.0262 21.1885C22.0566 21.2797 22.0768 21.3608 22.0937 21.4284C22.1275 21.5634 22.1477 21.6445 22.2085 21.6445Z"/>
<path d="M22.2085 21.6445L22.4823 21.9183C22.3333 22.0673 22.306 21.973 22.2513 21.7844C22.239 21.742 22.2253 21.6948 22.2085 21.6445Z"/>
<path d="M21.1895 18.6938C21.0173 18.3445 20.9313 18.0863 20.9313 18.0863C20.9313 18.0863 21.0531 18.2692 21.1475 18.5352C21.1615 18.5879 21.1755 18.6407 21.1895 18.6938Z"/>
<path d="M0 3.06118C0 2.94875 0.0645184 2.87641 0.129037 2.94092C0.277242 2.99032 0.425447 3.01298 0.588133 3.03785C0.725922 3.05891 0.8741 3.08156 1.04146 3.1234C1.22395 3.1234 1.40643 3.30577 1.40643 3.48825C1.44516 3.64315 1.50032 3.79805 1.55796 3.95992C1.63614 4.17946 1.71889 4.41182 1.7714 4.6744C1.86265 4.85688 1.7714 5.03938 1.58892 4.94813C1.45204 4.9025 1.31517 4.87969 1.17829 4.85688C1.04144 4.83407 0.904588 4.81126 0.767737 4.76565C0.585252 4.76565 0.49401 4.58317 0.402768 4.40069C0.35713 4.21813 0.288662 4.01275 0.220205 3.80739C0.151798 3.60219 0.083399 3.39701 0.037794 3.21465C0.0110696 3.1612 0 3.10775 0 3.06118Z"/>
<path d="M12.8114 35.1937C12.9254 35.3304 13.0394 35.4672 13.1761 35.604C13.2217 35.5583 13.2901 35.5583 13.3585 35.5583C13.4269 35.5583 13.4953 35.5583 13.541 35.5127C13.6778 35.4214 13.8147 35.3074 13.9516 35.1933C14.0884 35.0793 14.2253 34.9652 14.3621 34.874C14.4534 34.7828 14.4534 34.6915 14.3621 34.6003C14.2672 34.5054 14.1833 34.4106 14.1027 34.3195C13.9509 34.1479 13.811 33.9897 13.6322 33.8705C13.541 33.7792 13.3585 33.7792 13.2673 33.8705C13.1305 33.9617 12.9938 34.0757 12.857 34.1897C12.7201 34.3038 12.5831 34.4179 12.4462 34.5092C12.3549 34.6003 12.3549 34.6915 12.4462 34.7828C12.5832 34.9198 12.6973 35.0567 12.8114 35.1937Z"/>
<path d="M22.5735 25.3398C22.6419 25.4082 22.7103 25.4766 22.756 25.5678V25.2028C22.756 24.7257 22.6866 24.2484 22.6084 23.7106C22.5969 23.6316 22.5852 23.5512 22.5735 23.4693C22.5735 23.1957 22.4823 23.0132 22.4823 23.0132L22.2087 22.7395V23.0132C22.2998 23.5605 22.2998 24.108 22.2998 24.6555C22.2998 24.838 22.2998 25.0205 22.391 25.1117C22.4367 25.2029 22.5051 25.2713 22.5735 25.3398Z"/>
<path d="M21.937 27.3947C22.1187 27.5765 22.3002 27.7582 22.391 27.94C22.4649 28.0876 22.479 28.0561 22.53 27.9421C22.542 27.9152 22.5561 27.8837 22.5735 27.8488C22.619 27.621 22.6418 27.393 22.6646 27.1651C22.6875 26.9368 22.7103 26.7085 22.756 26.4802C22.756 26.2977 22.756 26.1152 22.6647 26.024L22.2087 25.5678C22.1175 25.4767 22.1175 25.5678 22.1175 25.7502L22.1155 25.76C22.0249 26.2131 21.9343 26.6653 21.8437 27.0277C21.8437 27.2102 21.8437 27.3927 21.935 27.3927L21.937 27.3947Z"/>
<path d="M21.2962 29.6735C21.4787 29.856 21.6612 30.0385 21.8437 30.3122C21.8437 30.3122 21.935 30.2208 21.935 30.1298C21.9737 29.9748 22.0289 29.8197 22.0866 29.6577C22.1647 29.4383 22.2473 29.2061 22.2998 28.9437V28.5787C22.1178 28.3965 21.9348 28.2133 21.8437 28.0312C21.7525 27.94 21.6612 28.0312 21.6612 28.2137C21.6155 28.3964 21.547 28.5791 21.4785 28.7618C21.4101 28.9441 21.3418 29.1263 21.2962 29.3085C21.2326 29.3722 21.2577 29.4802 21.2787 29.5707C21.2878 29.6099 21.2962 29.6459 21.2962 29.6735Z"/>
<path d="M20.5601 31.6933C20.691 31.845 20.8355 32.0123 21.0225 32.137C21.0225 32.3192 21.1133 32.2285 21.2045 32.1375C21.2958 31.955 21.3647 31.772 21.4331 31.5895C21.5015 31.407 21.5699 31.2245 21.6612 31.042C21.7249 30.9784 21.6997 30.8705 21.6787 30.78C21.6695 30.7407 21.6612 30.7048 21.6612 30.6772C21.4787 30.4947 21.2962 30.3122 21.1137 30.0385C21.0226 29.9474 20.9315 30.0383 20.8402 30.1294C20.7931 30.2237 20.7457 30.3122 20.7001 30.3974C20.5693 30.6422 20.4514 30.8626 20.3838 31.1333C20.2925 31.2245 20.2925 31.407 20.3838 31.4983C20.4416 31.5561 20.4994 31.623 20.5601 31.6933Z"/>
<path d="M18.422 35.2388C18.5361 35.3529 18.6502 35.467 18.7415 35.604C18.7415 35.6952 18.924 35.6952 19.0153 35.604C19.1067 35.467 19.2208 35.33 19.3349 35.193C19.4489 35.0563 19.5628 34.9196 19.654 34.7828C19.7452 34.6915 19.7452 34.5092 19.654 34.418C19.5627 34.281 19.4486 34.1669 19.3345 34.0528C19.2205 33.9388 19.1065 33.8248 19.0153 33.688C18.924 33.5967 18.8328 33.5967 18.7415 33.688C18.6502 33.8248 18.5362 33.9617 18.4222 34.0986C18.3081 34.2355 18.1941 34.3723 18.1028 34.5092C18.0117 34.6003 18.0117 34.7828 18.1028 34.874C18.194 35.0108 18.308 35.1248 18.422 35.2388Z"/>
<path d="M16.9935 36.5234C17.1454 36.6951 17.2854 36.8533 17.4643 36.9725C17.4643 37.155 17.5555 37.155 17.6468 37.0637C17.7834 36.9271 17.8973 36.7904 18.0113 36.6537C18.1254 36.5167 18.2396 36.3796 18.3767 36.2427C18.4678 36.1513 18.4678 35.969 18.3767 35.8777C18.2855 35.7409 18.1714 35.6269 18.0574 35.5129C17.9433 35.3988 17.8291 35.2846 17.7378 35.1477C17.6468 35.0565 17.5555 35.0565 17.4643 35.1477C17.3694 35.2426 17.2854 35.3375 17.2048 35.4286C17.053 35.6003 16.9131 35.7584 16.7343 35.8777C16.6431 35.969 16.6431 36.1513 16.7343 36.2427C16.8291 36.3375 16.913 36.4323 16.9935 36.5234Z"/>
<path d="M21.7525 24.4274C21.8209 24.4959 21.8894 24.5643 21.935 24.6555C22.0262 24.6555 22.0262 24.5642 22.0262 24.3817V22.8307C22.0262 22.7237 21.9949 22.6168 21.969 22.5283C21.9506 22.4657 21.935 22.4123 21.935 22.3745L21.6612 22.1008C21.6612 22.1008 21.57 22.192 21.57 22.3745C21.57 22.6607 21.545 22.922 21.5212 23.1714C21.4995 23.399 21.4787 23.6166 21.4787 23.8343C21.4787 24.0167 21.4787 24.1992 21.57 24.1992C21.6156 24.2905 21.6841 24.3589 21.7525 24.4274Z"/>
<path d="M20.84 26.4802C21.0225 26.6627 21.205 26.8452 21.2962 27.0277C21.57 27.1188 21.6612 27.0277 21.6612 26.8452C21.7068 26.6171 21.7525 26.4118 21.7981 26.2065C21.8437 26.0012 21.8893 25.7959 21.935 25.5678C21.935 25.3853 21.935 25.2028 21.8437 25.2028C21.7848 25.0851 21.6878 25.0053 21.5774 24.9144C21.5168 24.8645 21.4522 24.8113 21.3875 24.7467C21.3174 24.6767 21.3011 24.7142 21.256 24.818C21.2424 24.8494 21.2262 24.8868 21.205 24.9292C21.1137 25.3853 21.0225 25.7502 20.84 26.1152L20.84 26.4802Z"/>
<path d="M20.2013 28.5787L20.7488 29.1262C20.84 29.2173 20.9313 29.1262 20.9313 29.0348C21.1137 28.6698 21.205 28.3048 21.2962 27.94V27.5752C21.1137 27.3927 20.9313 27.2102 20.84 27.0277C20.7488 26.9363 20.6575 27.0277 20.6575 27.1188C20.5663 27.3013 20.4979 27.4837 20.4295 27.6661C20.361 27.8487 20.2926 28.0312 20.2013 28.2137C20.11 28.3048 20.11 28.4873 20.2013 28.5787Z"/>
<path d="M19.374 30.5072C19.505 30.6588 19.6494 30.8261 19.8365 30.9508C19.8365 31.042 20.0188 31.042 20.0188 30.9508C20.1102 30.7682 20.2015 30.6084 20.2928 30.4486C20.384 30.2891 20.4752 30.1296 20.5663 29.9473C20.6575 29.856 20.6575 29.6735 20.5663 29.5823C20.3838 29.3998 20.2013 29.2173 20.0188 28.9437C19.9278 28.8525 19.8368 28.9433 19.7457 29.0343C19.5632 29.3993 19.3803 29.6735 19.1978 29.9473C19.1065 30.0385 19.1065 30.2208 19.1978 30.3122C19.2556 30.37 19.3134 30.4369 19.374 30.5072Z"/>
<path d="M18.3307 32.5015C18.4448 32.6156 18.559 32.7298 18.6503 32.8668C18.696 32.8211 18.7416 32.7983 18.7873 32.7755C18.8329 32.7527 18.8785 32.7299 18.924 32.6843C18.9895 32.586 19.0669 32.4877 19.1475 32.3852C19.2914 32.2023 19.4458 32.0059 19.5627 31.772C19.654 31.6808 19.654 31.4983 19.5627 31.407C19.5051 31.3493 19.4474 31.2826 19.3869 31.2125C19.2559 31.0607 19.1113 30.8932 18.924 30.7683C18.8328 30.6772 18.7415 30.6772 18.6503 30.8595C18.5848 30.9578 18.5075 31.0561 18.4269 31.1586C18.2831 31.3416 18.1286 31.5381 18.0117 31.772C17.9203 31.8633 17.9203 32.0457 18.0117 32.137C18.1028 32.2736 18.2167 32.3875 18.3307 32.5015Z"/>
<path d="M17.0535 33.8703C17.1676 33.9844 17.2817 34.0985 17.373 34.2355C17.4643 34.3267 17.6468 34.3267 17.7378 34.2355C17.8292 34.0985 17.9433 33.9615 18.0575 33.8245C18.1715 33.6878 18.2855 33.5511 18.3767 33.4143C18.4678 33.323 18.4678 33.1405 18.3767 33.0493C18.2853 32.9123 18.1711 32.7981 18.0569 32.684C17.943 32.57 17.829 32.4561 17.7378 32.3195C17.6468 32.2282 17.5555 32.2282 17.4643 32.3195C17.3272 32.4565 17.213 32.5935 17.0987 32.7306C16.9848 32.8673 16.8709 33.0039 16.7343 33.1405C16.6431 33.2318 16.6431 33.4143 16.7343 33.5055C16.8255 33.6423 16.9395 33.7563 17.0535 33.8703Z"/>
<path d="M15.7164 35.1549C15.8682 35.3265 16.0081 35.4848 16.1869 35.604C16.0956 35.6952 16.2781 35.7865 16.3694 35.6952C16.4642 35.6003 16.5591 35.5164 16.6502 35.4359C16.8219 35.284 16.9801 35.1441 17.0993 34.9653C17.1905 34.874 17.1905 34.6915 17.0993 34.6003C17.0081 34.4635 16.894 34.3495 16.78 34.2354C16.6659 34.1214 16.5519 34.0073 16.4606 33.8705C16.3694 33.7792 16.2781 33.7792 16.1869 33.8705C16.092 33.9653 15.9972 34.0492 15.9062 34.1297C15.7344 34.2816 15.5762 34.4215 15.4571 34.6003C15.3658 34.6915 15.3658 34.7828 15.4571 34.874C15.5519 34.9689 15.6358 35.0638 15.7164 35.1549Z"/>
<path d="M20.9313 23.7887C20.9997 23.8571 21.0681 23.9255 21.1137 24.0167C21.2562 23.9455 21.2874 23.8743 21.3377 23.7597C21.3518 23.7275 21.3675 23.6918 21.3875 23.6518C21.4787 23.1957 21.4787 22.7395 21.4787 22.2833C21.4787 22.1008 21.4787 21.9183 21.3875 21.9183L21.1137 21.6445C21.1137 21.6445 21.0225 21.7358 21.0225 21.9183C20.9313 22.3745 20.84 22.8307 20.7488 23.1957V23.5605C20.7944 23.6518 20.8629 23.7203 20.9313 23.7887Z"/>
<path d="M20.0188 25.5678C20.2013 25.7502 20.3838 25.9327 20.475 26.1152C20.6575 26.1152 20.7488 26.1152 20.7488 25.9327C20.7875 25.7778 20.8427 25.623 20.9003 25.4611C20.9785 25.2416 21.0612 25.0092 21.1137 24.7467V24.3817L20.6575 23.9255C20.5875 23.8555 20.5713 23.893 20.5262 23.9967C20.5125 24.0281 20.4962 24.0656 20.475 24.108C20.3838 24.473 20.2013 24.838 20.0188 25.2028C19.9277 25.2942 19.9277 25.4767 20.0188 25.5678Z"/>
<path d="M19.1978 27.4838C19.3803 27.6663 19.5627 27.8488 19.7452 28.1225L19.9277 27.94C19.9748 27.8456 20.022 27.7574 20.0676 27.6721C20.1983 27.4274 20.3161 27.2069 20.3838 26.9363C20.475 26.8452 20.475 26.6627 20.3838 26.5715C20.2013 26.389 20.0188 26.2065 19.9277 26.024C19.8365 25.9327 19.7452 26.024 19.7452 26.1152C19.6539 26.2977 19.5627 26.4573 19.4715 26.617C19.3803 26.7767 19.2891 26.9363 19.1978 27.1188C19.1065 27.2102 19.1065 27.3927 19.1978 27.4838Z"/>
<path d="M18.1879 29.4123C18.3189 29.564 18.4633 29.7313 18.6503 29.856C18.7415 29.856 18.8328 29.856 18.924 29.7648C19.0152 29.6279 19.1065 29.4683 19.1978 29.3086C19.289 29.1489 19.3803 28.9892 19.4715 28.8523C19.5627 28.7612 19.5627 28.5787 19.4715 28.4873C19.2893 28.3052 19.1062 28.122 18.924 27.8488C18.8328 27.7575 18.7415 27.8488 18.6503 27.94C18.6001 28.0153 18.5499 28.0975 18.4978 28.1828C18.3605 28.4076 18.21 28.654 18.0117 28.8523C17.9203 28.9437 17.9203 29.1262 18.0117 29.2173C18.0695 29.2751 18.1272 29.342 18.1879 29.4123Z"/>
<path d="M17.1449 31.1333C17.259 31.2473 17.3731 31.3614 17.4643 31.4983C17.5555 31.4983 17.6468 31.4983 17.7378 31.407C17.8291 31.2702 17.9432 31.1333 18.0573 30.9964C18.1713 30.8595 18.2854 30.7227 18.3767 30.5858C18.4678 30.4947 18.4678 30.3122 18.3767 30.2208L17.7378 29.5823C17.6468 29.491 17.5555 29.491 17.4643 29.5823C17.3732 29.719 17.2592 29.8558 17.1452 29.9925C17.0311 30.1294 16.9169 30.2664 16.8257 30.4033C16.7343 30.4947 16.7343 30.6772 16.8257 30.7683C16.9168 30.9052 17.0309 31.0192 17.1449 31.1333Z"/>
<path d="M15.8677 32.4108C15.9817 32.5248 16.0957 32.6387 16.1869 32.7755C16.2781 32.958 16.3694 32.958 16.4606 32.8668C16.5975 32.7299 16.7116 32.593 16.8257 32.4561C16.9397 32.3193 17.0537 32.1825 17.1905 32.0457C17.2818 31.9545 17.2818 31.772 17.1905 31.6808C17.0992 31.5439 16.9851 31.4297 16.871 31.3156C16.757 31.2016 16.6431 31.0876 16.5518 30.9508C16.4606 30.8595 16.3694 30.8595 16.2781 30.9508C16.1832 31.0458 16.0992 31.1408 16.0185 31.2319C15.8668 31.4035 15.7269 31.5617 15.5482 31.6808C15.4571 31.772 15.4571 31.9545 15.5482 32.0457C15.6395 32.1826 15.7536 32.2967 15.8677 32.4108Z"/>
<path d="M20.3839 22.8764C20.4523 22.9449 20.5207 23.0133 20.5663 23.1045C20.5663 23.1045 20.6575 23.1045 20.6575 22.922C20.7482 22.5596 20.8387 22.1074 20.9294 21.6544L20.9313 21.6445V21.2797L20.6575 21.006C20.6575 21.006 20.5663 21.0972 20.5663 21.1885C20.5207 21.3707 20.4524 21.5529 20.384 21.7352C20.3155 21.9179 20.247 22.1006 20.2013 22.2833C20.11 22.3745 20.11 22.557 20.2013 22.6482C20.2469 22.7395 20.3154 22.8079 20.3839 22.8764Z"/>
<path d="M19.1978 24.5642C19.3803 24.7467 19.5627 24.9292 19.654 25.1117C19.7452 25.2028 19.8365 25.1117 19.9277 25.0205C20.0187 24.8382 20.0871 24.6558 20.1555 24.4735C20.224 24.2908 20.2925 24.1082 20.3838 23.9255C20.4474 23.8619 20.4223 23.754 20.4013 23.6635C20.3922 23.6242 20.3838 23.5882 20.3838 23.5605L19.9277 23.1045C19.8632 23.0399 19.8443 23.0666 19.8066 23.12C19.7909 23.1422 19.7719 23.1689 19.7452 23.1957C19.6539 23.3781 19.5627 23.5378 19.4715 23.6974C19.3803 23.8571 19.2891 24.0168 19.1978 24.1992C19.1065 24.2905 19.1065 24.473 19.1978 24.5642Z"/>
<path d="M18.1028 26.2977C18.2853 26.4802 18.4678 26.6627 18.6503 26.9363C18.7415 27.0277 18.8328 26.9363 18.924 26.8452C19.1065 26.5715 19.289 26.2065 19.4715 25.8415C19.5627 25.7502 19.5627 25.5678 19.4715 25.4767C19.289 25.2942 19.1065 25.1117 19.0153 24.9292C18.924 24.838 18.8328 24.9292 18.7415 25.0205C18.6913 25.0958 18.6411 25.178 18.589 25.2632C18.4518 25.488 18.3013 25.7343 18.1028 25.9327C18.0117 26.024 18.0117 26.2065 18.1028 26.2977Z"/>
<path d="M17.1844 28.0439C17.3153 28.1954 17.4598 28.3627 17.6468 28.4873C17.5555 28.6698 17.7378 28.6698 17.8292 28.4873C18.0117 28.2137 18.1942 27.94 18.4678 27.5752C18.559 27.4838 18.559 27.3013 18.4678 27.2102C18.2853 27.0277 18.1028 26.8452 17.9203 26.5715C17.8292 26.4802 17.7378 26.4802 17.6468 26.6627C17.5556 26.7995 17.4415 26.9364 17.3274 27.0732C17.2133 27.2101 17.0992 27.347 17.008 27.4838C16.9168 27.5752 16.9168 27.7575 17.008 27.8488C17.0658 27.9066 17.1237 27.9736 17.1844 28.0439Z"/>
<path d="M15.8675 29.7648C15.9816 29.8788 16.0956 29.9928 16.1869 30.1297C16.3694 30.2208 16.4606 30.1298 16.5518 30.0385C16.8248 29.7657 17.0069 29.4927 17.1888 29.2198L17.1905 29.2173C17.2818 29.1262 17.2818 28.9437 17.1905 28.8523C17.1327 28.7945 17.0749 28.7276 17.0143 28.6573C16.8834 28.5057 16.739 28.3384 16.5518 28.2137C16.4606 28.1225 16.3694 28.1225 16.2781 28.2137C16.1413 28.3505 16.0272 28.4874 15.9132 28.6243C15.7991 28.7611 15.685 28.898 15.5482 29.0348C15.4571 29.1262 15.4571 29.3085 15.5482 29.3998C15.6394 29.5367 15.7535 29.6507 15.8675 29.7648Z"/>
<path d="M14.5903 31.0421C14.7043 31.1561 14.8184 31.2702 14.9096 31.407C15.0008 31.5895 15.0921 31.5895 15.1833 31.4983C15.278 31.4036 15.3618 31.3088 15.4423 31.2178C15.5942 31.046 15.7342 30.8877 15.9132 30.7683C16.0044 30.6772 16.0044 30.4947 15.9132 30.4033C15.822 30.2668 15.7082 30.1529 15.5943 30.039C15.4801 29.9248 15.3659 29.8106 15.2746 29.6735C15.1833 29.5823 15.0921 29.5823 15.0008 29.6735L14.2709 30.4033C14.1797 30.4947 14.1797 30.5858 14.2709 30.6772C14.3622 30.814 14.4762 30.928 14.5903 31.0421Z"/>
<path d="M13.0707 32.2355C13.2224 32.4071 13.3622 32.5651 13.541 32.6843C13.541 32.958 13.6322 32.958 13.7234 32.8668C13.8606 32.7297 13.9977 32.6154 14.1348 32.5012C14.2714 32.3873 14.408 32.2735 14.5447 32.137C14.6359 32.0457 14.6359 31.8633 14.5447 31.772C14.4534 31.6352 14.3395 31.5212 14.2255 31.4072C14.1114 31.2931 13.9972 31.179 13.9059 31.042C13.8147 30.9508 13.7234 30.9508 13.6322 31.042C13.4953 31.1333 13.3585 31.2473 13.2217 31.3614C13.0849 31.4755 12.948 31.5896 12.8111 31.6808C12.7199 31.772 12.7199 31.8632 12.8111 31.9545C12.9061 32.0494 12.9901 32.1444 13.0707 32.2355Z"/>
<path d="M15.8219 38.3412C16.0044 38.5237 16.0956 38.5237 16.1869 38.4323C16.3236 38.2957 16.4603 38.1817 16.597 38.0678C16.734 37.9536 16.871 37.8394 17.008 37.7023C17.0993 37.6112 17.0993 37.4287 17.008 37.3375C16.9133 37.2427 16.8295 37.148 16.7491 37.0571C16.5971 36.8853 16.4571 36.727 16.2781 36.6077C16.1869 36.5163 16.0956 36.5163 15.9132 36.6077C15.6394 36.8812 15.3658 37.0637 15.0921 37.2462C15.0008 37.3375 15.0008 37.4287 15.0921 37.52C15.2291 37.6569 15.3432 37.7939 15.4573 37.9308C15.5712 38.0676 15.6852 38.2044 15.8219 38.3412Z"/>
<path d="M18.3767 14.6192C18.2853 14.4369 18.4678 14.4369 18.6503 14.6192C19.0681 14.9535 19.4094 15.3642 19.8142 15.8515C19.8515 15.8963 19.8892 15.9418 19.9277 15.9879C20.0441 16.1628 20.3469 16.8589 20.5504 17.3389C20.6132 17.5172 20.6636 17.6609 20.698 17.7587C20.6311 17.6854 20.5075 17.5418 20.3838 17.3564C20.2284 17.2009 20.0835 17.0454 19.942 16.8936C19.6683 16.5999 19.4072 16.3197 19.1065 16.0791C18.9995 15.9721 18.8925 15.8338 18.8039 15.7192C18.7414 15.6384 18.6881 15.5694 18.6503 15.5317C18.6045 15.3944 18.5588 15.2341 18.513 15.0739C18.4675 14.9148 18.4221 14.7557 18.3767 14.6192Z"/>
<path fill-rule="evenodd" clip-rule="evenodd" d="M20.6996 17.7605C20.6991 17.7599 20.6985 17.7593 20.698 17.7587C20.7308 17.8522 20.7488 17.9038 20.7488 17.9038C20.7488 17.9038 20.7323 17.8541 20.7017 17.7629C20.7313 17.7952 20.7488 17.8127 20.7488 17.8127C20.7488 17.8127 20.6865 17.6614 20.5953 17.4451C20.5246 17.2342 20.4325 16.9602 20.3256 16.6436C20.5886 17.2441 20.84 17.9038 20.84 17.9038C20.84 17.9038 20.2964 16.3565 19.8603 15.2721C19.1876 13.3006 18.353 10.9078 18.1942 10.696C17.6468 9.96623 17.1905 9.41878 16.7343 8.96257C16.5518 8.78008 16.3694 8.68883 16.5518 8.96257C16.5974 9.09922 16.643 9.2586 16.6885 9.41803C16.7342 9.57795 16.7799 9.73792 16.8257 9.875C16.9168 10.0574 17.0993 10.3311 17.2818 10.5136C17.4176 10.6833 17.5787 10.8657 17.7509 11.0607C18.0415 11.3898 18.3639 11.7549 18.6503 12.1559C18.7022 12.2337 18.8942 12.7317 19.1423 13.4047C18.9547 12.9254 18.8067 12.586 18.7415 12.5208C18.2853 11.8822 17.8292 11.3348 17.373 10.8785C17.1905 10.6961 17.008 10.6048 17.0993 10.8785L17.1008 10.883C17.1915 11.1553 17.2823 11.428 17.373 11.791C17.4643 11.9734 17.6468 12.2471 17.8292 12.4295C18.2848 12.7941 18.7405 13.3408 19.1963 13.8876L19.1978 13.8894C19.2446 13.9362 19.3208 14.0844 19.4149 14.2979C19.4021 14.2793 19.3906 14.2647 19.3803 14.2544L19.379 14.2528C18.9231 13.7058 18.4674 13.1591 18.0117 12.7945C17.8292 12.612 17.6468 12.5208 17.8292 12.7945C17.8747 12.9314 17.9204 13.0911 17.966 13.2507C18.0116 13.4104 18.0573 13.5701 18.1028 13.7069C18.1942 13.8894 18.3767 14.1631 18.559 14.3456C18.924 14.7105 19.3803 15.1667 19.8365 15.7142C19.9295 15.8072 20.0752 16.0901 20.2271 16.4229C20.3518 16.7752 20.4631 17.0907 20.5504 17.3389C20.5559 17.3519 20.5614 17.3648 20.5667 17.3774C20.6225 17.5373 20.668 17.6689 20.6996 17.7605ZM20.2369 16.4445C20.2337 16.4373 20.2304 16.4301 20.2271 16.4229C20.1904 16.3194 20.1526 16.2127 20.1139 16.1036C20.1557 16.2187 20.1969 16.3329 20.2369 16.4445ZM20.2369 16.4445C20.2501 16.4735 20.2633 16.5029 20.2765 16.5325C20.394 16.8699 20.4977 17.1705 20.5778 17.4036C20.5742 17.395 20.5705 17.3862 20.5667 17.3774C20.4778 17.1225 20.3629 16.7958 20.2369 16.4445ZM20.5778 17.4036C20.5838 17.4177 20.5896 17.4315 20.5953 17.4451C20.6398 17.5776 20.6758 17.6853 20.7017 17.7629C20.7013 17.7623 20.7001 17.7611 20.6996 17.7605C20.6703 17.6745 20.6293 17.5534 20.5778 17.4036ZM20.1139 16.1036C19.8706 15.4334 19.6058 14.7312 19.4149 14.2979C19.4593 14.363 19.518 14.4771 19.5862 14.6257C19.7649 15.1224 19.9478 15.6353 20.1139 16.1036ZM19.5862 14.6257C19.4306 14.1931 19.2781 13.7728 19.1423 13.4047C19.2957 13.7966 19.4756 14.2819 19.6585 14.7874C19.6334 14.73 19.6093 14.6759 19.5862 14.6257ZM19.6585 14.7874C19.721 14.9309 19.7892 15.0953 19.8603 15.2721C20.0303 15.7701 20.1899 16.2413 20.3256 16.6436C20.3093 16.6063 20.2929 16.5692 20.2765 16.5325C20.0919 16.0022 19.8731 15.3809 19.6585 14.7874ZM20.6996 17.7605C20.6994 17.7603 20.6998 17.7608 20.6996 17.7605V17.7605Z"/>
<path d="M16.1869 12.8858C16.0956 12.7945 16.2781 12.7033 16.4606 12.8858L17.5555 13.7069C17.6621 13.8137 17.7688 13.9516 17.8573 14.066C17.9201 14.1472 17.9737 14.2165 18.0117 14.2544C18.1028 14.6193 18.1942 14.893 18.3767 15.258C18.4678 15.4404 18.2853 15.4404 18.1028 15.258L17.008 14.4369C16.8257 14.3456 16.6431 14.0719 16.5518 13.8894C16.4606 13.5245 16.3694 13.2507 16.1869 12.8858Z"/>
<path d="M14.2709 11.6997C14.0884 11.5172 14.1797 11.426 14.3621 11.5172C14.5446 11.6085 14.7043 11.7225 14.864 11.8366C15.0237 11.9506 15.1833 12.0647 15.3658 12.1559C15.5482 12.2471 15.7307 12.5208 15.8219 12.7033C15.9132 13.0682 16.0044 13.342 16.1869 13.7069C16.2781 13.8894 16.1869 13.8894 16.0044 13.7982C15.7257 13.6588 15.4471 13.4663 15.2091 13.3018C15.1354 13.2509 15.0656 13.2026 15.0008 13.1595C14.8184 13.0682 14.6359 12.8857 14.6359 12.7033C14.5447 12.3383 14.4534 12.0647 14.2709 11.6997Z"/>
<path d="M15.4571 10.9698C15.4571 10.7873 15.5482 10.6961 15.7307 10.8785C16.0956 11.1523 16.4606 11.426 16.8257 11.791C16.9323 11.8977 17.039 12.0356 17.1275 12.1499C17.1903 12.2311 17.2439 12.3004 17.2818 12.3383C17.373 12.7033 17.4643 12.977 17.6468 13.342C17.7378 13.5245 17.5555 13.5245 17.373 13.342L16.2781 12.5208C16.0956 12.4295 15.9132 12.1559 15.8219 11.9735C15.7307 11.6085 15.6394 11.3348 15.4571 10.9698Z"/>
<path d="M13.6322 9.69252C13.4497 9.51002 13.541 9.41878 13.7234 9.51002C13.9059 9.60123 14.0655 9.71522 14.2251 9.82921C14.3848 9.9433 14.5446 10.0574 14.7271 10.1486C14.9096 10.2398 15.0921 10.5136 15.1833 10.696C15.2746 11.061 15.3658 11.3348 15.5482 11.6997C15.6394 11.8822 15.5482 11.8822 15.3658 11.791C15.087 11.6516 14.8082 11.4589 14.5701 11.2944C14.4965 11.2435 14.4268 11.1954 14.3621 11.1523C14.1797 11.061 13.9972 10.8785 13.9972 10.696C13.9059 10.3311 13.8147 10.0574 13.6322 9.69252Z"/>
<path d="M14.8184 8.87132C14.8184 8.78008 14.9096 8.78008 15.0921 8.87132C15.4571 9.14505 15.8219 9.41878 16.1869 9.78375C16.2938 9.89066 16.4007 10.0289 16.4893 10.1433C16.5519 10.2242 16.6053 10.2933 16.6431 10.3311C16.7343 10.696 16.8257 10.9698 17.008 11.3348C17.0993 11.5172 16.9168 11.5172 16.7343 11.3348C16.5519 11.1979 16.3694 11.0382 16.1869 10.8786C16.0044 10.7189 15.8219 10.5592 15.6394 10.4223C15.4571 10.3311 15.2746 10.0574 15.1833 9.875C15.0921 9.51002 15.0008 9.2363 14.8184 8.87132Z"/>
<path d="M14.1797 6.95535C14.1797 6.8641 14.2709 6.77287 14.4534 6.95535C14.6359 7.0922 14.8183 7.25186 15.0008 7.41151C15.1833 7.57118 15.3657 7.73084 15.5482 7.86765C15.6551 7.97456 15.762 8.1128 15.8506 8.2273C15.9132 8.30824 15.9666 8.37733 16.0044 8.41512C16.026 8.47977 16.0475 8.54952 16.0703 8.62316C16.1438 8.86126 16.23 9.14003 16.3694 9.41878C16.4606 9.60127 16.2781 9.60127 16.0956 9.41878C15.9132 9.28192 15.7307 9.12224 15.5482 8.96257C15.3658 8.80289 15.1833 8.64322 15.0008 8.50635C14.8184 8.32387 14.6359 8.14138 14.5447 7.9589C14.4534 7.59405 14.3622 7.32032 14.1797 6.95535Z"/>
<path d="M12.1725 5.7692C12.0812 5.49547 12.1725 5.49547 12.3549 5.58672C12.634 5.72625 12.9131 5.91912 13.1513 6.08377C13.2246 6.13444 13.2941 6.18245 13.3585 6.2254C13.541 6.31665 13.7234 6.59038 13.8147 6.77287C13.906 7.13783 13.9972 7.41157 14.1797 7.77642C14.2709 7.9589 14.1797 7.9589 13.9972 7.86765C13.7683 7.69607 13.5394 7.56033 13.3331 7.43795C13.2104 7.36518 13.0957 7.29713 12.9936 7.22908C12.8624 7.16346 12.7311 7.00343 12.6338 6.8848C12.5959 6.83849 12.5631 6.79848 12.5374 6.77287C12.4462 6.4079 12.3549 6.13417 12.1725 5.7692Z"/>
<path d="M12.3549 10.6048C12.1725 10.5136 12.2637 10.4223 12.4462 10.5136C12.6286 10.6048 12.7882 10.6732 12.9478 10.7416C13.1075 10.81 13.2672 10.8785 13.4497 10.9698C13.6322 11.061 13.8147 11.2435 13.9059 11.426C13.9972 11.791 14.0884 12.0647 14.2709 12.4295C14.3621 12.612 14.2709 12.612 14.0884 12.5208C13.9058 12.4295 13.746 12.361 13.5863 12.2925C13.4267 12.2242 13.2672 12.1558 13.0849 12.0647C12.9024 11.9735 12.7199 11.791 12.7199 11.6085C12.6287 11.2435 12.5374 10.9698 12.3549 10.6048Z"/>
<path d="M11.625 8.5976C11.5337 8.50635 11.625 8.41512 11.7162 8.50635C11.8987 8.5976 12.0584 8.66603 12.2181 8.73447C12.3778 8.8029 12.5374 8.87133 12.7199 8.96257C12.9024 9.05382 13.0849 9.2363 13.1761 9.41878C13.2673 9.78375 13.3585 10.0574 13.541 10.4223C13.6322 10.6048 13.541 10.6048 13.3585 10.5136C13.2643 10.4665 13.1762 10.4194 13.091 10.3738C12.8462 10.243 12.6257 10.125 12.3549 10.0574C12.1725 9.96623 11.99 9.78375 11.99 9.60127C11.8987 9.2363 11.8075 8.96257 11.625 8.5976Z"/>
<path d="M10.8952 6.68162C10.8039 6.49913 10.8952 6.4079 11.0775 6.49913C11.1718 6.54628 11.26 6.59342 11.3453 6.63899C11.59 6.76981 11.8105 6.88767 12.0812 6.95535C12.2125 7.02098 12.3437 7.18099 12.441 7.29962C12.479 7.34594 12.5118 7.38595 12.5374 7.41157C12.6287 7.77642 12.7199 8.05013 12.9024 8.41512C12.9936 8.5976 12.9024 8.5976 12.7199 8.50635C12.6256 8.4592 12.5374 8.41204 12.4521 8.36647C12.2074 8.23565 11.9869 8.11781 11.7162 8.05013C11.5337 7.9589 11.3513 7.77642 11.3513 7.59405C11.1106 7.35337 11.011 7.04215 10.9285 6.78443C10.9172 6.74905 10.9062 6.71467 10.8952 6.68162Z"/>
<path d="M10.2565 4.58317C10.1652 4.49192 10.2565 4.40068 10.439 4.49192C10.6215 4.58317 10.7811 4.67443 10.9408 4.76569C11.1004 4.85692 11.2601 4.94815 11.4425 5.03938C11.5737 5.10495 11.7048 5.26479 11.8021 5.38335C11.8402 5.42976 11.8731 5.46984 11.8987 5.49547C11.99 5.86043 12.0812 6.13417 12.2637 6.49913C12.3549 6.68162 12.2637 6.68162 12.0812 6.59038C11.625 6.4079 11.26 6.2254 10.9863 6.04292C10.8039 5.95168 10.6214 5.7692 10.6214 5.58672C10.5302 5.22187 10.439 4.94813 10.2565 4.58317Z"/>
<path d="M10.2565 9.875C10.1652 9.69252 10.2565 9.60127 10.439 9.69252C10.5757 9.73809 10.7351 9.80642 10.8946 9.87476C11.0544 9.94325 11.2143 10.0117 11.3513 10.0574C11.5337 10.1486 11.7162 10.3311 11.7162 10.5136C11.8075 10.8785 11.8987 11.1523 12.0812 11.5172C12.1725 11.6997 12.0812 11.791 11.8987 11.6997C11.7618 11.6541 11.602 11.5856 11.4422 11.5171C11.2826 11.4487 11.1231 11.3803 10.9864 11.3348C10.8039 11.2435 10.6214 11.061 10.6214 10.8785C10.5302 10.5136 10.439 10.2398 10.2565 9.875Z"/>
<path d="M8.43175 9.32753C8.43175 9.05382 8.43175 8.96257 8.61423 9.05382C8.75112 9.09946 8.91086 9.1451 9.07061 9.19075C9.23018 9.23635 9.38975 9.28194 9.52653 9.32753C9.70903 9.41878 9.89152 9.60127 9.89152 9.78375C9.93713 9.96615 10.0055 10.1258 10.074 10.2854C10.1424 10.4451 10.2109 10.6048 10.2565 10.7873C10.3477 10.9698 10.2565 11.061 10.074 10.9698C9.93713 10.9242 9.77746 10.8785 9.61778 10.8329C9.45811 10.7873 9.29843 10.7417 9.16157 10.696C8.97908 10.6048 8.7966 10.5136 8.7966 10.3311C8.73938 10.102 8.64614 9.87284 8.56209 9.66626C8.51228 9.54386 8.4657 9.42938 8.43175 9.32753Z"/>
<path d="M6.69813 8.78008C6.6069 8.5976 6.69813 8.50635 6.88063 8.50635C7.01749 8.55198 7.17717 8.5976 7.33684 8.64322C7.49652 8.68884 7.65619 8.73446 7.79305 8.78008C7.97553 8.78008 8.15803 8.96257 8.15803 9.14505C8.21533 9.37426 8.30862 9.60348 8.3927 9.81006C8.44249 9.93242 8.48906 10.0468 8.523 10.1486C8.61423 10.3311 8.523 10.4223 8.34052 10.4223C8.06678 10.3311 7.70182 10.2398 7.42808 10.2398C7.2456 10.2398 7.06312 10.0574 7.06312 9.875C7.01749 9.6925 6.94905 9.51001 6.88062 9.32752C6.81219 9.14504 6.74376 8.96256 6.69813 8.78008Z"/>
<path d="M5.0559 8.41512C4.87342 8.23262 4.96465 8.14138 5.14713 8.14138C5.29531 8.19077 5.44349 8.21342 5.60614 8.23829C5.74396 8.25936 5.89217 8.28201 6.05957 8.32387C6.24205 8.32387 6.42453 8.50635 6.42453 8.68883C6.47013 8.87146 6.5386 9.05409 6.60706 9.23672C6.67543 9.41906 6.74379 9.60141 6.78938 9.78375C6.88063 9.96623 6.78938 10.0574 6.6069 10.0574C6.47017 10.0118 6.33341 9.98904 6.19663 9.96626C6.05971 9.94345 5.92277 9.92064 5.78583 9.875C5.60336 9.875 5.51212 9.69253 5.42088 9.51004C5.37526 9.32757 5.30682 9.14508 5.2384 8.96262C5.16996 8.78012 5.10152 8.59762 5.0559 8.41512Z"/>
<path d="M7.70182 7.32032C7.70182 6.95535 7.79305 6.8641 7.8843 6.95535C7.93702 6.97292 7.99313 6.9905 8.05131 7.00872C8.29523 7.08513 8.5757 7.17298 8.7966 7.32032C8.97908 7.41157 9.16157 7.59405 9.16157 7.77642C9.20719 7.95889 9.27562 8.11855 9.34404 8.27822C9.41248 8.4379 9.48091 8.59759 9.52653 8.78008C9.61778 8.96257 9.52653 9.05382 9.34405 8.96257C9.20718 8.91694 9.04752 8.87131 8.88786 8.82569C8.72823 8.78007 8.5686 8.73445 8.43175 8.68883C8.24927 8.5976 8.06678 8.41512 8.06678 8.32387C8.00952 8.09482 7.91632 7.86582 7.83229 7.65935C7.78242 7.53684 7.73579 7.42226 7.70182 7.32032Z"/>
<path d="M5.96832 6.59038C5.87708 6.4079 5.96832 6.31665 6.15082 6.4079C6.28769 6.45352 6.44735 6.49915 6.607 6.54477C6.76663 6.59039 6.92626 6.636 7.06312 6.68162C7.2456 6.77287 7.42808 6.95535 7.42808 7.0466C7.48535 7.27566 7.57856 7.50467 7.66259 7.71114C7.71245 7.83364 7.75908 7.94821 7.79305 8.05013C7.8843 8.23262 7.79305 8.32387 7.61057 8.32387C7.4737 8.27824 7.31403 8.23262 7.15435 8.187C6.99467 8.14138 6.835 8.09576 6.69813 8.05013C6.51578 8.05013 6.3333 7.86765 6.3333 7.6853C6.28767 7.5028 6.21924 7.32031 6.1508 7.13782C6.08237 6.95534 6.01394 6.77286 5.96832 6.59038Z"/>
<path d="M8.88785 5.7692C8.7966 5.58672 8.88785 5.49547 9.07033 5.58672C9.20721 5.63234 9.36692 5.70078 9.52662 5.76923C9.68627 5.83765 9.84591 5.90607 9.98275 5.95168C10.1652 6.04292 10.3477 6.22542 10.3477 6.4079C10.439 6.77287 10.5302 7.0466 10.7127 7.41157C10.8039 7.59405 10.7127 7.6853 10.5302 7.59405C10.3092 7.44669 10.0286 7.35883 9.78469 7.28242C9.72654 7.26421 9.67047 7.24664 9.61778 7.22908C9.4353 7.13783 9.25282 6.95535 9.25282 6.77287C9.16157 6.4079 9.07033 6.13417 8.88785 5.7692Z"/>
<path d="M7.06312 5.03938C6.97187 4.85688 7.06312 4.76565 7.2456 4.85688C7.29832 4.87446 7.35442 4.89203 7.4126 4.91026C7.65653 4.98667 7.93702 5.07453 8.15803 5.22187C8.34052 5.3131 8.523 5.49547 8.523 5.67795C8.61423 6.04292 8.70548 6.31665 8.88785 6.68162C8.97908 6.8641 8.88785 6.95535 8.70548 6.8641C8.65279 6.84654 8.59672 6.82898 8.53858 6.81076C8.29463 6.73436 8.01409 6.64649 7.79305 6.49913C7.61057 6.4079 7.42808 6.2254 7.42808 6.04292C7.37081 5.81386 7.27761 5.58484 7.19358 5.37838C7.14372 5.25588 7.09709 5.14131 7.06312 5.03938Z"/>
<path d="M5.23838 4.40068C5.14713 4.30943 5.23838 4.2182 5.42087 4.2182C5.55773 4.26382 5.71741 4.30944 5.87708 4.35506C6.03676 4.40068 6.19643 4.4463 6.3333 4.49192C6.51565 4.58317 6.69813 4.76565 6.69813 4.94813C6.75541 5.17721 6.84862 5.40624 6.93266 5.61272C6.98252 5.73521 7.02914 5.84976 7.06312 5.95168C7.15435 6.13417 7.06312 6.2254 6.88063 6.13417C6.74377 6.08854 6.58412 6.04292 6.42447 5.9973C6.26483 5.95168 6.10518 5.90606 5.96832 5.86043C5.78583 5.86043 5.60335 5.67795 5.60335 5.49547C5.55774 5.31309 5.48933 5.13068 5.42092 4.94825C5.35247 4.76574 5.28401 4.58321 5.23838 4.40068Z"/>
<path d="M3.41365 4.12695C3.41365 3.76198 3.5049 3.67073 3.59613 3.76198C3.7329 3.80757 3.89244 3.85315 4.05198 3.89874C4.21176 3.9444 4.37153 3.99005 4.50843 4.0357C4.69093 4.0357 4.87342 4.2182 4.87342 4.40068C4.91905 4.58323 4.98751 4.76577 5.05596 4.9483C5.12437 5.13071 5.19277 5.3131 5.23838 5.49547C5.32962 5.67795 5.23838 5.7692 5.0559 5.7692C4.78217 5.67795 4.4172 5.58672 4.1436 5.58672C3.9611 5.58672 3.77862 5.40435 3.77862 5.22187C3.73299 5.03935 3.66455 4.85684 3.59611 4.67433C3.52769 4.49187 3.45927 4.30941 3.41365 4.12695Z"/>
<path d="M1.7714 3.5795C1.68017 3.397 1.7714 3.21465 1.86265 3.30577C2.01077 3.35516 2.15894 3.37781 2.32159 3.40268C2.45938 3.42375 2.60757 3.4464 2.77495 3.48825C2.95743 3.48825 3.13992 3.67073 3.13992 3.94447C3.18554 4.12694 3.25397 4.30942 3.3224 4.4919C3.39084 4.67439 3.45927 4.85689 3.5049 5.03938C3.59613 5.22187 3.5049 5.3131 3.32242 5.3131C3.04873 5.22188 2.7749 5.13062 2.50122 5.13062C2.31875 5.13062 2.22752 4.94817 2.13627 4.7657C2.09755 4.6108 2.04239 4.45585 1.98477 4.29398C1.90663 4.07444 1.82392 3.84208 1.7714 3.5795Z"/>
<path d="M8.15803 3.76198C8.15803 3.48825 8.24927 3.48825 8.34052 3.48825C8.61423 3.5795 8.97908 3.76198 9.25282 3.94447C9.4353 4.0357 9.61778 4.2182 9.61778 4.40068C9.70903 4.76565 9.80027 5.03938 9.98275 5.40435C10.074 5.58672 9.98275 5.67795 9.80027 5.58672C9.57927 5.43949 9.29881 5.35164 9.05491 5.27525C8.99671 5.25702 8.94059 5.23944 8.88785 5.22187C8.70548 5.13062 8.523 4.94813 8.523 4.76565C8.43175 4.40068 8.34052 4.12695 8.15803 3.76198Z"/>
<path d="M2.77495 1.75476C2.68372 1.57228 2.77495 1.48103 2.8662 1.48103C3.00305 1.52665 3.16272 1.57227 3.32239 1.61789C3.48207 1.66352 3.64175 1.70914 3.77862 1.75476C3.9611 1.84601 4.1436 2.02849 4.1436 2.21098C4.23469 2.39328 4.30304 2.57559 4.37139 2.75788C4.43987 2.94053 4.50835 3.12316 4.59968 3.30577C4.69093 3.48825 4.59968 3.5795 4.4172 3.5795C4.28027 3.53383 4.12045 3.48816 3.96063 3.4425C3.80113 3.39692 3.64163 3.35134 3.5049 3.30577C3.32242 3.30577 3.13992 3.03217 3.13992 2.84968C3.0943 2.66717 3.02586 2.48467 2.95742 2.30216C2.88899 2.11969 2.82057 1.93723 2.77495 1.75476Z"/>
</svg>
