<svg viewBox="0 0 40 40"  xmlns="http://www.w3.org/2000/svg">
<g clip-path="url(#clip0_2453_21797)">
<path fill-rule="evenodd" clip-rule="evenodd" d="M31.7039 27.2363C31.7039 30.6188 28.942 33.3703 25.5464 33.3703H13.7409L26.0098 21.1481C29.1857 21.3891 31.7039 24.0116 31.7039 27.2363ZM12.0002 20.6296V6.44439H25.5734C25.8054 6.44439 26.0341 6.45682 26.2594 6.48206L12.0002 20.6296ZM34.1736 12.5509C34.1736 9.69234 32.7595 7.15669 30.5902 5.59834L36.4446 -0.222275L32.9423 -0.202303L28.2911 4.4217C27.4301 4.13438 26.5089 3.97837 25.5517 3.97837H9.53895V26.5279L28.8177 7.36055C30.5542 8.44487 31.7109 10.3661 31.7109 12.5509C31.7109 15.9276 28.9483 18.6745 25.5517 18.6745H25.042L3.59277 39.9999H7.07516L11.2803 35.8189H25.5517C30.3057 35.8189 34.1736 31.9736 34.1736 27.2471C34.1736 24.1298 32.4862 21.4042 29.9773 19.9037C32.4888 18.4036 34.1736 15.6697 34.1736 12.5509Z"/>
</g>
<defs>
<clipPath id="clip0_2453_21797">
<rect width="40" height="40" fill="white"/>
</clipPath>
</defs>
</svg>
