<svg  viewBox="0 0 40 40" xmlns="http://www.w3.org/2000/svg">
<path d="M19.9631 0.000452507C18.4464 -0.0102318 16.9342 0.168324 15.4602 0.532131V25.4266C15.4564 25.6681 15.3601 25.8986 15.1918 26.0688C15.0236 26.239 14.7967 26.3355 14.5596 26.3378H12.7567C12.6682 26.3385 12.5805 26.3213 12.4985 26.2873C12.4166 26.2533 12.3421 26.2031 12.2792 26.1396C12.2164 26.0761 12.1666 26.0006 12.1326 25.9174C12.0986 25.8342 12.081 25.745 12.081 25.6548V1.59461C8.51514 3.10351 5.46621 5.65162 3.31691 8.91915C1.16762 12.1867 0.0137072 16.028 0 19.9611C0.0196176 22.6183 0.553969 25.2453 1.57241 27.6917C2.59086 30.1381 4.07337 32.3556 5.93493 34.2171C7.7965 36.0787 10.0005 37.5477 12.4206 38.5398C14.8407 39.5319 17.4292 40.0277 20.0378 39.9988C22.6365 40.0279 25.2154 39.5341 27.6264 38.5458C30.0374 37.5575 32.2332 36.0942 34.0877 34.2396C35.9423 32.3851 37.4193 30.1759 38.4338 27.7387C39.4484 25.3016 39.9806 22.6844 40 20.0372C39.935 14.6791 37.7915 9.56472 34.0375 5.81071C30.2834 2.05669 25.2238 -0.0320614 19.9631 0.000452507ZM19.5879 28.3106C19.5852 28.5323 19.4971 28.744 19.3427 28.9002C19.1882 29.0564 18.9797 29.1446 18.762 29.1457H16.9591C16.7415 29.1446 16.533 29.0564 16.3785 28.9002C16.224 28.744 16.1359 28.5323 16.1332 28.3106V15.6351C16.1359 15.4134 16.224 15.2017 16.3785 15.0455C16.533 14.8893 16.7415 14.8011 16.9591 14.8H18.762C18.9797 14.8011 19.1882 14.8893 19.3427 15.0455C19.4971 15.2017 19.5852 15.4134 19.5879 15.6351V28.3106ZM23.6401 29.5252C23.6374 29.7469 23.5493 29.9587 23.3949 30.1149C23.2404 30.2711 23.0319 30.3592 22.8142 30.3604H21.0113C20.7937 30.3592 20.5852 30.2711 20.4307 30.1149C20.2762 29.9587 20.1881 29.7469 20.1854 29.5252V14.4214C20.1881 14.1997 20.2762 13.9879 20.4307 13.8317C20.5852 13.6755 20.7937 13.5874 21.0113 13.5862H22.8142C23.0319 13.5874 23.2404 13.6755 23.3949 13.8317C23.5493 13.9879 23.6374 14.1997 23.6401 14.4214V29.5252ZM27.6923 27.2516C27.6896 27.4733 27.6015 27.685 27.4471 27.8412C27.2926 27.9974 27.0841 28.0856 26.8664 28.0867H25.0687C24.851 28.0856 24.6425 27.9974 24.488 27.8412C24.3336 27.685 24.2455 27.4733 24.2428 27.2516V16.8498C24.2455 16.6281 24.3336 16.4163 24.488 16.2601C24.6425 16.1039 24.851 16.0158 25.0687 16.0146H26.8716C27.0892 16.0158 27.2977 16.1039 27.4522 16.2601C27.6067 16.4163 27.6948 16.6281 27.6975 16.8498L27.6923 27.2516Z"/>
</svg>
