<svg  viewBox="0 0 40 40" xmlns="http://www.w3.org/2000/svg">
<g clip-path="url(#clip0_2453_21799)">
<path d="M6.83156 20.0001L6.8516 27.7356L13.4247 31.6034V36.1324L3.00391 30.0202V17.7355L6.83156 20.0001ZM6.83156 12.2646V16.7736L3.00391 14.5091V10L6.83156 7.73547L10.6792 10L6.83156 12.2646ZM16.1702 10L19.9979 7.73547L23.8456 10L19.9979 12.2646L16.1702 10Z"/>
<path d="M9.59766 26.1323V21.6032L13.4253 23.8677V28.3768L9.59766 26.1323ZM16.1708 33.2265L19.9984 35.491L23.8461 33.2265V37.7355L19.9984 40L16.1708 37.7355V33.2265ZM29.3371 10L33.1647 7.73547L37.0124 10V14.509L33.1647 16.7736V12.2645L29.3371 10ZM33.1647 27.7355L33.1848 20L37.0124 17.7355V30.02L26.5916 36.1323V31.6032L33.1647 27.7355Z"/>
<path d="M30.4185 26.1322L26.5908 28.3767V23.8677L30.4185 21.6032V26.1322Z"/>
<path d="M30.4194 13.8678L30.4394 18.3969L23.8462 22.2646V30.0202L20.0185 32.2647L16.1909 30.0202V22.2646L9.59766 18.3969V13.8678L13.4454 11.6033L19.9985 15.4911L26.5917 11.6033L30.4394 13.8678H30.4194ZM9.59766 6.1323L19.9985 0L30.4194 6.1323L26.5917 8.39684L19.9985 4.50904L13.4253 8.39684L9.59766 6.1323Z"/>
</g>
<defs>
<clipPath id="clip0_2453_21799">
<rect width="34.016" height="40" fill="white" transform="translate(3)"/>
</clipPath>
</defs>
</svg>
