<svg viewBox="0 0 40 40"  xmlns="http://www.w3.org/2000/svg">
<path d="M34.9221 16.0809C35.5442 11.8762 32.3683 9.61718 28.0235 8.11118L29.4333 2.41819L25.9916 1.55401L24.6194 7.09791C23.7163 6.8705 22.7882 6.65572 21.865 6.44346L23.2472 0.864182L19.808 0L18.3982 5.69046C17.6507 5.51864 16.9156 5.34934 16.2007 5.16993L16.2057 5.15224L11.462 3.95957L10.5439 7.6614C10.5439 7.6614 13.0976 8.25016 13.0424 8.28806C14.4347 8.63929 14.688 9.56665 14.6454 10.3045L10.7847 25.9002C10.6141 26.3272 10.1827 26.9665 9.20685 26.7239C9.24197 26.7745 6.70582 26.0948 6.70582 26.0948L5 30.0619L9.47777 31.1864C10.3106 31.3961 11.1259 31.6159 11.9286 31.8231L10.5038 37.5818L13.9405 38.446L15.3503 32.7479C16.2885 33.0057 17.1991 33.2407 18.0922 33.4656L16.6874 39.1358L20.1266 40L21.5515 34.2514C27.419 35.3708 31.8315 34.9185 33.6853 29.5742C35.1804 25.271 33.6126 22.7871 30.5246 21.1674C32.7747 20.6469 34.468 19.156 34.9221 16.0809ZM27.0602 27.1838C25.9966 31.487 18.8046 29.1624 16.4716 28.5786L18.3581 20.9476C20.691 21.5338 28.169 22.6961 27.0602 27.1838ZM28.1239 16.0177C27.1531 19.9318 21.1676 17.9431 19.2235 17.4555L20.9344 10.537C22.8785 11.0246 29.1348 11.9343 28.1239 16.0177Z"/>
</svg>
