<svg viewBox="0 0 40 40"  xmlns="http://www.w3.org/2000/svg">
<path d="M10.3065 10.0645C10.1069 10.141 9.75862 10.3915 9.66943 10.5232C9.63545 10.5784 9.54626 10.7865 9.47406 10.9904C9.4061 11.19 9.24895 11.5595 9.13003 11.8144C8.87944 12.3453 8.78175 12.6808 8.77325 13.0546C8.76901 13.3094 8.7775 13.3307 8.90917 13.4368L9.04508 13.5558L9.05782 14.1461C9.06632 14.711 9.07056 14.745 9.18524 14.9404C9.559 15.5775 9.92002 15.964 10.0389 15.8663C10.0687 15.8408 10.1196 15.7304 10.1494 15.6284C10.1791 15.5223 10.2173 15.4373 10.2343 15.4373C10.3023 15.4373 10.4382 15.6412 10.744 16.1933C11.0753 16.7795 11.1687 16.8984 11.2537 16.8134C11.3259 16.7412 11.4236 16.0574 11.4236 15.6412C11.4236 15.4373 11.4405 15.2632 11.4618 15.2462C11.483 15.2334 11.551 15.3311 11.6104 15.4586L11.7166 15.6922H12.0734C12.3197 15.6922 12.4472 15.7091 12.4769 15.7474C12.5024 15.7771 12.5363 15.913 12.5533 16.0447C12.5788 16.2783 12.5873 16.2868 12.6935 16.2613C12.9951 16.1976 12.9823 16.1976 13.012 16.3335C13.0248 16.4057 13.0375 16.5204 13.0375 16.5841C13.0375 16.7285 13.114 16.7964 13.2287 16.7497C13.3816 16.6903 13.5769 16.7115 13.6916 16.8007C13.7978 16.8814 13.802 16.9069 13.802 17.2721C13.802 17.6417 13.6959 18.4401 13.6364 18.5039C13.6237 18.5208 13.509 18.4104 13.3816 18.2618C13.2584 18.1089 13.1395 17.9857 13.1225 17.9857C13.1055 17.9857 13.0673 18.1301 13.0333 18.3085C13.0036 18.4869 12.9526 18.661 12.9271 18.6992C12.8846 18.7587 12.8591 18.7417 12.7572 18.5846C12.6893 18.4826 12.5661 18.3255 12.4811 18.232C12.2093 17.922 12.1201 18.0367 11.8908 18.9923C11.6062 20.19 11.5595 20.3344 11.2494 20.9163C11.1645 21.0777 11.1475 21.1796 11.1347 21.6044C11.1178 22.2117 11.2069 22.8488 11.3471 23.0867C11.6104 23.5284 13.0333 24.9512 13.2117 24.9512C13.2839 24.9512 13.2924 24.9173 13.2924 24.6752C13.2924 24.4628 13.3051 24.3991 13.3518 24.3991C13.3858 24.3991 13.5939 24.5138 13.8148 24.6497C14.0356 24.7898 14.282 24.93 14.3669 24.9682C14.5071 25.0234 14.5283 25.0234 14.5878 24.964C14.6685 24.8875 14.643 24.7049 14.5241 24.501L14.4519 24.3694L14.8893 24.3906C15.3905 24.4118 15.6581 24.3566 15.8025 24.2037C15.8917 24.106 15.896 24.0636 15.9044 23.435C15.9087 22.6959 15.9427 22.543 16.1508 22.2712C16.3207 22.0503 16.6392 21.8635 16.7157 21.9442C16.979 22.233 16.8898 23.3967 16.4778 25.0362C16.1933 26.1702 15.4925 28.4213 15.1654 29.2537C15.1399 29.3217 15.1187 29.3812 15.1187 29.3896C15.1187 29.4321 15.5137 29.6317 15.8365 29.7464C18.0238 30.5407 20.5892 30.5449 22.6831 29.7592C23.9276 29.292 24.8875 28.6549 25.9535 27.5888C26.701 26.837 26.9559 26.5185 27.61 25.4991C28.022 24.8535 28.4339 24.2717 28.4764 24.2717C28.5189 24.2717 29.0838 24.9725 29.2792 25.2698C29.6402 25.8092 29.9842 26.561 29.9842 26.8031C29.9842 26.9729 30.0734 26.9984 30.5448 26.9687C31.887 26.8838 32.7917 26.6459 33.2758 26.2509C33.6284 25.9578 33.8577 25.342 33.862 24.6539C33.862 24.2674 33.7813 23.6516 33.7218 23.6133C33.7048 23.6048 33.5179 23.7577 33.3098 23.9531L32.9233 24.3099L32.9021 24.1527C32.8851 24.0678 32.8639 23.7917 32.8469 23.5369C32.8299 23.2863 32.8044 23.0824 32.7917 23.0824C32.7747 23.0824 32.7407 23.1037 32.7152 23.1292C32.6855 23.1589 32.6388 23.1674 32.6048 23.1546C32.5198 23.1207 32.3542 22.5643 32.3712 22.3519C32.3839 22.1778 32.3882 22.1693 32.5113 22.182C32.5835 22.1863 32.9785 22.2032 33.3948 22.216C34.0404 22.2415 34.1933 22.233 34.4269 22.1693C34.6987 22.0971 34.9238 22.1056 35.0894 22.1947C35.2084 22.2585 35.1786 22.3392 35.0087 22.4538C34.8006 22.594 34.4438 22.9083 34.4438 22.955C34.4438 23.0824 35.4929 23.1249 35.9601 23.0145C36.5632 22.8743 36.8903 22.6874 37.5656 22.0886C38.2707 21.4642 38.7251 20.9248 38.9077 20.5043C39.0097 20.2622 39.2051 20.0541 39.5873 19.7653C39.7657 19.6336 39.9016 19.4977 39.9483 19.3958C40.0163 19.2471 40.0163 19.2216 39.9526 18.9838C39.7954 18.3722 39.5151 17.9899 39.0437 17.7436C38.7463 17.5822 38.3726 17.4803 37.4807 17.3061C36.4316 17.1023 36.215 16.9663 36.4401 16.6648C36.491 16.5926 36.5208 16.5076 36.508 16.4779C36.4953 16.4439 36.3466 16.3802 36.1767 16.3292C35.5396 16.1466 34.8346 15.8918 34.4481 15.7006C34.1211 15.535 33.9639 15.4203 33.5689 15.0508C33.2971 14.7917 32.9998 14.5581 32.8851 14.5029C32.7747 14.4519 32.4731 14.3628 32.214 14.3075C31.5387 14.1589 31.2499 14.0824 31.1437 14.0102C31.0503 13.9508 30.7657 13.5813 30.4344 13.0886C30.1329 12.6426 29.8143 12.443 28.9861 12.1881C28.2895 11.9758 27.8351 11.7974 27.593 11.6487C27.4825 11.5765 27.3806 11.5298 27.3636 11.5426C27.3509 11.5553 27.3127 11.7379 27.2787 11.9418C27.2447 12.1457 27.2065 12.3241 27.198 12.3326C27.1513 12.3835 26.3655 11.8951 25.979 11.5765C25.6987 11.3472 25.5118 11.1645 25.2187 10.8163C25.0913 10.6634 25.0106 10.6464 24.9044 10.7526C24.8407 10.8205 24.8365 10.9012 24.8577 11.5468L24.8832 12.2688L24.7813 12.0437C24.6751 11.8229 24.5901 11.7889 24.5901 11.9715C24.5901 12.2306 24.0635 12.736 23.4349 13.0801C23.0824 13.2712 22.9082 13.3222 22.8573 13.2585C22.836 13.2287 22.7935 13.0843 22.7638 12.9314C22.526 11.7082 22.1522 10.6506 21.9696 10.6889C21.9313 10.6973 21.8591 10.8375 21.7912 11.0414C21.5703 11.6955 21.0734 12.5492 20.912 12.5492C20.7973 12.5492 20.5807 12.4132 20.2961 12.1627C19.6081 11.5553 17.9092 10.7228 17.357 10.7228C17.1277 10.7228 16.7624 10.846 16.5161 11.0031C16.3419 11.1178 16.2994 11.1263 15.862 11.1306C15.3396 11.1348 14.9361 11.224 14.4052 11.4534L14.0951 11.585L13.7341 11.4236C13.5345 11.3344 13.2626 11.1943 13.131 11.1136C12.7912 10.9097 12.5618 10.7993 11.9884 10.5529C11.7124 10.434 11.3514 10.2599 11.1815 10.1664C10.8417 9.9838 10.6081 9.95407 10.3065 10.0645ZM11.9332 11.5298C12.0819 11.6997 12.0861 11.6997 12.5066 11.7464C13.938 11.8908 14.0951 11.9673 14.7449 12.7828C14.9488 13.0418 15.2036 13.3307 15.3098 13.4283C15.5264 13.628 15.9724 13.8828 16.5161 14.1249C17.0512 14.3628 17.0597 14.2863 16.5543 13.8021C16.0701 13.3392 16.0658 13.3434 16.8049 13.4029C17.6543 13.4708 17.8072 13.5345 18.4231 14.0952C18.7161 14.3628 18.8138 14.4222 18.8138 14.3373C18.8138 14.316 18.7246 14.1037 18.6185 13.8658C18.5123 13.628 18.4316 13.4283 18.4401 13.4156C18.4656 13.3944 19.4764 14.5369 19.6208 14.7493C19.6803 14.8342 19.8842 15.0933 20.0753 15.3269C20.7761 16.1678 21.2518 17.0173 21.3027 17.5185C21.3537 18.0197 21.0989 18.6695 20.7081 19.0433L20.5552 19.1919V18.9965C20.5552 18.5039 20.2876 17.6969 19.9564 17.1787C19.6421 16.6945 18.9752 15.9427 18.9115 16.0022C18.903 16.0149 18.9413 16.1211 19.0007 16.2401C19.3915 17.0046 19.4679 18.1896 19.2131 19.4213C19.1791 19.5784 19.0432 19.6846 18.8648 19.6846C18.627 19.6846 18.559 19.6124 18.5208 19.3321C18.4868 19.0857 18.3849 18.9201 18.2659 18.9201C18.147 18.9201 17.9389 19.0772 17.8922 19.2004C17.8667 19.2684 17.8115 19.4255 17.7733 19.5529C17.6246 20.0329 17.4717 20.1688 16.7879 20.4236C16.2782 20.6148 16.1126 20.7719 15.743 21.426C15.6836 21.5322 15.5307 21.736 15.4033 21.8847C15.1187 22.216 15.055 22.4071 15.089 22.8786C15.1357 23.5836 15.0083 23.5964 14.2353 22.9678C14.1121 22.8658 13.9889 22.7936 13.9634 22.8106C13.9082 22.8446 13.938 23.0102 14.0569 23.2778C14.1758 23.5454 14.1503 23.6346 13.9592 23.6346C13.7978 23.6346 13.6152 23.5157 13.1352 23.0952C12.9653 22.9465 12.7912 22.8276 12.7487 22.8276C12.702 22.8276 12.6086 22.9125 12.5321 23.0187C12.3792 23.2311 12.2178 23.299 12.1159 23.1971C12.0224 23.1079 11.9545 22.4283 11.9927 22.0164L12.0224 21.6936L12.6468 21.6681C13.5854 21.6299 14.1546 21.4345 14.8681 20.9163C15.3523 20.5638 15.9512 19.8333 16.0616 19.4552C16.1211 19.2641 16.1338 18.7205 16.0871 18.5039C16.0701 18.4317 16.0701 18.3679 16.0871 18.3679C16.1253 18.3679 16.3504 18.6822 16.4311 18.8479C16.6052 19.2004 16.7114 18.6907 16.584 18.1131C16.3674 17.1617 15.896 15.6922 15.6071 15.0636C15.5477 14.9404 15.501 14.83 15.501 14.8172C15.501 14.8002 15.416 14.6601 15.3098 14.5029C15.0932 14.1801 14.7237 13.8191 14.4774 13.6959C14.2735 13.5897 14.2353 13.5897 14.1163 13.7002C14.0611 13.7511 13.9889 13.7809 13.9549 13.7681C13.921 13.7554 13.7935 13.6067 13.6746 13.4411C13.3476 12.9951 13.3391 12.9951 12.5788 13.4836C12.29 13.6704 12.1838 13.7129 11.9969 13.7299C11.6954 13.7554 11.6657 13.6874 11.8483 13.4199C12.0649 13.1098 12.0267 13.0843 11.4023 13.114C11.1135 13.1268 10.8162 13.1225 10.7482 13.1013C10.5868 13.0546 10.2471 12.7743 10.1664 12.6256C10.0857 12.4727 10.0517 12.0692 10.0942 11.8271L10.1324 11.636L10.3405 11.6402C10.4594 11.6445 10.727 11.6615 10.9436 11.6785L11.3301 11.7124L11.5043 11.5341C11.5977 11.4406 11.6996 11.3599 11.7294 11.3599C11.7591 11.3599 11.8483 11.4364 11.9332 11.5298ZM27.1598 13.7809C27.593 14.2821 27.8053 14.418 28.71 14.779C28.9776 14.8894 29.2367 14.9914 29.2834 15.0126C29.5425 15.1273 30.1541 15.3609 30.3027 15.3991C30.3962 15.4246 30.8846 15.4586 31.3858 15.4755C32.4434 15.5095 32.4476 15.5095 33.2886 15.9895C33.5774 16.1509 33.9129 16.3165 34.0319 16.3547C34.6265 16.5459 34.7327 16.6308 34.7709 16.9578L34.7964 17.1787H34.5245C34.3759 17.1787 34.1805 17.1575 34.0956 17.1362C34.0106 17.1107 33.5519 16.8304 33.0805 16.5119L32.2183 15.9342L31.8997 15.9003C31.3731 15.8451 30.8337 15.8535 30.8337 15.9173C30.8337 15.947 30.9483 16.0956 31.0885 16.2528C31.2329 16.4099 31.3943 16.652 31.4623 16.8007C31.5302 16.9493 31.6491 17.2084 31.7256 17.3783C31.8997 17.7606 32.0229 17.8795 32.3882 18.0069C32.694 18.1131 33.3948 18.2405 33.6666 18.2405C33.862 18.2405 34.3589 18.1428 34.7624 18.0197C35.0385 17.939 35.0937 17.9347 35.5481 17.9857C36.198 18.0536 36.6949 18.1471 36.8138 18.2278C36.9285 18.3 37.1324 18.7077 37.2258 19.0518C37.2598 19.1792 37.298 19.434 37.315 19.6209C37.3447 20.0584 37.2768 20.2028 36.954 20.3939C36.4825 20.6742 35.5906 20.946 35.3867 20.8696C35.323 20.8484 34.9663 20.5128 34.5925 20.1306C33.9809 19.5105 33.879 19.4213 33.5944 19.2854C33.2631 19.1325 32.8511 19.0135 32.8044 19.0603C32.7874 19.073 32.8086 19.1622 32.8469 19.2599C32.9615 19.5444 32.9615 19.5402 32.4816 19.5742C31.4368 19.6464 30.4641 19.9862 29.8993 20.4831C29.6062 20.7379 29.568 20.8186 29.7081 20.8823C29.8101 20.9291 29.8143 20.946 29.8143 21.2986C29.8143 21.7955 29.912 22.2287 30.29 23.4434C30.5321 24.2207 30.719 24.6412 30.9059 24.8366C30.9951 24.9258 31.2584 25.1636 31.492 25.3675C31.7256 25.5671 31.9422 25.754 31.9762 25.7837C32.0229 25.8262 31.9889 25.8559 31.785 25.9493C31.3518 26.149 31.0205 26.2721 30.8974 26.2806C30.7615 26.2891 30.7827 26.3274 30.4089 25.3208C30.1498 24.6242 29.9545 24.2802 29.5 23.7238C29.1305 23.2778 28.3108 22.4453 27.7204 21.9102L27.3466 21.5746L27.2829 20.7931C27.2277 20.0626 27.2065 19.9394 27.164 19.9862C27.1343 20.0159 26.7605 21.5661 26.7053 21.8804C26.6458 22.2457 26.6713 22.3179 27.0069 22.7342C27.198 22.972 27.2235 23.0272 27.2235 23.2014C27.2235 23.5964 26.9984 24.208 26.4759 25.2485C25.7666 26.6629 25.635 26.8158 25.3886 26.5185C25.3249 26.442 25.24 26.2976 25.2018 26.2042L25.138 26.0258L25.3547 25.5628C25.7497 24.7389 26.064 23.9998 26.1149 23.796C26.1744 23.5496 26.1744 22.989 26.1149 22.594C26.0937 22.4283 26.0682 22.0758 26.0682 21.8082C26.0597 21.3708 26.0724 21.2858 26.1786 21.0055C26.459 20.258 27.2107 19.1155 27.5972 18.8564L27.7544 18.7502L28.0517 19.0475C28.2173 19.2132 28.3745 19.3448 28.4042 19.3448C28.4339 19.3448 28.4552 19.2811 28.4552 19.1834C28.4637 18.4656 29.1475 17.1532 29.9417 16.3505C30.0819 16.2061 30.1966 16.0659 30.1966 16.0404C30.1966 15.964 29.8865 15.8238 29.5255 15.7346C29.1985 15.6539 28.9733 15.6115 28.2725 15.5053C28.0644 15.4713 27.886 15.4331 27.8733 15.4203C27.8606 15.4076 27.9285 15.3056 28.022 15.191C28.1536 15.0338 28.1833 14.9701 28.1494 14.9361C28.1196 14.9064 28.0814 14.8852 28.0644 14.8852C27.9837 14.8852 27.6057 14.6898 27.3679 14.5199C26.8327 14.1461 26.2891 13.3774 26.1871 12.8465C26.1574 12.6978 26.1616 12.7021 26.4674 13.0164C26.6373 13.1905 26.9516 13.5345 27.1598 13.7809ZM29.156 13.4114C29.6444 13.8021 30.0394 14.2396 30.1286 14.4774C30.1541 14.5496 30.1413 14.5539 30.0012 14.5326C29.7633 14.4944 29.4193 14.3118 29.1815 14.0952C28.9521 13.8871 28.7822 13.577 28.7312 13.2754L28.7015 13.0843L28.8204 13.165C28.8884 13.2075 29.0413 13.3179 29.156 13.4114ZM24.3778 13.4199C24.3778 13.9762 24.1951 14.8342 23.9913 15.2334C23.8851 15.4458 23.6727 15.6794 23.5241 15.7601C23.3669 15.8408 23.3669 15.8111 23.5538 15.3609C23.7449 14.8979 23.9531 14.2778 23.9531 14.1631C23.9531 14.0654 23.8808 14.0527 23.7874 14.1376C23.6855 14.2268 23.2268 14.4519 22.9889 14.5284C22.7596 14.6006 21.7445 14.6643 21.7445 14.6048C21.7445 14.5539 21.7742 14.5369 22.7426 14.0357C23.2098 13.7936 23.7534 13.4963 23.9531 13.3731C24.1527 13.2542 24.3268 13.1523 24.3481 13.148C24.365 13.1438 24.3778 13.267 24.3778 13.4199ZM25.1635 13.5897C25.2315 13.989 25.5543 14.8554 25.8601 15.4755C25.9578 15.6709 26.0342 15.8493 26.0342 15.879C26.0342 15.9045 25.9918 15.947 25.9408 15.9682C25.8558 16.0065 25.8049 15.981 25.5458 15.7559C25.3844 15.6157 25.1848 15.4501 25.1041 15.3863L24.9597 15.2759L25.0064 14.9786C25.0361 14.813 25.0573 14.367 25.0573 13.9847C25.0616 13.3264 25.0913 13.199 25.1635 13.5897ZM10.298 14.0697C10.4637 14.1546 10.5911 14.1844 10.8842 14.1971C11.3216 14.2183 11.3089 14.1929 11.1475 14.83C11.088 15.0593 11.0413 15.3226 11.0413 15.4203C11.0413 15.5138 11.0158 15.6284 10.9818 15.6709C10.8417 15.862 10.6123 15.5223 10.366 14.762C10.1834 14.2056 10.1027 14.1249 10.0262 14.4052C10.0007 14.4944 9.97948 14.694 9.97948 14.8512C9.97948 15.0083 9.95825 15.1485 9.93276 15.1612C9.87755 15.1995 9.73739 15.072 9.64395 14.9064C9.559 14.7493 9.55051 13.8743 9.63545 13.6789L9.68642 13.5515L9.88604 13.7554C9.99647 13.8701 10.1834 14.0102 10.298 14.0697ZM23.282 17.9432C23.8086 18.7629 23.8808 18.9201 24.1229 19.6846C24.2206 19.9989 24.3268 20.3429 24.365 20.4491C24.8662 21.9739 24.8875 23.9701 24.4118 25.3547C24.3311 25.5968 24.0805 26.0853 24.004 26.1532C23.9191 26.2297 23.9276 26.2679 23.7789 25.0787C23.7067 24.5095 23.6812 24.3863 23.6218 24.3651C23.5963 24.3566 23.5708 24.3821 23.5708 24.4203C23.5708 24.5223 23.3372 24.9725 23.1631 25.2103C22.9847 25.4567 22.5132 25.8941 22.4623 25.8602C22.3943 25.8177 22.3348 25.4906 22.3433 25.2146C22.3476 24.9895 22.3391 24.9342 22.2924 24.9427C22.2584 24.9512 22.2159 24.9852 22.1947 25.0234C22.1777 25.0574 22.1055 25.1466 22.0418 25.2188C21.9313 25.3462 21.9186 25.3505 21.7572 25.2995C21.5151 25.2273 21.3834 25.2358 21.1923 25.3335C21.0989 25.3802 21.0139 25.4184 21.0012 25.4184C20.9884 25.4184 20.98 25.2783 20.98 25.1041V24.7856L20.8016 24.7729C20.6657 24.7644 20.6147 24.7389 20.6062 24.6794C20.5722 24.518 21.2178 24.0211 22.424 23.2778C23.214 22.7894 23.4264 22.5473 23.4731 22.0886C23.5028 21.804 23.3797 20.0796 23.2692 19.1749C23.2055 18.6695 23.0441 18.0197 22.87 17.5779C22.6152 16.9281 22.6619 16.9706 23.282 17.9432ZM37.7652 18.4699C37.8672 18.5208 38.0838 18.6398 38.2452 18.729C38.4108 18.8182 38.6232 18.9456 38.7251 19.0135C38.9077 19.1367 38.9077 19.1409 38.8313 19.2259C38.7379 19.3321 38.3683 19.5784 38.2367 19.6166C38.173 19.6379 38.1178 19.6209 38.054 19.5572C37.9436 19.4468 37.9691 19.4085 38.2154 19.2896C38.5085 19.1494 38.5043 19.0687 38.2069 19.107L37.9691 19.1325L37.8289 18.9116C37.4467 18.3042 37.4467 18.2915 37.7652 18.4699ZM12.4514 19.1197C12.4939 19.417 12.9229 20.3981 13.029 20.4406C13.1097 20.4703 13.3731 20.3259 13.4495 20.207C13.5047 20.1221 13.509 20.0584 13.4623 19.7653C13.4368 19.5742 13.4028 19.3915 13.3901 19.3533C13.3688 19.2896 13.3731 19.2854 13.4368 19.3491C13.475 19.383 13.5727 19.5614 13.6491 19.7441C13.8445 20.1943 13.87 20.2155 14.2183 20.2155C14.4604 20.2155 14.5496 20.1943 14.8341 20.0541C15.0168 19.9649 15.1782 19.9012 15.1909 19.914C15.2886 20.0116 14.4306 20.636 13.7808 20.946C13.4623 21.0989 13.4113 21.1074 12.9696 21.1202C12.2051 21.1457 12.1201 21.0522 12.1286 20.1943C12.1329 19.3533 12.375 18.5548 12.4514 19.1197ZM33.5732 20.3812C34.0489 20.5171 34.3929 20.7422 34.8686 21.2349C35.2763 21.6553 35.6119 21.804 36.3339 21.8932C36.542 21.9187 36.7204 21.9484 36.7289 21.9569C36.7586 21.9866 36.6397 22.1735 36.491 22.3307C36.4018 22.4199 36.2405 22.526 36.113 22.5728C35.8922 22.6535 35.4632 22.6917 35.4632 22.6237C35.4632 22.6067 35.5481 22.5473 35.6501 22.4921C35.7563 22.4368 35.8709 22.3604 35.9092 22.3179C35.9729 22.25 35.9644 22.2415 35.803 22.216C35.5821 22.182 35.2169 21.9951 34.9153 21.77C34.6987 21.6086 34.6775 21.6001 34.5968 21.6596C34.3716 21.8252 34.0446 21.9484 33.8025 21.9527C33.6708 21.9569 33.5434 21.9442 33.5264 21.9229C33.5094 21.9059 33.5816 21.7998 33.6878 21.6893C33.9597 21.4132 34.2018 21.0182 34.1678 20.9121C34.138 20.8229 33.9257 20.6997 33.6581 20.619C33.5647 20.5935 33.2206 20.5553 32.8936 20.5341C32.0441 20.4873 31.5175 20.3642 31.9082 20.309C32.1758 20.2665 33.3608 20.3217 33.5732 20.3812ZM38.1517 20.6275C38.0668 21.0947 37.8247 21.3835 37.5231 21.3835C37.2938 21.3835 37.2556 21.3071 37.3745 21.0692C37.5146 20.7719 37.8629 20.4916 38.0838 20.4916C38.1687 20.4916 38.1772 20.5086 38.1517 20.6275ZM31.3348 21.9102C31.3985 21.9442 31.4962 22.0206 31.5557 22.0843C31.6534 22.1905 31.6619 22.2287 31.6619 22.628C31.6619 23.0994 31.7553 23.418 31.9719 23.7068L32.0739 23.8469H31.9762C31.8403 23.8427 31.5514 23.711 31.4623 23.6091C31.3094 23.435 31.2541 23.2226 31.2839 22.8998C31.3051 22.6619 31.2881 22.5175 31.2202 22.2457C31.1692 22.0546 31.131 21.8889 31.131 21.8762C31.131 21.8337 31.2159 21.8465 31.3348 21.9102ZM31.2881 23.8937C31.6067 24.1782 31.8275 24.3141 31.9549 24.3141C32.0696 24.3141 32.2735 24.106 32.4052 23.8469C32.4986 23.6643 32.5283 23.6473 32.609 23.728C32.6855 23.8045 32.6685 24.089 32.575 24.3991C32.5283 24.552 32.4901 24.6794 32.4901 24.6837C32.4901 24.7134 32.8766 24.9512 32.9233 24.9512C32.9531 24.947 33.0295 24.8705 33.0932 24.7813C33.2504 24.552 33.382 24.5477 33.382 24.7686C33.382 24.9895 33.2758 25.3675 33.1867 25.4652C33.0932 25.5713 32.9913 25.5671 32.7025 25.4482C32.1546 25.2231 31.4113 24.6115 31.1607 24.1825C31.0588 24.0083 30.9653 23.6771 31.0163 23.6771C31.029 23.6771 31.1522 23.7747 31.2881 23.8937Z"/>
<path d="M8.15331 15.3311C7.12546 15.552 7.01928 15.603 6.43316 16.1594C6.08063 16.4949 5.90649 16.6223 5.61343 16.771C5.16322 16.9961 4.57285 17.2212 4.0207 17.3741C3.79559 17.4335 3.57898 17.51 3.53651 17.5397C3.46855 17.5907 3.46855 17.6034 3.54076 17.7393C3.73188 18.0961 3.54925 18.2108 2.44071 18.4317C1.48932 18.6185 1.06034 18.7544 0.76303 18.9541C0.342549 19.2386 0.0494861 19.7398 0.00701324 20.2495C-0.00997591 20.4916 -0.00997591 20.4958 0.172657 20.6742C0.274592 20.7719 0.482709 20.946 0.635612 21.065C0.869212 21.2434 0.937169 21.3283 1.08158 21.6214C1.28969 22.0376 1.62523 22.4581 2.11791 22.921C2.94189 23.694 3.33689 23.9404 3.99946 24.1103C4.29252 24.1825 4.42844 24.1952 4.86166 24.174C5.37983 24.1485 5.56246 24.1188 5.56246 24.0551C5.56246 24.0381 5.43504 23.9191 5.28214 23.796C5.12924 23.6728 4.95085 23.5326 4.89139 23.4817L4.78096 23.3925L4.89564 23.3203C5.06128 23.2099 5.30338 23.1929 5.53698 23.2693C5.78332 23.3543 6.75595 23.367 7.25288 23.2948C7.42702 23.2736 7.58417 23.2608 7.60541 23.2778C7.6946 23.3288 7.61815 23.7832 7.45675 24.1612C7.3888 24.3184 7.38455 24.3226 7.3081 24.2547C7.26138 24.2122 7.21466 24.1995 7.20192 24.2207C7.18917 24.2462 7.15944 24.5138 7.13821 24.8238C7.11697 25.1339 7.09149 25.3887 7.08299 25.3972C7.0745 25.4057 6.89611 25.2528 6.68799 25.0574C6.47563 24.862 6.293 24.7006 6.27601 24.6964C6.26327 24.6964 6.21655 24.879 6.17832 25.1041C6.01268 26.0131 6.22929 26.922 6.70498 27.3297C7.17218 27.729 7.96643 27.9498 9.30007 28.0518C9.86496 28.0942 9.92018 28.09 9.9669 28.022C9.99663 27.9838 10.0221 27.9201 10.0221 27.8776C10.0221 27.7544 10.26 27.1343 10.4171 26.854C10.7102 26.3274 11.5087 25.291 11.6191 25.291C11.687 25.291 11.8782 25.5501 11.9844 25.788C12.099 26.0513 12.0736 26.4123 11.9122 26.7563L11.7932 27.0069L12.1925 27.3849C12.4133 27.5888 12.7871 27.9116 13.0249 28.0985C13.5134 28.4807 14.3841 29.0711 14.4648 29.0711C14.4945 29.0711 14.5582 28.9607 14.6092 28.8248C14.9575 27.8989 15.8154 25.0956 15.7729 25.0277C15.7559 24.998 15.6455 25.0065 15.3864 25.0617C15.3312 25.0702 15.2633 25.1466 15.208 25.257C15.1613 25.359 15.0509 25.4864 14.9617 25.5459C14.83 25.6351 14.7578 25.652 14.4775 25.652C14.2949 25.6478 14.1547 25.6605 14.159 25.6733C14.1675 25.686 14.2057 25.771 14.2482 25.8644C14.2906 25.9578 14.4393 26.2721 14.5752 26.561C14.7111 26.8498 14.8215 27.1131 14.8215 27.1428C14.8215 27.3297 14.486 27.8182 14.3798 27.7842C14.3119 27.7629 14.057 27.4147 13.9126 27.1513C13.8447 27.0282 13.6493 26.6459 13.4752 26.2976C13.1948 25.7455 13.1439 25.6648 13.0122 25.6096C12.7744 25.5119 12.3751 25.1848 11.7847 24.603C11.4832 24.3057 11.2198 24.0593 11.2029 24.0593C11.1689 24.0593 10.5488 24.7346 10.3237 25.0234C9.94991 25.4991 9.71631 25.9706 9.37653 26.9432C9.30007 27.1641 9.20663 27.3637 9.16416 27.3849C9.11319 27.4189 8.96879 27.3764 8.53981 27.1981C8.23401 27.0706 7.98342 26.9475 7.98766 26.9262C7.98766 26.9007 8.09385 26.7988 8.22976 26.6926C8.36142 26.5864 8.629 26.3613 8.82013 26.1872C9.23637 25.8177 9.32981 25.652 9.64835 24.6837C10.0094 23.5794 10.1156 23.1207 10.1368 22.543C10.158 22.0418 10.1623 22.0249 10.26 22.0036C10.4214 21.9612 10.3831 21.8762 10.0901 21.6086C9.72056 21.2731 9.20239 21.014 8.57379 20.8526C8.1703 20.7464 7.6139 20.6615 7.31659 20.6615C7.15944 20.6615 7.04901 20.6445 7.04901 20.619C7.04901 20.5935 7.07874 20.5043 7.11272 20.4194C7.24014 20.1136 7.16794 20.0838 6.70498 20.2537C6.18257 20.4449 5.83004 20.7167 5.26091 21.3665C4.81069 21.8847 4.67478 21.9909 4.46666 21.9909C4.25855 21.9909 3.61721 21.7955 3.24769 21.6171C2.71678 21.3623 2.6021 21.1499 2.67856 20.5765C2.72528 20.241 2.89092 19.7101 3.02259 19.4892C3.13302 19.3023 3.34963 19.2259 4.0122 19.1367C4.73 19.0433 4.89139 19.0433 5.22268 19.1325C5.90649 19.3193 6.27176 19.3618 6.70923 19.3066C7.20616 19.2386 7.49923 19.1664 7.79229 19.0305C8.05137 18.9116 8.12358 18.8139 8.42938 18.1046C8.58653 17.7436 8.68847 17.5822 8.90083 17.3444C9.04948 17.1787 9.17266 17.0258 9.17266 17.0046C9.17266 16.9536 8.3232 16.9578 8.00465 17.0088C7.77955 17.047 7.65638 17.115 6.90036 17.6162C6.43316 17.9305 5.98719 18.2065 5.90649 18.2363C5.8258 18.2618 5.63891 18.283 5.49026 18.283C5.17596 18.283 5.14198 18.2448 5.21843 17.9772C5.29488 17.7351 5.43929 17.6204 5.83429 17.4973C6.02117 17.442 6.35246 17.2891 6.56058 17.166C6.90885 16.9621 7.19767 16.8134 7.53745 16.6648C7.6224 16.6266 7.96643 16.6011 8.60777 16.5883C9.12594 16.5756 9.55916 16.5501 9.57615 16.5331C9.59314 16.5161 9.49545 16.3972 9.35954 16.2698C9.21938 16.1424 8.99427 15.8663 8.85411 15.6539C8.57379 15.2292 8.59503 15.2377 8.15331 15.3311ZM2.46194 19.4935C2.46194 19.5062 2.36001 19.6761 2.24109 19.88C2.02023 20.241 2.01598 20.2452 1.86732 20.224C1.78663 20.2113 1.68469 20.19 1.64647 20.173C1.587 20.1518 1.57001 20.1645 1.57001 20.224C1.57001 20.2835 1.63372 20.3344 1.78238 20.4024C2.01598 20.5086 2.04146 20.5638 1.9098 20.6827C1.82485 20.7592 1.81636 20.7592 1.64222 20.6742C1.39588 20.5511 1.10281 20.3302 1.10281 20.2665C1.10281 20.207 1.33641 20.0541 1.94802 19.7186C2.377 19.485 2.46194 19.4468 2.46194 19.4935ZM8.06836 21.4217L8.25949 21.4515L8.11084 21.5024C7.86874 21.5831 7.43552 21.6384 7.04477 21.6384C6.43316 21.6384 5.85977 21.8337 5.8258 22.0546C5.80881 22.165 6.04665 22.543 6.30149 22.8106C6.44165 22.955 6.48412 23.023 6.4459 23.0485C6.293 23.1419 5.76209 23.023 5.49026 22.8276L5.30763 22.7002L5.05279 22.8913C4.75548 23.1079 4.41994 23.2736 4.19484 23.316C4.10564 23.333 4.03344 23.3628 4.03344 23.3797C4.03344 23.418 4.41145 23.6771 4.46666 23.6771C4.48365 23.6771 4.50064 23.694 4.50064 23.7195C4.50064 23.7832 4.16086 23.7705 3.91452 23.6983C3.67242 23.6261 3.42608 23.435 3.32839 23.2438C3.22646 23.0442 3.27318 22.9975 3.57049 22.9975C3.71065 22.9975 3.94425 22.9678 4.08441 22.9338C4.5686 22.8064 4.77672 22.6832 5.16747 22.2924C5.74085 21.7191 6.11886 21.5067 6.71772 21.4302C7.05326 21.3835 7.81777 21.3793 8.06836 21.4217ZM2.10093 21.6596C2.37275 21.7913 2.63608 22.1141 2.64883 22.3307C2.65307 22.4581 2.64458 22.4666 2.48743 22.4793C2.26657 22.4963 2.13915 22.4241 2.00748 22.2032C1.85034 21.9314 1.76114 21.5534 1.85458 21.5534C1.86308 21.5534 1.97351 21.6001 2.10093 21.6596ZM8.81164 23.1334C8.79465 23.2353 8.76492 23.35 8.74368 23.3882C8.72244 23.4265 8.70545 23.6728 8.70545 23.9319C8.70545 24.4331 8.67148 24.5562 8.4846 24.7219C8.35718 24.8408 8.13632 24.9512 8.02589 24.9512C7.9367 24.9512 7.91121 24.8918 7.98342 24.8451C8.0089 24.8281 8.06411 24.7431 8.11084 24.6539C8.27648 24.3269 8.32745 24.1145 8.31895 23.7238C8.3147 23.3033 8.34868 23.2141 8.58653 23.0527C8.80314 22.9083 8.84561 22.9253 8.81164 23.1334ZM7.55019 24.913C7.88998 25.5289 8.05137 25.5501 8.62051 25.0617C8.77341 24.93 8.90932 24.8238 8.93056 24.8238C8.99002 24.8238 8.96029 25.0107 8.86685 25.1976C8.75217 25.4439 8.29347 25.9239 7.95793 26.166C7.65213 26.3868 7.09998 26.6502 6.95133 26.6502C6.75595 26.6502 6.62428 26.3783 6.62428 25.9663C6.62428 25.7752 6.64127 25.7158 6.68375 25.7158C6.7602 25.7158 6.86213 25.8177 6.94708 25.9748L7.01079 26.1023L7.18917 25.9918C7.28686 25.9324 7.39304 25.8644 7.42702 25.8474C7.48224 25.8134 7.47799 25.7582 7.39729 25.4694C7.29111 25.0872 7.28686 25.0404 7.34632 24.8918C7.40154 24.7474 7.461 24.7516 7.55019 24.913Z"/>
<path d="M10.0308 16.9663C9.76318 17.0852 9.76318 17.1447 10.0308 17.425C10.3323 17.7393 10.7316 18.283 10.9609 18.6865C11.0629 18.8606 11.1563 19.005 11.1733 19.005C11.186 19.005 11.2327 18.8776 11.271 18.7162C11.4239 18.1258 11.5216 17.888 11.6702 17.7223C11.8656 17.5057 11.9505 17.4633 12.2309 17.4335L12.4645 17.4123L12.4772 17.2254L12.4899 17.0385L12.2563 17.0683C12.0652 17.0895 12.0142 17.081 11.9845 17.0258C11.9548 16.9706 11.9378 16.9833 11.8911 17.0895C11.8104 17.2891 11.5301 17.51 11.3177 17.5397C11.0161 17.5864 10.6636 17.3783 10.4427 17.0173C10.3408 16.8601 10.2814 16.8516 10.0308 16.9663Z"/>
</svg>
