<svg viewBox="0 0 40 40"  xmlns="http://www.w3.org/2000/svg">
<path d="M37.6942 30.1845L37.8939 29.7851C38.6289 28.0213 37.9416 25.9651 36.2891 24.9953C35.6981 24.6479 35.0259 24.4642 34.3453 24.4642C32.9859 24.4642 31.713 25.1918 31.0239 26.3641L30.916 26.5333L28.8007 30.2C28.7164 30.3786 28.6167 30.551 28.5048 30.7132L28.4969 30.7269L28.482 30.7535L28.4643 30.7782C28.4052 30.8616 28.3424 30.9425 28.2764 31.02H35.4337C36.4664 31.0198 37.2663 30.7237 37.6942 30.1845Z"/>
<path d="M20.3837 39.9988L20.5014 40L20.6366 39.9988C22.1092 39.9783 23.4799 39.6433 24.4968 39.0553L35.0063 32.9887C35.3458 32.7928 35.6808 32.5472 36.0059 32.2598C35.8205 32.2771 35.63 32.2858 35.4335 32.2858H27.2303H15.4125C15.2179 32.2826 15.0255 32.2641 14.8369 32.2307L18.4229 38.4405C18.9711 39.3904 19.6665 39.9423 20.3837 39.9988Z"/>
<path d="M7.05985 21.2384L3.49149 27.4206C2.94484 28.3676 2.81392 29.2449 3.12258 29.8929C3.16473 29.9682 3.20837 30.0432 3.25286 30.1179C4.00494 31.3808 4.97947 32.4003 5.99805 32.9889L16.5056 39.0548C16.8462 39.252 17.2262 39.4201 17.6364 39.5581C17.5289 39.4061 17.4256 39.2447 17.3273 39.074L13.225 31.9694L12.4962 30.7071C12.3919 30.5564 12.2963 30.3912 12.2111 30.2149L7.53903 22.1201C7.36575 21.8857 7.22227 21.6341 7.11243 21.3733C7.09434 21.3288 7.07667 21.2837 7.05985 21.2384Z"/>
<path d="M6.49542 19.6818L7.12807 18.5877C7.23408 18.3422 7.37159 18.1043 7.53784 17.8786L12.2238 9.76098L12.4824 9.31459L12.5029 9.27861L12.518 9.252L12.5356 9.22731C12.5965 9.14067 12.6608 9.05723 12.7281 8.97697H8.79144H5.56943C4.47825 8.97697 3.65358 9.3016 3.24508 9.8919C3.19783 9.97108 3.15334 10.0488 3.10821 10.128C2.39424 11.4075 2 12.7603 2 13.9324V26.0665C2 26.4597 2.04428 26.8726 2.13006 27.296C2.20755 27.1272 2.29568 26.9571 2.3936 26.7873L6.49542 19.6818Z"/>
<path d="M13.7733 7.71084H25.6677C25.8371 7.71829 26.0034 7.73617 26.166 7.76533L22.5813 1.55609C22.0308 0.602214 21.3308 0.0502389 20.6109 0.000639887C20.6084 0.000639887 20.6054 0.000639887 20.6013 0.000639887C20.5796 0.000639887 20.5411 0 20.5021 0C20.4566 0 20.4112 0.000639185 20.3661 0.00191641C18.8903 0.0223521 17.5219 0.356774 16.5059 0.943447L5.99794 7.01049C5.6582 7.20718 5.32378 7.45135 5 7.73638C5.18456 7.71956 5.37466 7.71105 5.5705 7.71105H13.7733V7.71084Z"/>
<path d="M27.7781 8.02742L31.0312 13.7136C31.7188 14.8844 32.9986 15.6165 34.3654 15.6165C35.0492 15.6165 35.725 15.4317 36.3185 15.083C38.1565 14.0025 38.7734 11.6286 37.6939 9.79128L37.5357 9.53476C36.8241 8.44124 35.9228 7.54037 35.0053 7.01054L24.4971 0.943279C24.1574 0.746799 23.7781 0.579271 23.3691 0.44133C23.476 0.592894 23.5786 0.753612 23.6765 0.923058L27.7781 8.02742Z"/>
</svg>
