<svg  viewBox="0 0 40 40" xmlns="http://www.w3.org/2000/svg">
<path fill-rule="evenodd" clip-rule="evenodd" d="M20 40C31.0457 40 40 31.0457 40 20C40 16.2308 38.9573 12.7051 37.1447 9.69566C37.0224 10.0164 36.8446 10.3098 36.623 10.564C38.2066 13.3478 39.1111 16.5683 39.1111 20C39.1111 30.5548 30.5548 39.1111 20 39.1111C9.44523 39.1111 0.888889 30.5548 0.888889 20C0.888889 16.6848 1.73304 13.5667 3.21812 10.849C2.97723 10.6398 2.7713 10.3915 2.61029 10.1138C2.54367 10.2308 2.4782 10.3484 2.41389 10.4668C0.874444 13.3007 0 16.5482 0 20C0 31.0457 8.9543 40 20 40ZM5.84415 5.8716C9.46451 2.24424 14.4702 0 20 0C24.8325 0 29.2647 1.71391 32.7219 4.56703C33.1947 4.95721 33.6492 5.36871 34.0841 5.80004C33.7389 5.84299 33.4127 5.94683 33.1164 6.10047C29.6938 2.86954 25.0782 0.888889 20 0.888889C14.8373 0.888889 10.1528 2.93599 6.7138 6.26274C6.45111 6.08726 6.15804 5.95369 5.84415 5.8716Z"/>
<path d="M35.8048 2.96027C33.7366 3.23783 31.3102 3.90934 30.0478 4.54503C28.6689 5.2434 26.5918 7.00722 25.7412 8.19802L25.4457 8.60988L25.0428 8.43977C24.4519 8.18907 23.2074 7.84884 22.321 7.69663C19.5902 7.2221 16.5729 7.58919 14.2181 8.67256L13.5824 8.95906L13.0094 8.24279C11.1561 5.93281 8.68491 4.4555 5.57808 3.79294C4.41413 3.54225 2.64136 3.25574 2.27427 3.25574C1.79973 3.25574 1.34311 3.40795 1.13718 3.63178C0.984973 3.8019 0.940206 4.00782 0.895439 4.75096C0.868579 5.25235 0.734277 6.17455 0.599976 6.81024C-0.0983905 10.1767 0.68951 13.6596 2.93682 17.1335C3.61728 18.199 4.62006 19.4525 5.57808 20.4642L6.31226 21.2432L6.44656 22.1475C6.85842 24.9141 8.02236 27.1972 10.0548 29.2207C11.5231 30.689 12.8214 31.5575 14.5852 32.2559C15.3552 32.5603 17.1369 33.1064 17.1369 33.0348C17.1369 33.0259 16.94 32.7931 16.6893 32.5245C15.9014 31.6739 15.5074 30.7248 15.5074 29.7131C15.5074 29.0237 15.6417 28.5133 16.0357 27.7702C16.4386 26.9912 16.8325 26.5525 17.6652 25.9168C18.5068 25.2722 18.8918 24.8514 19.1694 24.2425C19.5991 23.3024 19.6529 22.7205 19.626 19.5599C19.5991 16.6859 19.5991 16.6321 19.7961 16.283C20.3065 15.3787 20.8705 15.119 21.4435 15.5309C22.0971 15.9965 22.3926 16.9813 22.4642 19.0138C22.6254 23.1771 22.9746 24.2605 24.6757 25.693C26.0277 26.839 27.0215 28.3969 27.129 29.5519C27.1827 30.0444 27.0752 30.9397 26.923 31.3426C26.7798 31.7187 29.0987 29.9638 29.9582 29.0595C30.4775 28.4954 31.6594 26.9733 31.6057 26.9196C31.5967 26.9107 31.3639 26.9823 31.0953 27.0897C30.7014 27.2509 30.4238 27.2867 29.5822 27.2957C28.6689 27.2957 28.472 27.2688 27.881 27.045C25.974 26.3376 24.7473 24.5917 24.7473 22.5504C24.7473 18.9421 28.4362 16.6501 31.7131 18.2348C32.313 18.5213 33.2173 19.2913 33.4232 19.6763C33.4948 19.8017 33.5754 19.9091 33.6112 19.9091C33.6381 19.9091 34.041 19.4525 34.5066 18.8974C37.3806 15.4503 38.8311 11.8242 38.6878 8.45767C38.661 7.78617 38.5446 6.86396 38.4103 6.1835C38.276 5.50304 38.1775 4.73305 38.1775 4.29433C38.1775 3.46167 38.07 3.21992 37.5865 3.02295C37.309 2.90655 36.4405 2.87969 35.8048 2.96027ZM36.8345 5.50304C36.9509 5.70897 36.8971 6.8371 36.6823 8.94116C36.3241 12.5494 35.384 15.4682 33.9425 17.5006C33.6381 17.9304 33.3605 18.2885 33.3337 18.2975C33.2979 18.2975 33.2441 18.1095 33.2083 17.8767C33.1098 17.2231 32.5995 15.7278 32.1966 14.931C31.3013 13.1493 29.7792 11.3496 28.1855 10.1767L27.4513 9.63952L27.8721 9.28139C29.9314 7.50861 32.3398 6.26409 35.1333 5.52991C36.1451 5.2613 36.7091 5.25235 36.8345 5.50304ZM4.92448 5.75374C7.63736 6.47001 10.4308 7.92942 12.1947 9.5679C12.2931 9.64848 12.1678 9.78278 11.5679 10.2125C10.6905 10.8572 9.20421 12.3614 8.60433 13.2209C7.58364 14.6893 6.9569 16.1576 6.52714 18.0647C6.47342 18.3154 6.46447 18.3064 5.98098 17.617C4.77227 15.889 3.94855 13.5343 3.49193 10.4543C3.19647 8.51139 3.08007 5.79851 3.27705 5.60153C3.44716 5.43142 3.84111 5.47618 4.92448 5.75374ZM13.4929 18.0736C15.391 18.4765 16.9489 20.1419 17.2444 22.0758C17.6741 24.9409 15.3821 27.6001 12.4722 27.609C11.7917 27.609 10.6905 27.3136 10.0727 26.9644C9.42805 26.5973 8.65805 25.8273 8.29096 25.1827C7.94178 24.5649 7.64632 23.4636 7.64632 22.7831C7.65527 21.0283 8.67596 19.345 10.2249 18.5392C11.2993 17.9752 12.3379 17.8229 13.4929 18.0736Z"/>
<path d="M12.0785 18.6645C10.4669 18.8525 9.04333 20.2492 8.82845 21.8698C8.66729 22.9979 9.03438 24.1977 9.77751 25.0125C10.0909 25.3616 10.1446 25.3885 10.1536 25.2184C10.1536 24.9766 10.5475 24.6543 10.843 24.6543C11.1205 24.6543 11.4966 25.0304 11.4966 25.3079C11.4966 25.4243 11.416 25.6302 11.3175 25.7556L11.1384 25.9794L11.4339 26.0869C11.5861 26.1406 12.0069 26.2122 12.3471 26.2391C13.8424 26.3555 15.4003 25.4333 16.036 24.0634C17.2984 21.2878 15.1227 18.3242 12.0785 18.6645ZM14.2363 19.6852C14.7198 19.9985 14.881 20.5805 14.6303 21.1267C14.3527 21.7534 13.5469 21.9862 12.9828 21.6191C12.6247 21.3774 12.4904 21.1088 12.4814 20.6163C12.4814 19.712 13.4663 19.1838 14.2363 19.6852Z"/>
<path d="M28.4718 18.5569C26.0812 19.3448 25.0963 22.2009 26.493 24.305C26.7169 24.6541 26.7258 24.6541 26.9855 24.5198C27.3347 24.3408 27.4511 24.3497 27.7465 24.5825C27.9704 24.7526 27.9883 24.8153 27.9525 25.2092L27.9077 25.639L28.5344 25.827C29.9222 26.2568 31.4711 25.8449 32.4292 24.7884C32.9932 24.1707 33.3335 23.4723 33.423 22.7202C33.6289 20.9832 32.7873 19.4522 31.2204 18.718C30.4325 18.3509 29.3044 18.2883 28.4718 18.5569ZM31.2921 19.4433C31.6234 19.6313 31.8203 20.0073 31.8203 20.446C31.8203 20.7684 31.7666 20.8758 31.4711 21.1713C31.1578 21.4846 31.0772 21.5204 30.6832 21.5204C29.573 21.5204 29.0985 20.267 29.9222 19.5238C30.2893 19.1926 30.7996 19.1567 31.2921 19.4433Z"/>
<path d="M20.1805 28.1103C19.6254 28.2625 19.2852 28.5669 19.2852 28.925C19.2852 29.4712 20.7446 30.4382 21.7294 30.5367C22.4726 30.6083 22.9113 30.4113 23.5738 29.704C24.4781 28.737 24.4155 28.3699 23.2784 28.1192C22.4368 27.9312 20.8699 27.9312 20.1805 28.1103Z"/>
<path fill-rule="evenodd" clip-rule="evenodd" d="M19.1436 34.2553C19.3439 35.0687 20.447 36.0001 21.7777 36.0001C23.2505 36.0001 24.4444 34.8592 24.4444 34.0001C24.4444 33.9764 24.4435 33.9527 24.4417 33.9292C23.5858 34.3798 22.5665 34.6666 21.4474 34.6666C20.6299 34.6666 19.8512 34.5135 19.1436 34.2553Z"/>
</svg>
