<svg  viewBox="0 0 25 24"  xmlns="http://www.w3.org/2000/svg">
    <path d="M12.4091 1.30484C17.1023 1.30484 21.0795 4.30978 22.5511 8.46135C22.7102 8.97535 23.1477 9.37074 23.7045 9.37074C24.2614 9.37074 24.8182 9.1335 24.8182 8.46135V1.62115C24.8182 0.711758 24.0625 6.10352e-05 23.1875 6.10352e-05H1.63068C0.755682 6.10352e-05 0 0.751297 0 1.62115V22.379C0 23.2884 0.755682 24.0001 1.63068 24.0001H23.1477C24.0625 24.0001 24.7784 23.2488 24.7784 22.379V15.5388C24.7784 14.9062 24.3409 14.4317 23.7045 14.4317C23.0682 14.4317 22.6705 14.9062 22.4716 15.5388C21.0795 19.7299 17.1023 22.7348 12.4091 22.7348C6.44318 22.7348 1.63068 17.9506 1.63068 12.0198C1.63068 6.08902 6.44318 1.30484 12.4091 1.30484Z"/>
</svg>