<svg viewBox="0 0 40 40" xmlns="http://www.w3.org/2000/svg">
<path d="M38.0541 27.4295H12.799V13.7335H8.91356V29.3172C8.91356 30.3538 9.78965 31.2052 10.8562 31.2052H32.9878L28.4165 35.2029H3.8854V12.5491H8.87545H12.7609H29.1403C29.6357 12.5491 30.0928 12.3639 30.4356 12.0678L39.3491 4.29445C39.9585 3.7762 40.1489 2.92483 39.8825 2.22153C39.5778 1.48121 38.854 1 38.0541 1H10.8562C9.78965 1 8.91356 1.85137 8.91356 2.88782V7.58887H12.799V4.77564H32.9878L28.4165 8.77342H12.799H8.91356H1.9427C0.876117 8.77342 0 9.62474 0 10.6612V37.0909C0 38.1271 0.876117 38.9785 1.9427 38.9785H29.1403C29.6357 38.9785 30.0928 38.7934 30.4356 38.4974L39.3491 30.724C39.9585 30.2056 40.1489 29.3545 39.8825 28.651C39.5778 27.9107 38.854 27.4295 38.0541 27.4295Z"/>
</svg>
