<svg viewBox="0 0 36 40" xmlns="http://www.w3.org/2000/svg">
    <path d="M17.492 0C15.0233 0 13.0215 8.95427 13.0215 20C13.0215 31.0457 15.0233 40 17.492 40C19.9608 40 21.9626 31.0457 21.9626 20C21.9626 8.95427 19.9608 0 17.492 0ZM17.8007 38.8713C17.5184 39.2478 17.2361 38.9653 17.2361 38.9653C16.0991 37.648 15.5307 35.2007 15.5307 35.2007C13.542 28.8008 14.0153 15.0596 14.0153 15.0596C14.9499 4.15054 16.65 1.57349 17.2286 1.00136C17.2877 0.942979 17.3654 0.907283 17.4483 0.900586C17.531 0.893908 17.6135 0.916632 17.6812 0.96477C18.5207 1.55959 19.2247 4.04717 19.2247 4.04717C21.3037 11.7648 21.1154 19.0118 21.1154 19.0118C21.3037 25.3177 20.0737 32.3764 20.0737 32.3764C19.1268 37.7409 17.8007 38.8713 17.8007 38.8713Z"/>
    <path d="M34.8403 10.0471C33.6111 7.90491 24.8488 10.6249 15.2631 16.1215C5.67743 21.6181 -1.08419 27.8109 0.144046 29.9521C1.37228 32.0933 10.1355 29.3743 19.7212 23.8777C29.3069 18.3811 36.0685 12.1883 34.8403 10.0471ZM1.27806 29.6583C0.807473 29.599 0.913776 29.2122 0.913776 29.2122C1.49103 27.5708 3.32799 25.8597 3.32799 25.8597C7.89166 20.9497 20.0471 14.5224 20.0471 14.5224C29.9736 9.90398 33.0569 10.0988 33.8391 10.3142C33.9194 10.3366 33.9891 10.3867 34.036 10.4556C34.083 10.5245 34.1038 10.6078 34.0952 10.6907C34.0012 11.7153 32.1893 13.5633 32.1893 13.5633C26.5335 19.2094 20.1534 22.6531 20.1534 22.6531C14.7773 25.9556 8.04243 28.3998 8.04243 28.3998C2.91778 30.2465 1.27824 29.6583 1.27824 29.6583H1.27806Z"/>
    <path d="M34.7962 30.0234C36.0349 27.8869 29.2903 21.6658 19.7383 16.1278C10.1863 10.5898 1.42501 7.83623 0.187445 9.97636C-1.05012 12.1165 5.69339 18.334 15.2509 23.8719C24.8084 29.4099 33.5586 32.1637 34.7962 30.0234ZM1.00822 10.8019C0.825258 10.3681 1.2115 10.2636 1.2115 10.2636C2.92148 9.94068 5.32343 10.6766 5.32343 10.6766C11.858 12.1646 23.5101 19.4634 23.5101 19.4634C32.4813 25.7411 33.8572 28.5062 34.0634 29.2912C34.0845 29.3717 34.0763 29.4569 34.0404 29.5321C34.0047 29.6071 33.9434 29.6671 33.8677 29.7015C32.9322 30.1299 30.4267 29.4917 30.4267 29.4917C22.7043 27.4211 16.5283 23.6273 16.5283 23.6273C10.9792 20.6344 5.49212 16.0292 5.49212 16.0292C1.32274 12.5186 1.0095 10.8067 1.0095 10.8067L1.00822 10.8019Z"/>
    <path d="M17.4457 22.3059C18.7451 22.3059 19.7986 21.2524 19.7986 19.953C19.7986 18.6536 18.7451 17.6001 17.4457 17.6001C16.1463 17.6001 15.0928 18.6536 15.0928 19.953C15.0928 21.2524 16.1463 22.3059 17.4457 22.3059Z"/>
    <path d="M27.0923 12.3293C27.8459 12.3293 28.457 11.6972 28.457 10.9175C28.457 10.1378 27.8459 9.50577 27.0923 9.50577C26.3385 9.50577 25.7275 10.1378 25.7275 10.9175C25.7275 11.6972 26.3385 12.3293 27.0923 12.3293Z"/>
    <path d="M4.69285 17.1293C5.44657 17.1293 6.05758 16.4972 6.05758 15.7176C6.05758 14.9379 5.44657 14.3058 4.69285 14.3058C3.93913 14.3058 3.32812 14.9379 3.32812 15.7176C3.32812 16.4972 3.93913 17.1293 4.69285 17.1293Z"/>
    <path d="M14.6684 34.4469C15.4221 34.4469 16.0332 33.8148 16.0332 33.0352C16.0332 32.2556 15.4221 31.6234 14.6684 31.6234C13.9148 31.6234 13.3037 32.2556 13.3037 33.0352C13.3037 33.8148 13.9148 34.4469 14.6684 34.4469Z"/>

</svg>