<svg viewBox="0 0 40 40" xmlns="http://www.w3.org/2000/svg">
    <path d="M21.0811 5.85387e-06C24.528 -0.0026197 27.9174 0.877997 30.9234 2.55708C33.9292 4.23617 36.4505 6.65722 38.2443 9.58725C35.4709 9.58725 32.811 10.6841 30.8498 12.6365C28.8885 14.5889 27.7868 17.237 27.7868 19.9981C27.7868 22.7591 28.8885 25.4072 30.8498 27.3597C32.811 29.3121 35.4709 30.4088 38.2443 30.4088C36.4198 33.3893 33.8434 35.8423 30.7713 37.5244C27.6994 39.2064 24.2387 40.0589 20.7333 39.9968C17.2279 39.935 13.7997 38.9609 10.7897 37.1713C7.77957 35.3819 5.29229 32.8393 3.575 29.7963C1.85771 26.7535 0.970242 23.3161 1.00076 19.8259C1.03128 16.3357 1.97875 12.9142 3.74899 9.90158C5.51923 6.88887 8.05061 4.3898 11.0915 2.65276C14.1326 0.915724 17.5772 0.00116885 21.0831 5.85387e-06H21.0811Z"/>
    <path d="M38.2437 9.58679C35.4701 9.58679 32.8102 10.6837 30.8491 12.6361C28.8879 14.5886 27.7861 17.2365 27.7861 19.9975C27.7861 22.7588 28.8879 25.4067 30.8491 27.3591C32.8102 29.3116 35.4701 30.4085 38.2437 30.4085L38.1776 30.507C36.1348 32.3503 33.5979 33.5627 30.8754 33.9965C28.1531 34.4303 25.3628 34.0672 22.844 32.9509C20.3253 31.8347 18.1866 30.0136 16.6886 27.7094C15.1906 25.4051 14.3977 22.7172 14.4063 19.9725C14.415 17.2277 15.2248 14.5447 16.7374 12.2499C18.25 9.95515 20.4 8.14752 22.9258 7.04708C25.4514 5.94663 28.244 5.60084 30.9637 6.05173C33.6832 6.50263 36.2125 7.73083 38.2437 9.58679Z" fill="#eee" opacity="0.3"/>
</svg>
