<svg viewBox="0 0 40 41" xmlns="http://www.w3.org/2000/svg">
    <g clip-path="url(#clip0_5001_55512)">
        <circle cx="20" cy="20.6964" r="20"/>
        <path fill-rule="evenodd" clip-rule="evenodd"
              d="M20.6845 13.0154H14.3928V17.2765H27.5639C26.3059 14.7507 23.6978 13.0154 20.6845 13.0154ZM9.39465 17.2765H12.0565V13.0154V10.679H14.3928H20.6845C25.0158 10.679 28.7051 13.428 30.1027 17.2765H32.4493V19.6128H30.6437C30.6819 19.9687 30.7016 20.3301 30.7016 20.6961C30.7016 21.1204 30.6752 21.5385 30.624 21.9489H32.4414V24.2852H30.0394C28.5962 28.0447 24.9519 30.7132 20.6845 30.7132H14.3928H12.0565V28.3769V24.2852H9.38672V21.9489H12.0565V19.6128H9.39465V17.2765ZM14.3928 24.2852V28.3769H20.6845C23.63 28.3769 26.1882 26.7189 27.4768 24.2852H14.3928ZM28.2636 21.9489H14.3928V19.6128H28.2894C28.3394 19.9667 28.3652 20.3284 28.3652 20.6961C28.3652 21.1227 28.3305 21.5412 28.2636 21.9489Z"
              fill="white"/>
    </g>
    <defs>
        <clipPath id="clip0_5001_55512">
            <rect width="40" height="40" transform="translate(0 0.696365)"/>
        </clipPath>
    </defs>
</svg>
