<svg viewBox="0 0 40 40" xmlns="http://www.w3.org/2000/svg">
<path d="M19.9992 40C8.97168 40 0 31.028 0 20H3.44597C3.44597 29.1281 10.8722 36.5547 20 36.5547L19.9992 40Z"/>
<path d="M40 20H36.5539C36.5547 10.8715 29.1285 3.44611 20 3.44611V0C31.028 0 40 8.97164 40 20Z"/>
<path d="M27.3467 18.3308C26.8294 14.9664 23.976 12.4805 20.4165 12.4805C16.7811 12.4805 13.8153 14.9319 13.0746 18.3312H9.90723V20.8685H12.9408C13.3542 24.7917 16.5537 27.6738 20.4765 27.6738C23.4908 27.6738 25.9368 26.4795 27.0129 24.5096L24.3562 22.8083C23.6702 23.9427 22.1774 24.6587 20.5356 24.6587C18.1778 24.6587 16.566 23.2263 16.208 20.8685H29.7008L30.5383 18.3312L27.3467 18.3308ZM20.2375 15.2267C22.2373 15.2267 23.7593 16.5096 23.9387 18.3308H16.327C16.8345 16.4218 18.2377 15.2267 20.2375 15.2267Z"/>
</svg>
