<svg viewBox="0 0 40 40" xmlns="http://www.w3.org/2000/svg">
<path d="M18.4983 8.05896C16.7642 8.27299 14.8467 8.94566 13.4533 9.82799C11.4441 11.0991 9.93711 12.855 8.71408 15.3535C8.28602 16.2227 8.12877 16.594 7.40369 18.3892C6.56941 20.4683 6.3248 20.975 5.81812 21.7088C5.09304 22.7528 4.31991 23.5041 2.38491 25.0503C1.80397 25.5133 1.19245 26.0156 1.0221 26.1685C0.314493 26.8062 0 27.2823 0 27.7191C0 28.1821 0.248974 28.4792 0.786233 28.6583C1.10073 28.7587 1.16188 28.7631 2.22766 28.7631C2.85228 28.7587 3.8307 28.7238 4.45532 28.6801C6.60872 28.5228 8.22923 28.6888 9.56583 29.1999C10.1118 29.4095 10.7102 29.6847 12.0556 30.3443C14.838 31.7115 16.192 32.2269 17.865 32.5588C18.7211 32.7292 19.2103 32.7729 20.2236 32.7729C21.2676 32.7685 21.6607 32.7292 22.5692 32.537C26.3082 31.7464 29.392 29.3484 31.1348 25.8802C31.4886 25.177 31.7114 24.5786 31.7114 24.334C31.7114 24.0763 31.576 23.8841 31.3357 23.8055C30.9863 23.6875 30.7635 23.8448 30.4447 24.4388C29.8987 25.4609 28.9727 26.566 28.0292 27.3217C26.5878 28.4792 24.8275 29.213 22.9755 29.4401C22.495 29.4969 21.2283 29.4969 20.726 29.4358C17.2491 29.0295 14.1828 26.7407 12.82 23.5215C12.7195 23.2813 12.4487 22.5344 12.4487 22.4951C12.4487 22.4033 16.1221 20.809 18.4328 19.9005C18.9002 19.7127 19.3544 19.538 19.4374 19.503C21.0274 18.8697 24.5829 17.6204 26.2733 17.1006C26.5616 17.0133 26.8761 16.9172 26.9721 16.8822C27.0682 16.8517 27.3653 16.7643 27.6273 16.6857C27.8938 16.6114 28.2257 16.511 28.3699 16.4673C29.2653 16.1921 31.0868 15.7247 31.2484 15.7247C31.3401 15.7247 31.4231 15.7597 31.4842 15.8252C31.6328 15.9824 31.9647 17.0395 32.1525 17.9305C32.2399 18.3455 32.2705 18.4329 32.3928 18.5508C32.4758 18.6382 32.5762 18.6949 32.6418 18.6949C32.8733 18.6949 35.0136 17.4763 36.5249 16.4848C38.3026 15.3141 39.4732 14.2615 39.8707 13.4752C40.1459 12.9249 39.9799 12.4924 39.3903 12.2304C38.8006 11.9727 37.3766 11.929 35.7736 12.1212C33.6464 12.3745 30.7723 13.0079 27.8021 13.8683C27.4177 13.9819 27.0333 14.0955 26.9503 14.1173C24.2771 14.873 19.5248 16.5634 16.1396 17.9568C15.7814 18.1053 15.3752 18.2669 15.2442 18.3237C14.7724 18.5159 13.462 19.0837 12.785 19.3894C12.405 19.5598 12.0818 19.6996 12.073 19.6996C12.0206 19.6996 12.0687 18.7299 12.1473 18.2407C12.6889 14.8075 14.8074 12.0469 17.9523 10.671C20.2236 9.67511 22.7046 9.58338 25.107 10.4046C25.6268 10.5836 25.6443 10.588 25.8234 10.5269C26.1728 10.4046 26.317 9.98523 26.1204 9.662C26.0505 9.5528 25.9107 9.46108 25.4565 9.24268C24.1111 8.59185 22.8794 8.22931 21.4467 8.05896C20.7871 7.98034 19.1317 7.98034 18.4983 8.05896Z"/>
</svg>
