<svg viewBox="0 0 40 40" xmlns="http://www.w3.org/2000/svg">
<path d="M0 0V40H40V0H0ZM13.9837 4.64H17.7236V8.48H13.9837V4.64ZM4.55285 4.64H8.45528V8.48H4.55285V4.64ZM8.29268 13.92V17.76H4.39024V13.92H8.29268ZM7.31707 35.04H5.69106V33.6H7.15447V35.04H7.31707ZM8.45528 27.36H4.55285V23.68H8.45528V27.36ZM16.748 35.04H15.2846V33.6H16.748V35.04ZM16.748 26.08H15.2846V24.64H16.748V26.08ZM17.8862 17.92H13.9837V14.08H17.8862V17.92ZM26.1789 35.04H24.7154V33.6H26.1789V35.04ZM26.1789 26.08H24.7154V24.64H26.1789V26.08ZM26.1789 16.64H24.7154V15.2H26.1789V16.64ZM27.4797 8.48H23.5772V4.64H27.4797V8.48ZM35.7724 35.04H34.3089V33.6H35.7724V35.04ZM35.7724 26.08H34.3089V24.64H35.7724V26.08ZM35.7724 16.64H34.3089V15.2H35.7724V16.64ZM35.7724 7.36H34.3089V5.92H35.7724V7.36Z"/>
</svg>
