<svg  viewBox="0 0 40 40" xmlns="http://www.w3.org/2000/svg">
<mask id="mask0_2453_22881" style="mask-type:alpha" maskUnits="userSpaceOnUse" x="0" y="11" width="40" height="19">
<rect y="11" width="40" height="18.9474" fill="#C4C4C4"/>
</mask>
<g mask="url(#mask0_2453_22881)">
<path d="M26.4122 28.8226L25.9024 28.9075H25.8638C25.8263 28.9174 25.7883 28.9174 25.7508 28.9268L25.6186 28.9455C18.9329 30.0411 13.2766 30.1827 8.33659 29.3891C7.00519 29.172 5.05052 28.8039 3.37909 28.0864C1.40695 27.236 0.283935 26.0843 0.0474773 24.6581C-0.547721 21.1736 4.61815 18.3785 6.31765 17.4627C10.8316 15.017 16.3936 13.2607 23.3151 12.0897C30.2367 10.9186 36.0726 10.7408 41.1343 11.5612C44.4409 12.099 48.8962 13.1665 49.4246 16.2916C49.9531 19.4167 46.1011 21.8917 43.1545 23.4877C38.7541 25.8672 33.3717 27.5954 26.6954 28.7658L26.5631 28.7852C26.5257 28.7945 26.4877 28.7945 26.4502 28.8039C26.4315 28.8226 26.4215 28.8226 26.4122 28.8226ZM25.8363 28.6354H25.855L26.3747 28.5412H26.3841C26.4215 28.5319 26.4596 28.5319 26.4976 28.5225L26.6293 28.5038C33.2682 27.3421 38.6218 25.6233 43.0035 23.2531C49.6892 19.6345 49.2643 17.1626 49.132 16.3503C48.5842 13.0642 42.9373 12.1483 41.0837 11.8582C36.0508 11.0471 30.2523 11.2162 23.3594 12.3866C16.4666 13.5571 10.9439 15.3046 6.4468 17.7316C-0.235772 21.3471 0.189102 23.8177 0.321369 24.63C0.878509 27.9161 6.52541 28.8226 8.37652 29.1252C13.2866 29.9182 18.9148 29.7765 25.5718 28.681L25.704 28.6623C25.7421 28.6529 25.7795 28.6529 25.8176 28.6435L25.8363 28.6354Z"/>
<path d="M25.9207 27.4911C25.7885 27.5098 25.6468 27.5385 25.4959 27.5572C25.2126 27.6046 24.8913 27.6514 24.5419 27.7082L24.5045 27.7175C24.3535 27.7369 24.1925 27.765 24.0228 27.7837C23.8719 27.803 23.7109 27.8311 23.5412 27.8498H23.5131C23.2579 27.8879 22.984 27.9159 22.7102 27.954H22.6727L22.3233 27.9914C22.2285 28.0008 22.1249 28.0108 22.0301 28.0295H22.0114C19.8677 28.2653 17.8282 28.407 15.9596 28.4357C12.5606 28.4824 9.83103 28.1711 7.867 27.5098C5.98782 26.8772 4.78869 25.9139 4.3164 24.6486C4.23536 24.4315 4.17539 24.2071 4.13734 23.9785C3.96701 22.9865 4.21283 22.0045 4.86418 21.0699C5.7707 19.7666 7.48954 18.52 9.97265 17.3777C12.2961 16.3015 15.2421 15.3288 18.7172 14.4784C20.9171 13.9406 22.6833 13.6193 23.5424 13.4802C24.4115 13.3292 26.2052 13.0553 28.4338 12.8288C30.8895 12.583 34.4775 12.3566 37.66 12.6679C40.3889 12.9324 42.4285 13.5463 43.7118 14.5003C44.609 15.1703 45.1568 16.0014 45.3177 16.9927C45.3564 17.23 45.372 17.4705 45.3645 17.7108C45.3271 19.061 44.5241 20.3549 42.985 21.5541C41.3516 22.8287 38.8772 24.0278 35.6386 25.1047C33.8442 25.6992 31.8709 26.2377 29.7646 26.7193C29.6932 26.7395 29.6207 26.7553 29.5475 26.7667L28.8206 26.9271C28.6334 26.9651 28.4525 27.0026 28.2728 27.0406L28.0931 27.0781C27.9896 27.0968 27.8954 27.1161 27.7912 27.1348C27.687 27.1535 27.5741 27.1822 27.4605 27.201L27.2815 27.2384C26.9321 27.3045 26.6108 27.3632 26.3275 27.4181C26.1946 27.4437 26.0505 27.4724 25.9207 27.4911ZM22.6534 27.6782H22.7008C22.9653 27.6495 23.2299 27.6121 23.4844 27.574H23.5131C23.6735 27.5553 23.8338 27.5273 23.9948 27.5079C24.1557 27.4886 24.3248 27.4611 24.4764 27.4418L24.5138 27.4324C24.8632 27.3757 25.1752 27.3289 25.4584 27.2908C25.7604 27.244 25.9962 27.206 26.2988 27.1492C26.5821 27.1024 26.9028 27.0363 27.2521 26.9701L27.4318 26.9321C27.5354 26.9133 27.6489 26.8946 27.7531 26.8659C27.8473 26.8472 27.9509 26.8285 28.0457 26.8092L28.2248 26.7717C28.4045 26.7337 28.5835 26.6962 28.7726 26.6582L29.5 26.4978C29.5755 26.4791 29.6417 26.4691 29.7172 26.4504C31.8135 25.9781 33.7775 25.431 35.5625 24.8451C38.773 23.7783 41.2187 22.5991 42.824 21.3419C44.297 20.1896 45.0619 18.9711 45.0994 17.7065C45.1075 17.485 45.0918 17.2633 45.0526 17.0451C44.9016 16.1311 44.3931 15.3575 43.5508 14.7336C42.3031 13.8177 40.3216 13.2132 37.6394 12.9586C34.4763 12.656 30.9069 12.8731 28.4681 13.119C26.2395 13.3361 24.4546 13.6181 23.5955 13.7609C22.7364 13.9038 20.9701 14.2332 18.7915 14.7592C15.3825 15.5902 12.3703 16.5822 10.0943 17.6397C7.65799 18.7627 5.97659 19.9719 5.09876 21.2371C4.49483 22.1062 4.26835 23.0221 4.41934 23.938C4.45555 24.1509 4.51238 24.3599 4.58904 24.5619C5.03325 25.7516 6.16625 26.6582 7.96994 27.2627C9.90403 27.9141 12.5968 28.216 15.9677 28.1692C17.8394 28.1405 19.8677 28.0089 22.002 27.7631H22.0208C22.1189 27.756 22.2166 27.7433 22.3134 27.725L22.6534 27.6782Z"/>
<path d="M14.8832 24.7251L14.8551 24.7151H14.8283L14.8551 24.9796C14.94 24.9703 15.0155 24.9703 15.1003 24.9609C15.3218 24.944 15.5441 24.9404 15.766 24.9503C15.4676 24.8927 15.1728 24.8175 14.8832 24.7251ZM17.969 25.1761L18.0002 25.1693L17.969 25.1761ZM18.0738 25.1599H18.0651V25.1761L18.0838 25.1724L18.0738 25.1599ZM45.3076 17.0099C45.1466 16.0186 44.5989 15.1875 43.7023 14.5144C42.4177 13.5604 40.3782 12.9471 37.6505 12.6826C34.4686 12.3706 30.88 12.5977 28.4243 12.8429C26.1957 13.0694 24.402 13.342 23.5329 13.4943C22.6738 13.6359 20.9082 13.9572 18.7077 14.4956C15.2326 15.3454 12.2866 16.318 9.96378 17.3943C7.4788 18.5397 5.75996 19.7875 4.85344 21.089C4.20209 22.0248 3.95627 23.0062 4.12659 23.9976C4.15535 24.1692 4.19706 24.3383 4.25137 24.5036C4.26884 24.5597 4.28818 24.614 4.30753 24.6683L4.34808 24.7712C4.8472 25.9853 6.0326 26.9137 7.85813 27.5295C9.82278 28.1902 12.5517 28.5021 15.9507 28.4547H16.0062L16.0443 28.4073C16.5341 27.8889 17.0612 27.3529 17.5891 26.8956C17.5997 26.8862 17.6109 26.8775 17.6209 26.8682L17.9141 26.6136H17.4599C14.9387 26.6379 12.9055 26.4121 11.42 25.9273L11.4069 25.9236L11.4243 25.9167C12.7289 25.392 13.8101 25.1007 14.8065 24.9884H14.8121C15.5402 25.2161 16.4342 25.3627 17.478 25.4251C16.8646 25.3926 16.2541 25.3172 15.6512 25.1992C15.5414 25.1768 15.4347 25.1531 15.3299 25.1281C15.2863 25.1181 15.2432 25.1069 15.1995 25.0963C15.0748 25.062 14.9531 25.027 14.8358 24.9902L14.8077 24.984H14.7984C14.6199 24.9266 14.4496 24.8629 14.2905 24.7968C13.3185 24.9578 12.2479 25.2835 10.9839 25.8163L10.6763 25.9485L10.6563 25.9573H10.6532L10.9839 26.082C12.4662 26.6392 14.5532 26.9224 17.1785 26.9131C16.735 27.3099 16.3101 27.7535 15.9039 28.1783C12.5611 28.2258 9.89827 27.9138 7.97168 27.2718C6.2335 26.6891 5.11797 25.8262 4.64193 24.6989C4.62384 24.6571 4.607 24.6134 4.59077 24.571C4.57455 24.5285 4.55708 24.4786 4.54211 24.4312C4.48964 24.2733 4.44918 24.1117 4.42107 23.9477C4.27009 23.0318 4.49657 22.1159 5.10112 21.2475C5.97895 19.9816 7.6591 18.7731 10.096 17.6494C12.372 16.5888 15.3842 15.6006 18.7932 14.7695C20.9768 14.2405 22.7406 13.9098 23.5972 13.7713C24.4538 13.6328 26.2413 13.3464 28.4698 13.1293C30.9031 12.8841 34.4755 12.6664 37.6411 12.969C40.3239 13.2235 42.306 13.8281 43.552 14.7439C44.3923 15.3678 44.9027 16.1415 45.0537 17.0574C45.0931 17.2755 45.109 17.4972 45.1011 17.7187C45.063 18.984 44.2981 20.2024 42.8251 21.3541C41.2292 22.6019 38.8022 23.7811 35.6203 24.8386C35.0913 24.5647 34.5248 24.2815 33.9583 24.0363C36.4227 23.1672 38.3019 22.2232 39.5484 21.2219L39.8223 20.9954L39.7655 20.9923L39.466 20.9667C37.7098 20.8532 36.3971 20.9474 35.3483 21.25L35.3196 21.2593L35.2915 21.278C34.6776 21.7148 33.8847 22.1371 32.9307 22.5258L32.7985 22.5732C32.5433 22.6768 32.27 22.781 31.9961 22.8752L31.8258 22.932C31.8268 22.9217 31.8285 22.9115 31.8308 22.9014C31.842 22.8353 31.8514 22.7691 31.8589 22.7036C31.9089 22.3254 31.9298 21.9439 31.9213 21.5625C31.9213 21.5001 31.9169 21.4415 31.9131 21.3816C31.9094 21.3217 31.9069 21.2568 31.9019 21.1982C31.8969 21.1395 31.8919 21.0734 31.8863 21.011C31.8807 20.9486 31.8726 20.8862 31.8645 20.8238C31.8532 20.7415 31.8408 20.6591 31.8264 20.5743C31.8121 20.4894 31.7927 20.4102 31.7765 20.3291C31.769 20.2873 31.7603 20.2467 31.7509 20.2043C31.6088 19.5597 31.3734 18.9392 31.0522 18.3626C30.9431 18.1658 30.8242 17.9746 30.6959 17.7898C30.6566 17.733 30.6167 17.6756 30.5755 17.6195C30.5343 17.5633 30.5056 17.524 30.4694 17.4779C30.4333 17.4317 30.3915 17.378 30.3515 17.3288C29.9084 16.7871 29.3872 16.3144 28.8049 15.9262C28.3463 15.6174 27.8516 15.366 27.3319 15.1776C26.2542 14.788 25.0975 14.668 23.9628 14.8282C23.8521 14.8395 23.7422 14.8568 23.6334 14.88C23.6234 14.8791 23.6133 14.8808 23.6041 14.8849C22.4787 15.1091 21.4251 15.6049 20.5351 16.3293C20.1253 16.656 19.7567 17.0314 19.4377 17.4473L19.4102 17.4816C19.1958 17.7608 19.0023 18.0555 18.8312 18.3632C18.7976 18.4256 18.7645 18.488 18.7333 18.5503C18.7065 18.599 18.6821 18.6495 18.6584 18.7001C18.6347 18.7506 18.6172 18.7849 18.596 18.8286C18.5023 19.0352 18.4191 19.2463 18.3465 19.4612V19.4662C18.3265 19.5236 18.3078 19.5823 18.2885 19.6397C18.2691 19.6971 18.2535 19.7557 18.2367 19.8144C18.2242 19.8587 18.2111 19.9042 18.1999 19.9498C18.1986 19.9585 18.1965 19.967 18.1936 19.9753C18.1885 19.9898 18.1844 20.0046 18.1811 20.0196C18.1705 20.0589 18.1612 20.0995 18.1518 20.14C18.1499 20.1446 18.1487 20.1495 18.1481 20.1544C18.1485 20.1588 18.1474 20.1632 18.145 20.1669C18.1375 20.1987 18.1312 20.2293 18.1244 20.2623C18.1175 20.2954 18.1119 20.3197 18.1063 20.349C18.0944 20.4114 18.0826 20.4738 18.0726 20.5325C18.0489 20.6691 18.0283 20.8064 18.0102 20.943C18.0046 20.9892 18.0002 21.0366 17.9965 21.0834C17.9909 21.1458 17.9859 21.2082 17.9821 21.2705C17.9642 21.5506 17.9632 21.8314 17.979 22.1116C17.9852 22.2239 17.9934 22.3374 18.0058 22.4497C18.0068 22.4744 18.0093 22.499 18.0133 22.5233C18.0245 22.6026 18.0358 22.6781 18.047 22.7529C18.0501 22.7691 18.052 22.7847 18.0551 22.8003V22.8085L18.0607 22.8465C18.0601 22.8496 18.0601 22.8528 18.0607 22.8559C18.0621 22.8712 18.0644 22.8864 18.0676 22.9014C18.072 22.9345 18.0776 22.9638 18.0844 22.9994C18.1451 23.3247 18.2285 23.6453 18.334 23.9589C18.4747 24.3784 18.6562 24.7829 18.8762 25.1668C18.913 25.2292 18.9523 25.2972 18.9916 25.3633L19.0334 25.4313H18.9841L18.6435 25.4475H18.659C18.7395 25.4475 18.8181 25.4475 18.8955 25.4432C18.9267 25.4432 18.9579 25.4432 18.9891 25.4432H19.1139L19.3591 25.4338V25.4307L19.2287 25.2261C19.2149 25.2036 19.2006 25.1805 19.1875 25.1568C18.7596 24.4478 18.4688 23.6648 18.3303 22.8484C18.3109 22.7236 18.2922 22.6119 18.2828 22.489C18.2754 22.4229 18.2685 22.3574 18.2629 22.2912C18.2116 21.7174 18.2374 21.1394 18.3396 20.5724C18.5227 19.5056 18.964 18.4998 19.6248 17.6426C19.7166 17.5265 19.812 17.4124 19.91 17.3019C20.1521 17.0256 20.4169 16.7699 20.7017 16.5377C21.5573 15.8458 22.5684 15.3726 23.6477 15.1588L23.6752 15.1545L23.8174 15.1308L23.9878 15.1021C25.0789 14.9485 26.191 15.0653 27.2264 15.4421C27.7223 15.6207 28.1947 15.8586 28.6333 16.1508C30.0682 17.1011 31.0801 18.5694 31.4571 20.2486C31.4758 20.3621 31.5045 20.4757 31.5232 20.598C31.5777 20.9101 31.6092 21.2258 31.6174 21.5426C31.6274 22.0385 31.5837 22.5341 31.487 23.0206C31.485 23.0416 31.4812 23.0625 31.4758 23.083L31.4284 23.3288L31.6648 23.2527L31.7622 23.2196C31.8676 23.184 31.9687 23.1472 32.0741 23.111C32.3574 23.0168 32.6219 22.9133 32.8852 22.8091L33.0174 22.7617C33.9745 22.3642 34.7787 21.9394 35.4095 21.4951C36.3534 21.2306 37.5432 21.1364 39.0543 21.2025L39.043 21.2113C37.7778 22.1621 35.9117 23.0561 33.5016 23.8747L33.1335 23.9995H33.1372L33.4922 24.1392C33.5027 24.1427 33.5129 24.1469 33.5228 24.1517C34.21 24.4277 34.8814 24.7411 35.5342 25.0907L35.591 25.1187H35.6291C38.8677 24.0425 41.3421 22.8434 42.9755 21.5681C44.5146 20.369 45.3176 19.0726 45.355 17.7249C45.3623 17.4856 45.3465 17.2462 45.3076 17.0099ZM18.0726 25.1612H18.0651V25.1774L18.0838 25.1736L18.0726 25.1612ZM18.0015 25.1736L17.9684 25.1799L18.0015 25.1736ZM17.9896 25.4544H18.0027C18.0557 25.4544 18.1094 25.4581 18.1643 25.4588H18.2891C18.1786 25.4588 18.0682 25.4525 17.9653 25.4475C17.9376 25.4481 17.9099 25.447 17.8823 25.4444H17.8368L17.9896 25.4544ZM14.8271 24.7163L14.8539 24.9809C14.9387 24.9715 15.0142 24.9715 15.0991 24.9621C15.3206 24.9452 15.5429 24.9417 15.7648 24.9515C15.4667 24.8936 15.1723 24.818 14.8832 24.7251L14.8551 24.7151L14.8271 24.7163ZM14.882 24.7263L14.8539 24.7163H14.8271L14.8539 24.9809C14.9387 24.9715 15.0142 24.9715 15.0991 24.9621C15.3206 24.9452 15.5429 24.9417 15.7648 24.9515C15.4667 24.8936 15.1723 24.818 14.8832 24.7251L14.882 24.7263ZM17.9678 25.1786L17.999 25.1718L17.9678 25.1786ZM18.0726 25.1624H18.0651V25.1786L18.0838 25.1749L18.0726 25.1624ZM18.0732 25.1618H18.0651V25.178L18.0838 25.1743L18.0732 25.1618ZM17.9684 25.1774L17.9996 25.1705L17.9684 25.1774ZM14.8832 24.7251L14.8551 24.7151H14.8283L14.8551 24.9796C14.94 24.9703 15.0155 24.9703 15.1003 24.9609C15.3218 24.944 15.5441 24.9404 15.766 24.9503C15.4676 24.8927 15.1728 24.8175 14.8832 24.7251Z"/>
<path d="M14.8832 24.7251L14.8551 24.7151H14.8283L14.8551 24.9796C14.94 24.9703 15.0155 24.9703 15.1003 24.9609C15.3218 24.944 15.5441 24.9404 15.766 24.9503C15.4676 24.8927 15.1728 24.8175 14.8832 24.7251ZM17.969 25.1761L18.0002 25.1693L17.969 25.1761ZM18.0738 25.1599H18.0651V25.1761L18.0838 25.1724L18.0738 25.1599ZM45.3076 17.0099C45.1466 16.0186 44.5989 15.1875 43.7023 14.5144C42.4177 13.5604 40.3782 12.9471 37.6505 12.6826C34.4686 12.3706 30.88 12.5977 28.4243 12.8429C26.1957 13.0694 24.402 13.342 23.5329 13.4943C22.6738 13.6359 20.9082 13.9572 18.7077 14.4956C15.2326 15.3454 12.2866 16.318 9.96378 17.3943C7.4788 18.5397 5.75996 19.7875 4.85344 21.089C4.20209 22.0248 3.95627 23.0062 4.12659 23.9976C4.15535 24.1692 4.19706 24.3383 4.25137 24.5036C4.26884 24.5597 4.28818 24.614 4.30753 24.6683L4.34808 24.7712C4.8472 25.9853 6.0326 26.9137 7.85813 27.5295C9.82278 28.1902 12.5517 28.5021 15.9507 28.4547H16.0062L16.0443 28.4073C16.5341 27.8889 17.0612 27.3529 17.5891 26.8956C17.5997 26.8862 17.6109 26.8775 17.6209 26.8682L17.9141 26.6136H17.4599C14.9387 26.6379 12.9055 26.4121 11.42 25.9273L11.4069 25.9236L11.4243 25.9167C12.7289 25.392 13.8101 25.1007 14.8065 24.9884H14.8121C15.5402 25.2161 16.4342 25.3627 17.478 25.4251C16.8646 25.3926 16.2541 25.3172 15.6512 25.1992C15.5414 25.1768 15.4347 25.1531 15.3299 25.1281C15.2863 25.1181 15.2432 25.1069 15.1995 25.0963C15.0748 25.062 14.9531 25.027 14.8358 24.9902L14.8077 24.984H14.7984C14.6199 24.9266 14.4496 24.8629 14.2905 24.7968C13.3185 24.9578 12.2479 25.2835 10.9839 25.8163L10.6763 25.9485L10.6563 25.9573H10.6532L10.9839 26.082C12.4662 26.6392 14.5532 26.9224 17.1785 26.9131C16.735 27.3099 16.3101 27.7535 15.9039 28.1783C12.5611 28.2258 9.89827 27.9138 7.97168 27.2718C6.2335 26.6891 5.11797 25.8262 4.64193 24.6989C4.62384 24.6571 4.607 24.6134 4.59077 24.571C4.57455 24.5285 4.55708 24.4786 4.54211 24.4312C4.48964 24.2733 4.44918 24.1117 4.42107 23.9477C4.27009 23.0318 4.49657 22.1159 5.10112 21.2475C5.97895 19.9816 7.6591 18.7731 10.096 17.6494C12.372 16.5888 15.3842 15.6006 18.7932 14.7695C20.9768 14.2405 22.7406 13.9098 23.5972 13.7713C24.4538 13.6328 26.2413 13.3464 28.4698 13.1293C30.9031 12.8841 34.4755 12.6664 37.6411 12.969C40.3239 13.2235 42.306 13.8281 43.552 14.7439C44.3923 15.3678 44.9027 16.1415 45.0537 17.0574C45.0931 17.2755 45.109 17.4972 45.1011 17.7187C45.063 18.984 44.2981 20.2024 42.8251 21.3541C41.2292 22.6019 38.8022 23.7811 35.6203 24.8386C35.0913 24.5647 34.5248 24.2815 33.9583 24.0363C36.4227 23.1672 38.3019 22.2232 39.5484 21.2219L39.8223 20.9954L39.7655 20.9923L39.466 20.9667C37.7098 20.8532 36.3971 20.9474 35.3483 21.25L35.3196 21.2593L35.2915 21.278C34.6776 21.7148 33.8847 22.1371 32.9307 22.5258L32.7985 22.5732C32.5433 22.6768 32.27 22.781 31.9961 22.8752L31.8258 22.932C31.8268 22.9217 31.8285 22.9115 31.8308 22.9014C31.842 22.8353 31.8514 22.7691 31.8589 22.7036C31.9089 22.3254 31.9298 21.9439 31.9213 21.5625C31.9213 21.5001 31.9169 21.4415 31.9131 21.3816C31.9094 21.3217 31.9069 21.2568 31.9019 21.1982C31.8969 21.1395 31.8919 21.0734 31.8863 21.011C31.8807 20.9486 31.8726 20.8862 31.8645 20.8238C31.8532 20.7415 31.8408 20.6591 31.8264 20.5743C31.8121 20.4894 31.7927 20.4102 31.7765 20.3291C31.769 20.2873 31.7603 20.2467 31.7509 20.2043C31.6088 19.5597 31.3734 18.9392 31.0522 18.3626C30.9431 18.1658 30.8242 17.9746 30.6959 17.7898C30.6566 17.733 30.6167 17.6756 30.5755 17.6195C30.5343 17.5633 30.5056 17.524 30.4694 17.4779C30.4333 17.4317 30.3915 17.378 30.3515 17.3288C29.9084 16.7871 29.3872 16.3144 28.8049 15.9262C28.3463 15.6174 27.8516 15.366 27.3319 15.1776C26.2542 14.788 25.0975 14.668 23.9628 14.8282C23.8521 14.8395 23.7422 14.8568 23.6334 14.88C23.6234 14.8791 23.6133 14.8808 23.6041 14.8849C22.4787 15.1091 21.4251 15.6049 20.5351 16.3293C20.1253 16.656 19.7567 17.0314 19.4377 17.4473L19.4102 17.4816C19.1958 17.7608 19.0023 18.0555 18.8312 18.3632C18.7976 18.4256 18.7645 18.488 18.7333 18.5503C18.7065 18.599 18.6821 18.6495 18.6584 18.7001C18.6347 18.7506 18.6172 18.7849 18.596 18.8286C18.5023 19.0352 18.4191 19.2463 18.3465 19.4612V19.4662C18.3265 19.5236 18.3078 19.5823 18.2885 19.6397C18.2691 19.6971 18.2535 19.7557 18.2367 19.8144C18.2242 19.8587 18.2111 19.9042 18.1999 19.9498C18.1986 19.9585 18.1965 19.967 18.1936 19.9753C18.1885 19.9898 18.1844 20.0046 18.1811 20.0196C18.1705 20.0589 18.1612 20.0995 18.1518 20.14C18.1499 20.1446 18.1487 20.1495 18.1481 20.1544C18.1485 20.1588 18.1474 20.1632 18.145 20.1669C18.1375 20.1987 18.1312 20.2293 18.1244 20.2623C18.1175 20.2954 18.1119 20.3197 18.1063 20.349C18.0944 20.4114 18.0826 20.4738 18.0726 20.5325C18.0489 20.6691 18.0283 20.8064 18.0102 20.943C18.0046 20.9892 18.0002 21.0366 17.9965 21.0834C17.9909 21.1458 17.9859 21.2082 17.9821 21.2705C17.9642 21.5506 17.9632 21.8314 17.979 22.1116C17.9852 22.2239 17.9934 22.3374 18.0058 22.4497C18.0068 22.4744 18.0093 22.499 18.0133 22.5233C18.0245 22.6026 18.0358 22.6781 18.047 22.7529C18.0501 22.7691 18.052 22.7847 18.0551 22.8003V22.8085L18.0607 22.8465C18.0601 22.8496 18.0601 22.8528 18.0607 22.8559C18.0621 22.8712 18.0644 22.8864 18.0676 22.9014C18.072 22.9345 18.0776 22.9638 18.0844 22.9994C18.1451 23.3247 18.2285 23.6453 18.334 23.9589C18.4747 24.3784 18.6562 24.7829 18.8762 25.1668C18.913 25.2292 18.9523 25.2972 18.9916 25.3633L19.0334 25.4313H18.9841L18.6435 25.4475H18.659C18.7395 25.4475 18.8181 25.4475 18.8955 25.4432C18.9267 25.4432 18.9579 25.4432 18.9891 25.4432H19.1139L19.3591 25.4338V25.4307L19.2287 25.2261C19.2149 25.2036 19.2006 25.1805 19.1875 25.1568C18.7596 24.4478 18.4688 23.6648 18.3303 22.8484C18.3109 22.7236 18.2922 22.6119 18.2828 22.489C18.2754 22.4229 18.2685 22.3574 18.2629 22.2912C18.2116 21.7174 18.2374 21.1394 18.3396 20.5724C18.5227 19.5056 18.964 18.4998 19.6248 17.6426C19.7166 17.5265 19.812 17.4124 19.91 17.3019C20.1521 17.0256 20.4169 16.7699 20.7017 16.5377C21.5573 15.8458 22.5684 15.3726 23.6477 15.1588L23.6752 15.1545L23.8174 15.1308L23.9878 15.1021C25.0789 14.9485 26.191 15.0653 27.2264 15.4421C27.7223 15.6207 28.1947 15.8586 28.6333 16.1508C30.0682 17.1011 31.0801 18.5694 31.4571 20.2486C31.4758 20.3621 31.5045 20.4757 31.5232 20.598C31.5777 20.9101 31.6092 21.2258 31.6174 21.5426C31.6274 22.0385 31.5837 22.5341 31.487 23.0206C31.485 23.0416 31.4812 23.0625 31.4758 23.083L31.4284 23.3288L31.6648 23.2527L31.7622 23.2196C31.8676 23.184 31.9687 23.1472 32.0741 23.111C32.3574 23.0168 32.6219 22.9133 32.8852 22.8091L33.0174 22.7617C33.9745 22.3642 34.7787 21.9394 35.4095 21.4951C36.3534 21.2306 37.5432 21.1364 39.0543 21.2025L39.043 21.2113C37.7778 22.1621 35.9117 23.0561 33.5016 23.8747L33.1335 23.9995H33.1372L33.4922 24.1392C33.5027 24.1427 33.5129 24.1469 33.5228 24.1517C34.21 24.4277 34.8814 24.7411 35.5342 25.0907L35.591 25.1187H35.6291C38.8677 24.0425 41.3421 22.8434 42.9755 21.5681C44.5146 20.369 45.3176 19.0726 45.355 17.7249C45.3623 17.4856 45.3465 17.2462 45.3076 17.0099ZM18.0726 25.1612H18.0651V25.1774L18.0838 25.1736L18.0726 25.1612ZM18.0015 25.1736L17.9684 25.1799L18.0015 25.1736ZM17.9896 25.4544H18.0027C18.0557 25.4544 18.1094 25.4581 18.1643 25.4588H18.2891C18.1786 25.4588 18.0682 25.4525 17.9653 25.4475C17.9376 25.4481 17.9099 25.447 17.8823 25.4444H17.8368L17.9896 25.4544ZM14.8271 24.7163L14.8539 24.9809C14.9387 24.9715 15.0142 24.9715 15.0991 24.9621C15.3206 24.9452 15.5429 24.9417 15.7648 24.9515C15.4667 24.8936 15.1723 24.818 14.8832 24.7251L14.8551 24.7151L14.8271 24.7163ZM14.882 24.7263L14.8539 24.7163H14.8271L14.8539 24.9809C14.9387 24.9715 15.0142 24.9715 15.0991 24.9621C15.3206 24.9452 15.5429 24.9417 15.7648 24.9515C15.4667 24.8936 15.1723 24.818 14.8832 24.7251L14.882 24.7263ZM17.9678 25.1786L17.999 25.1718L17.9678 25.1786ZM17.9678 25.1786L17.999 25.1718L17.9678 25.1786ZM14.8832 24.7251L14.8551 24.7151H14.8283L14.8551 24.9796C14.94 24.9703 15.0155 24.9703 15.1003 24.9609C15.3218 24.944 15.5441 24.9404 15.766 24.9503C15.4676 24.8927 15.1728 24.8175 14.8832 24.7251Z"/>
<path d="M17.9901 25.1532L17.9408 25.1606H17.9302C17.7568 25.155 17.5858 25.1475 17.4199 25.1369C17.2081 25.1245 17.0031 25.1078 16.8047 25.087C16.4753 25.0546 16.1646 25.0111 15.8726 24.9566C15.5315 24.896 15.1949 24.8126 14.865 24.7071L14.8363 24.6977H14.8082C14.6267 24.7177 14.4426 24.7439 14.2548 24.7769C13.299 24.9398 12.2509 25.2617 11.0106 25.7752C9.73094 25.2917 8.92549 24.5898 8.61166 23.687C8.59482 23.6377 8.5786 23.5878 8.56425 23.5366C8.5499 23.4855 8.54179 23.4493 8.53243 23.4056C8.51995 23.347 8.50997 23.2896 8.49874 23.2347C8.36647 22.4604 8.57423 21.6955 9.11203 20.9687L9.15009 20.9213C9.88629 19.958 11.209 19.0327 13.0975 18.1761C14.1184 17.7188 15.1642 17.3195 16.2301 16.9801C17.3955 16.6008 18.6733 16.2445 20.0284 15.9195C20.6311 15.776 21.1826 15.6487 21.683 15.5451C21.7073 15.5395 21.7316 15.5345 21.7566 15.5302C21.3192 15.7519 20.9074 16.0209 20.5287 16.3325C20.115 16.6627 19.7433 17.0424 19.4219 17.463C19.4163 17.4692 19.4107 17.4773 19.4051 17.4848C19.3146 17.6015 19.2285 17.7219 19.1474 17.8442C18.8072 18.3498 18.5357 18.8985 18.3401 19.4757C18.3201 19.5331 18.3014 19.5917 18.2821 19.6491C18.2627 19.7065 18.2471 19.7652 18.2303 19.8238C18.2228 19.8492 18.216 19.8754 18.2097 19.9024C18.2047 19.9211 18.1991 19.9399 18.1935 19.9592C18.1922 19.9679 18.1901 19.9765 18.1873 19.9848C18.1821 19.9993 18.178 20.0141 18.1748 20.0291C18.1642 20.0684 18.1548 20.1089 18.1454 20.1495C18.1435 20.1541 18.1423 20.1589 18.1417 20.1638C18.1422 20.1682 18.1411 20.1727 18.1386 20.1763C18.1311 20.2081 18.1249 20.2387 18.118 20.2718C18.1111 20.3048 18.1055 20.3292 18.0999 20.3585C18.0986 20.3684 18.0965 20.3782 18.0937 20.3878C18.0831 20.4359 18.0743 20.4839 18.0662 20.5319C18.0413 20.6711 18.0219 20.8115 18.0038 20.9525C17.9982 20.9986 17.9938 21.046 17.9901 21.0928C17.9845 21.1552 17.9795 21.2176 17.9757 21.28C17.9579 21.56 17.9568 21.8409 17.9726 22.121C17.9795 22.2333 17.9882 22.3456 18.0001 22.4585C18.0007 22.4795 18.003 22.5003 18.0069 22.5209C18.0182 22.6033 18.0307 22.6813 18.0419 22.7586C18.0411 22.7675 18.0428 22.7763 18.0469 22.7842C18.0523 22.8229 18.0579 22.861 18.0637 22.8984C18.0768 22.9826 18.0918 23.0668 18.1099 23.1479C18.1107 23.1562 18.1122 23.1643 18.1143 23.1723C18.1249 23.2191 18.1355 23.2652 18.1454 23.3102C18.1885 23.4905 18.2353 23.6608 18.2865 23.823C18.2996 23.8673 18.3139 23.911 18.3283 23.9547C18.3426 23.9983 18.3638 24.0582 18.3825 24.11C18.4012 24.1618 18.4206 24.2142 18.4412 24.266C18.4817 24.3689 18.5242 24.4719 18.5697 24.5736C18.5897 24.6172 18.6084 24.6609 18.629 24.7033C18.6496 24.7458 18.6695 24.7876 18.6914 24.8281C18.7479 24.9442 18.8091 25.0581 18.8748 25.17C18.9116 25.2355 18.9509 25.3004 18.9902 25.3665L19.032 25.4345H18.9827L18.6421 25.4508H18.6577C18.7382 25.4508 18.8168 25.4508 18.8941 25.4464H19.13L19.3758 25.437L19.2547 25.2324C19.2404 25.2099 19.226 25.1868 19.2123 25.1631C18.7847 24.4506 18.4944 23.6642 18.3563 22.8447C18.3376 22.72 18.3183 22.6083 18.3089 22.4854C18.3008 22.4136 18.2933 22.3419 18.2871 22.2701C18.2386 21.702 18.265 21.13 18.3657 20.5688C18.5492 19.503 18.9902 18.4981 19.6503 17.6414C19.7208 17.5516 19.7938 17.4636 19.868 17.3769C20.8482 16.2269 22.1902 15.4443 23.6738 15.1577V15.1533L23.6283 14.8888V14.8838C23.4923 14.9075 23.3275 14.9368 23.136 14.9718C22.4079 15.1059 21.2993 15.3249 19.9828 15.6393C17.2165 16.3007 14.8744 17.0656 13.0045 17.9153C11.1066 18.7838 9.74654 19.719 8.98164 20.7104L8.9442 20.7578C8.33029 21.5689 8.09445 22.4192 8.24544 23.2883C8.25479 23.347 8.26727 23.4025 8.28037 23.458C8.29348 23.5136 8.30658 23.5641 8.32093 23.619C8.33216 23.6583 8.34464 23.6982 8.35774 23.7375C8.66345 24.6734 9.43583 25.4102 10.6549 25.9324C10.6617 25.9362 10.6688 25.9393 10.6761 25.9418C10.7753 25.9842 10.8783 26.0247 10.9837 26.0665L11.0405 26.0853L11.0879 26.0665C11.2008 26.0191 11.3125 25.973 11.4217 25.9287L11.4398 25.9218C12.7375 25.4008 13.8106 25.1051 14.8138 24.9916H14.8269C14.9473 25.0296 15.0715 25.0646 15.2013 25.0976C15.0765 25.0633 14.9548 25.0284 14.8375 24.9916L14.8095 24.9853H14.8001C14.6217 24.9279 14.4514 24.8643 14.2923 24.7982C14.4744 24.767 14.6531 24.7416 14.8282 24.722L14.855 24.9866C14.9399 24.9772 15.0154 24.9772 15.1002 24.9679C15.3217 24.9509 15.544 24.9474 15.7659 24.9573C16.1546 25.0327 16.5469 25.0879 16.9413 25.1226C17.1054 25.1388 17.2751 25.1513 17.4492 25.1613C17.6232 25.1713 17.7892 25.1794 17.9645 25.185H17.9739L18.0051 25.1781L18.0413 25.1737L18.0687 25.1688V25.185L18.0874 25.1812V25.185H18.1891C18.3426 25.185 18.4955 25.1931 18.6421 25.1931H18.8754L18.8698 25.1837H18.6202C18.4755 25.1837 18.3245 25.1769 18.1717 25.175H18.1093L18.0818 25.1694H18.0643L17.9901 25.1532ZM18.002 25.4651L18.1598 25.4707H18.2846C18.1741 25.4707 18.0637 25.4645 17.9608 25.4595C17.9331 25.46 17.9054 25.459 17.8778 25.4564H17.8541L18.002 25.4651ZM17.9826 25.1638L18.0013 25.17L17.9826 25.1638ZM18.8623 25.19H18.6128C18.468 25.19 18.317 25.1831 18.1642 25.1812H18.1018L18.0743 25.1756H18.0556V25.1943L18.0743 25.1906V25.1943H18.1785C18.332 25.1943 18.4849 25.2024 18.6315 25.2024H18.8754L18.8623 25.19Z"/>
<path d="M31.4458 23.3358L31.4932 23.0906C31.5973 22.5844 31.6448 22.0682 31.6348 21.5515C31.6267 21.2348 31.5956 20.9191 31.5418 20.6069C31.5231 20.4821 31.4944 20.3711 31.4757 20.2575C31.0987 18.5783 30.0869 17.11 28.6519 16.1598C28.2133 15.8676 27.7409 15.6296 27.2451 15.451C26.2096 15.0742 25.0975 14.9575 24.0064 15.111L23.959 14.8377C24.601 14.7335 25.9424 14.5258 27.64 14.3654C29.5566 14.1783 32.371 14.0067 34.9015 14.2332H34.9203C37.0359 14.4203 38.6412 14.8658 39.708 15.5552L39.7555 15.5833C40.5959 16.1404 41.0962 16.8485 41.2378 17.7083C41.2593 17.8331 41.272 17.9592 41.2759 18.0857C41.3133 19.1719 40.7281 20.2294 39.529 21.2115L39.4822 21.2495H39.4254C37.7446 21.1453 36.4307 21.2302 35.4119 21.5228C34.7793 21.967 33.9769 22.3919 33.0136 22.7887L32.8813 22.8355C32.6168 22.9397 32.3529 23.0432 32.0703 23.1381C31.9386 23.1848 31.8064 23.2323 31.6647 23.2797L31.4458 23.3358ZM25.9218 14.8184C26.4014 14.8868 26.8728 15.0039 27.3287 15.1678C27.8486 15.3562 28.3435 15.6076 28.8023 15.9164C29.7344 16.538 30.5045 17.3733 31.0483 18.3528C31.3693 18.9293 31.6047 19.5495 31.7471 20.1939C31.7752 20.3187 31.7945 20.4397 31.8226 20.5626C31.8768 20.8865 31.9081 21.2138 31.9162 21.5421C31.927 22.0003 31.8954 22.4586 31.822 22.911L31.9917 22.8548C32.2656 22.76 32.5395 22.6564 32.7946 22.5522L32.9269 22.5054C33.8802 22.118 34.6738 21.6944 35.2877 21.2576L35.3158 21.2383L35.3439 21.2289C36.3827 20.927 37.6766 20.8421 39.4048 20.9457C40.4998 20.0298 41.0382 19.0665 41.0008 18.0845C40.9968 17.9672 40.9841 17.8504 40.9627 17.7351C40.8304 16.9702 40.3868 16.3282 39.6407 15.8185L39.6032 15.7898C38.5832 15.1197 37.0059 14.6849 34.919 14.4871H34.9003C32.3885 14.26 29.5841 14.4303 27.6668 14.6187C27.0267 14.6861 26.4415 14.7522 25.9218 14.8184Z"/>
<path d="M18.0831 25.1682V25.1739L18.1105 25.1682H18.0831ZM18.8704 25.1776H18.6209C18.4761 25.1776 18.3252 25.1707 18.1723 25.1689L18.1867 25.1788C18.3401 25.1788 18.493 25.187 18.6396 25.187H18.8761L18.8704 25.1776ZM18.0095 25.1576L17.9471 25.167H17.9402C17.7668 25.1614 17.5977 25.1539 17.4324 25.1433C17.2421 25.1327 17.058 25.119 16.879 25.1009C16.4951 25.0647 16.1365 25.0143 15.8034 24.9499C15.4867 24.8912 15.1741 24.8122 14.8675 24.7134L14.8388 24.7041H14.8307L14.8107 24.6972C13.8256 24.3697 13.1574 23.8712 12.8211 23.2098C12.7881 23.1471 12.7587 23.0825 12.7332 23.0164C12.7201 22.9834 12.707 22.9497 12.6945 22.9147C12.6534 22.7971 12.6221 22.6763 12.6009 22.5535C12.516 22.1005 12.667 21.6376 13.0451 21.1653C13.309 20.8303 13.6871 20.4934 14.1731 20.154C14.7397 19.7696 15.3347 19.429 15.9531 19.1351C16.983 18.6413 18.0426 18.2116 19.1256 17.8487L19.1462 17.8412C19.0302 18.014 18.9216 18.1912 18.8224 18.3734C18.7887 18.4358 18.7556 18.4981 18.7245 18.5605C18.6976 18.6092 18.6733 18.6597 18.6496 18.7103C18.6259 18.7608 18.6084 18.7951 18.5872 18.8388C18.4935 19.0454 18.4102 19.2565 18.3376 19.4714V19.4752C18.3177 19.5326 18.299 19.5912 18.2796 19.6486C18.2603 19.706 18.2447 19.7647 18.2278 19.8233C18.2154 19.8676 18.2023 19.9131 18.191 19.9587C18.1898 19.9674 18.1877 19.976 18.1848 19.9843C18.1797 19.9988 18.1755 20.0136 18.1723 20.0286C18.1617 20.0679 18.1523 20.1084 18.143 20.149C18.1411 20.1536 18.1398 20.1584 18.1392 20.1633C18.1397 20.1677 18.1386 20.1722 18.1361 20.1758C18.1286 20.2076 18.1224 20.2382 18.1155 20.2713C18.1087 20.3043 18.0987 20.3486 18.0912 20.3873C18.0837 20.426 18.0719 20.4834 18.0637 20.5314C18.0388 20.6706 18.0194 20.8109 18.0014 20.9519C17.9957 20.9981 17.9914 21.0455 17.9876 21.0923C17.982 21.1547 17.977 21.2171 17.9733 21.2795C17.9564 21.5596 17.9564 21.8404 17.9733 22.1205C17.9801 22.2328 17.9889 22.3451 18.0007 22.458C18.0014 22.479 18.0037 22.4998 18.0076 22.5204C18.0188 22.6028 18.0313 22.6808 18.0425 22.7581C18.0417 22.767 18.0434 22.7758 18.0475 22.7837C18.0529 22.8224 18.0585 22.8604 18.0644 22.8979C18.0775 22.9821 18.0924 23.0663 18.1105 23.1474C18.1114 23.1556 18.1128 23.1638 18.1149 23.1718C18.1255 23.2186 18.1361 23.2647 18.1461 23.3096C18.1891 23.49 18.2359 23.6603 18.2871 23.8225C18.3002 23.8668 18.3146 23.9105 18.3289 23.9541C18.3433 23.9978 18.3645 24.0577 18.3832 24.1095C18.4019 24.1613 18.4212 24.2137 18.4418 24.2655C18.4824 24.3684 18.5248 24.4713 18.5704 24.573C18.5903 24.6167 18.609 24.6604 18.6296 24.7028C18.6502 24.7452 18.6702 24.787 18.692 24.8276C18.749 24.9436 18.8101 25.0576 18.8754 25.1695C18.9122 25.2319 18.9516 25.2999 18.9909 25.366L19.0327 25.434H18.9834L18.6427 25.4502H18.6583C18.7388 25.4502 18.8174 25.4502 18.8948 25.4459H18.9871C18.9889 25.4453 18.9909 25.4453 18.9927 25.4459H19.1256L19.3714 25.4365V25.4334L19.2598 25.2381C19.2429 25.2119 19.2267 25.1851 19.2117 25.1589C18.9672 24.7518 18.768 24.3192 18.6178 23.8687C18.5048 23.5364 18.4195 23.1955 18.3626 22.8492C18.3439 22.7244 18.3252 22.6128 18.3152 22.4905C18.2398 21.8521 18.2589 21.2061 18.372 20.5732C18.5555 19.5074 18.9964 18.5026 19.6566 17.6459L19.8649 17.372L19.9273 17.2872L19.9005 17.2959L19.4981 17.4332L19.4313 17.4556L19.4207 17.4587L19.3983 17.4662C18.7328 17.6871 18.1089 17.9121 17.5266 18.1413C16.9164 18.3821 16.3549 18.6277 15.842 18.8781C14.4071 19.5675 13.387 20.2756 12.8299 20.9838C12.405 21.5222 12.2347 22.0693 12.3307 22.5984C12.3508 22.7038 12.3768 22.8079 12.4087 22.9104C12.4293 22.9807 12.4537 23.0498 12.4817 23.1175C12.493 23.1456 12.5054 23.1736 12.5173 23.2023C12.8149 23.8743 13.3945 24.4002 14.2511 24.7733L14.2642 24.7789L14.286 24.7889C14.4682 24.7577 14.6469 24.7323 14.822 24.7128L14.8488 24.9773C14.9336 24.968 15.0091 24.968 15.094 24.9586C15.3155 24.9417 15.5378 24.9381 15.7597 24.948C16.1473 25.0234 16.5386 25.0786 16.932 25.1133C17.0961 25.1296 17.2658 25.142 17.4398 25.152C17.6139 25.162 17.7799 25.1701 17.9552 25.1757H17.9645L17.9957 25.1689L18.0319 25.1645L18.0594 25.1595L18.0095 25.1576ZM18.8704 25.1851L18.8648 25.1757H18.6153C18.4705 25.1757 18.3195 25.1689 18.1667 25.167L18.181 25.177C18.3345 25.177 18.4874 25.1851 18.634 25.1851H18.8704ZM18.0775 25.172L18.1049 25.1664H18.0775V25.172ZM18.0026 25.4527H18.0063L18.1642 25.4584H18.289C18.1785 25.4584 18.0681 25.4521 17.9652 25.4471C17.9375 25.4477 17.9098 25.4466 17.8822 25.444H17.8585L18.0026 25.4527ZM18.8667 25.1776H18.6171C18.4724 25.1776 18.3214 25.1707 18.1686 25.1689H18.065V25.1782L18.0837 25.1745V25.1782H18.1898C18.3433 25.1782 18.4961 25.1863 18.6427 25.1863H18.8761L18.8667 25.1776Z"/>
<path d="M31.4445 23.3359L31.4919 23.0907C31.5961 22.5845 31.6436 22.0683 31.6336 21.5515C31.6254 21.2349 31.5943 20.9192 31.5406 20.607C31.5219 20.4822 31.4932 20.3711 31.4745 20.2576C31.0975 18.5784 30.0856 17.11 28.6507 16.1598L28.2764 15.9046L28.7293 15.8953C30.0128 15.8748 31.2964 15.9314 32.5732 16.065C34.1591 16.2522 35.3489 16.5747 36.1238 17.047C36.7277 17.4057 37.0771 17.8581 37.1619 18.3878C37.1902 18.5689 37.1998 18.7524 37.1906 18.9355C37.1432 19.8514 36.558 20.7112 35.4531 21.4935L35.425 21.5122C34.8011 21.9565 33.99 22.372 33.0355 22.7681L32.9032 22.8156C32.6393 22.9198 32.3748 23.0233 32.0921 23.1175C31.9599 23.1649 31.8276 23.2124 31.686 23.2592L31.4445 23.3359ZM29.1598 16.1686C29.9347 16.7568 30.5779 17.5006 31.0483 18.3522C31.3693 18.9288 31.6047 19.549 31.7471 20.1933C31.7752 20.3181 31.7945 20.4391 31.8226 20.562C31.8764 20.8862 31.9073 21.2137 31.9149 21.5422C31.9257 22.0004 31.8942 22.4586 31.8207 22.911L31.9904 22.8549C32.2643 22.76 32.5382 22.6565 32.7934 22.5523L32.9257 22.5055C33.879 22.118 34.6726 21.6944 35.2865 21.2577L35.3146 21.2384C36.3253 20.5115 36.8631 19.7279 36.9011 18.9156C36.9106 18.7545 36.901 18.5928 36.8724 18.4339C36.7969 17.9903 36.4981 17.6123 35.9659 17.2916C35.2297 16.8474 34.0774 16.536 32.5289 16.347C31.41 16.2252 30.2853 16.1656 29.1598 16.1686Z"/>
<path d="M18.8709 25.1778H18.6213C18.4766 25.1778 18.3256 25.1709 18.1727 25.1691L18.1871 25.179C18.3406 25.179 18.4934 25.1872 18.64 25.1872H18.8765L18.8709 25.1778ZM19.3756 25.4392L19.2639 25.2439C19.2471 25.2177 19.2309 25.1909 19.2159 25.1647C18.9713 24.7576 18.7722 24.325 18.6219 23.8745C18.509 23.5423 18.4236 23.2013 18.3668 22.855C18.3481 22.7302 18.3293 22.6186 18.3194 22.4963L18.2913 22.2692H18.2882L18.262 22.2866L18.1022 22.3902C18.0685 22.4127 18.0342 22.4345 18.0012 22.4576L17.9956 22.4613C17.7527 22.6247 17.5254 22.8101 17.3167 23.0154C16.9655 23.3666 16.7945 23.7179 16.8052 24.0529V24.1016C16.807 24.1815 16.8196 24.2608 16.8426 24.3374C16.8494 24.363 16.8582 24.3886 16.8663 24.4141C16.9259 24.5852 17.0188 24.7427 17.1396 24.8777C17.2232 24.9725 17.3162 25.0587 17.4172 25.1347C17.421 25.1386 17.4255 25.1417 17.4303 25.1441L17.4415 25.1535C17.6094 25.1641 17.7816 25.1716 17.9569 25.1772H17.9644L17.9456 25.1672L17.9275 25.1591C17.9221 25.1554 17.9162 25.1522 17.9101 25.1497L17.872 25.121H17.8627C17.8346 25.106 17.8071 25.0898 17.7797 25.073C17.5808 24.9622 17.4066 24.8121 17.2675 24.6319C17.1886 24.527 17.1309 24.4076 17.0978 24.2806C17.094 24.2563 17.089 24.2288 17.0853 24.2014C17.0815 24.1739 17.0753 24.129 17.0697 24.0916C17.041 23.8277 17.1945 23.5344 17.4946 23.2231C17.6611 23.0549 17.8421 22.9016 18.0355 22.7652C18.0342 22.7743 18.0342 22.7835 18.0355 22.7926C18.0349 22.8003 18.0349 22.808 18.0355 22.8157V22.8238L18.0411 22.8619C18.0405 22.865 18.0405 22.8682 18.0411 22.8712C18.0424 22.8833 18.0447 22.8952 18.048 22.9068C18.0611 22.991 18.076 23.0753 18.0941 23.1564C18.095 23.1646 18.0964 23.1727 18.0985 23.1807C18.1091 23.2275 18.1197 23.2737 18.1297 23.3186C18.1727 23.4989 18.2195 23.6692 18.2707 23.8314C18.2838 23.8757 18.2981 23.9194 18.3125 23.9631C18.3268 24.0067 18.3481 24.0666 18.3668 24.1184C18.3855 24.1702 18.4048 24.2226 18.4254 24.2744C18.466 24.3773 18.5084 24.4803 18.5539 24.582C18.5739 24.6256 18.5926 24.6693 18.6132 24.7117C18.6338 24.7542 18.6538 24.796 18.6756 24.8365C18.7326 24.9526 18.7937 25.0665 18.859 25.1784C18.8958 25.2408 18.9351 25.3088 18.9744 25.3749L19.0162 25.4429H18.967L18.6263 25.4592H18.6419C18.7224 25.4592 18.801 25.4592 18.8784 25.4548H19.1142L19.36 25.4454L19.3756 25.4392ZM18.8765 25.1896L18.8709 25.1803H18.6213C18.4766 25.1803 18.3256 25.1734 18.1727 25.1716L18.1871 25.1815C18.3406 25.1815 18.4934 25.1896 18.64 25.1896H18.8765ZM18.8709 25.1803H18.6213C18.4766 25.1803 18.3256 25.1734 18.1727 25.1716H18.1103L18.0829 25.1772V25.1809H18.1902C18.3437 25.1809 18.4965 25.189 18.6432 25.189H18.8765L18.8709 25.1803Z"/>
<path d="M31.4452 23.3361L31.4926 23.0909C31.5968 22.5847 31.6443 22.0685 31.6342 21.5517C31.6261 21.2351 31.595 20.9194 31.5413 20.6072C31.5226 20.4824 31.4939 20.3713 31.4752 20.2578L31.4277 20.0313L31.6542 20.0881C31.9584 20.1598 32.2549 20.261 32.5395 20.39C33.0499 20.6265 33.3506 20.9285 33.4367 21.2779C33.446 21.3253 33.4554 21.3721 33.4648 21.4288C33.5309 21.8918 33.3612 22.3447 32.9457 22.779L32.927 22.7983L32.8983 22.8076C32.6344 22.9112 32.3698 23.0154 32.0872 23.1096C31.9549 23.157 31.8227 23.2044 31.681 23.2512L31.4452 23.3361ZM31.7952 20.4187L31.8233 20.5604C31.8771 20.8851 31.9079 21.2133 31.9156 21.5424C31.9264 22.0006 31.8949 22.4588 31.8214 22.9112L31.9911 22.8551C32.2556 22.7602 32.5108 22.6679 32.7654 22.5618C33.096 22.1937 33.2377 21.8256 33.1909 21.4669C33.1809 21.4288 33.1809 21.3914 33.1715 21.3421C33.1054 21.0776 32.8508 20.843 32.4229 20.6433C32.2194 20.5532 32.0096 20.4781 31.7952 20.4187Z"/>
<path d="M37.3289 25.9802C36.904 25.8011 36.3931 25.5366 35.8559 25.2627L35.5439 25.1024L35.6762 24.8566L35.9882 25.0175C36.526 25.2914 37.027 25.5553 37.4425 25.7256L37.3289 25.9802Z"/>
<path d="M33.0615 22.7415L32.8818 22.5244C33.58 21.9546 34.3816 21.525 35.2427 21.2591C35.2715 21.2512 35.2998 21.2416 35.3275 21.2304L35.3937 21.5043C35.3749 21.5137 35.3462 21.5137 35.3275 21.523C34.5017 21.7817 33.7327 22.1952 33.0615 22.7415Z"/>
<path d="M32.145 23.0723L31.916 22.902C32.3977 22.2781 32.8132 21.7877 33.21 21.3535C34.4185 20.0433 35.6082 19.2291 36.959 18.7955L36.9871 18.7861C38.1394 18.418 39.4895 18.1348 41.1135 17.9364C42.4861 17.7667 43.8805 17.6625 45.2213 17.5683L45.3629 17.5589C46.7355 17.4641 48.0163 17.3718 49.2442 17.2095L49.2816 17.4928C48.045 17.6531 46.7511 17.7473 45.3816 17.8422L45.24 17.8515C43.8992 17.9457 42.5111 18.0499 41.1422 18.2196C39.5369 18.418 38.1955 18.6919 37.0625 19.06L37.0345 19.0694C35.7405 19.4849 34.5888 20.2785 33.4084 21.5531C33.0322 21.9674 32.626 22.4584 32.145 23.0723Z"/>
<path d="M31.8888 21.6271L31.6523 21.4761C31.9075 21.0793 32.134 20.7393 32.3517 20.4373C33.4847 18.8601 34.6084 17.7932 35.9117 17.0757L35.9304 17.0664C35.9471 17.0584 35.963 17.0488 35.9778 17.0377C36.9692 16.4899 38.1683 16.0083 39.6226 15.5459H39.632C40.8692 15.1585 42.1058 14.8472 43.5888 14.4785L43.6736 14.4597C44.8915 14.1578 46.0444 13.8745 47.1394 13.5439L47.2242 13.8084C46.1287 14.1391 44.9676 14.4323 43.7491 14.7336L43.6643 14.7523C42.1819 15.1211 40.9447 15.4324 39.7075 15.8198H39.6981C38.2632 16.2728 37.0821 16.7557 36.1001 17.2929C36.0814 17.3022 36.072 17.3116 36.0627 17.3116L36.0433 17.3209C34.7874 18.0197 33.6831 19.0585 32.5782 20.607C32.3705 20.9002 32.144 21.2396 31.8888 21.6271Z"/>
<path d="M31.0495 18.4827L30.8037 18.3411C31.2213 17.5893 31.7253 16.8889 32.3054 16.2541C32.3529 16.2067 32.3996 16.15 32.4471 16.1032C33.061 15.4705 33.8446 14.8554 34.8266 14.2315L34.8547 14.2128C35.7144 13.6668 36.6397 13.174 37.5842 12.6748L37.7259 12.5987C38.4908 12.1932 39.2176 11.8151 39.8883 11.4283L40.0299 11.6735C39.3499 12.0703 38.6224 12.4477 37.8575 12.8539L37.7184 12.93C36.7651 13.4291 35.8392 13.9214 34.9801 14.4692L34.952 14.4885C33.9887 15.0925 33.2332 15.6877 32.6386 16.3016L32.497 16.4432C31.948 17.0733 31.4631 17.7565 31.0495 18.4827Z"/>
<path d="M27.413 15.3576L27.1484 15.254C27.252 14.9988 27.3749 14.7437 27.5228 14.423C27.778 13.9033 28.0612 13.3842 28.3257 12.9025L28.4199 12.7416C28.6564 12.3048 28.911 11.8638 29.1281 11.4314L29.3832 11.5562C29.1661 11.9929 28.911 12.444 28.6751 12.8782L28.5803 13.0392C28.3164 13.5208 28.0331 14.0305 27.778 14.5496C27.6301 14.8585 27.5072 15.1111 27.413 15.3576Z"/>
<path d="M20.5201 16.5279C20.3329 16.3108 20.1233 16.1031 19.8962 15.876C19.5088 15.4891 19.1026 15.1304 18.6484 14.7242L18.5236 14.62C18.1268 14.2613 17.7494 13.9338 17.3906 13.5819L17.589 13.3835C17.9384 13.7235 18.3159 14.0629 18.712 14.4123L18.8368 14.5165C19.2898 14.9226 19.6959 15.2907 20.0927 15.6782C20.3192 15.9047 20.5295 16.1218 20.7254 16.3389L20.5201 16.5279Z"/>
<path d="M35.4098 21.4947C34.7772 21.9389 33.9749 22.3638 33.011 22.76L32.8787 22.8074C32.6148 22.9116 32.3502 23.0152 32.0676 23.1094C31.9653 23.1456 31.8642 23.1824 31.7557 23.2179C31.7232 23.2298 31.6933 23.2398 31.6583 23.251L31.4219 23.3271L31.4693 23.0813C31.473 23.0607 31.478 23.0407 31.4805 23.0189C31.1898 23.115 30.8747 23.2111 30.5347 23.3159C29.9301 23.4956 29.2788 23.6653 28.5607 23.8356C27.8526 24.0053 27.097 24.1662 26.3228 24.3079C25.9734 24.374 25.6614 24.4306 25.3869 24.4776C25.1224 24.5156 24.8017 24.5718 24.4423 24.6286C23.6313 24.7608 22.9032 24.865 22.2138 24.9405C21.4776 25.0254 20.7788 25.0915 20.1175 25.1277C19.8161 25.1451 19.5067 25.1545 19.2103 25.162H19.1791C19.1922 25.1857 19.2066 25.2088 19.2203 25.2312L19.3507 25.4359H19.3757C19.5522 25.4315 19.7269 25.424 19.8997 25.4153L20.1618 25.4009C20.8231 25.3635 21.5312 25.2974 22.2668 25.2138C22.9562 25.1383 23.6831 25.0341 24.5047 24.9018C24.657 24.8819 24.8025 24.8611 24.9415 24.8394L25.1792 24.8001L25.2653 24.7845L25.4524 24.7527C25.7263 24.7053 26.047 24.6485 26.3964 24.583C27.1806 24.4414 27.9355 24.2804 28.6536 24.1107C28.9737 24.0359 29.2775 23.9597 29.5733 23.8811L29.5895 23.8774C29.9576 23.7801 30.307 23.6809 30.6458 23.5817C31.0145 23.4781 31.3539 23.3645 31.6752 23.261L31.7594 23.2316C31.8698 23.1948 31.9753 23.1568 32.0813 23.1193C32.3646 23.0245 32.6291 22.9209 32.8924 22.8168L33.0247 22.77C33.988 22.3732 34.7909 21.9483 35.4236 21.5041C36.3632 21.2408 37.5448 21.1466 39.0478 21.2108L39.059 21.2021C37.5454 21.136 36.3557 21.2302 35.4098 21.4947ZM18.0099 25.1576L17.9476 25.167H17.9407C17.7673 25.1614 17.5982 25.1539 17.4328 25.1433C17.2426 25.1327 17.0585 25.1189 16.8794 25.1008C16.4955 25.0647 16.137 25.0143 15.8038 24.9499C15.4872 24.8912 15.1746 24.8122 14.868 24.7134L14.8393 24.704H14.8112C14.6347 24.724 14.455 24.7483 14.2722 24.7795C13.3014 24.9424 12.2327 25.2668 10.9693 25.7996L10.6573 25.9319L10.6367 25.9412L10.6586 25.95L10.9705 26.0641C12.5302 26.6494 14.7382 26.9326 17.5426 26.8952H17.5957C18.4117 26.8852 19.2908 26.8484 20.1961 26.7829L20.3571 26.7735C20.4132 26.7642 20.4818 26.7642 20.5442 26.7548L20.6197 26.7454C20.9978 26.7167 21.3684 26.6887 21.7246 26.6506C21.9418 26.6319 22.1495 26.6038 22.3485 26.5845L22.7547 26.5377C22.9344 26.5183 23.1134 26.4903 23.2838 26.4716L23.3306 26.4616C23.897 26.3959 24.4448 26.3204 24.9739 26.2351C25.2571 26.1977 25.493 26.1596 25.6914 26.1222C25.8898 26.0847 26.135 26.0467 26.3714 25.9899C26.9286 25.8857 27.4764 25.7728 28.0241 25.6499C28.2113 25.6118 28.4016 25.5744 28.6 25.5251L28.9868 25.4309C29.1665 25.3835 29.3462 25.3454 29.5346 25.2986C29.8746 25.2231 30.2209 25.1283 30.5827 25.0341L30.7999 24.9773C30.8853 24.9586 30.9608 24.9305 31.0457 24.9112L31.0737 24.9018C31.9297 24.6604 32.7583 24.4089 33.5313 24.1494C33.5431 24.1444 33.555 24.1407 33.5668 24.1369H33.5762C36.2296 23.2398 38.2224 22.2484 39.5157 21.1909L39.7709 20.98L39.7896 20.9644L39.4309 20.9451C37.6746 20.8321 36.3619 20.9263 35.3131 21.2283L35.2851 21.2383L35.2564 21.257C34.6431 21.6937 33.8495 22.1161 32.8955 22.5048L32.7639 22.5516C32.5087 22.6558 32.2348 22.7594 31.9609 22.8542L31.8361 22.8991H31.8324C31.7432 22.9303 31.6558 22.9615 31.5666 22.9939L31.493 23.0177C31.2023 23.1137 30.8872 23.2098 30.5472 23.3146C29.9426 23.4943 29.2913 23.664 28.5732 23.8343C27.865 24.004 27.1095 24.165 26.3352 24.3066C25.9859 24.3728 25.6739 24.4293 25.3994 24.4763C25.1349 24.5144 24.8142 24.5705 24.4548 24.6273C23.6437 24.7596 22.9157 24.8638 22.2262 24.9393C21.4901 25.0241 20.7913 25.0902 20.13 25.1264C19.8286 25.1439 19.5192 25.1533 19.2228 25.1607H19.1885L19.1074 25.1639C19.03 25.1689 18.9552 25.1707 18.8797 25.1726H18.627C18.4822 25.1726 18.3313 25.1657 18.1784 25.1639H18.0655V25.1732L18.0842 25.1695V25.1732H18.1903C18.3437 25.1732 18.4966 25.1813 18.6432 25.1813H18.8765L18.8709 25.172H18.8765C18.9134 25.2375 18.9527 25.3024 18.992 25.3685L19.0338 25.4365H19.1136C19.1947 25.4365 19.2752 25.4365 19.3563 25.4334H19.3757C19.5522 25.429 19.7269 25.4215 19.8997 25.4128L20.1618 25.3984C20.8231 25.361 21.5312 25.2949 22.2668 25.2113C22.9562 25.1358 23.6831 25.0316 24.5047 24.8993C24.657 24.8794 24.8025 24.8586 24.9415 24.8369L25.1792 24.7976L25.2653 24.782L25.4524 24.7502C25.7263 24.7028 26.047 24.646 26.3964 24.5805C27.1806 24.4389 27.9355 24.2779 28.6536 24.1082C28.9737 24.0334 29.2775 23.9572 29.5733 23.8786L29.5895 23.8749C29.9576 23.7776 30.307 23.6784 30.6458 23.5792C31.0145 23.4756 31.3539 23.362 31.6752 23.2585L31.7594 23.2292C31.8698 23.1923 31.9753 23.1543 32.0813 23.1169C32.3646 23.022 32.6291 22.9185 32.8924 22.8143L33.0247 22.7675C33.988 22.3707 34.7909 21.9458 35.4236 21.5016C36.3632 21.2383 37.5448 21.1441 39.0478 21.2083H39.0684C37.8031 22.1623 35.9426 23.0501 33.5257 23.8711H33.5157L33.1413 23.9959C32.4688 24.2162 31.7638 24.4277 31.0319 24.6267L31.0032 24.636C30.9184 24.6554 30.8429 24.6835 30.7581 24.7022L30.4935 24.7683C30.1535 24.8631 29.8135 24.948 29.4953 25.0235C29.3081 25.0709 29.1266 25.1083 28.9475 25.1558L28.5601 25.25C28.3617 25.288 28.1732 25.3348 27.9842 25.3747C27.4364 25.4883 26.8886 25.6012 26.3409 25.7054C26.0769 25.7522 25.8417 25.7903 25.6327 25.8302C25.4237 25.8701 25.196 25.9063 24.9246 25.9437C24.4055 26.0192 23.8484 26.1041 23.2912 26.1702L23.2438 26.1796C23.0741 26.2083 22.8944 26.227 22.7148 26.2457L22.3092 26.2931C22.1108 26.3212 21.9031 26.3405 21.6953 26.3593C21.3366 26.3873 20.9678 26.4254 20.5997 26.4535L20.5336 26.4628C20.4675 26.4728 20.4088 26.4728 20.3464 26.4822L20.1861 26.4915C19.3663 26.5502 18.5764 26.5857 17.829 26.6001L17.542 26.6051H17.4759C14.9597 26.6294 12.9314 26.4048 11.4447 25.9219L11.4309 25.9182H11.4228C12.7274 25.3928 13.798 25.1002 14.8131 24.9861H14.8037C14.6253 24.9287 14.455 24.865 14.2959 24.7989C14.4781 24.7677 14.6567 24.7423 14.8318 24.7228L14.8586 24.9873C14.9435 24.9779 15.019 24.9779 15.1038 24.9686C15.3253 24.9516 15.5476 24.9481 15.7695 24.958C16.1574 25.0334 16.5489 25.0886 16.9425 25.1233C17.1065 25.1395 17.2762 25.152 17.4503 25.162C17.6244 25.172 17.7903 25.1801 17.9656 25.1857H17.975L18.0062 25.1788L18.0424 25.1745L18.0698 25.1695"/>
<path d="M18.1221 20.6544C17.4919 20.1055 16.8011 19.6303 16.0632 19.2381L15.8367 19.1246C15.0431 18.7371 14.1179 18.4352 13.0129 18.18C12.0497 17.9535 11.0396 17.8025 10.0101 17.6422L9.84043 17.6135C8.9807 17.4812 8.16901 17.3589 7.38477 17.208L7.44154 16.9341C8.22516 17.085 9.03747 17.208 9.88722 17.3396L10.0575 17.3683C11.0963 17.5286 12.1064 17.6802 13.0791 17.9067C14.2121 18.1613 15.1473 18.4826 15.959 18.8694L16.1861 18.9829C16.9461 19.3824 17.656 19.8706 18.3011 20.4372L18.1221 20.6544Z"/>
<path d="M18.3852 24.016C18.0078 23.7234 17.6584 23.4588 17.3184 23.223C15.7792 22.1462 14.4097 21.5042 13.0029 21.2209L12.9086 21.2022C11.8318 20.9944 10.5759 20.919 9.05545 20.9757H9.04609C7.67664 21.0225 6.25103 21.1629 4.99513 21.2877H4.96705C3.66373 21.4199 2.4359 21.5429 1.29354 21.5896L1.28418 21.3064C2.41718 21.2596 3.64501 21.1367 4.93835 21.0044H4.96705C6.22296 20.8796 7.64981 20.7399 9.02738 20.6925H9.03674C10.5759 20.6357 11.8605 20.7112 12.9554 20.9283L13.0503 20.947C14.4946 21.2396 15.9015 21.8916 17.4693 22.9965C17.8094 23.2417 18.1681 23.4957 18.5456 23.7989L18.3852 24.016Z"/>
<path d="M18.7254 25.1869H18.6405C18.4939 25.1869 18.3411 25.1807 18.1876 25.1788L18.1732 25.1688C17.8488 24.9642 17.5531 24.7882 17.2723 24.6316C17.1476 24.5617 17.0228 24.495 16.9042 24.4314L16.8712 24.4145C15.4131 23.6409 14.126 23.2584 12.8158 23.2091C12.7534 23.2091 12.6942 23.2054 12.6336 23.2048H12.5182C11.4039 23.2048 10.1281 23.3651 8.61075 23.6852C8.56334 23.6945 8.51655 23.7039 8.46913 23.7145C8.4317 23.7232 8.39301 23.7307 8.35496 23.7388C7.08033 24.0165 5.79323 24.3721 4.63902 24.6921L4.48429 24.7346L4.34516 24.7714C3.00441 25.1495 1.73914 25.4988 0.558728 25.744L0.501953 25.4701C1.66677 25.2256 2.9258 24.8793 4.25096 24.5031L4.26967 24.4975L4.4113 24.4601L4.54169 24.4239C5.69902 24.1032 6.99923 23.7463 8.28009 23.4587L8.40487 23.4306L8.53339 23.4032C10.0351 23.0812 11.306 22.9196 12.4115 22.9122H12.6923C14.0349 22.9409 15.3476 23.3027 16.81 24.0514C16.8824 24.0882 16.9554 24.1275 17.029 24.1662C17.0496 24.1774 17.0702 24.1874 17.0914 24.1999C17.5706 24.4557 18.0953 24.7733 18.7135 25.1763L18.7254 25.1869Z"/>
<path d="M18.0371 25.1666L18.0009 25.171L17.9697 25.1778H17.9604C17.785 25.1722 17.6129 25.1647 17.445 25.1541C17.2772 25.1435 17.1013 25.1317 16.9372 25.1155L16.8804 25.1024C16.8554 25.0955 16.8311 25.0911 16.8055 25.0855C16.4988 25.0175 16.1871 24.9739 15.8734 24.9551C15.8516 24.9551 15.8291 24.952 15.8073 24.9514H15.7705C15.5486 24.9415 15.3263 24.945 15.1048 24.962C15.0199 24.9713 14.9444 24.9713 14.8596 24.9807L14.8271 24.7162V24.6974C14.9118 24.6868 14.997 24.6806 15.0823 24.6787C15.7762 24.6308 16.4733 24.6987 17.1449 24.8796C17.3554 24.9341 17.5688 24.999 17.785 25.0743C17.8125 25.0836 17.8406 25.093 17.868 25.1036H17.8867L17.9154 25.1223L17.9928 25.1529L18.0115 25.1591C18.0195 25.162 18.0276 25.1643 18.0359 25.166L18.0371 25.1666Z"/>
<path d="M5.38251 28.7192L5.27832 28.464C6.08939 28.124 6.94038 27.7085 7.8363 27.2649L7.90244 27.2362C8.90067 26.7452 9.9326 26.238 10.9714 25.8012L11.075 26.0558C10.0455 26.4925 9.01609 26.9916 8.02534 27.482L7.95921 27.5195C7.05393 27.9637 6.20356 28.3792 5.38251 28.7192Z"/>
<path d="M25.921 27.4914C25.7887 27.5101 25.6471 27.5388 25.4961 27.5575C25.2129 27.6049 24.8916 27.6517 24.5422 27.7085L24.4573 27.7178C24.3157 27.7372 24.1741 27.7559 24.0206 27.7746C23.8671 27.7933 23.7087 27.822 23.539 27.8407H23.5109C23.2557 27.8788 22.9818 27.9069 22.7079 27.9449H22.6817L22.3323 27.9824C20.2163 28.2355 18.0888 28.3812 15.958 28.4191L15.6279 28.4284L15.8544 28.1833C16.3535 27.6542 16.9026 27.0971 17.4503 26.6235L17.4878 26.5855H17.5352C18.471 26.5761 19.4805 26.5287 20.5299 26.4438L20.6054 26.4345C20.9797 26.4058 21.3541 26.3683 21.701 26.3403C21.9181 26.3209 22.1377 26.2928 22.3429 26.2741L22.7204 26.2267C22.9001 26.208 23.0698 26.1887 23.2308 26.1606L23.2869 26.1512C23.854 26.0851 24.4012 26.0002 24.9209 25.9247C25.1946 25.8865 25.4306 25.8486 25.629 25.8112C25.8368 25.7731 26.0726 25.7357 26.3371 25.6864C26.8849 25.5828 27.4327 25.4693 27.9805 25.3558C28.1677 25.3183 28.3579 25.2709 28.5563 25.231L28.9812 25.1268C29.1515 25.0893 29.3212 25.0513 29.4909 25.002C29.8125 24.9267 30.1431 24.8419 30.4829 24.7475L30.7469 24.6813C31.7101 24.4168 32.636 24.1429 33.492 23.8503L33.5488 23.8409L33.5862 23.8503C34.2862 24.1298 34.9956 24.4885 35.6588 24.8286L35.9608 24.9795L35.6401 25.0837C33.5977 25.751 31.5231 26.3155 29.4242 26.7751L28.8583 26.8999C28.6506 26.9467 28.4528 26.9847 28.2637 27.0247L28.0841 27.0627C27.9805 27.0815 27.8857 27.1002 27.7821 27.1195C27.6785 27.1389 27.565 27.1663 27.4608 27.1856L27.2817 27.2231C26.9323 27.2892 26.611 27.3479 26.3278 27.4028C26.1954 27.4456 26.0592 27.4753 25.921 27.4914ZM22.6536 27.6785H22.6917C22.9562 27.6498 23.2201 27.6124 23.4753 27.5743H23.504C23.6644 27.5556 23.8247 27.5275 23.9757 27.5082C24.1267 27.4889 24.2783 27.4708 24.4124 27.452L24.4879 27.4421C24.8373 27.3859 25.1486 27.3385 25.4319 27.3004C25.5722 27.2709 25.714 27.2488 25.8567 27.2343C25.989 27.2156 26.1306 27.1875 26.2723 27.1588C26.5555 27.112 26.8768 27.0459 27.2262 26.9798L27.4059 26.9417C27.5094 26.923 27.613 26.9043 27.7266 26.8756C27.8208 26.8568 27.925 26.8381 28.0192 26.8188L28.1989 26.7814C28.386 26.7433 28.5857 26.6965 28.7934 26.6566L29.3506 26.5318C31.4568 26.0601 33.4302 25.5336 35.2152 24.9552C34.6674 24.672 34.0922 24.3981 33.5244 24.1716C32.6747 24.4548 31.7588 24.7381 30.8049 24.9926L30.5878 25.0494C30.229 25.1436 29.8796 25.2366 29.5396 25.3139C29.3699 25.3514 29.1996 25.3988 29.0299 25.4387L28.5932 25.5423C28.3948 25.5897 28.2057 25.6271 28.0167 25.6671C27.4689 25.7919 26.9118 25.9029 26.3646 26.0071C26.1001 26.0539 25.8655 26.1013 25.6558 26.1319C25.4579 26.1693 25.2187 26.207 24.9384 26.2448C24.4097 26.328 23.8621 26.4035 23.2956 26.4713L23.2389 26.4813C23.0685 26.5 22.8988 26.5187 22.7192 26.5474L22.3417 26.5942C22.1339 26.6129 21.9168 26.6416 21.6903 26.6603C21.331 26.6984 20.9629 26.7265 20.5854 26.7552L20.5099 26.7645C19.4711 26.84 18.4791 26.8893 17.5539 26.9061C17.1103 27.293 16.6661 27.7372 16.2512 28.1714C18.111 28.1333 20.1318 27.9842 22.2568 27.7347L22.653 27.6779L22.6536 27.6785Z"/>
<path d="M14.6569 29.8237L14.4697 29.616C14.8098 29.3134 15.2059 28.8885 15.6214 28.4449L15.8579 28.1897L16.0657 28.3881L15.8292 28.6333C15.4025 29.0869 15.0088 29.5118 14.6569 29.8237Z"/>
<path d="M31.7594 22.9713L31.6348 23.2257L33.4919 24.1359L33.6166 23.8816L31.7594 22.9713Z"/>
<path d="M19.0004 25.444L18.9904 25.4534C18.8981 25.5439 18.2642 26.1603 17.825 26.5976C17.8207 26.6027 17.8161 26.6075 17.8112 26.612L17.6596 26.7636L17.4531 26.6213L17.4718 26.6026L17.4912 26.5833C17.4912 26.5833 18.4189 25.5881 18.6429 25.4603L18.9835 25.444H19.0004Z"/>
<path d="M19.1135 25.4424H18.9843L18.6437 25.4586H18.2931C18.1826 25.4586 18.0722 25.4524 17.9692 25.4474C17.9416 25.4479 17.9138 25.4469 17.8863 25.4443H17.7184L17.6561 25.4412H17.6018C17.5862 25.4424 17.5706 25.4424 17.555 25.4412H17.4795C16.866 25.4087 16.2556 25.3333 15.6527 25.2153C15.5429 25.1929 15.4362 25.1692 15.3314 25.1442C15.2877 25.1342 15.2447 25.123 15.201 25.1124C15.0762 25.0781 14.9546 25.0431 14.8373 25.0063L14.8092 25.0001H14.7998C14.6214 24.9427 14.4511 24.879 14.292 24.8129C14.4742 24.7817 14.6528 24.7563 14.8279 24.7368L14.8547 25.0013C14.9396 24.992 15.0151 24.992 15.0999 24.9826C15.3214 24.9657 15.5437 24.9621 15.7656 24.972C16.1533 25.0474 16.5446 25.1026 16.9379 25.1373C17.102 25.1536 17.2717 25.166 17.4458 25.176C17.6199 25.186 17.7858 25.1941 17.9611 25.1997H17.9705L18.0017 25.1929L18.0379 25.1885L18.0653 25.1835V25.1997L18.084 25.196V25.1997H18.1901C18.3436 25.1997 18.4964 25.2078 18.6431 25.2078H18.8764L18.8708 25.1985H18.8764C18.9132 25.2609 18.9525 25.3289 18.9918 25.395L19.0336 25.463L19.1135 25.4424Z"/>
<path d="M31.8536 22.7023C31.8443 22.7691 31.8337 22.8358 31.8218 22.9019C31.8062 22.988 31.7894 23.0741 31.7707 23.159L31.7576 23.2183L31.7538 23.232V23.2376L31.6783 23.2632C31.309 23.388 30.9484 23.4953 30.6445 23.5857C30.3132 23.6843 29.9582 23.7804 29.5839 23.8777L29.5677 23.8815C29.2788 23.9563 28.9743 24.0306 28.6524 24.1073C27.8413 24.3026 27.0896 24.4498 26.3983 24.5802C26.1069 24.6358 25.8056 24.69 25.4524 24.7512L25.2615 24.7849L25.1754 24.8005L24.9377 24.8398C24.8017 24.861 24.6545 24.8822 24.501 24.9022C23.7012 25.0313 22.9675 25.133 22.2606 25.2141C21.5331 25.2965 20.8256 25.3595 20.1481 25.4013L19.8985 25.4156C19.7257 25.4244 19.551 25.4319 19.3744 25.4362H19.3551C19.274 25.4362 19.1935 25.4362 19.1124 25.4362H19.0325L18.9907 25.3682C18.9514 25.3021 18.9121 25.2372 18.8753 25.1717C18.8096 25.0569 18.7484 24.9429 18.6919 24.8298C18.67 24.7874 18.6495 24.7443 18.6295 24.705C18.6095 24.6657 18.5902 24.6189 18.5671 24.5752C18.5197 24.4723 18.4773 24.37 18.4386 24.2677C18.418 24.2159 18.3993 24.1641 18.3799 24.1117C18.3606 24.0593 18.3413 23.9994 18.3238 23.9426C18.3101 23.9039 18.297 23.8646 18.2839 23.8247C18.2327 23.6625 18.1859 23.4922 18.1429 23.3118C18.1329 23.2669 18.1223 23.2208 18.1117 23.174C18.1096 23.166 18.1081 23.1578 18.1073 23.1496C18.0967 23.1022 18.0867 23.0554 18.078 23.0061C18.0692 22.9662 18.0617 22.9269 18.0543 22.8864L18.0355 22.7616L17.9969 22.512L17.9912 22.4584C17.919 21.8094 17.94 21.1535 18.0536 20.5105C18.2215 19.5583 18.5869 18.6516 19.1261 17.849C19.2116 17.7198 19.3027 17.5944 19.3969 17.4703C19.726 17.0474 20.0996 16.6611 20.5112 16.318C21.2804 15.691 22.1733 15.2335 23.1315 14.9753C23.2788 14.936 23.4273 14.9011 23.577 14.8718L23.922 14.8137C25.1202 14.6383 26.3435 14.7789 27.4706 15.2217C28.5978 15.6645 29.5897 16.394 30.3482 17.338C30.3881 17.3873 30.4274 17.4372 30.4661 17.4871C30.5048 17.537 30.5378 17.582 30.5722 17.6288C30.6065 17.6756 30.6533 17.7423 30.6926 17.7991C30.8099 17.9717 30.9195 18.1491 31.0214 18.3313C31.3396 18.9058 31.576 19.5219 31.7239 20.1618C31.7432 20.2198 31.7601 20.276 31.7732 20.3327C31.7932 20.4088 31.8093 20.4858 31.8212 20.5636C31.8218 20.5683 31.8218 20.5732 31.8212 20.5779C31.8355 20.6609 31.848 20.7433 31.8593 20.8275C31.8674 20.8899 31.8748 20.9523 31.8811 21.0147C31.8873 21.077 31.8923 21.1394 31.8967 21.2018C31.9011 21.2642 31.9054 21.3229 31.9079 21.3852C31.9104 21.4476 31.9142 21.4957 31.916 21.5518V21.5662C31.9287 21.946 31.9078 22.3262 31.8536 22.7023Z"/>
</g>
</svg>
