<svg  viewBox="0 0 40 40" xmlns="http://www.w3.org/2000/svg">
<path fill-rule="evenodd" clip-rule="evenodd" d="M17.316 22.1933C12.3919 22.1933 8.43867 18.2401 8.43867 13.316C8.43867 8.39186 12.3919 4.43867 17.316 4.43867C22.2401 4.43867 26.1933 8.39186 26.1933 13.316C26.1933 18.2401 22.2401 22.1933 17.316 22.1933ZM17.316 0C24.6675 0 30.632 5.96446 30.632 13.316C30.632 20.6675 24.6675 26.632 17.316 26.632C9.96446 26.632 4 20.6675 4 13.316C4 5.96446 9.96446 0 17.316 0ZM30.0078 27.3255C30.9094 28.2271 30.9094 29.6142 30.0078 30.4465L21.1305 39.3238C20.2289 40.2254 18.8418 40.2254 18.0095 39.3238C17.1079 38.4222 17.1079 37.0351 18.0095 36.2029L26.8869 27.3255C27.7191 26.4239 29.1756 26.4239 30.0078 27.3255ZM35.14 2.21934C35.14 3.46771 34.1691 4.43867 32.9207 4.43867C31.6723 4.43867 30.7014 3.46771 30.7014 2.21934C30.7014 0.970961 31.6723 0 32.9207 0C34.0997 0 35.14 0.970961 35.14 2.21934Z"/>
</svg>
