<svg  viewBox="0 0 40 40"  xmlns="http://www.w3.org/2000/svg">
<path d="M29.283 19.6226C29.283 24.9057 24.9057 29.283 19.6226 29.1321C17.9623 29.1321 16.1509 28.6792 14.7925 27.7736L10.566 32C17.5094 37.1321 27.1698 35.6226 32.1509 28.6792C36.2264 23.2453 36.2264 15.849 32.1509 10.2641L27.9245 14.4906C28.8302 16.1509 29.283 17.8113 29.283 19.6226ZM28.8302 7.09434L24.6038 11.3208C20.0755 8.60377 14.1887 10.1132 11.4717 14.6415C9.66038 17.6604 9.66038 21.434 11.4717 24.4528L7.24528 28.6792C2.26415 21.7358 3.62264 12.0755 10.566 7.09434C16 3.16981 23.3962 3.16981 28.8302 7.09434ZM40 4.07547C40 6.33962 38.1887 8.15093 35.9245 8.15093C33.6604 8.15093 31.8491 6.33962 31.8491 4.07547C31.8491 1.81132 33.6604 0 35.9245 0C38.1887 0 40 1.81132 40 4.07547ZM8.15094 35.9245C8.15094 38.1887 6.33962 40 4.07547 40C1.81132 40 0 38.1887 0 35.9245C0 33.6604 1.81132 31.849 4.07547 31.849C6.33962 31.849 8.15094 33.6604 8.15094 35.9245Z"/>
</svg>
