<svg viewBox="0 0 40 40"  xmlns="http://www.w3.org/2000/svg">
<path d="M4.8794 6.98282C5.12926 6.67114 5.39405 6.3714 5.65887 6.07166C5.67076 6.05674 5.69761 6.05375 5.70953 6.03882C5.73331 6.00927 5.77208 5.99135 5.79588 5.9618L5.81966 5.93194C6.00426 5.76267 6.20073 5.57847 6.42717 5.41815C7.22843 4.81479 8.06 4.35653 8.93684 4.0547C11.7492 3.07547 14.8799 3.67913 17.3349 5.97792C20.763 9.16488 20.4559 14.2989 17.7195 17.7113C14.2614 22.7985 8.31901 29.8961 16.5469 36.2539C18.0263 37.397 19.1237 38.3395 23.7838 39.6752C20.7359 40.2323 17.9101 40.0588 14.7646 39.262C12.5397 38.0165 9.04159 35.3496 7.85147 31.7474C6.0527 26.2849 11.0183 18.1191 13.418 14.974C16.713 10.6215 11.3816 5.90955 7.45656 11.1699C5.40483 13.9114 1.81547 21.6688 3.06281 27.423C3.79213 30.686 4.76427 33.0645 8.61871 36.3318C7.90393 35.9136 7.20986 35.4389 6.53652 34.9081C-2.41902 26.6342 -1.38 13.8407 4.8794 6.98282Z"/>
<path d="M35.1952 33.3442C34.9492 33.659 34.6883 33.9617 34.4274 34.2644C34.4159 34.2795 34.3892 34.2825 34.3776 34.2973C34.3542 34.3274 34.316 34.3455 34.2926 34.3753L34.2691 34.4055C34.0874 34.5764 33.8939 34.7622 33.6709 34.9244C32.8815 35.5337 32.0628 35.9965 31.1992 36.301C28.4293 37.2902 25.3464 36.6806 22.9283 34.3591C19.5525 31.1405 19.8549 25.9556 22.5498 22.5092C25.9553 17.3719 31.8075 10.2041 23.7044 3.78331C22.2474 2.62887 21.1666 1.67673 16.5771 0.327972C19.5789 -0.234447 22.3618 -0.0595178 25.4596 0.745217C27.6509 2.00326 31.0961 4.69656 32.2682 8.33446C34.0397 13.851 29.1494 22.0976 26.7859 25.2736C23.5411 29.6695 28.7916 34.4278 32.6571 29.1157C34.6776 26.347 38.2127 18.5128 36.9842 12.7017C36.2659 9.40629 35.3085 7.00424 31.5126 3.70462C32.2163 4.12703 32.8999 4.60611 33.563 5.14248C42.3829 13.4983 41.3596 26.4184 35.1952 33.3442Z"/>
</svg>
