<svg viewBox="0 0 40 40" xmlns="http://www.w3.org/2000/svg">
<path d="M17.862 0.0161467C12.7571 0.552916 8.03294 3.07783 4.70564 7.04812C4.3819 7.43496 3.83335 8.14865 3.83335 8.18464C3.83335 8.21762 3.66249 8.23561 5.27518 8.04969L6.67205 7.88776L7.16365 7.38698C9.01914 5.4858 11.1084 4.09739 13.5155 3.1588C14.5497 2.75697 15.7847 2.40912 16.8338 2.2262L17.1396 2.17522L17.6042 1.10168C17.862 0.513933 18.0718 0.0221443 18.0718 0.0131483C18.0718 -0.00484371 18.0568 -0.00484371 17.862 0.0161467Z"/>
<path d="M21.9385 0.0132074C21.9385 0.0222034 22.3132 0.543979 22.7718 1.16771C23.2874 1.87241 23.6261 2.31022 23.6621 2.31622C23.695 2.32521 24.0038 2.40018 24.3455 2.48415C27.9006 3.35677 31.138 5.35691 33.59 8.19969L33.9287 8.58952L35.0888 8.45758C35.7303 8.38561 36.2578 8.32264 36.2638 8.31364C36.2818 8.29565 35.6883 7.51898 35.2896 7.04219C33.8148 5.27595 32.0343 3.77059 30.0469 2.60409C29.0817 2.03734 27.5829 1.35363 26.5098 0.98479C25.3017 0.570968 23.9019 0.244108 22.6699 0.0851765C22.4061 0.0521898 22.1363 0.0162058 22.0674 0.00720978C21.9954 -0.00178623 21.9385 0.00121212 21.9385 0.0132074Z"/>
<path d="M19.8426 0.241112C19.8036 0.343067 16.2425 8.52056 16.2335 8.52955C16.2305 8.53255 13.227 8.8774 9.55796 9.29422C5.88894 9.71104 2.87639 10.0619 2.8644 10.0739C2.84941 10.0859 4.05743 11.7592 5.55021 13.7923C7.04 15.8284 8.278 17.5197 8.29598 17.5527C8.32896 17.6067 8.00822 18.3683 5.64614 23.817C4.16834 27.2265 2.96332 30.0243 2.96931 30.0303C2.97531 30.0333 5.01065 29.8114 7.48964 29.5325C9.97162 29.2507 12.0339 29.0227 12.0759 29.0227C12.1419 29.0257 12.6964 29.7664 16.1226 34.4264C18.3079 37.3982 20.1064 39.8301 20.1214 39.8331C20.1364 39.8331 20.9727 37.9319 21.9859 35.6079C22.996 33.2869 23.8294 31.3797 23.8384 31.3707C23.8474 31.3617 26.8419 31.0139 30.496 30.5971C34.15 30.1803 37.1446 29.8324 37.1535 29.8234C37.1625 29.8144 35.9395 28.1321 34.4377 26.084C32.7621 23.796 31.713 22.3416 31.722 22.3146C31.7339 22.2906 32.936 19.5108 34.3958 16.1403C35.8586 12.7667 37.0456 10.0019 37.0366 9.99292C37.0276 9.98393 34.9743 10.2058 32.4683 10.4877C29.9654 10.7696 27.9091 11.0005 27.9001 11.0005C27.8881 11.0005 26.0895 8.56554 23.8983 5.58781C21.7101 2.6101 19.9086 0.17514 19.8936 0.17514C19.8786 0.17514 19.8576 0.205128 19.8426 0.241112ZM23.6195 8.76645C25.3881 11.1744 26.8959 13.2315 26.9678 13.3395C27.3035 13.8313 27.5613 14.488 27.6662 15.1117C27.7202 15.4266 27.7292 15.5615 27.7142 15.9933C27.6962 16.5421 27.6303 16.908 27.4684 17.3578C27.4055 17.5287 24.5008 24.1259 24.4738 24.1558C24.4708 24.1588 24.0902 23.6611 23.6255 23.0463C23.1639 22.4316 22.4325 21.463 22.0009 20.8902L21.2155 19.8527L22.9421 15.7235C23.8923 13.4534 24.6657 11.5882 24.6567 11.5822C24.6507 11.5762 22.9481 11.7502 20.8708 11.9721C18.7965 12.191 17.0938 12.3679 17.0878 12.3649C17.0639 12.3469 17.2197 11.6662 17.3037 11.4203C17.4386 11.0215 20.3552 4.33435 20.3792 4.36434C20.3912 4.37634 21.848 6.35849 23.6195 8.76645ZM15.2833 10.7876C15.2833 10.7996 15.2443 10.9645 15.1934 11.1534C15.0945 11.5403 15.0255 11.9421 14.9955 12.3259L14.9746 12.5868L14.8666 12.6018C14.8067 12.6108 14.5579 12.6408 14.3091 12.6648C13.4038 12.7607 12.7114 12.9497 12.001 13.2915C11.0537 13.7473 10.3014 14.3441 9.66887 15.1327L9.39909 15.4686L9.27319 15.2976C8.29898 13.9812 6.68629 11.7652 6.69528 11.7562C6.70428 11.7472 14.9206 10.7936 15.2473 10.7636C15.2653 10.7636 15.2833 10.7726 15.2833 10.7876ZM33.6464 12.5658C33.5804 12.7248 30.391 20.0866 30.3131 20.2605L30.2412 20.4224L29.9504 20.1466C29.7016 19.9127 29.4438 19.7058 29.0002 19.3819L28.9192 19.3219L29.156 18.7821C29.2879 18.4853 29.4438 18.0924 29.5038 17.9065C29.9924 16.3862 29.9114 14.6709 29.2849 13.2015C29.234 13.0876 29.21 12.9886 29.225 12.9826C29.249 12.9766 33.4575 12.4909 33.6524 12.4729C33.6824 12.4699 33.6794 12.4909 33.6464 12.5658ZM21.3294 14.1251C21.3054 14.1791 20.8378 15.2976 20.2892 16.6081C19.7437 17.9185 19.2851 19.0041 19.2731 19.016C19.2521 19.037 10.6251 20.1466 10.4812 20.1466C10.4512 20.1466 10.4273 20.1586 10.4273 20.1765C10.4273 20.1975 14.462 25.8021 14.8247 26.2819L14.8936 26.3749L14.5279 26.4978C14.3241 26.5638 14.0573 26.6388 13.9344 26.6658C13.6526 26.7227 6.38653 27.5384 6.36255 27.5174C6.34157 27.4964 10.688 17.4567 10.8529 17.1479C11.0358 16.8 11.3445 16.3832 11.6443 16.0863C12.3037 15.4266 13.197 14.9648 14.0963 14.8238C14.2611 14.7969 15.9578 14.6079 17.8612 14.404C19.7647 14.2031 21.3324 14.0352 21.3474 14.0322C21.3594 14.0322 21.3504 14.0742 21.3294 14.1251ZM22.2347 24.7106C23.7125 26.6688 24.9295 28.2701 24.9385 28.2731C24.9475 28.2731 25.6489 26.7107 26.4942 24.8006C27.3365 22.8934 28.0379 21.3221 28.0499 21.3101C28.0739 21.2861 28.5385 21.6939 28.7394 21.9188C28.8893 22.0837 33.3316 28.1291 33.3167 28.1471C33.3107 28.1501 30.8197 28.438 27.7802 28.7859C22.3875 29.4036 22.2407 29.4186 21.818 29.4006C20.9307 29.3676 20.1124 29.0857 19.369 28.5639C18.7905 28.1561 18.6975 28.0392 16.3534 24.7976C15.1694 23.1603 14.2042 21.8138 14.2102 21.8108C14.2282 21.7929 19.378 21.1421 19.4619 21.1481C19.5428 21.1511 19.7886 21.469 22.2347 24.7106ZM16.5153 28.6179C17.2677 29.6525 18.0621 30.3392 19.0722 30.834C19.7137 31.1488 20.3492 31.3468 21.0596 31.4487C21.2635 31.4787 21.4373 31.5117 21.4463 31.5177C21.4613 31.5357 19.6837 35.6469 19.6568 35.6499C19.6478 35.6499 18.5027 34.1026 17.1118 32.2074C15.721 30.3152 14.5699 28.7529 14.5549 28.7319C14.5369 28.7049 14.5789 28.6839 14.7048 28.6479C15.0405 28.555 15.5951 28.357 15.8648 28.2281C16.0147 28.1591 16.1376 28.1021 16.1406 28.1051C16.1406 28.1081 16.3115 28.336 16.5153 28.6179Z"/>
<path d="M1.62977 12.041C-0.324643 16.629 -0.528478 21.7718 1.05724 26.4588C1.36599 27.3734 1.77366 28.366 1.82162 28.315C1.86658 28.27 2.93372 25.7811 2.93372 25.7271C2.93372 25.7001 2.89475 25.5502 2.84679 25.3943C2.05843 22.8693 1.8426 20.1045 2.2173 17.4237C2.28624 16.9229 2.44511 16.0953 2.55902 15.6425C2.72688 14.9857 3.03863 13.9812 3.18851 13.6213L3.23048 13.5224L2.54104 12.5838C2.16334 12.068 1.8426 11.6422 1.83061 11.6362C1.81862 11.6332 1.72869 11.8161 1.62977 12.041Z"/>
<path d="M38.1465 11.7862C38.1225 11.8401 37.8737 12.4189 37.5919 13.0726C37.3072 13.7263 37.0763 14.2841 37.0763 14.3141C37.0763 14.3441 37.1183 14.497 37.1693 14.6559C37.2202 14.8149 37.3191 15.1717 37.3911 15.4536C38.2873 18.9291 38.1435 22.5515 36.9744 25.9491L36.8096 26.4259L37.493 27.3555C37.8647 27.8653 38.1854 28.2881 38.2034 28.2941C38.2364 28.3061 38.4912 27.7243 38.737 27.0616C40.4635 22.4616 40.4156 17.1359 38.6021 12.6048C38.3683 12.0201 38.2244 11.6902 38.2034 11.6902C38.1944 11.6902 38.1674 11.7352 38.1465 11.7862Z"/>
<path d="M4.88848 31.5567C4.27397 31.6256 3.76439 31.6916 3.7524 31.7006C3.7434 31.7096 3.8723 31.8985 4.03417 32.1174C6.91483 35.9498 10.9855 38.5886 15.6228 39.6262C16.4771 39.8151 18.0029 40.046 18.0598 39.992C18.0808 39.971 16.4291 37.719 16.3812 37.704C16.3632 37.701 16.0604 37.626 15.7097 37.5421C12.5802 36.7864 9.68759 35.1521 7.35248 32.8191C7.05572 32.5192 6.64505 32.0844 6.44422 31.8475C6.24038 31.6136 6.06053 31.4247 6.03954 31.4247C6.02156 31.4277 5.50298 31.4847 4.88848 31.5567Z"/>
<path d="M34.7263 31.8475L33.4374 31.9975L33.2306 32.2284C33.1137 32.3543 32.8379 32.6392 32.6131 32.8611C29.9602 35.491 26.6749 37.1822 22.9879 37.821L22.88 37.8389L22.4123 38.9125C22.0466 39.7521 21.9567 39.986 21.9927 39.995C22.1396 40.028 23.5784 39.8061 24.3877 39.6262C29.007 38.5946 33.0717 35.9648 35.9464 32.1504C36.1232 31.9165 36.2671 31.7156 36.2671 31.7066C36.2671 31.6766 35.9853 31.7006 34.7263 31.8475Z"/>
</svg>
