<svg viewBox="0 0 40 40"  xmlns="http://www.w3.org/2000/svg">
<path fill-rule="evenodd" clip-rule="evenodd" d="M18.7337 1.6C18.7337 0.716343 19.45 0 20.3337 0C21.2173 0 21.9337 0.716344 21.9337 1.6V8.60592L27.1403 3.04241C27.7441 2.39722 28.7566 2.36367 29.4018 2.96747C30.047 3.57128 30.0805 4.58379 29.4767 5.22897L23.8889 11.1997H32.3333C33.217 11.1997 33.9333 11.9161 33.9333 12.7997C33.9333 13.6834 33.217 14.3997 32.3333 14.3997H24.1559L29.7441 20.371C30.3479 21.0162 30.3144 22.0287 29.6692 22.6325C29.024 23.2363 28.0115 23.2027 27.4077 22.5575L21.9337 16.7083V32.0001H24.8676C25.7512 32.0001 26.4676 32.7165 26.4676 33.6001C26.4676 34.4838 25.7512 35.2001 24.8676 35.2001H21.9337V38.4C21.9337 39.2837 21.2173 40 20.3337 40C19.45 40 18.7337 39.2837 18.7337 38.4V35.2001H15.8009C14.9173 35.2001 14.2009 34.4838 14.2009 33.6001C14.2009 32.7165 14.9173 32.0001 15.8009 32.0001H18.7337V16.7084L13.2597 22.5575C12.6559 23.2027 11.6434 23.2363 10.9982 22.6325C10.353 22.0287 10.3195 21.0162 10.9233 20.371L16.5115 14.3997H8.6C7.71634 14.3997 7 13.6834 7 12.7997C7 11.9161 7.71634 11.1997 8.6 11.1997H16.7784L11.1907 5.22897C10.5869 4.58379 10.6204 3.57128 11.2656 2.96747C11.9108 2.36367 12.9233 2.39722 13.5271 3.04241L18.7337 8.60583V1.6Z"/>
</svg>
