<svg  viewBox="0 0 40 40"  xmlns="http://www.w3.org/2000/svg">
<path d="M4 20V40H6.73585H9.4717V20V0H6.73585H4V20Z"/>
<path d="M25.5101 3.81132C23.9064 5.90566 20.4535 10.4151 17.8309 13.8113L13.0762 20L19.9064 28.8302C23.6611 33.6792 27.1516 38.1698 27.6422 38.8302L28.5479 40H32.0384C33.9441 40 35.5101 39.9623 35.5101 39.9057C35.5101 39.8491 32.095 35.3962 27.9252 30.0377C23.7554 24.6792 20.3403 20.1698 20.3403 20C20.3403 19.8491 23.6988 15.3208 27.8309 9.9434C31.9441 4.5849 35.3215 0.150944 35.3215 0.0943375C35.3215 0.037735 33.7743 0 31.8686 0H28.4158L25.5101 3.81132Z"/>
</svg>
