<svg viewBox="0 0 40 40"  xmlns="http://www.w3.org/2000/svg">
<path d="M33.7135 0.0428734C33.5254 0.0898933 33.2245 0.287376 32.9706 0.541286C32.5756 0.945663 32.538 1.01149 32.5004 1.54752L32.4533 2.13058L30.375 4.21828C29.2372 5.36557 28.2309 6.33419 28.1463 6.37181C28.0616 6.40002 27.8642 6.5881 27.7231 6.78559C27.5726 6.98307 24.8737 9.71966 21.7139 12.8794L15.9774 18.6159L15.9492 15.4279L15.9304 12.2494L16.2878 11.8544C16.8426 11.2525 16.8896 10.5566 16.4194 9.84191C16.0526 9.27767 14.9994 9.09899 14.2377 9.47515C13.8615 9.66323 13.8051 9.73847 13.6452 10.2463C13.4195 10.961 13.5324 11.4876 14.012 11.9672L14.3317 12.287V15.3903V18.5031L14.012 18.8604C13.7204 19.1707 13.4853 19.7068 13.4853 20.0453C13.4853 20.3745 13.8991 21.2208 14.106 21.3149L14.3317 21.4183V24.6251V27.8319L14.0684 27.9824C13.8709 28.0952 13.7581 28.2739 13.6264 28.6783C13.4665 29.1955 13.4665 29.2519 13.617 29.7221C13.7957 30.2769 14.1248 30.5967 14.7267 30.7848C15.4602 31.0199 16.457 30.4274 16.6827 29.6281C16.7768 29.2707 16.7768 29.1391 16.6357 28.7347C16.5417 28.4432 16.3724 28.1704 16.2031 28.0388L15.9304 27.8225L15.9492 25.0107L15.9774 22.1894L21.413 27.6062C24.3941 30.5873 26.8391 33.0794 26.8391 33.1358C26.8391 33.1922 26.7263 33.2674 26.5852 33.2957C26.4347 33.3333 26.068 33.4743 25.7576 33.6154C24.5257 34.1608 23.9427 34.3207 22.4474 34.5088C20.4255 34.7627 17.8018 34.6122 16.3348 34.1702C15.1122 33.8035 13.3631 33.0135 12.686 32.5433C12.5355 32.4305 12.3192 32.2988 12.197 32.2518C11.3976 31.8944 8.89615 29.44 8.23786 28.3679C8.15323 28.2175 7.96515 27.9353 7.83349 27.7284C7.52316 27.2582 7.29746 26.8068 6.82725 25.763C6.28182 24.5405 6.18778 24.1925 5.90566 22.5938C5.68936 21.3149 5.66115 20.9857 5.70817 19.6504C5.774 17.4968 6.11255 15.8699 6.79904 14.3841C6.98712 13.9703 7.21282 13.4813 7.29746 13.2838C7.51375 12.823 8.63284 11.1303 9.05602 10.6507C9.74252 9.86072 10.918 8.76985 11.5857 8.29024C11.9713 8.01752 12.3945 7.70719 12.5261 7.60374C12.6672 7.49089 12.8835 7.36864 13.0151 7.33102C13.1468 7.29341 13.4007 7.16175 13.5794 7.0489C14.1624 6.68214 14.9148 6.37181 16.0715 6.03326C17.9147 5.48783 18.1686 5.45021 20.2563 5.45021C22.3816 5.45021 22.8706 5.51604 24.789 6.1085C25.3721 6.28717 25.9175 6.40943 26.0116 6.38121C26.0962 6.353 26.3783 6.08969 26.6416 5.78876L27.1118 5.25273L25.7765 4.74491C23.9239 4.05841 22.1089 3.77629 19.9271 3.83271C18.3096 3.87973 16.9366 4.06781 15.8834 4.38755C14.7737 4.71669 12.9305 5.47842 12.4133 5.80757C12.15 5.97684 11.6986 6.25896 11.407 6.43764C11.1061 6.60691 10.7205 6.88903 10.5231 7.06771C10.335 7.23698 10.1469 7.37804 10.0905 7.37804C9.94 7.37804 7.64541 9.74787 7.30686 10.2463C7.13759 10.5002 6.82725 10.9516 6.62037 11.2337C6.41348 11.5158 6.20659 11.8544 6.15016 11.986C6.10314 12.1177 5.84923 12.6443 5.58592 13.1615C4.50445 15.3527 3.89318 18.2774 4.01544 20.6848C4.10007 22.3493 4.26935 23.1863 4.95584 25.415C5.26618 26.3837 6.22539 28.3021 6.78023 29.0544C7.01534 29.3648 7.23163 29.6845 7.25984 29.7597C7.28805 29.835 7.71124 30.3334 8.20025 30.8694C9.15006 31.9038 10.429 33.0323 11.1343 33.4555C11.3694 33.606 11.7268 33.8411 11.9337 33.9821C12.4885 34.3771 14.5292 35.2987 15.2533 35.4962C16.9648 35.957 17.3504 36.051 17.9993 36.1639C18.4413 36.2485 19.3441 36.2955 20.3973 36.2861C21.855 36.2767 22.2405 36.2485 23.2185 36.0322C25.0712 35.6279 25.9833 35.3363 27.0084 34.8379C27.5444 34.584 28.024 34.3677 28.0805 34.3677C28.1369 34.3677 29.0303 35.2141 30.0553 36.2485C31.8891 38.0823 31.9361 38.1387 31.9643 38.5525C32.002 39.2014 32.2747 39.634 32.7637 39.8315C33.8263 40.2641 34.8138 39.8409 35.1147 38.8252C35.4156 37.8096 34.3342 36.6341 33.2621 36.841C33.0458 36.8786 32.8201 36.6905 31.2778 35.1483C29.7168 33.5872 29.5569 33.3991 29.7168 33.3051C30.1023 33.0982 31.3437 31.9979 32.1242 31.1797C34.0238 29.1767 35.1335 27.1924 36.0645 24.1173C36.4971 22.7161 36.6288 19.9419 36.3843 17.7225C36.1868 16.0016 35.4815 13.8763 34.5411 12.2023C34.1743 11.5629 33.8922 10.9328 33.8922 10.7917C33.8828 10.124 33.3467 9.45634 32.6696 9.28707C32.4628 9.23065 32.2653 9.08959 32.1336 8.8921C32.0208 8.72283 31.7668 8.46892 31.56 8.31845C31.3625 8.17739 31.118 7.95169 31.0145 7.82944C30.9205 7.69778 30.6384 7.45328 30.3939 7.29341C30.1399 7.12413 29.9425 6.97367 29.9425 6.94546C29.9425 6.91725 30.7888 6.06148 31.8139 5.02703C33.3561 3.48476 33.7229 3.16502 33.8922 3.21204C34.005 3.24026 34.353 3.18383 34.6633 3.08979C35.2181 2.92992 35.2464 2.90171 35.4721 2.4127C36.0833 1.07732 35.0865 -0.258057 33.7135 0.0428734ZM28.908 8.21501C28.908 8.26203 29.0209 8.34666 29.1713 8.40309C29.3124 8.46892 29.7544 8.82627 30.1682 9.21184L30.9017 9.89833L30.7888 10.2463C30.4033 11.4218 31.3155 12.6067 32.4628 12.4186L32.8295 12.3622L33.3467 13.4249C33.6383 13.9985 33.9392 14.6286 34.0144 14.8073C34.2119 15.2492 34.6915 17.2147 34.842 18.1175C34.983 19.0297 34.8984 21.9449 34.7103 22.7537C34.3154 24.437 34.0238 25.3022 33.4972 26.3743C32.8859 27.6532 32.5192 28.2081 31.4753 29.4588C30.6948 30.418 30.375 30.7189 29.2466 31.6311L28.419 32.2988L22.5509 26.4307C19.3253 23.1957 16.6827 20.4967 16.6827 20.4309C16.6827 20.3651 16.758 20.1958 16.852 20.0641C17.0871 19.7162 28.7011 8.13037 28.814 8.13037C28.8704 8.13037 28.908 8.16799 28.908 8.21501Z"/>
<path d="M27.3475 23.5905C26.2473 23.8538 25.589 25.2644 26.078 26.3271C26.2849 26.7973 26.8867 27.3522 27.3569 27.5026C27.8741 27.6719 28.6641 27.5685 29.0308 27.2863C29.6985 26.7785 29.8302 26.5904 29.943 26.0544C30.1875 24.8507 29.5951 23.788 28.5418 23.5623C27.9682 23.44 27.9682 23.44 27.3475 23.5905Z"/>
<path d="M19.2212 9.41874C18.9202 9.61622 18.8638 9.70086 18.751 10.0958C18.5911 10.6601 18.9955 11.3466 19.5785 11.5158C20.0299 11.6381 20.6506 11.3654 20.8575 10.961C21.0455 10.6036 21.0455 10.0206 20.8575 9.74788C20.5283 9.27767 19.6726 9.1084 19.2212 9.41874Z"/>
</svg>
