<svg width="41" height="41" viewBox="0 0 41 41" xmlns="http://www.w3.org/2000/svg">
<g clip-path="url(#clip0_12206_101926)">
<path d="M21 0C32.0457 0 41 8.9543 41 20C41 31.0457 32.0457 40 21 40C9.9543 40 1 31.0457 1 20C1 8.9543 9.9543 0 21 0ZM21 1.41176C10.734 1.41176 2.41176 9.734 2.41176 20C2.41176 30.266 10.734 38.5882 21 38.5882C31.266 38.5882 39.5882 30.266 39.5882 20C39.5882 9.734 31.266 1.41176 21 1.41176Z"/>
<path d="M33.6048 12.118V10.3012H27.8499C27.5412 9.12733 27.2324 8.09317 26.8955 7.14286L24.9585 7.47826C25.2954 8.31677 25.6322 9.26708 25.941 10.3012H19.8493V12.118H33.6048ZM18.8668 25.618V14.0186H16.0315C16.621 13.1522 17.2105 12.0901 17.8 10.8043V9.46273H13.1681C13.4208 8.90373 13.6453 8.34472 13.8699 7.75776L12.0733 7.19876C11.2311 9.93789 9.91171 12.146 8.14315 13.8509L8.56423 15.8354C8.92917 15.5 9.29411 15.1646 9.63098 14.8012V25.618H18.8668ZM14.0945 14.0186H10.3328C11.0627 13.1242 11.7645 12.118 12.3821 11.0559H15.9192C15.3016 12.1739 14.7121 13.1801 14.0945 14.0186ZM25.6603 32.8571C27.0639 32.8571 27.7938 32.0745 27.7938 30.5373V22.5714H32.2573V14.6335H21.3372V22.5714H25.8287V30.0621C25.8287 30.7609 25.548 31.1242 24.9866 31.1242C24.3409 31.1242 23.6672 31.0683 22.9934 30.9845L23.3864 32.8571H25.6603ZM13.4488 18.9938H11.3715V15.6677H13.4488V18.9938ZM17.1263 18.9938H15.077V15.6677H17.1263V18.9938ZM30.3484 20.8106H23.2461V16.4224H30.3484V20.8106ZM17.1263 23.941H15.077V20.6149H17.1263V23.941ZM13.4488 23.941H11.3715V20.6149H13.4488V23.941ZM32.3696 31.5714L33.8574 30.5373C33.0995 28.7484 32.0327 26.6801 30.6291 24.3043L29.1413 25.1988C30.4888 27.5186 31.5836 29.6429 32.3696 31.5714ZM20.6073 32.0466C21.8425 30.118 22.9092 27.8261 23.8075 25.1988L22.1793 24.4161C21.3091 26.9317 20.2704 29.1118 19.0914 30.9565L20.6073 32.0466ZM18.2773 30.146L19.6528 29.8106C19.2598 28.4689 18.8668 27.295 18.4176 26.2888L17.0982 26.6801C17.5474 27.7981 17.9404 28.9441 18.2773 30.146ZM15.3016 31.7671L16.7614 31.5994C16.5929 29.4752 16.2841 27.7981 15.835 26.5683L14.4314 26.736C14.8805 27.9099 15.1612 29.587 15.3016 31.7671ZM9.93978 32.5217C10.5293 30.8727 10.8942 29 11.0627 26.8758L9.54677 26.6801C9.4064 28.6925 9.01339 30.4814 8.3958 32.0466L9.93978 32.5217ZM12.2979 32.1863L13.7576 32.0186C13.7015 29.8106 13.5611 28.0497 13.3646 26.764L12.0171 26.9317C12.1575 28.1615 12.2417 29.9224 12.2979 32.1863Z"/>
</g>
<defs>
<clipPath id="clip0_12206_101926">
<rect width="40.0033" height="40.0033" transform="translate(0.994141)"/>
</clipPath>
</defs>
</svg>