<svg viewBox="0 0 40 40" xmlns="http://www.w3.org/2000/svg">
<path fill-rule="evenodd" clip-rule="evenodd" d="M29.1991 15.3321L20.0068 1L10.8164 15.3321L20.0068 20.6667L29.1991 15.3321ZM13.6312 14.6518L13.6304 14.6531V14.6514L13.6312 14.6518ZM20.0068 4.70879L13.6312 14.6518L20.0068 18.3565L26.3851 14.6531L20.0068 4.70879ZM9.33662 17.6299L19.9981 23.8174V23.8192L30.6634 17.6299L30.955 18.0831C32.2102 20.0397 32.914 22.2966 32.9926 24.6172C33.0711 26.9378 32.5216 29.2368 31.4015 31.2732C30.2813 33.3097 28.632 35.0086 26.6261 36.1921C24.6201 37.3756 22.3315 38 20 38C17.6685 38 15.3799 37.3756 13.3739 36.1921C11.368 35.0086 9.71859 33.3097 8.59849 31.2732C7.47838 29.2368 6.92882 26.9378 7.00738 24.6172C7.08594 22.2966 7.78973 20.0397 9.04501 18.0831L9.33662 17.6299Z"/>
</svg>
