<svg viewBox="0 0 40 40" xmlns="http://www.w3.org/2000/svg">
<path d="M12.3039 34.04C12.3039 38.496 12.1439 38.984 12.1439 38.984C12.1439 38.984 12.1119 38.992 12.0559 39.008C5.03192 35.936 0.12793 28.928 0.12793 20.768C0.12793 18.912 0.383929 17.112 0.863929 15.408V15.4C1.21593 14.472 1.46393 13.88 1.46393 13.88C1.46393 13.88 5.27193 17.936 8.41592 23.08C11.1759 27.616 12.3039 30.144 12.3039 34.04Z"/>
<path d="M37.0882 30.072C37.5922 30.656 33.7922 35.264 30.7682 37.208C28.5122 38.656 26.7042 38.864 26.0642 37.856C25.4722 36.912 26.4722 35.56 28.0082 34.28C30.2322 32.448 36.7362 29.672 37.0882 30.072Z"/>
<path d="M2.26367 11.824C2.26367 11.824 4.47167 7.56 7.48767 5.248C11.2957 2.328 12.9597 2.384 14.3757 3.328C15.5357 4.104 14.7597 6.04 12.5997 7.728C10.4397 9.416 5.36767 11.8 2.26367 11.824Z"/>
<path d="M39.9195 20.768C39.9195 23.36 39.4235 25.84 38.5195 28.12C38.0075 28.352 37.3355 28.52 36.5195 28.56C36.3915 28.568 36.2635 28.568 36.1275 28.568C33.3595 28.568 26.5195 26.984 20.8875 24.608C19.3035 23.944 17.8155 23.208 16.5355 22.432C10.7115 18.904 10.9515 16.416 10.9275 15.376C10.9035 14.496 11.1275 13.672 11.5435 12.904C13.5515 9.152 19.9835 6.68 23.3755 5.656C27.4635 4.416 31.4235 4.48 33.4715 6.152C33.5995 6.256 33.7435 6.376 33.8875 6.496C34.7195 7.304 35.4795 8.184 36.1675 9.128C38.5275 12.4 39.9195 16.424 39.9195 20.768Z"/>
<path d="M16.7525 7.90401C19.2725 6.56801 21.9125 5.68001 23.2565 5.27201C25.1365 4.70401 27.0085 4.40001 28.6725 4.40001C29.4965 4.40001 30.2565 4.47201 30.9525 4.61601C27.7445 2.44 23.9685 1.272 20.0245 1.272C17.7445 1.272 15.4885 1.672 13.3685 2.44C13.7845 2.536 14.1845 2.72 14.6005 3C15.0485 3.296 15.2965 3.744 15.3125 4.288C15.3525 5.40001 14.4325 6.80801 12.8485 8.04801C11.9845 8.72801 10.6965 9.48801 9.27246 10.176C9.52046 10.56 9.76046 10.88 10.0085 11.136C10.4565 11.6 10.9205 12 11.4085 12.344C12.3925 10.76 14.1845 9.27201 16.7525 7.90401Z"/>
<path d="M35.3124 30.064C35.5044 29.728 35.6964 29.36 35.8804 28.968C32.9204 28.888 26.4004 27.344 20.9364 25.064C19.9844 25.752 19.2004 26.48 18.6164 27.24C17.7924 28.312 17.3924 29.408 17.4324 30.496C17.4884 32.112 18.1204 33.664 19.2964 35.096C20.4084 36.448 21.6884 37.296 22.1844 37.592C23.2804 38.256 24.3204 38.328 24.7124 38.328C24.7844 38.328 24.8404 38.328 24.8644 38.32C25.0244 38.288 25.2804 38.208 25.6884 38.024C24.9284 36.72 26.3844 35.104 27.7444 33.976C29.4084 32.608 33.2084 30.824 35.3124 30.064Z"/>
</svg>
