<svg  viewBox="0 0 40 40"  xmlns="http://www.w3.org/2000/svg">
<path  d="M17.3333 7H4C2.93913 7 1.92172 7.42147 1.17157 8.1716C0.421427 8.92173 0 9.9392 0 11V29.6667C0.00152 30.5133 0.271626 31.3376 0.771453 32.0209C1.27127 32.7043 1.97501 33.2115 2.7814 33.4693C3.58778 33.7273 4.4552 33.7227 5.25881 33.4563C6.0624 33.1899 6.76079 32.6752 7.25333 31.9867L20.5867 13.32C21.0124 12.7221 21.2653 12.0185 21.318 11.2864C21.3705 10.5543 21.2205 9.82186 20.8847 9.1692C20.5487 8.51667 20.0397 7.96907 19.4133 7.5864C18.7869 7.20387 18.0673 7.00093 17.3333 7ZM6.66666 16.3333C6.1392 16.3333 5.62373 16.1769 5.18514 15.8839C4.74661 15.5909 4.40482 15.1744 4.20298 14.6872C4.00116 14.1999 3.94834 13.6637 4.05124 13.1464C4.15413 12.6292 4.4081 12.154 4.78105 11.7811C5.15398 11.4081 5.6292 11.1541 6.1464 11.0512C6.66373 10.9484 7.19986 11.0012 7.68719 11.2029C8.17439 11.4048 8.59093 11.7467 8.88386 12.1852C9.17693 12.6237 9.33333 13.1392 9.33333 13.6667C9.33333 14.3739 9.05239 15.0521 8.55226 15.5523C8.05213 16.0524 7.37386 16.3333 6.66666 16.3333Z"  fill-opacity="0.6"/>
<path  d="M27.3333 32.3339C29.1743 32.3339 30.6667 30.8415 30.6667 29.0005C30.6667 27.1596 29.1743 25.6672 27.3333 25.6672C25.4924 25.6672 24 27.1596 24 29.0005C24 30.8415 25.4924 32.3339 27.3333 32.3339Z" fill-opacity="0.6"/>
<path  d="M40 11V29.6667C40.0015 30.6648 39.6297 31.6275 38.9577 32.3656C38.2857 33.1037 37.3621 33.5638 36.3681 33.6557C35.3741 33.7477 34.3819 33.4646 33.5859 32.8621C32.79 32.2597 32.2481 31.3816 32.0667 30.4C32.024 30.1579 32.0017 29.9125 32 29.6667V26.6267C31.9928 25.7823 31.7187 24.9619 31.2168 24.2828C30.7149 23.6037 30.0111 23.1009 29.206 22.8464C28.4008 22.5919 27.5359 22.5987 26.7348 22.8657C25.9337 23.1328 25.2379 23.6465 24.7467 24.3333L22.6667 27.2533L19.32 31.9466C18.6816 32.7582 17.7543 33.2916 16.7317 33.435C15.7092 33.5786 14.6709 33.3212 13.8339 32.7167C12.9968 32.1121 12.426 31.2073 12.2407 30.1916C12.0555 29.1759 12.2701 28.1277 12.84 27.2667L26.1733 8.6C26.5417 8.10853 27.0185 7.70867 27.5665 7.4312C28.1145 7.15373 28.7191 7.00613 29.3333 7H36C37.0608 7 38.0783 7.42147 38.8284 8.1716C39.5785 8.92173 40 9.9392 40 11Z"/>
</svg>
