<svg viewBox="0 0 40 40"  xmlns="http://www.w3.org/2000/svg">
<g clip-path="url(#clip0_6452_64481)">
<path d="M16.5661 17.0817L17.8336 20.8253H14.9743L16.3155 17.0817H16.5661ZM23.4047 22.8297H21.3118V23.5666H26.4703V22.8297H24.4069V16.9344H26.4703V16.1974H21.3118V16.9344H23.4047V22.8297ZM13.9868 23.5666L14.6943 21.5917H18.0988L18.7621 23.5666H19.8527L17.1998 16.1974H15.6965L12.9994 23.5666H13.9868ZM30.5823 30.5821H9.41797V9.41776H30.5823V30.5821Z"/>
<path d="M22.0635 39.9999C31.5108 39.0272 39.0275 31.5106 40.0001 22.0633H37.5094C36.6251 30.2578 30.4202 36.7869 22.0635 37.7154V39.9999Z"/>
<path d="M0 22.0633C0.972736 31.5106 8.48932 39.0272 17.9366 39.9999V37.7154C9.57996 36.7869 3.38983 30.2431 2.49079 22.0633H0Z"/>
<path d="M40.0001 17.9366C39.0275 8.48932 31.5108 0.972732 22.0635 0V2.28445C30.4202 3.21297 36.6104 9.7568 37.5094 17.9366H40.0001Z"/>
<path d="M17.9366 0C8.48932 0.972732 0.972732 8.48932 0 17.9366H2.49079C3.37509 9.74208 9.57996 3.21297 17.9366 2.28445V0Z"/>
</g>
<defs>
<clipPath id="clip0_6452_64481">
<rect width="40" height="40" fill="white"/>
</clipPath>
</defs>
</svg>
