<svg viewBox="0 0 40 40" xmlns="http://www.w3.org/2000/svg">
    <path d="M36.5595 7.07102C36.1523 5.50297 34.8435 3.93492 32.4875 2.18935C30.597 0.798818 28.5902 0 26.9905 0C26.6705 0 26.3797 0.0295845 26.0889 0.088756C25.3617 0.236685 24.7219 0.769231 24.3147 1.56805C23.8202 2.5148 23.7039 3.78699 24.0239 4.55623C24.1402 4.79291 24.2856 5.08877 24.4601 5.35504C22.9186 6.30179 22.046 6.56806 21.9297 6.59765C25.9434 7.95859 29.2882 10.7989 31.3824 14.497L31.4115 14.142C31.4987 13.1657 31.7895 12.0414 32.1967 10.8876C32.6039 11.0059 33.0111 11.0651 33.4183 11.0651C34.4945 11.0651 35.4251 10.6214 36.0069 9.82252C36.5886 9.02369 36.8212 7.9586 36.5595 7.07102Z"/>
    <path d="M32.3722 10.0295C35.0189 10.7691 36.095 8.6981 35.746 7.30758C35.3679 5.91704 34.1463 4.49692 31.9941 2.89928C29.8417 1.30165 27.6604 0.650759 26.2643 0.946614C24.8682 1.24247 24.461 3.40224 24.8101 4.23065C24.9555 4.55609 25.2754 5.02946 25.7116 5.56201C25.1591 5.94662 24.6355 6.24248 24.1992 6.50876C26.8751 7.72178 29.2019 9.61527 30.947 11.9821C31.1506 11.1834 31.4414 10.4733 31.7032 9.85193C31.9067 9.88152 32.1395 9.94068 32.3722 10.0295Z"
          fill="#F1EEFF"/>
    <path d="M17.2186 39.0234C26.1979 39.0234 33.4771 31.6189 33.4771 22.485C33.4771 13.351 26.1979 5.94647 17.2186 5.94647C8.23917 5.94647 0.959961 13.351 0.959961 22.485C0.959961 31.6189 8.23917 39.0234 17.2186 39.0234Z"
          opacity='0.1'/>
    <path opacity="0.6"
          d="M34.4074 5.94657C32.197 3.5797 30.3355 2.9584 28.0959 2.45544C26.3509 2.04124 26.8162 1.03532 28.9394 1.24242C27.9214 0.887388 26.9616 0.798632 26.2636 0.946563C24.8675 1.24242 24.4603 3.40219 24.8094 4.2306C24.9548 4.55604 25.2747 5.02941 25.7109 5.56196C24.9257 6.0945 24.2567 6.47912 23.7041 6.77498C23.9659 6.89332 24.2858 7.04125 24.6639 7.24835C25.6528 7.78089 26.7289 8.66844 26.7289 8.66844C25.1002 7.24835 25.4492 6.59746 27.6888 4.99982C28.3868 4.49686 29.6665 4.55604 30.859 5.17734C32.0515 5.79864 33.4476 7.36669 33.4476 7.36669L32.1097 9.97027C32.197 9.99986 32.2842 10.0294 32.3715 10.059C33.215 10.2957 33.8839 10.2365 34.4074 10.0294C35.0182 9.64477 36.6179 8.34302 34.4074 5.94657Z"/>
    <path d="M28.0674 3.87571C28.6491 4.1124 29.4053 4.5266 30.336 5.1479C31.4413 5.88755 32.401 6.71595 33.0119 7.36684C31.9939 8.72776 31.3249 10.5917 30.9177 11.8935C31.1213 12.1893 31.3539 12.4852 31.5576 12.781C31.7612 12.0414 32.1102 10.9468 32.5755 9.85201C32.6919 9.88168 32.8373 9.88168 32.9828 9.88168C33.3318 9.88168 33.7389 9.82243 34.0589 9.55618C34.2915 9.37868 34.5534 9.05326 34.5243 8.46151C34.5243 7.89939 34.0879 7.18933 33.1864 6.33134C32.5464 5.71004 31.6739 5.02956 30.8014 4.40826C28.3 2.72186 26.5549 2.24849 25.7697 3.0473C25.2461 3.57985 25.3043 4.23074 25.4788 4.70412C24.5481 5.32542 23.7628 5.7692 23.2393 6.06506C23.5883 6.1834 23.9082 6.33134 24.2573 6.47927C25.1879 5.97631 26.5258 5.11832 28.0674 3.87571ZM33.5644 8.10649C33.6517 8.25442 33.6808 8.40234 33.6808 8.49109C33.6808 8.75734 33.5935 8.84618 33.5354 8.90534C33.419 8.99409 33.1864 9.05326 32.9828 9.05326C33.1573 8.69817 33.3609 8.40234 33.5644 8.10649ZM26.3804 3.6982C26.4677 3.60944 26.7003 3.55026 27.0785 3.60944C26.7876 3.84612 26.4968 4.05322 26.2059 4.26032C26.1768 4.05322 26.2059 3.84612 26.3804 3.6982Z"/>
    <path d="M17.2184 4.97032C7.70754 4.97032 0 12.8105 0 22.4851C0 32.1597 7.70754 40 17.2184 40C26.7292 40 34.4367 32.1597 34.4367 22.4851C34.4367 12.8105 26.7001 4.97032 17.2184 4.97032ZM17.2184 39.0237C8.23108 39.0237 0.95981 31.6272 0.95981 22.4851C0.95981 13.3431 8.23108 5.94665 17.2184 5.94665C26.2056 5.94665 33.4769 13.3431 33.4769 22.4851C33.4769 31.6272 26.1766 39.0237 17.2184 39.0237Z"/>
    <path opacity="0.1"
          d="M17.2186 39.0238C26.1979 39.0238 33.4771 31.6193 33.4771 22.4854C33.4771 13.3515 26.1979 5.94688 17.2186 5.94688C8.23917 5.94688 0.959961 13.3515 0.959961 22.4854C0.959961 31.6193 8.23917 39.0238 17.2186 39.0238Z"/>
    <path opacity="0.6"
          d="M17.1016 37.012C8.23061 35.5623 2.21 27.0712 3.66425 18.0475C4.30413 14.0535 6.28191 10.651 9.07408 8.19542C5.00216 10.5919 1.97732 14.7635 1.16294 19.8522C-0.262232 28.8759 5.75838 37.3671 14.6003 38.8168C19.5447 39.6452 24.3147 38.0772 27.834 35.0002C24.7219 36.8345 20.9408 37.6333 17.1016 37.012Z"/>
    <path opacity="0.6"
          d="M19.8072 6.18355C15.7062 5.50307 11.7216 6.44983 8.46397 8.55044C8.40581 8.60961 8.34764 8.66877 8.34764 8.66877C9.59831 7.89953 11.4306 7.21906 11.4306 7.21906C6.7189 10.0001 5.26465 13.1658 5.26465 13.1658C7.09701 9.55636 12.4777 7.01195 16.6951 6.83444C20.9124 6.65693 23.6755 7.92912 27.0493 10.6806C30.4233 13.4617 32.4592 19.1421 32.2556 23.6392C32.0811 28.1362 29.7543 31.7753 29.7543 31.7753C31.3539 29.6747 32.3138 28.1362 32.9245 26.5682C33.0409 26.0948 33.1573 25.6215 33.2154 25.1185C34.6697 16.1244 28.6781 7.63326 19.8072 6.18355Z"/>
    <path opacity="0.6"
          d="M32.6626 22.3373C32.6626 31.006 25.7403 38.0474 17.2184 38.0474C8.69645 38.0474 1.74512 31.006 1.74512 22.3373H32.6626Z"/>
    <g opacity="0.6">
        <path opacity="0.6"
              d="M31.4408 22.3373C31.4408 30.7988 24.8676 37.7219 16.6074 38.0474C16.811 38.0474 17.0146 38.0474 17.2182 38.0474C25.7401 38.0474 32.6624 31.006 32.6624 22.3373H31.4408Z"/>
    </g>
    <g opacity="0.7">
        <path opacity="0.7"
              d="M3.92552 22.3373H1.74414C1.74414 31.006 8.66639 38.0474 17.1883 38.0474C17.5664 38.0474 17.9154 38.0474 18.2645 38.0178C10.2661 37.4261 3.92552 30.6213 3.92552 22.3373Z"/>
    </g>
    <path d="M32.6335 22.4852C32.6335 20.6806 29.5504 19.6451 25.4495 19.29C22.4828 19.0533 19.487 19.3491 16.055 20.4142C13.0883 21.3018 10.4125 21.1539 8.46378 20.9172C4.13009 20.4142 1.74512 20.3551 1.74512 22.4852C1.74512 25.5621 7.91115 29.4083 17.1602 28.077C21.8429 27.3965 24.257 26.006 27.0201 25.0592C30.0158 24.0533 32.6335 24.0829 32.6335 22.4852Z"
          opacity='0.7'/>
    <path d="M22.2788 15.0297C23.7245 15.0297 24.8965 13.8375 24.8965 12.3669C24.8965 10.8963 23.7245 9.70418 22.2788 9.70418C20.8331 9.70418 19.6611 10.8963 19.6611 12.3669C19.6611 13.8375 20.8331 15.0297 22.2788 15.0297Z"
          fill="white"/>
    <path d="M26.5545 17.0117C27.1649 17.0117 27.6597 16.5084 27.6597 15.8874C27.6597 15.2665 27.1649 14.7632 26.5545 14.7632C25.9441 14.7632 25.4492 15.2665 25.4492 15.8874C25.4492 16.5084 25.9441 17.0117 26.5545 17.0117Z"
          fill="white"/>
    <g opacity="0.6">
        <path opacity="0.6"
              d="M30.51 10.2368C30.4809 10.2368 30.4518 10.2368 30.4518 10.2368C30.2773 10.2072 30.1609 10.0297 30.19 9.82252C30.4518 8.4616 31.557 7.15981 31.6152 7.10064C31.7316 6.95271 31.9643 6.95271 32.0806 7.07106C32.226 7.1894 32.226 7.42609 32.1097 7.54443C32.0806 7.57401 31.0626 8.78702 30.8299 9.97043C30.8008 10.148 30.6554 10.2368 30.51 10.2368Z"/>
    </g>
    <path opacity="0.2"
          d="M16.1435 34.8226C16.5933 34.8226 16.9579 34.4516 16.9579 33.9941C16.9579 33.5366 16.5933 33.1657 16.1435 33.1657C15.6938 33.1657 15.3291 33.5366 15.3291 33.9941C15.3291 34.4516 15.6938 34.8226 16.1435 34.8226Z"
          fill="white"/>
    <g opacity="0.4">
        <path opacity="0.6"
              d="M15.6766 34.5276C15.3567 34.2021 15.3567 33.6696 15.6766 33.3442C15.7348 33.2851 15.7929 33.2555 15.8511 33.1962C15.7348 33.2259 15.6475 33.2851 15.5603 33.3738C15.2403 33.6992 15.2403 34.2317 15.5603 34.5572C15.822 34.8235 16.2292 34.8826 16.5492 34.7051C16.2583 34.8235 15.9093 34.7643 15.6766 34.5276Z"/>
    </g>
    <path opacity="0.3"
          d="M16.4333 33.7576C16.5296 33.7576 16.6078 33.6782 16.6078 33.5801C16.6078 33.4821 16.5296 33.4026 16.4333 33.4026C16.3369 33.4026 16.2588 33.4821 16.2588 33.5801C16.2588 33.6782 16.3369 33.7576 16.4333 33.7576Z"
          fill="white"/>
    <path opacity="0.2"
          d="M20.3896 34.4083C20.8394 34.4083 21.2039 34.0375 21.2039 33.5799C21.2039 33.1224 20.8394 32.7516 20.3896 32.7516C19.9399 32.7516 19.5752 33.1224 19.5752 33.5799C19.5752 34.0375 19.9399 34.4083 20.3896 34.4083Z"
          fill="white"/>
    <g opacity="0.4">
        <path opacity="0.6"
              d="M19.9246 34.113C19.6047 33.7876 19.6047 33.255 19.9246 32.9296C19.9828 32.8704 20.041 32.8408 20.0991 32.7816C19.9828 32.8112 19.8955 32.8704 19.8083 32.9591C19.4884 33.2846 19.4884 33.8172 19.8083 34.1426C20.07 34.4089 20.4772 34.4681 20.7972 34.2905C20.5063 34.4089 20.1573 34.3497 19.9246 34.113Z"/>
    </g>
    <path opacity="0.3"
          d="M20.6794 33.3434C20.7757 33.3434 20.8539 33.2639 20.8539 33.1659C20.8539 33.0678 20.7757 32.9883 20.6794 32.9883C20.583 32.9883 20.5049 33.0678 20.5049 33.1659C20.5049 33.2639 20.583 33.3434 20.6794 33.3434Z"
          fill="white"/>
    <path opacity="0.2"
          d="M18.2943 36.3314C18.6317 36.3314 18.9051 36.0532 18.9051 35.7101C18.9051 35.3669 18.6317 35.0887 18.2943 35.0887C17.957 35.0887 17.6836 35.3669 17.6836 35.7101C17.6836 36.0532 17.957 36.3314 18.2943 36.3314Z"
          fill="white"/>
    <g opacity="0.4">
        <path opacity="0.6"
              d="M17.9453 36.0957C17.7127 35.8589 17.7127 35.4447 17.9453 35.2081C17.9744 35.1785 18.0326 35.1489 18.0617 35.1193C17.9744 35.1489 17.9163 35.2081 17.8581 35.2672C17.6254 35.5039 17.6254 35.9181 17.8581 36.1548C18.0617 36.3619 18.3525 36.3915 18.6143 36.2436C18.3816 36.3323 18.1198 36.2732 17.9453 36.0957Z"/>
    </g>
    <path opacity="0.3"
          d="M18.4982 35.5029C18.5624 35.5029 18.6145 35.4499 18.6145 35.3845C18.6145 35.3192 18.5624 35.2662 18.4982 35.2662C18.4339 35.2662 18.3818 35.3192 18.3818 35.3845C18.3818 35.4499 18.4339 35.5029 18.4982 35.5029Z"
          fill="white"/>
    <path opacity="0.2"
          d="M22.0473 35.8875C22.3846 35.8875 22.6581 35.6093 22.6581 35.2662C22.6581 34.923 22.3846 34.6448 22.0473 34.6448C21.7099 34.6448 21.4365 34.923 21.4365 35.2662C21.4365 35.6093 21.7099 35.8875 22.0473 35.8875Z"
          fill="white"/>
    <g opacity="0.4">
        <path opacity="0.6"
              d="M21.6973 35.6517C21.4646 35.415 21.4646 35.0008 21.6973 34.7642C21.7264 34.7346 21.7845 34.705 21.8136 34.6754C21.7264 34.705 21.6682 34.7642 21.61 34.8233C21.3774 35.06 21.3774 35.4742 21.61 35.7109C21.8136 35.918 22.1045 35.9476 22.3662 35.7997C22.1335 35.8884 21.8718 35.8292 21.6973 35.6517Z"/>
    </g>
    <path opacity="0.3"
          d="M22.2501 35.0589C22.3144 35.0589 22.3665 35.006 22.3665 34.9406C22.3665 34.8752 22.3144 34.8222 22.2501 34.8222C22.1859 34.8222 22.1338 34.8752 22.1338 34.9406C22.1338 35.006 22.1859 35.0589 22.2501 35.0589Z"
          fill="white"/>
    <path opacity="0.2"
          d="M12.6817 34.5266C13.4205 34.5266 14.0195 33.9172 14.0195 33.1656C14.0195 32.414 13.4205 31.8046 12.6817 31.8046C11.9428 31.8046 11.3438 32.414 11.3438 33.1656C11.3438 33.9172 11.9428 34.5266 12.6817 34.5266Z"
          fill="white"/>
    <g opacity="0.4">
        <path opacity="0.6"
              d="M11.9245 34.0236C11.401 33.491 11.401 32.633 11.9245 32.1005C12.0118 32.0117 12.099 31.9526 12.2154 31.8934C12.0409 31.9526 11.8955 32.0709 11.75 32.1892C11.2265 32.7218 11.2265 33.5797 11.75 34.1123C12.1863 34.5561 12.8553 34.6448 13.3788 34.3194C12.8844 34.5265 12.3026 34.4377 11.9245 34.0236Z"/>
    </g>
    <path opacity="0.3"
          d="M13.1463 32.7516C13.3069 32.7516 13.4371 32.6191 13.4371 32.4557C13.4371 32.2923 13.3069 32.1599 13.1463 32.1599C12.9856 32.1599 12.8555 32.2923 12.8555 32.4557C12.8555 32.6191 12.9856 32.7516 13.1463 32.7516Z"
          fill="white"/>
    <path opacity="0.2"
          d="M24.6357 31.1835C25.3746 31.1835 25.9736 30.5741 25.9736 29.8225C25.9736 29.0709 25.3746 28.4616 24.6357 28.4616C23.8969 28.4616 23.2979 29.0709 23.2979 29.8225C23.2979 30.5741 23.8969 31.1835 24.6357 31.1835Z"
          fill="white"/>
    <g opacity="0.4">
        <path opacity="0.6"
              d="M23.8504 30.6805C23.3268 30.1479 23.3268 29.2899 23.8504 28.7574C23.9376 28.6687 24.0249 28.6095 24.1412 28.5503C23.9667 28.6095 23.8213 28.7278 23.6759 28.8462C23.1523 29.3787 23.1523 30.2367 23.6759 30.7692C24.1121 31.213 24.7811 31.3017 25.3046 30.9763C24.8101 31.1834 24.2576 31.0947 23.8504 30.6805Z"/>
    </g>
    <path opacity="0.3"
          d="M25.1004 29.4085C25.2611 29.4085 25.3913 29.2761 25.3913 29.1127C25.3913 28.9492 25.2611 28.8168 25.1004 28.8168C24.9398 28.8168 24.8096 28.9492 24.8096 29.1127C24.8096 29.2761 24.9398 29.4085 25.1004 29.4085Z"
          fill="white"/>
    <defs>
        <linearGradient id="paint0_linear_60_1178" x1="14.6105" y1="38.7893" x2="19.9867" y2="6.18307"
                        gradientUnits="userSpaceOnUse">
            <stop/>
            <stop offset="0.6202" stopColor="white" stopOpacity="0"/>
        </linearGradient>
        <linearGradient id="paint1_linear_60_1178" x1="28.6768" y1="11.2535" x2="15.0229" y2="23.5692"
                        gradientUnits="userSpaceOnUse">
            <stop offset="0.2888" stopColor="white"/>
            <stop offset="0.7796" stopColor="white" stopOpacity="0"/>
        </linearGradient>
        <linearGradient id="paint2_linear_60_1178" x1="1.7582" y1="30.1831" x2="32.6551" y2="30.1831"
                        gradientUnits="userSpaceOnUse">
            <stop opacity='0.1'/>
            <stop offset="0.9952" stopOpacity='0.1'/>
        </linearGradient>
        <linearGradient id="paint3_linear_60_1178" x1="34.1175" y1="23.7158" x2="17.0298" y2="39.5912"
                        gradientUnits="userSpaceOnUse">
            <stop offset="0.2888" stopColor="white"/>
            <stop offset="0.7796" stopColor="white" stopOpacity="0"/>
        </linearGradient>
        <linearGradient id="paint5_linear_60_1178" x1="1.77894" y1="23.7904" x2="32.6343" y2="23.7904"
                        gradientUnits="userSpaceOnUse">
            <stop/>
            <stop offset="0.9952" stopOpacity="0.5"/>
        </linearGradient>
        <linearGradient id="paint6_linear_60_1178" x1="32.1278" y1="6.95656" x2="29.8548" y2="10.5876"
                        gradientUnits="userSpaceOnUse">
            <stop offset="0.2888" stopColor="white"/>
            <stop offset="0.7796" stopColor="white" stopOpacity="0"/>
        </linearGradient>
        <linearGradient id="paint7_linear_60_1178" x1="15.3195" y1="34.0205" x2="16.55" y2="34.0205"
                        gradientUnits="userSpaceOnUse">
            <stop offset="0.2888" stopColor="white"/>
            <stop offset="0.7796" stopColor="white" stopOpacity="0"/>
        </linearGradient>
        <linearGradient id="paint8_linear_60_1178" x1="19.5645" y1="33.6002" x2="20.7951" y2="33.6002"
                        gradientUnits="userSpaceOnUse">
            <stop offset="0.2888" stopColor="white"/>
            <stop offset="0.7796" stopColor="white" stopOpacity="0"/>
        </linearGradient>
        <linearGradient id="paint9_linear_60_1178" x1="17.6798" y1="35.7181" x2="18.6036" y2="35.7181"
                        gradientUnits="userSpaceOnUse">
            <stop offset="0.2888" stopColor="white"/>
            <stop offset="0.7796" stopColor="white" stopOpacity="0"/>
        </linearGradient>
        <linearGradient id="paint10_linear_60_1178" x1="21.4191" y1="35.273" x2="22.343" y2="35.273"
                        gradientUnits="userSpaceOnUse">
            <stop offset="0.2888" stopColor="white"/>
            <stop offset="0.7796" stopColor="white" stopOpacity="0"/>
        </linearGradient>
        <linearGradient id="paint11_linear_60_1178" x1="11.344" y1="33.2002" x2="13.3536" y2="33.2002"
                        gradientUnits="userSpaceOnUse">
            <stop offset="0.2888" stopColor="white"/>
            <stop offset="0.7796" stopColor="white" stopOpacity="0"/>
        </linearGradient>
        <linearGradient id="paint12_linear_60_1178" x1="23.281" y1="29.8562" x2="25.2906" y2="29.8562"
                        gradientUnits="userSpaceOnUse">
            <stop offset="0.2888" stopColor="white"/>
            <stop offset="0.7796" stopColor="white" stopOpacity="0"/>
        </linearGradient>
    </defs>
</svg>