<svg viewBox="0 0 40 40" xmlns="http://www.w3.org/2000/svg">
    <path
          d="M7.19243 6.25C6.56151 3 9.08517 0 12.3659 0C15.2681 0 17.6656 2.375 17.6656 5.25V11.75C18.4227 11.75 19.1798 11.625 19.9369 11.625C20.694 11.625 21.3249 11.625 22.082 11.75V5.25C22.082 2.375 24.4795 0 27.3817 0C30.6625 0 33.1861 3 32.6814 6.25L31.2934 13.875C36.2145 16 40 19.75 40 24.375V27.25C40 31.125 37.4763 34.375 33.817 36.5C30.1577 38.75 25.3628 40 19.9369 40C14.511 40 9.71609 38.75 6.05678 36.5C2.52366 34.375 0 31.125 0 27.25V24.375C0 19.75 3.65931 16 8.58044 13.875L7.19243 6.25ZM29.4006 14.875L31.041 5.875C31.4196 3.625 29.7792 1.5 27.3817 1.5C25.3628 1.5 23.7224 3.125 23.7224 5.125V13.375C23.2177 13.25 22.5868 13.25 22.082 13.25C21.3249 13.25 20.694 13.125 19.9369 13.125C19.1798 13.125 18.4227 13.125 17.6656 13.25C17.1609 13.25 16.53 13.375 16.0252 13.375V5.25C16.0252 3.25 14.3849 1.625 12.3659 1.625C10.0946 1.625 8.32808 3.75 8.83281 6L10.4732 15C5.1735 17 1.64038 20.5 1.64038 24.5V27.375C1.64038 33.5 9.84227 38.5 19.9369 38.5C30.0315 38.5 38.2334 33.5 38.2334 27.375V24.5C38.3596 20.375 34.8265 16.875 29.4006 14.875Z"/>
    <path d="M8.83285 6C8.32812 3.75 10.0947 1.625 12.366 1.625C14.3849 1.625 16.0253 3.25 16.0253 5.25V13.5C17.2871 13.375 18.5489 13.25 19.9369 13.25C21.1988 13.25 22.4606 13.375 23.7224 13.5V5.25C23.7224 3.25 25.3628 1.625 27.3817 1.625C29.653 1.625 31.4196 3.75 31.041 6L29.4007 15C34.7004 17 38.3597 20.5 38.3597 24.5C38.3597 30.625 30.1578 35.625 20.0631 35.625C9.96849 35.625 1.7666 30.625 1.7666 24.5C1.7666 20.5 5.29972 17 10.5994 15L8.83285 6Z"
          opacity='0.3'/>
    <path d="M14.8894 23.625C14.8894 25.25 14.0061 26.625 12.8705 26.625C11.7348 26.625 10.8516 25.25 10.8516 23.625C10.8516 22 11.7348 20.625 12.8705 20.625C14.0061 20.625 14.8894 22 14.8894 23.625Z"/>
    <path d="M28.8962 23.625C28.8962 25.25 28.013 26.625 26.8773 26.625C25.7417 26.625 24.8584 25.25 24.8584 23.625C24.8584 22 25.7417 20.625 26.8773 20.625C28.013 20.625 28.8962 22 28.8962 23.625Z"/>
</svg>