<svg viewBox="0 0 14 14" xmlns="http://www.w3.org/2000/svg">
<circle cx="7" cy="7" r="7"/>
<mask id="mask0_2973_35119" style="mask-type:alpha" maskUnits="userSpaceOnUse" x="0" y="0" width="14" height="14">
<circle cx="7" cy="7" r="7" fill="white"/>
</mask>
<g mask="url(#mask0_2973_35119)">
<path d="M10.2881 7.34154C10.2881 7.84178 10.1675 8.31076 9.92635 8.74847C9.69409 9.18618 9.32338 9.53903 8.81421 9.80701C8.31397 10.075 7.67973 10.209 6.91151 10.209H5.34379V13.8H3.46789V4.4473H6.91151C7.63507 4.4473 8.25144 4.57236 8.76061 4.82248C9.26978 5.0726 9.64943 5.41651 9.89955 5.85422C10.1586 6.29193 10.2881 6.7877 10.2881 7.34154ZM6.83111 8.69487C7.34922 8.69487 7.73333 8.57874 7.98345 8.34649C8.23357 8.1053 8.35863 7.77032 8.35863 7.34154C8.35863 6.43039 7.84946 5.97481 6.83111 5.97481H5.34379V8.69487H6.83111Z" fill="white"/>
</g>
<rect x="3.29395" y="2.41233" width="7.00073" height="1.52743" fill="#E50913"/>
</svg>
