<svg viewBox="0 0 40 40" xmlns="http://www.w3.org/2000/svg">
<path d="M32.1604 17.6459C32.1604 19.3774 31.7436 21.0005 30.91 22.5156C30.1072 24.0306 28.8258 25.2519 27.0659 26.1794C25.3369 27.1069 23.1447 27.5707 20.4894 27.5707H15.0708V40H8.58691V7.62834H20.4894C22.9904 7.62834 25.1208 8.0612 26.8806 8.92691C28.6406 9.79264 29.9528 10.983 30.8173 12.498C31.7126 14.0129 32.1604 15.729 32.1604 17.6459ZM20.2115 22.33C22.0023 22.33 23.3299 21.9281 24.1944 21.1243C25.059 20.2894 25.4913 19.13 25.4913 17.6459C25.4913 14.4922 23.7313 12.9153 20.2115 12.9153H15.0708V22.33H20.2115Z"/>
<path d="M32.1973 0H8V5.28675H32.1973V0Z"/>
</svg>
