<svg viewBox="0 0 40 40" xmlns="http://www.w3.org/2000/svg">
<path d="M14.9896 0.86236L14.3955 1.74387L16.9251 7.03291C18.324 9.94572 19.5887 12.5519 19.7229 12.8202L19.9912 13.2993L19.8762 12.801C19.8187 12.5328 19.2821 9.67743 18.6881 6.49634L17.5958 0.689891L16.5993 0.344954L15.5836 1.52588e-05L14.9896 0.86236Z"/>
<path d="M21.5429 7.47397L21.083 7.83807L21.5238 10.0035C21.7537 11.1725 22.0028 12.2264 22.0603 12.3223C22.1178 12.4181 22.4053 11.4408 22.7119 10.1377C22.9993 8.83456 23.2293 7.76142 23.191 7.74225C23.1718 7.74225 22.9227 7.56978 22.6352 7.39732C22.0028 7.01405 22.0987 6.99489 21.5429 7.47397Z"/>
<path d="M35.494 8.66194C34.5742 9.52428 32.5429 11.4598 30.9523 12.9545C29.3618 14.4684 28.1162 15.6948 28.1928 15.6948C28.2695 15.6757 30.7415 14.3726 33.6926 12.7629L39.0583 9.83089L39.1158 8.75775L39.1733 7.68461L38.2727 7.378C37.7744 7.20553 37.3145 7.07139 37.257 7.07139C37.1995 7.09055 36.3947 7.79959 35.494 8.66194Z"/>
<path d="M27.7334 8.75721C27.1777 8.8147 27.1393 8.87219 26.5261 10.8652C26.162 11.9958 25.8362 13.0881 25.7787 13.2989C25.7212 13.5097 26.4111 12.839 27.3118 11.785C28.864 10.0028 28.9598 9.86868 28.7682 9.35127C28.5382 8.69972 28.4999 8.68056 27.7334 8.75721Z"/>
<path d="M13.1487 10.8653C13.0146 10.942 12.8804 11.2869 12.8613 11.6127C12.8038 12.1684 12.9188 12.2834 14.7201 13.4524C15.7741 14.1422 16.6556 14.6788 16.6939 14.6405C16.7323 14.6021 16.2148 13.7206 15.5441 12.6475C14.5476 11.057 14.2602 10.7312 13.8578 10.7312C13.5895 10.712 13.2829 10.7887 13.1487 10.8653Z"/>
<path d="M1.63239 19.2588L1 20.102L1.63239 20.9643C2.14979 21.6542 2.36059 21.8075 2.74385 21.7309C3.01214 21.6734 5.56084 21.3284 8.397 20.9643C11.2523 20.5811 13.8777 20.2361 14.2418 20.1595C14.7017 20.0828 13.1878 19.8145 9.25934 19.3163C6.1549 18.9139 3.29958 18.5498 2.93548 18.4923C2.32226 18.4156 2.20728 18.4731 1.63239 19.2588Z"/>
<path d="M32.0628 19.4508C30.9513 19.6999 29.9165 19.9299 29.7632 19.9682C29.4758 20.0257 32.3503 20.7539 33.7492 20.9838C34.3816 21.0797 34.4965 21.0222 34.7648 20.5622C35.0714 20.064 35.0714 20.0065 34.6882 19.4891C34.4774 19.2017 34.2474 18.9717 34.1899 18.9717C34.1324 18.9909 33.1743 19.2017 32.0628 19.4508Z"/>
<path d="M12.3643 22.4974C11.1762 22.6124 10.1606 22.7849 10.1031 22.8423C10.0456 22.8998 9.96892 23.2256 9.96892 23.5705C9.9306 24.0496 10.0456 24.2604 10.4097 24.4712C10.8504 24.7203 11.0037 24.6629 12.8051 23.6472C14.8747 22.4591 15.2388 22.1908 14.8172 22.2291C14.6639 22.2483 13.5524 22.3633 12.3643 22.4974Z"/>
<path d="M13.7629 25.2571C11.6742 26.1769 11.655 26.1961 11.5975 26.886C11.54 27.48 11.5975 27.595 12.0574 27.7675C12.3449 27.8824 12.6323 27.9399 12.6898 27.9208C12.9581 27.8058 16.1967 24.3181 16.0434 24.3181C15.9475 24.3373 14.9319 24.7397 13.7629 25.2571Z"/>
<path d="M28.1536 24.4903C28.2495 24.5861 30.3382 26.5599 32.8103 28.8787L37.2753 33.0754L38.2143 32.788L39.1533 32.4813V31.389V30.2967L34.6116 27.8438C32.1013 26.5024 29.6292 25.161 29.131 24.8544C28.2111 24.3178 27.8087 24.1645 28.1536 24.4903Z"/>
<path d="M15.871 27.6138C14.1654 29.1469 14.0313 29.3769 14.3379 30.22C14.3954 30.3733 14.6828 30.45 15.1236 30.4117C15.8135 30.3542 15.8326 30.335 16.7525 28.2654C17.2699 27.1156 17.6723 26.1574 17.6531 26.1383C17.6148 26.1 16.8291 26.7707 15.871 27.6138Z"/>
<path d="M17.1731 32.7115C15.3334 36.6017 14.5286 38.4988 14.6436 38.6905C14.7202 38.8438 15.0077 39.227 15.2568 39.5336C15.7167 40.0894 15.7167 40.0894 16.6174 39.8403C17.1156 39.7061 17.5755 39.457 17.633 39.3228C17.7672 38.9971 19.9518 27.1159 19.9134 27.0584C19.8943 27.0201 18.6487 29.5688 17.1731 32.7115Z"/>
<path d="M24.7438 29.5302C24.8779 30.8333 25.0312 31.9064 25.0504 31.9447C25.0887 31.9639 25.3761 32.0789 25.7019 32.1747C26.2385 32.3088 26.3535 32.2705 26.6792 31.8106L27.0625 31.2932L25.951 29.4152C25.3378 28.3804 24.7438 27.4605 24.6479 27.3647C24.5521 27.2689 24.5905 28.2271 24.7438 29.5302Z"/>
<path d="M21.9457 28.2465C21.8307 28.6681 21.6008 29.7412 21.4283 30.6227L21.1025 32.2324L21.5433 32.5774C22.1182 33.0181 22.2715 33.0181 22.8081 32.5774L23.2297 32.2133L22.7506 30.0478C22.4823 28.8405 22.2523 27.7674 22.214 27.6716C22.1757 27.5566 22.0607 27.8249 21.9457 28.2465Z"/>
</svg>
