<svg viewBox="0 0 40 40" xmlns="http://www.w3.org/2000/svg">
<path fill-rule="evenodd" clip-rule="evenodd" d="M20 40C31.0457 40 40 31.0457 40 20C40 8.9543 31.0457 0 20 0C8.9543 0 0 8.9543 0 20C0 31.0457 8.9543 40 20 40ZM20.9997 7.24374C20.3809 6.88648 19.6185 6.88648 18.9997 7.24374L9.45267 12.7557C9.12637 12.9441 8.86613 13.2167 8.69302 13.5372L31.5467 16.2015V14.4878C31.5467 13.7732 31.1655 13.113 30.5467 12.7557L20.9997 7.24374ZM31.5467 18.2151L8.45267 15.5227V24.5221L31.5467 23.4491V18.2151ZM9.45267 27.2437C9.1433 27.0651 8.89331 26.8108 8.72067 26.5118L31.5467 25.4512V25.5117C31.5467 26.2262 31.1655 26.8865 30.5467 27.2437L20.9997 32.7557C20.3809 33.113 19.6185 33.113 18.9997 32.7557L9.45267 27.2437Z"/>
</svg>
