<svg viewBox="0 0 41 41" xmlns="http://www.w3.org/2000/svg">
<path fill-rule="evenodd" clip-rule="evenodd" d="M35.9752 7.9196C32.9464 4.0414 28.4993 1.58947 23.5794 1.58947C14.0682 1.58947 7.11303 10.4276 7.11303 20.0029C7.11303 26.6776 11.5441 31.6696 16.472 31.6696C16.9287 31.6696 17.3855 31.6295 17.8422 31.5414C14.5409 29.1375 12.4335 24.7465 12.4335 19.9949C12.4335 12.4228 17.5537 6.52537 23.5874 6.52537C30.1659 6.52537 34.7493 13.0638 34.7493 19.9949C34.7332 25.1151 32.9063 30.2033 29.6932 33.9613C26.8887 37.2385 23.2589 39.3218 19.2685 39.9789C19.2685 39.9789 19.605 40.0029 20.0377 40.0029C31.0874 40.0029 40.0457 31.0446 40.0457 19.9869C40.0377 15.4677 38.5233 11.277 35.9752 7.9196ZM32.9384 20.0109C32.9384 13.3363 28.5073 8.33627 23.5794 8.33627C23.1146 8.33627 22.6659 8.37633 22.2092 8.46447C25.5105 10.8683 27.6178 15.2593 27.6178 20.0109C27.6178 27.5831 22.4977 33.4805 16.464 33.4805C9.87746 33.4805 5.30214 26.942 5.30214 20.0109C5.31816 14.8908 7.14509 9.80261 10.3582 6.0446C13.1627 2.76736 16.7925 0.684025 20.7829 0.0269735C20.7829 0.0269735 20.4544 0.00293506 20.0137 0.00293506C8.97201 -0.00507776 0.0136719 8.95326 0.0136719 20.0109C0.0136719 24.5542 1.5281 28.7369 4.07617 32.0943C7.10502 35.9725 11.5521 38.4244 16.472 38.4244C25.9832 38.4244 32.9384 29.5863 32.9384 20.0109Z"/>
</svg>
