<svg viewBox="0 0 40 40"  xmlns="http://www.w3.org/2000/svg">
<path d="M17.2699 0.178866C12.9017 0.840953 8.83305 2.8656 5.76951 5.92655C3.03455 8.65166 1.17903 12.0964 0.260933 16.1361C0.00966418 17.2588 0 17.4123 0 19.9935C0 22.5747 0.00966418 22.7282 0.260933 23.8508C1.63324 29.9152 5.16067 34.6553 10.447 37.5436C13.3172 39.098 16.7963 40 19.9952 40C21.4448 40 23.31 39.7697 24.634 39.4339C25.668 39.1748 27.9005 38.4072 28.4996 38.1097C29.5627 37.5819 30.9447 36.7759 31.4955 36.3633C32.6166 35.5381 32.8582 35.3366 33.8343 34.425C35.9217 32.4868 37.5936 30.0303 38.676 27.334C39.7294 24.6857 40 23.1888 40 19.9935C40 16.7982 39.7294 15.3013 38.676 12.653C37.5936 9.95663 35.9217 7.5002 33.8343 5.56192C32.8582 4.65035 32.6166 4.44885 31.4955 3.62364C30.9447 3.21103 29.5627 2.40501 28.4996 1.87726C27.9005 1.57981 25.668 0.812166 24.634 0.553089C22.4015 -0.0130432 19.541 -0.156975 17.2699 0.178866ZM22.3146 1.90605C24.3827 2.13634 25.3395 2.40501 27.6589 3.38375C30.7321 4.66954 33.9212 7.5098 35.8541 10.6859C36.2793 11.3768 37.1974 13.363 37.4293 14.0923C37.6806 14.8599 38.0672 16.4911 38.2315 17.4507C38.3861 18.391 38.3861 21.5959 38.2315 22.5363C38.0672 23.4958 37.6806 25.127 37.4293 25.8947C37.1974 26.6239 36.2793 28.6102 35.8541 29.3011C33.9212 32.4772 30.7321 35.3174 27.6589 36.6032C25.3395 37.5819 24.3827 37.8506 22.3146 38.0809C20.2658 38.3208 19.7246 38.3208 17.6758 38.0809C15.569 37.841 14.7765 37.6203 12.2155 36.5456C11.481 36.2482 9.87678 35.3078 9.1713 34.7801C6.70693 32.9281 4.68712 30.5197 3.48877 28.0057C2.46436 25.8467 2.15511 24.8488 1.87485 22.8337C1.62358 21.0106 1.62358 18.9764 1.87485 17.1532C2.15511 15.1382 2.46436 14.1402 3.48877 11.9813C4.68712 9.46727 6.70693 7.05881 9.1713 5.20689C9.87678 4.67914 11.481 3.73878 12.2155 3.44132C14.7185 2.38582 15.5883 2.14594 17.5501 1.90605C19.5023 1.67576 20.3431 1.67576 22.3146 1.90605Z"/>
<path d="M19.2893 8.33491C16.2161 8.71873 13.7808 10.0813 12.4181 12.1731C11.7126 13.2574 11.5967 13.6796 11.5967 15.1477C11.5967 16.2511 11.6257 16.5294 11.8093 17.0476C12.2635 18.3238 13.1429 19.456 14.3703 20.3772C14.9695 20.8282 17.5884 22.1428 18.5645 22.4786C18.9801 22.6225 19.9465 23.0543 20.7196 23.4285C21.8793 24.0043 22.2176 24.225 22.7588 24.7431C23.4933 25.4628 23.7542 25.9042 23.9088 26.7294C24.1697 28.2071 23.3193 29.1858 21.2028 29.8383C19.5599 30.3469 17.2502 29.9918 15.1048 28.9076C14.5926 28.6581 13.3555 27.7081 12.6694 27.0652L12.2152 26.6238L11.6643 27.142C11.3551 27.4299 11.0941 27.6697 11.0748 27.6793C10.8235 27.7753 12.6017 29.3489 13.7131 30.011C15.414 31.0377 16.3998 31.3832 18.2939 31.6614C19.473 31.8246 21.1642 31.719 22.7008 31.3736C26.0639 30.6251 28.4606 28.6581 29.0308 26.192C29.2144 25.4052 29.1081 23.8891 28.8086 23.0927C27.9581 20.7706 26.1606 19.3409 21.6474 17.393C19.2893 16.3663 17.6658 15.1956 17.1439 14.1401C16.825 13.5068 16.7573 12.2594 16.9989 11.7797C17.2502 11.2903 17.6174 10.9449 18.2553 10.5898C19.7629 9.75503 21.6087 9.76462 23.7349 10.609C24.7689 11.0216 25.6677 11.6357 26.7211 12.6529C27.1656 13.0751 27.5522 13.4109 27.5909 13.4013C27.6199 13.3821 27.9001 13.1422 28.2094 12.864L28.7602 12.365L28.1997 11.7605C27.1077 10.5898 26.1799 9.89896 24.7303 9.16971C23.4353 8.52682 20.9033 8.143 19.2893 8.33491ZM15.1724 12.1731C15.0371 12.9983 15.2207 13.9386 15.6943 14.9462C16.1388 15.8577 16.7573 16.5198 17.9653 17.345C18.6322 17.8056 21.0965 19.0434 22.5075 19.6287C22.8264 19.7631 23.6479 20.1949 24.3244 20.5979C26.2475 21.7302 27.1463 22.8336 27.3976 24.3593C27.6005 25.6355 27.2719 26.6814 26.3539 27.6314C25.5421 28.4854 25.4647 28.5045 25.5904 27.8425C25.716 27.1612 25.5517 26.0865 25.2038 25.1749C24.9815 24.6184 24.8076 24.3785 24.2084 23.7836C23.4643 23.0447 22.7395 22.5266 21.9083 22.1044C21.1062 21.711 18.149 20.4252 18.0233 20.4252C17.859 20.4252 16.8153 19.8974 15.8972 19.3409C15.0758 18.8419 14.3123 18.151 13.8967 17.5465C13.5295 16.9996 13.2396 15.7138 13.3072 14.8598C13.3845 13.7563 13.6648 13.1422 14.4573 12.3074C14.8342 11.914 15.1724 11.5974 15.2014 11.5974C15.2401 11.5974 15.2304 11.8564 15.1724 12.1731Z"/>
</svg>
