<svg  viewBox="0 0 40 40"  xmlns="http://www.w3.org/2000/svg">
<path fill-rule="evenodd" clip-rule="evenodd" d="M3.85801 15.7108V1.807H37.6646V15.7108C37.6646 15.9645 37.6661 16.2325 37.6678 16.5131V16.5135C37.6868 19.7714 37.7157 24.7155 35.4193 28.5026L35.4192 28.5026L35.415 28.5097C32.191 33.9277 26.3116 37.9981 20.7609 38.5153C15.1639 37.9981 9.28547 33.9277 6.06184 28.5116C3.80582 24.6829 3.8352 19.7773 3.85466 16.5273L3.85466 16.5271C3.85637 16.2416 3.85801 15.9689 3.85801 15.7108ZM38.9893 15.3697V0H2.00907V15.3212C2.00907 15.5868 2.00706 15.8717 2.00494 16.1736C1.98146 19.5091 1.94344 24.9116 4.43559 29.0909C7.92979 34.9576 14.2873 39.4182 20.4992 40C26.7111 39.4667 33.0686 35.0061 36.5628 29.1394C39.0548 24.9159 39.0169 19.551 38.9934 16.2219C38.9913 15.9204 38.9893 15.6355 38.9893 15.3697Z"/>
<path fill-rule="evenodd" clip-rule="evenodd" d="M34.1125 6.19661V16.8422C34.1125 17.0229 34.1138 17.2165 34.1153 17.4216L34.1153 17.4221C34.1184 17.8521 34.1218 18.332 34.1136 18.8472L20.5274 9.47735H17.7154L34.0084 20.8825C33.8371 22.6912 33.4094 24.6644 32.3613 26.3495C29.8891 30.4002 25.3567 33.48 20.996 33.8483C16.6009 33.48 12.0685 30.4002 9.59628 26.3495C7.83316 23.4334 7.85993 19.7292 7.87654 17.4306C7.87804 17.2224 7.87946 17.0257 7.87946 16.8422V16.8401L23.8078 27.9899L24.9795 26.8183L7.87946 14.8716V6.19661H34.1125Z"/>
</svg>
