<svg  viewBox="0 0 40 40"  xmlns="http://www.w3.org/2000/svg">
<path fill-rule="evenodd" clip-rule="evenodd" d="M24.3547 20.5907L27.3562 23.5104C28.7106 24.6783 30.3211 27.2331 30.5591 29.0579C30.6828 30.0073 30.447 31.2859 30.1696 32.3217C29.9218 33.2468 29.6614 34.1722 29.3429 35.0755C29.2897 35.2264 29.233 35.3791 29.1734 35.5331C28.8599 36.3424 28.463 37.1887 28.0437 38C28.9076 37.6248 29.7396 37.1901 30.5345 36.7013C36.2143 33.2085 40 26.9481 40 19.8061C40 6.60563 26.6154 -3.0304 14.136 0.878847C13.1514 8.95508 17.7529 14.8892 20.1819 16.8498L22.2683 18.7659L24.3547 20.5907ZM23.403 17.4999L25.5078 19.3408L28.5075 22.2587C29.3482 22.9948 30.1831 24.0674 30.8378 25.1695C31.4951 26.2758 32.0834 27.6003 32.2448 28.8381C32.4147 30.1412 32.0968 31.6969 31.8117 32.7615C31.7061 33.1556 31.5963 33.5576 31.4789 33.9633C35.6396 30.6378 38.3 25.5296 38.3 19.8061C38.3 8.14983 26.806 -0.509464 15.7251 2.19994C15.3565 8.96189 19.2422 13.9067 21.2497 15.527L21.2919 15.5611L23.403 17.4999Z"/>
<path fill-rule="evenodd" clip-rule="evenodd" d="M15.6453 19.4093L12.6438 16.4896C11.2894 15.3217 9.67886 12.7669 9.44094 10.9421C9.31716 9.99274 9.55302 8.71412 9.83043 7.67835C10.0782 6.7532 10.3386 5.82783 10.6571 4.92447C10.7103 4.77362 10.767 4.62094 10.8266 4.46692C11.1401 3.65755 11.537 2.81129 11.9563 2C11.0924 2.37524 10.2604 2.80986 9.46546 3.29869C3.78569 6.79146 0 13.0519 0 20.1939C0 33.3944 13.3846 43.0304 25.864 39.1212C26.8486 31.0449 22.2471 25.1108 19.8181 23.1502L17.7317 21.2341L15.6453 19.4093ZM16.597 22.5001L14.4922 20.6592L11.4925 17.7413C10.6518 17.0052 9.81695 15.9326 9.16215 14.8305C8.50493 13.7242 7.91659 12.3997 7.7552 11.1619C7.58531 9.85881 7.90318 8.30311 8.1883 7.23855C8.29388 6.84436 8.40372 6.44242 8.52108 6.03674C4.3604 9.36217 1.7 14.4704 1.7 20.1939C1.7 31.8502 13.194 40.5095 24.2749 37.8001C24.6435 31.0381 20.7578 26.0933 18.7503 24.473L18.7081 24.4389L16.597 22.5001Z"/>
</svg>
