<svg viewBox="0 0 40 40"  xmlns="http://www.w3.org/2000/svg">
    <g clip-path="url(#clip0_60_1179)">
        <path fill-rule="evenodd" clip-rule="evenodd" d="M20 38C29.9411 38 38 29.9411 38 20C38 10.0589 29.9411 2 20 2C10.0589 2 2 10.0589 2 20C2 29.9411 10.0589 38 20 38ZM20 40C31.0457 40 40 31.0457 40 20C40 8.9543 31.0457 0 20 0C8.9543 0 0 8.9543 0 20C0 31.0457 8.9543 40 20 40Z"/>
        <path d="M28.7705 8.97404C29.1349 7.62398 28.5394 5.9647 27.0902 6.00057C24.3034 5.96192 23.8493 9.85198 24.162 13.2506L21.2065 15.7713C20.1054 14.8298 18.5665 14.6448 17.1826 14.9734C12.555 16.1081 10.8502 22.7065 12.7861 26.4917C11.8399 28.7114 11.9731 31.4363 13.2646 33.4959C14.3522 35.6659 17.6475 36.37 16.9922 34.9453C16.8372 34.7522 16.8372 34.8213 16.6007 34.7963C13.5093 34.6003 12.7372 29.9566 13.5909 27.7313C16.3315 30.9559 22.3702 29.8517 24.5018 26.9804C27.6531 22.7562 26.5791 17.6349 25.9293 13.0353C27.0794 11.8895 28.3627 10.6195 28.7705 8.97404ZM13.2945 25.1113C11.7203 18.9711 16.9732 14.0015 20.3555 16.5029H20.3582C17.4245 18.8248 15.0156 21.7623 13.2945 25.1113ZM23.1723 25.8319C21.3506 29.0731 15.9318 29.7826 13.9036 26.5193C14.4936 24.7799 15.3989 23.1676 16.5708 21.7651L16.5871 21.7596C17.9139 20.1776 19.3631 18.7061 20.9211 17.356C21.6198 19.5067 19.896 22.4139 17.8786 22.2731C17.9982 24.1726 20.8177 22.6955 21.3669 21.9363C22.6856 20.4951 22.8052 17.8529 21.8645 16.5222L24.2762 14.493C24.7765 20.2604 25.119 21.9666 23.1723 25.8319ZM25.7662 11.7211C25.2632 6.32085 27.3703 6.84817 27.6395 7.31198C28.3654 8.78904 26.4404 11.26 25.7662 11.7211Z"/>
    </g>
    <defs>
        <clipPath id="clip0_60_1179">
            <rect width="40" height="40" fill="white"/>
        </clipPath>
    </defs>
</svg>