<svg viewBox="0 0 200 350"  xmlns="http://www.w3.org/2000/svg">
<path d="M197.965 35.0624C202.266 19.1459 195.237 -0.416207 178.131 0.00674148C145.233 -0.448996 139.873 45.4129 143.564 85.4809L108.677 115.198C95.6787 104.099 77.5129 101.918 61.1768 105.792C6.55101 119.169 -13.5725 196.962 9.27928 241.587C-1.88985 267.756 -0.317286 299.881 14.9277 324.163C27.766 349.747 66.665 358.047 58.9299 341.251C57.1006 338.974 57.1006 339.788 54.3085 339.493C17.8164 337.183 8.70161 282.436 18.7792 256.201C51.1309 294.218 122.414 281.199 147.576 247.348C184.774 197.547 172.097 137.169 164.426 82.9422C178.002 69.4343 193.151 54.4617 197.965 35.0624ZM15.2811 225.312C-3.30193 152.923 58.7052 94.3341 98.6316 123.824H98.6637C64.033 151.198 35.5971 185.83 15.2811 225.312ZM131.882 233.808C110.378 272.02 46.4128 280.385 22.4703 241.912C29.4348 221.406 40.1222 202.397 53.9554 185.863L54.148 185.797C69.8102 167.147 86.9169 149.798 105.307 133.882C113.556 159.237 93.2075 193.511 69.3929 191.852C70.805 214.245 104.087 196.832 110.571 187.88C126.137 170.89 127.549 139.74 116.444 124.052L144.912 100.128C150.818 168.123 154.862 188.239 131.882 233.808ZM162.5 67.4485C156.563 3.78269 181.437 9.99944 184.614 15.4676C193.183 32.8814 170.46 62.0128 162.5 67.4485Z"/>
</svg>