<svg viewBox="0 0 14 14" xmlns="http://www.w3.org/2000/svg">
<circle cx="7" cy="7" r="7"/>
<mask id="mask0_2973_35139" style="mask-type:alpha" maskUnits="userSpaceOnUse" x="0" y="0" width="14" height="14">
<circle cx="7" cy="7" r="7" fill="white"/>
</mask>
<g mask="url(#mask0_2973_35139)">
<path d="M7.02485 13.7199C6.37276 13.7199 5.78319 13.6082 5.25615 13.3849C4.73804 13.1616 4.32713 12.84 4.02341 12.4201C3.7197 12.0003 3.56337 11.5045 3.55444 10.9328H5.56433C5.59113 11.3169 5.72512 11.6206 5.96631 11.844C6.21643 12.0673 6.55588 12.1789 6.98466 12.1789C7.42237 12.1789 7.76628 12.0762 8.0164 11.8708C8.26652 11.6564 8.39158 11.3795 8.39158 11.04C8.39158 10.7631 8.30672 10.5353 8.137 10.3566C7.96727 10.178 7.75288 10.0395 7.49383 9.94127C7.24371 9.83407 6.89533 9.71794 6.44868 9.59288C5.84125 9.41423 5.34548 9.24004 4.96136 9.07031C4.58618 8.89165 4.26013 8.62813 3.98322 8.27975C3.71523 7.92244 3.58124 7.449 3.58124 6.85943C3.58124 6.30559 3.7197 5.82322 3.99661 5.4123C4.27353 5.00139 4.66211 4.68874 5.16235 4.47435C5.66259 4.25103 6.2343 4.13937 6.87746 4.13937C7.84221 4.13937 8.62384 4.37609 9.22234 4.84953C9.82977 5.31404 10.1648 5.96614 10.2273 6.80583H8.16379C8.14593 6.48425 8.00747 6.22073 7.74842 6.01527C7.4983 5.80088 7.16331 5.69369 6.74347 5.69369C6.37722 5.69369 6.08244 5.78749 5.85912 5.97507C5.64473 6.16267 5.53753 6.43512 5.53753 6.79243C5.53753 7.04255 5.61793 7.25247 5.77872 7.4222C5.94844 7.58299 6.1539 7.71698 6.39509 7.82418C6.64521 7.92244 6.99359 8.03857 7.44023 8.17256C8.04767 8.35122 8.54344 8.52987 8.92755 8.70853C9.31167 8.88719 9.64218 9.15517 9.9191 9.51249C10.196 9.8698 10.3345 10.3388 10.3345 10.9194C10.3345 11.4197 10.205 11.8842 9.9459 12.3129C9.68685 12.7417 9.3072 13.0856 8.80696 13.3447C8.30672 13.5948 7.71268 13.7199 7.02485 13.7199Z" fill="white"/>
</g>
<rect x="3.63379" y="2.2384" width="7.00073" height="1.52743" fill="#E50913"/>
</svg>
