<svg viewBox="0 0 41 41" xmlns="http://www.w3.org/2000/svg">
<path fill-rule="evenodd" clip-rule="evenodd" d="M40.0147 26.4622C36.9017 37.0602 25.7868 43.128 15.1889 40.0151C4.5909 36.9022 -1.47693 25.7873 1.636 15.1893C4.74893 4.59135 15.8638 -1.47647 26.4618 1.63646C37.0598 4.74939 43.1276 15.8643 40.0147 26.4622ZM38.4155 25.9925C35.562 35.7074 25.3734 41.2695 15.6586 38.416C5.94376 35.5625 0.381592 25.3738 3.23511 15.659C6.08863 5.94422 16.2773 0.38205 25.9921 3.23557C35.7069 6.08909 41.2691 16.2777 38.4155 25.9925Z"/>
<path d="M36.99 21.5628C36.9713 20.9073 36.5649 20.3278 35.9562 20.0875L27.6536 16.8076L26.6007 7.9249C26.5221 7.27194 26.0657 6.73135 25.4354 6.54621C24.8051 6.36107 24.1286 6.5689 23.7109 7.0761L18.0215 13.9784L9.26272 12.2469C8.62038 12.1209 7.96636 12.389 7.59526 12.9287C7.22494 13.4699 7.21186 14.179 7.56301 14.7327L12.3503 22.2807L7.98953 30.0958C7.66959 30.6706 7.72153 31.3775 8.12399 31.8969C8.3399 32.1771 8.63329 32.3715 8.95703 32.4666C9.23525 32.5483 9.53542 32.5561 9.82777 32.4804L18.475 30.2428L24.5373 36.801C24.9821 37.2818 25.6691 37.4515 26.2874 37.232C26.9067 37.0128 27.3327 36.4463 27.3744 35.7897L27.9328 26.8577L36.0416 23.0977C36.6361 22.8217 37.0084 22.2196 36.99 21.5628Z"/>
</svg>
