<svg  viewBox="0 0 41 40" xmlns="http://www.w3.org/2000/svg">
<path fill-rule="evenodd" clip-rule="evenodd" d="M40.502 20C40.502 31.0488 31.5507 40 20.502 40C9.45317 40 0.501953 31.0488 0.501953 20C0.501953 8.95122 9.45317 0 20.502 0C31.5507 0 40.502 8.95122 40.502 20ZM20.5254 9.80507L17.6961 14.2929C16.9644 13.7075 16.4279 12.927 16.1596 12.049C15.8913 11.1709 15.9157 10.2197 16.2083 9.34166C16.501 8.46361 17.0376 7.70751 17.7937 7.14653C18.5254 6.58556 19.4279 6.29287 20.3547 6.26848C21.2815 6.24409 22.184 6.51239 22.9644 7.02458C23.7449 7.53678 24.3303 8.29288 24.6718 9.14654C25.0132 10.0002 25.062 10.9514 24.8425 11.8539C24.623 12.7563 24.1352 13.5612 23.4279 14.1709L20.5254 9.80507ZM16.8447 26L11.5276 25.9268L13.7227 21.1707C12.8447 20.9025 11.8935 20.9025 11.0154 21.1707C10.1374 21.4634 9.35689 22 8.79592 22.7317C8.23494 23.4634 7.91787 24.3659 7.89348 25.2927C7.86909 26.2195 8.11299 27.122 8.62518 27.9024C9.13738 28.6829 9.86909 29.2683 10.7227 29.6342C11.5764 29.9756 12.5276 30.0488 13.4301 29.8537C14.3325 29.6342 15.1374 29.1707 15.7715 28.4634C16.3569 27.7805 16.7227 26.9268 16.8447 26ZM29.3555 25.9267L24.0385 26.0731C24.1604 26.9999 24.5751 27.8536 25.1604 28.5365C25.7946 29.2194 26.6238 29.6828 27.5263 29.878C28.4287 30.0731 29.3799 29.9999 30.2336 29.6341C31.0873 29.2682 31.819 28.6585 32.3068 27.878C32.7946 27.0731 33.0385 26.1706 32.9897 25.2438C32.9409 24.317 32.6238 23.4389 32.0385 22.7072C31.4531 21.9755 30.6726 21.4389 29.7946 21.1707C28.9165 20.9024 27.9653 20.9267 27.0873 21.2194L29.3555 25.9267Z"/>
</svg>
