<svg  viewBox="0 0 41 41" xmlns="http://www.w3.org/2000/svg">
<g clip-path="url(#clip0_5577_56693)">
<circle cx="20.502" cy="20.6964" r="20" />
<path d="M20.5565 13.8131L27.8279 17.8903L20.5589 21.8211L13.0977 17.8756L20.5565 13.8131Z" fill="white"/>
<path d="M20.5568 6.53585L27.8209 17.883L20.5342 13.8259L13.1055 17.8771L20.5568 6.53585Z" fill="white"/>
<path d="M27.3447 20.3358L20.5572 23.8949L12.1203 19.5174L20.5472 24.2624L27.3447 20.3358Z" fill="white"/>
<path d="M28.9794 19.5002L20.5565 34.8692L11.9562 19.393L11.9451 19.3872C10.9653 20.9439 10.3984 22.7868 10.3984 24.762C10.3984 30.2979 15.0369 34.7987 20.5565 34.8692C26.1115 34.94 30.6047 30.3191 30.6047 24.762C30.6047 22.7054 30.0347 20.9168 29.0838 19.4454L28.9794 19.5002Z" fill="white"/>
<path d="M20.5568 34.8692L29.0466 19.3804L20.5578 23.8832L11.9492 19.3789L20.5568 34.8692Z" fill="white"/>
<path d="M20.5566 34.8654L29.0431 19.3804L20.5566 23.8831L20.5566 34.8654Z" fill="white"/>
<path d="M20.5567 6.53619L27.8214 17.8803L20.5598 21.8214L13.1074 17.8715L20.5567 6.53619Z" fill="white"/>
<path d="M20.5576 13.8131L27.8304 17.8859L20.56 21.8211L20.5576 13.8131Z" fill="white"/>
<path d="M20.5576 13.8131L13.1017 17.8771L20.5553 21.8211L20.5576 13.8131Z" fill="white"/>
<path d="M20.5576 6.53621L27.8245 17.8862L20.5601 13.8158L20.5576 6.53621Z" fill="white"/>
</g>
<defs>
<clipPath id="clip0_5577_56693">
<rect width="40" height="40" fill="white" transform="translate(0.501953 0.696365)"/>
</clipPath>
</defs>
</svg>
