<svg  viewBox="0 0 40 40"  xmlns="http://www.w3.org/2000/svg">
<path d="M17.2699 0.178927C12.9017 0.841014 8.83305 2.86566 5.76951 5.92661C3.03455 8.65172 1.17903 12.0965 0.260933 16.1362C0.00966418 17.2588 0 17.4124 0 19.9935C0 22.5747 0.00966418 22.7282 0.260933 23.8509C1.63324 29.9152 5.16067 34.6554 10.447 37.5436C13.3172 39.0981 16.7963 40.0001 19.9952 40.0001C21.4448 40.0001 23.31 39.7698 24.634 39.4339C25.668 39.1749 27.9005 38.4072 28.4996 38.1098C29.5627 37.582 30.9447 36.776 31.4955 36.3634C32.6166 35.5382 32.8582 35.3367 33.8343 34.4251C35.9217 32.4868 37.5936 30.0304 38.676 27.3341C39.7294 24.6857 40 23.1888 40 19.9935C40 16.7982 39.7294 15.3014 38.676 12.653C37.5936 9.95669 35.9217 7.50026 33.8343 5.56198C32.8582 4.65041 32.6166 4.44891 31.4955 3.6237C30.9447 3.21109 29.5627 2.40508 28.4996 1.87733C27.9005 1.57987 25.668 0.812227 24.634 0.55315C22.4015 -0.0129821 19.541 -0.156914 17.2699 0.178927ZM22.3146 1.90611C24.3827 2.1364 25.3395 2.40508 27.6589 3.38381C30.7321 4.6696 33.9212 7.50986 35.8541 10.6859C36.2793 11.3768 37.1974 13.3631 37.4293 14.0923C37.6806 14.86 38.0672 16.4912 38.2315 17.4507C38.3861 18.3911 38.3861 21.596 38.2315 22.5363C38.0672 23.4959 37.6806 25.1271 37.4293 25.8947C37.1974 26.624 36.2793 28.6103 35.8541 29.3011C33.9212 32.4772 30.7321 35.3175 27.6589 36.6033C25.3395 37.582 24.3827 37.8507 22.3146 38.081C20.2658 38.3209 19.7246 38.3209 17.6758 38.081C15.569 37.8411 14.7765 37.6204 12.2155 36.5457C11.481 36.2482 9.87678 35.3079 9.1713 34.7801C6.70693 32.9282 4.68712 30.5198 3.48877 28.0057C2.46436 25.8468 2.15511 24.8488 1.87485 22.8338C1.62358 21.0107 1.62358 18.9764 1.87485 17.1533C2.15511 15.1382 2.46436 14.1403 3.48877 11.9813C4.68712 9.46733 6.70693 7.05887 9.1713 5.20695C9.87678 4.6792 11.481 3.73884 12.2155 3.44138C14.7185 2.38588 15.5883 2.146 17.5501 1.90611C19.5023 1.67582 20.3431 1.67582 22.3146 1.90611Z"/>
<path d="M19.2893 8.33497C16.2161 8.71878 13.7808 10.0813 12.4181 12.1731C11.7126 13.2574 11.5967 13.6796 11.5967 15.1477C11.5967 16.2512 11.6257 16.5295 11.8093 17.0476C12.2635 18.3238 13.1429 19.4561 14.3703 20.3773C14.9695 20.8282 17.5884 22.1428 18.5645 22.4787C18.9801 22.6226 19.9465 23.0544 20.7196 23.4286C21.8793 24.0043 22.2176 24.225 22.7588 24.7432C23.4933 25.4628 23.7542 25.9042 23.9088 26.7294C24.1697 28.2071 23.3193 29.1859 21.2028 29.8384C19.5599 30.3469 17.2502 29.9919 15.1048 28.9076C14.5926 28.6581 13.3555 27.7082 12.6694 27.0653L12.2152 26.6239L11.6643 27.142C11.3551 27.4299 11.0941 27.6698 11.0748 27.6794C10.8235 27.7753 12.6017 29.349 13.7131 30.0111C15.414 31.0378 16.3998 31.3832 18.2939 31.6615C19.473 31.8246 21.1642 31.7191 22.7008 31.3736C26.0639 30.6252 28.4606 28.6581 29.0308 26.1921C29.2144 25.4053 29.1081 23.8892 28.8086 23.0928C27.9581 20.7707 26.1606 19.3409 21.6474 17.3931C19.2893 16.3664 17.6658 15.1957 17.1439 14.1402C16.825 13.5069 16.7573 12.2595 16.9989 11.7797C17.2502 11.2904 17.6174 10.9449 18.2553 10.5899C19.7629 9.75508 21.6087 9.76468 23.7349 10.6091C24.7689 11.0217 25.6677 11.6358 26.7211 12.6529C27.1656 13.0751 27.5522 13.411 27.5909 13.4014C27.6199 13.3822 27.9001 13.1423 28.2094 12.864L28.7602 12.365L28.1997 11.7605C27.1077 10.5899 26.1799 9.89902 24.7303 9.16977C23.4353 8.52688 20.9033 8.14306 19.2893 8.33497ZM15.1724 12.1731C15.0371 12.9983 15.2207 13.9387 15.6943 14.9462C16.1388 15.8578 16.7573 16.5199 17.9653 17.3451C18.6322 17.8057 21.0965 19.0435 22.5075 19.6288C22.8264 19.7631 23.6479 20.1949 24.3244 20.5979C26.2475 21.7302 27.1463 22.8337 27.3976 24.3594C27.6005 25.6356 27.2719 26.6815 26.3539 27.6314C25.5421 28.4854 25.4647 28.5046 25.5904 27.8425C25.716 27.1612 25.5517 26.0865 25.2038 25.175C24.9815 24.6184 24.8076 24.3786 24.2084 23.7836C23.4643 23.0448 22.7395 22.5266 21.9083 22.1044C21.1062 21.711 18.149 20.4252 18.0233 20.4252C17.859 20.4252 16.8153 19.8975 15.8972 19.3409C15.0758 18.842 14.3123 18.1511 13.8967 17.5466C13.5295 16.9997 13.2396 15.7139 13.3072 14.8599C13.3845 13.7564 13.6648 13.1423 14.4573 12.3075C14.8342 11.9141 15.1724 11.5974 15.2014 11.5974C15.2401 11.5974 15.2304 11.8565 15.1724 12.1731Z"/>
<rect y="6.10352e-05" width="12" height="12" rx="6"/>
<path d="M4.28643 2.06147C2.77236 2.7223 1.71387 4.23489 1.71387 5.99517C1.71387 8.36376 3.63034 10.2839 5.99442 10.2839C6.44195 10.2839 6.87345 10.2151 7.27894 10.0874C7.4908 8.34127 6.50071 7.05824 5.97806 6.63434L5.52913 6.22006L5.08021 5.82552L4.43439 5.19424C4.14298 4.94173 3.79644 4.38937 3.74524 3.99482C3.6584 3.3255 3.97571 2.66215 4.28643 2.06147Z" fill="white"/>
<path d="M3.86713 2.27461C2.58051 3.01427 1.71387 4.40427 1.71387 5.99706C1.71387 8.36565 3.63033 10.2858 5.99442 10.2858C6.42127 10.2858 6.83352 10.2232 7.22254 10.1066C4.78814 9.80697 2.90313 7.72803 2.90313 5.20797C2.90313 4.10941 3.26135 3.09466 3.86713 2.27461Z" fill="white"/>
<path d="M7.71318 9.93866C9.22725 9.27783 10.2857 7.76524 10.2857 6.00495C10.2857 3.63636 8.36928 1.71624 6.0052 1.71624C5.55766 1.71624 5.12616 1.78505 4.72068 1.91269C4.50882 3.65886 5.4989 4.94188 6.02155 5.36579L6.47048 5.78006L6.9194 6.17461L7.56523 6.80588C7.85664 7.05839 8.20318 7.61075 8.25437 8.0053C8.34122 8.67462 8.0239 9.33798 7.71318 9.93866Z" fill="white"/>
<path d="M8.13248 9.72552C9.4191 8.98585 10.2857 7.59585 10.2857 6.00306C10.2857 3.63447 8.36928 1.71435 6.0052 1.71435C5.57835 1.71435 5.16609 1.77694 4.77707 1.89347C7.21148 2.19315 9.09649 4.2721 9.09649 6.79215C9.09649 7.89072 8.73827 8.90546 8.13248 9.72552Z" fill="white"/>
</svg>
