<svg viewBox="0 0 40 40"  xmlns="http://www.w3.org/2000/svg">
<path d="M23.9126 40C21.3883 40 19.4951 39.2832 18.3592 37.9928C17.2233 36.5591 16.5922 35.1255 16.5922 33.5484C16.5922 32.9749 16.7184 32.5448 16.9709 32.1147C17.2233 31.6846 17.4757 31.3979 17.7282 31.2545C18.1068 30.9677 18.4854 30.8244 18.9903 30.8244C19.4951 30.8244 19.8738 30.9677 20.2524 31.2545C20.6311 31.5412 20.8835 31.828 21.0097 32.1147C21.2621 32.5448 21.3883 32.9749 21.3883 33.5484C21.3883 34.2652 21.2621 34.8387 20.8835 35.2688C20.6311 35.6989 20.2524 35.9857 19.8738 36.129C20.2524 36.7025 20.7573 36.9892 21.5146 37.276C22.2718 37.5627 23.0291 37.7061 23.7864 37.7061C24.7961 37.7061 25.8058 37.4194 26.6893 36.7025C27.5728 36.129 28.2039 35.1254 28.5825 33.8351C28.9612 32.5448 29.2136 31.1111 29.2136 29.534C29.2136 27.8136 28.9612 26.3799 28.5825 25.0896C28.0777 23.7993 27.5728 22.9391 26.6893 22.3656C25.8058 21.7921 24.9223 21.5054 23.9126 21.5054C23.2816 21.5054 22.5243 21.7921 21.5146 22.3656L19.7476 23.3692V22.3656L27.699 10.1792H16.5922V22.7957C16.5922 23.7993 16.8447 24.6595 17.2233 25.3763C17.6019 26.0932 18.233 26.3799 19.1165 26.3799C19.7476 26.3799 20.3786 26.0932 21.0097 25.6631C21.6408 25.0896 22.1456 24.5161 22.5243 23.9426C22.6505 23.7993 22.6505 23.6559 22.7767 23.6559C22.9029 23.5125 22.9029 23.5125 23.0291 23.5125C23.1553 23.5125 23.4078 23.6559 23.534 23.7993C23.7864 24.086 23.7864 24.3728 23.7864 24.6595C23.7864 24.8029 23.6602 25.0896 23.6602 25.233C23.1553 26.3799 22.6505 27.2401 21.767 27.957C20.8835 28.6738 20.1262 28.8172 19.1165 28.8172C16.7184 28.8172 15.0777 28.2437 14.068 27.2401C13.1845 26.2366 12.6796 24.6595 12.6796 22.9391V10.3226H7V7.8853H12.6796V2.58064L11.4175 1.14695V0H15.2039L16.5922 0.860213V8.02867H31.233L32.6214 9.60573L23.6602 19.785C24.165 19.4982 24.7961 19.3548 25.301 19.3548C26.3107 19.3548 27.3204 19.7849 28.5825 20.3584C29.8447 21.0753 30.7282 21.9355 31.3592 23.2258C31.9903 24.3728 32.4951 25.5197 32.6214 26.6667C32.8738 27.8136 33 28.6738 33 29.6774C33 31.6846 32.6214 33.405 31.8641 35.1255C31.1068 36.8459 30.0971 38.1362 28.5825 38.853C27.1942 39.5699 25.6796 40 23.9126 40Z"/>
</svg>
