<svg  viewBox="0 0 40 40" xmlns="http://www.w3.org/2000/svg">
<g clip-path="url(#clip0_2453_23017)">
<path d="M3.47703 7.97023C6.49721 7.97031 9.09753 8.55863 11.2047 9.71895C13.2194 10.8284 15.1178 12.6239 16.9537 14.3603C20.0091 17.25 23.1684 20.2381 26.9527 20.2381C26.9866 20.2381 27.0213 20.2379 27.0553 20.2374C29.9329 20.1973 31.6766 17.0261 33.2149 14.2281C34.0235 12.7575 34.7219 11.4874 35.5433 10.7295C36.8983 9.47919 38.3594 8.71623 39.8857 8.46191L39.9999 8.44287V3.67183C39.9999 3.67183 37.2274 2.31927 34.0733 5.54463C32.0481 7.61551 30.4291 15.0547 26.0935 15.1217C20.3037 15.2113 16.3639 7.51767 11.6531 4.64295C6.73234 1.64015 0.0146484 3.67183 0.0146484 3.67183V8.21895C1.18511 8.05503 2.34946 7.97015 3.47703 7.97023Z"/>
<path d="M39.9962 17.3002L40 16.7738V15.3461C39.1354 15.6753 38.1938 16.2039 37.221 17.0378C34.776 19.1336 32.8215 26.662 27.587 26.7298C20.597 26.8205 15.8404 19.0346 10.153 16.1253C6.84978 14.4356 2.87756 14.3216 0 14.553V17.3002L0.003875 16.7738C0.0868128 28.1129 9.00592 37.8057 20 37.8057C30.9942 37.8057 39.9132 28.6392 39.9962 17.3002Z"/>
<path d="M10.4694 15.5066C12.6317 16.6126 14.673 18.4062 16.6472 20.1408C19.9458 23.0388 23.3566 26.0357 27.4661 26.0357C27.503 26.0357 27.541 26.0355 27.578 26.035C30.7209 25.9942 32.6037 22.8132 34.2649 20.0065C35.1352 18.5361 35.8868 17.2661 36.7688 16.5102C37.7122 15.7015 38.7162 15.0913 39.7527 14.6966L40 14.6025V9.14735C38.8714 9.33543 37.4818 9.88639 36.0146 11.2402C33.7433 13.3359 31.9276 20.8644 27.065 20.9322C20.5715 21.0228 16.1529 13.2369 10.8695 10.3277C7.20106 8.30767 2.64462 8.53903 0 8.92119V13.8569C0.741938 13.7987 1.48053 13.7681 2.19578 13.7681C5.43069 13.7682 8.21432 14.3531 10.4694 15.5066Z"/>
</g>
<defs>
<clipPath id="clip0_2453_23017">
<rect width="40" height="34.8057" fill="white" transform="translate(0 3)"/>
</clipPath>
</defs>
</svg>
