<svg viewBox="0 0 41 40" xmlns="http://www.w3.org/2000/svg">
<g clip-path="url(#clip0_60_1182)">
<path d="M16.6333 9.10198C16.1796 9.04006 16.158 9.01942 16.374 8.99878C16.7845 8.93686 17.7352 9.01942 18.405 9.1639C19.9607 9.51478 21.3651 10.4229 22.856 12.0122L23.2449 12.4456L23.8066 12.3631C26.205 11.9916 28.6681 12.2805 30.7207 13.1887C31.2825 13.4363 32.1683 13.9317 32.2764 14.0555C32.3196 14.0968 32.3844 14.3651 32.4276 14.6335C32.5789 15.6035 32.514 16.3259 32.1899 16.8832C32.0171 17.1928 32.0171 17.2754 32.1251 17.5437C32.2115 17.7501 32.4708 17.8945 32.7085 17.8945C33.227 17.8945 33.7672 17.1102 34.0265 16.0163L34.1345 15.5829L34.329 15.7893C35.4309 16.9658 36.2952 18.5963 36.4248 19.7521L36.468 20.0617L36.2736 19.7934C35.9495 19.3187 35.647 19.0091 35.2364 18.7408C34.5018 18.2661 33.724 18.1216 31.6714 18.0184C29.8132 17.9152 28.7545 17.7707 27.7174 17.4405C25.9457 16.8832 25.0382 16.1608 22.9424 13.4983C22.0133 12.3218 21.4299 11.682 20.8466 11.1453C19.5718 9.96885 18.297 9.34966 16.6333 9.10198Z"/>
<path d="M32.7297 11.7234C32.7729 10.9391 32.8809 10.4231 33.1186 9.94835C33.205 9.76259 33.2914 9.59747 33.313 9.59747C33.3346 9.59747 33.2914 9.74195 33.2266 9.90707C33.0538 10.3611 33.0322 11.001 33.1402 11.7234C33.2914 12.6522 33.3562 12.776 34.3934 13.7874C34.8687 14.2621 35.4305 14.8606 35.6465 15.1083L36.0138 15.5624L35.6465 15.2322C35.1928 14.8194 34.1557 14.035 33.918 13.9318C33.7668 13.8493 33.7452 13.8493 33.6371 13.9525C33.5507 14.035 33.5291 14.1589 33.5291 14.7574C33.5075 15.6862 33.3779 16.2641 33.0538 16.8627C32.8809 17.1723 32.8593 17.1104 33.0105 16.7595C33.1186 16.4912 33.1402 16.3673 33.1402 15.4798C33.1402 13.6842 32.9241 13.2507 31.6061 12.5283C31.282 12.3426 30.7203 12.0743 30.3962 11.9298C30.0505 11.7853 29.7912 11.6615 29.8128 11.6615C29.856 11.6202 31.1308 11.9711 31.6277 12.1775C32.384 12.4664 32.5136 12.4871 32.6 12.4664C32.6648 12.4045 32.7081 12.2394 32.7297 11.7234Z"/>
<path d="M17.5188 14.7986C16.6114 13.6015 16.028 11.7439 16.1576 10.361L16.2008 9.92757L16.4169 9.96885C16.8058 10.0308 17.4756 10.2784 17.7997 10.4642C18.664 10.9596 19.0529 11.6407 19.4202 13.3331C19.5282 13.8285 19.6795 14.4064 19.7443 14.5922C19.8523 14.9018 20.2629 15.6242 20.6086 16.0782C20.8462 16.4085 20.695 16.5736 20.1548 16.5323C19.3338 16.4498 18.2318 15.7274 17.5188 14.7986Z"/>
<path d="M31.6284 23.7769C27.3503 22.1257 25.8379 20.7016 25.8379 18.2867C25.8379 17.9359 25.8595 17.6469 25.8595 17.6469C25.8811 17.6469 26.0323 17.7707 26.2268 17.9152C27.0911 18.5757 28.0634 18.8646 30.7642 19.2362C32.3414 19.4632 33.2489 19.6283 34.0699 19.8966C36.6843 20.7222 38.3048 22.4147 38.6937 24.7057C38.8018 25.3662 38.7369 26.6252 38.5641 27.2857C38.4128 27.8017 37.9807 28.7511 37.8727 28.7718C37.8511 28.7718 37.8079 28.6686 37.8079 28.5034C37.7647 27.6366 37.3109 26.811 36.5547 26.1711C35.6472 25.4281 34.4805 24.8708 31.6284 23.7769Z"/>
<path d="M28.6027 24.4581C28.5595 24.1485 28.4515 23.7563 28.3866 23.5912L28.2786 23.2816L28.4731 23.5086C28.754 23.8182 28.97 24.1898 29.1645 24.7057C29.3157 25.0979 29.3157 25.2217 29.3157 25.8616C29.3157 26.4808 29.2941 26.6253 29.1645 26.9761C28.9484 27.5334 28.6891 27.9256 28.257 28.359C27.4792 29.1227 26.4637 29.5355 25.016 29.7212C24.7568 29.7419 24.0221 29.8038 23.3739 29.8451C21.7535 29.9276 20.6731 30.0927 19.7008 30.423C19.5712 30.4643 19.4416 30.5055 19.42 30.4849C19.3767 30.4436 20.0465 30.0721 20.5867 29.8244C21.3429 29.4736 22.1208 29.2878 23.8277 28.9988C24.6703 28.875 25.5346 28.7099 25.7507 28.6273C27.8897 27.9875 28.9484 26.3982 28.6027 24.4581Z"/>
<path d="M30.5692 27.7811C30.0074 26.6046 29.8778 25.4901 30.1803 24.4375C30.2235 24.3343 30.2667 24.2311 30.3099 24.2311C30.3531 24.2311 30.4828 24.293 30.6124 24.3755C30.8717 24.5407 31.4119 24.8296 32.7947 25.552C34.5448 26.4602 35.5387 27.1619 36.2301 27.9669C36.8351 28.6686 37.2024 29.4736 37.3752 30.4643C37.4833 31.0216 37.4185 32.3632 37.2672 32.9204C36.7919 34.6748 35.7115 36.0783 34.1343 36.8833C33.8966 37.0071 33.7021 37.0897 33.6805 37.0897C33.6589 37.0897 33.7454 36.8833 33.875 36.6356C34.3936 35.583 34.4584 34.5716 34.0695 33.4364C33.8318 32.7347 33.3348 31.8884 32.3409 30.4643C31.1526 28.8131 30.8717 28.3797 30.5692 27.7811Z"/>
<path d="M14.4723 34.0971C16.0712 32.8174 18.0374 31.9093 19.8523 31.6203C20.6301 31.4965 21.9265 31.5378 22.6395 31.7235C23.7847 32.0125 24.8218 32.6317 25.3619 33.3953C25.8805 34.1384 26.1182 34.7782 26.3558 36.2024C26.4423 36.7596 26.5503 37.3375 26.5719 37.4614C26.7447 38.2044 27.0904 38.7823 27.5226 39.0919C28.1924 39.5666 29.3591 39.5873 30.5043 39.1745C30.6987 39.1126 30.8716 39.0507 30.8716 39.0713C30.9148 39.1126 30.3314 39.4841 29.9425 39.6698C29.4023 39.9382 28.9702 40.0207 28.3868 40.0207C27.3497 40.0207 26.4639 39.5047 25.7508 38.4727C25.5996 38.2663 25.2971 37.6678 25.0378 37.1105C24.2816 35.4387 23.8927 34.9433 23.0068 34.3861C22.229 33.9113 21.2351 33.8081 20.4789 34.159C19.485 34.6131 19.2257 35.8308 19.9171 36.5739C20.198 36.8835 20.7166 37.1311 21.1487 37.1931C21.9481 37.2963 22.6395 36.6977 22.6395 35.934C22.6395 35.4387 22.4451 35.1497 21.9265 34.9227C21.2351 34.6337 20.4789 34.964 20.5005 35.6038C20.5005 35.8721 20.6301 36.0372 20.911 36.1611C21.0839 36.2436 21.0839 36.2436 20.9542 36.223C20.3276 36.0992 20.1764 35.3561 20.6733 34.8814C21.2783 34.3035 22.5531 34.5512 22.9852 35.3561C23.1581 35.6864 23.1797 36.3468 23.0284 36.7596C22.6611 37.6678 21.624 38.1425 20.5653 37.8742C19.8523 37.6884 19.5498 37.5027 18.6855 36.6564C17.1731 35.1704 16.5897 34.8814 14.4291 34.5718L14.0186 34.5099L14.4723 34.0971Z"/>
<path fill-rule="evenodd" clip-rule="evenodd" d="M3.10667 0.887513C8.14097 6.72859 15.8977 15.8101 16.2866 16.3055C16.6107 16.7183 16.4811 17.1104 15.9409 17.3994C15.6384 17.5645 15.0118 17.7296 14.7093 17.7296C14.3636 17.7296 13.9531 17.5645 13.6722 17.2962C13.4778 17.1104 12.6351 15.934 10.7337 13.1063C9.28611 10.9391 8.05455 9.14345 8.03294 9.12281C7.94652 9.08153 7.94652 9.08153 10.5825 13.581C12.2462 16.4087 12.7864 17.42 12.7864 17.5439C12.7864 17.8122 12.6999 17.9567 12.3542 18.3282C11.7709 18.9474 11.5116 19.6491 11.3171 21.1146C11.1011 22.7451 10.5177 23.9009 8.85399 25.8617C7.8817 27.0175 7.73045 27.2239 7.49278 27.6987C7.19029 28.2766 7.10386 28.6068 7.06065 29.3498C7.01744 30.1342 7.10386 30.6295 7.34154 31.3725C7.5576 32.033 7.79527 32.4665 8.37864 33.3127C8.87559 34.0557 9.17808 34.613 9.17808 34.8194C9.17808 34.9845 9.22129 34.9845 9.99913 34.8194C11.8573 34.4066 13.3913 33.7049 14.234 32.838C14.7525 32.3013 14.8822 32.0124 14.8822 31.2694C14.8822 30.7946 14.8606 30.6914 14.7309 30.4025C14.5149 29.9484 14.1044 29.5769 13.2185 28.999C12.0517 28.2353 11.5548 27.6161 11.4252 26.7905C11.3171 26.0888 11.4468 25.614 12.095 24.3137C12.7648 22.9721 12.9376 22.4149 13.0456 21.0526C13.1105 20.1858 13.2185 19.8349 13.4778 19.5666C13.7586 19.2776 13.9963 19.1744 14.6661 19.0918C15.768 18.9474 16.4811 18.6791 17.0428 18.1631C17.5398 17.7296 17.7558 17.2962 17.7774 16.6563L17.7991 16.1816L17.5182 15.8927C16.5027 14.7781 2.43687 0 2.37205 0C2.35045 0 2.69615 0.392157 3.10667 0.887513ZM9.73985 30.2374C9.97752 29.8452 9.84788 29.3498 9.45897 29.1022C9.09166 28.8751 8.52989 28.9783 8.52989 29.2879C8.52989 29.3705 8.5731 29.453 8.70274 29.4943C8.8972 29.5975 8.91881 29.7007 8.76756 29.9278C8.61631 30.1548 8.61631 30.3612 8.81077 30.5057C9.11326 30.7327 9.52379 30.6089 9.73985 30.2374Z"/>
<path fill-rule="evenodd" clip-rule="evenodd" d="M18.4911 19.3809C17.9725 19.5254 17.4756 20.062 17.3243 20.5987C17.2379 20.9289 17.2811 21.5275 17.4324 21.7132C17.67 22.0022 17.8861 22.0847 18.4911 22.0847C19.6794 22.0847 20.6949 21.5894 20.803 20.9908C20.911 20.4955 20.4573 19.8143 19.8307 19.5048C19.5066 19.3396 18.8368 19.2777 18.4911 19.3809ZM19.8739 20.4129C20.0467 20.1652 19.9819 19.8969 19.6578 19.7111C19.0744 19.3603 18.1886 19.6492 18.1886 20.1859C18.1886 20.4542 18.6423 20.7431 19.0744 20.7431C19.3553 20.7431 19.7442 20.578 19.8739 20.4129Z"/>
</g>
<defs>
<clipPath id="clip0_60_1182">
<rect width="40" height="40" fill="white" transform="translate(0.373047)"/>
</clipPath>
</defs>
</svg>
