<svg viewBox="0 0 40 40"  xmlns="http://www.w3.org/2000/svg">
<g clip-path="url(#clip0_5801_74446)">
<path d="M19.9992 39.9985C31.0445 39.9985 39.9984 31.0445 39.9984 19.9993C39.9984 8.95401 31.0445 6.10352e-05 19.9992 6.10352e-05C8.95395 6.10352e-05 0 8.95401 0 19.9993C0 31.0445 8.95395 39.9985 19.9992 39.9985Z"/>
<path d="M21.4029 13.2201C22.852 13.2841 24.2259 13.8829 25.2593 14.9008C25.7762 15.3488 26.3009 15.2705 26.9635 14.6173L28.3137 13.2076C28.8917 12.6421 28.8917 12.202 28.3137 11.519C27.3404 10.6436 26.1587 10.0326 24.8818 9.74435L25.5381 6.80744C25.5476 6.77309 25.5489 6.73703 25.5421 6.70208C25.5352 6.66713 25.5204 6.63424 25.4987 6.606C25.477 6.57776 25.449 6.55494 25.417 6.53934C25.385 6.52374 25.3497 6.51579 25.3141 6.5161H24.1503C24.0765 6.51646 24.0046 6.54012 23.945 6.58371C23.8854 6.62731 23.841 6.68861 23.8183 6.75888L23.2246 9.44517C22.7312 9.39035 22.2143 9.35903 21.6818 9.3512L22.2441 6.80587C22.2535 6.77153 22.2549 6.73546 22.248 6.7005C22.2412 6.66555 22.2263 6.63267 22.2046 6.60443C22.1829 6.5762 22.155 6.55338 22.1229 6.53778C22.0909 6.52218 22.0557 6.51423 22.0201 6.51453H20.8563C20.7824 6.5149 20.7106 6.53855 20.6509 6.58215C20.5913 6.62574 20.547 6.68705 20.5242 6.75732L19.9306 9.44361C15.9364 9.94641 13.3519 12.4447 13.3519 15.9628C13.3459 16.6501 13.4841 17.331 13.7577 17.9615C14.0313 18.5921 14.4341 19.1582 14.9402 19.6233C15.9234 20.4969 17.0872 21.1429 18.3486 21.5155C18.6963 21.633 19.0189 21.7348 19.3353 21.8288C20.8939 22.3081 22.0733 22.9127 22.0733 24.1297C22.0733 25.3938 20.7936 26.4793 18.9657 26.4793C17.1498 26.3608 15.4343 25.604 14.1225 24.3428C13.9492 24.1649 13.7157 24.0582 13.4678 24.0436C13.0648 24.0913 12.6952 24.2907 12.434 24.6012L10.9914 26.0705C10.8585 26.1685 10.7492 26.2949 10.6712 26.4404C10.5932 26.5859 10.5485 26.747 10.5404 26.9119C10.5323 27.0768 10.561 27.2415 10.6244 27.3939C10.6877 27.5464 10.7842 27.6829 10.9068 27.7935C12.0892 29.0462 13.625 29.9094 15.3098 30.2683L14.6927 33.0564C14.6794 33.1045 14.6774 33.1551 14.6869 33.2041C14.6964 33.2531 14.7172 33.2992 14.7475 33.3388C14.7779 33.3784 14.817 33.4105 14.8619 33.4324C14.9067 33.4544 14.956 33.4656 15.006 33.4652H15.9927C16.0823 33.4667 16.1698 33.438 16.2411 33.3837C16.3125 33.3295 16.3634 33.2528 16.3859 33.1661L16.9639 30.5502C17.4406 30.6003 17.9194 30.6264 18.3987 30.6286H18.5146L17.9742 33.0548C17.9609 33.1029 17.9589 33.1535 17.9684 33.2025C17.9779 33.2515 17.9987 33.2976 18.029 33.3373C18.0594 33.3769 18.0985 33.4089 18.1434 33.4309C18.1882 33.4528 18.2376 33.464 18.2875 33.4637H19.2743C19.3639 33.4651 19.4514 33.4364 19.5227 33.3822C19.594 33.3279 19.6449 33.2512 19.6674 33.1645L20.2611 30.5017C21.8292 30.3171 23.3318 29.7654 24.6469 28.8915C25.5254 28.2374 26.2368 27.3849 26.7233 26.4036C27.2097 25.4223 27.4573 24.34 27.4459 23.2448C27.4459 19.8285 24.4542 18.7446 21.8165 17.7469C21.677 17.692 21.5392 17.645 21.3998 17.5902L21.2306 17.5276C19.9776 17.0483 18.6399 16.5141 18.6399 15.2501C18.6101 14.0926 19.7833 13.2201 21.4029 13.2201Z" fill="white"/>
</g>
<defs>
<clipPath id="clip0_5801_74446">
<rect width="40" height="40" fill="white"/>
</clipPath>
</defs>
</svg>
