<svg width="40" height="40" viewBox="0 0 40 40" xmlns="http://www.w3.org/2000/svg">
<path d="M1.71094 10.5457C9.57637 9.25581 14.7636 5.03994 13.5091 2.991C12.9742 2.1258 11.6646 1.92523 9.69828 2.3067C6.22518 4.13078 3.42642 7.01774 1.71094 10.5457Z"/>
<path d="M23.931 3.27808C27.0771 2.78649 27.4704 3.27808 26.6013 2.65278C23.9428 0.745413 17.3555 0.607768 13.4267 1.63421C13.7143 1.66106 13.9893 1.76564 14.222 1.93675C14.4548 2.10786 14.6366 2.33906 14.7481 2.60559C15.4481 4.15115 14.3312 6.67988 8.64844 9.49964C8.96621 9.94914 9.33581 10.3597 9.7496 10.7227C12.0581 5.96413 21.0129 3.73428 23.931 3.27808Z"/>
<path d="M23.75 15.3201C27.8125 14.7577 31.875 14.1874 35.9414 13.9397C34.9741 10.1758 32.8336 6.81767 29.83 4.35171C28.1861 3.60843 26.7939 3.5927 24.5405 3.95844C21.2134 4.51689 10.2254 7.29732 9.98944 13.5818C9.95405 14.4903 10.308 15.5482 11.1063 16.665C15.2789 16.4802 19.5223 15.906 23.75 15.3201ZM8.02702 39.4119C18.6807 39.4119 29.3384 36.4584 39.9921 36.4584V34.7477C29.3384 34.7477 18.6807 37.7011 8.02702 37.7011V39.4119ZM8.02702 36.1831C18.6807 36.1831 29.3384 33.2297 39.9921 33.2297V31.5189C29.3384 31.5189 18.6807 34.4724 8.02702 34.4724V36.1831ZM8.02702 32.9544C18.6807 32.9544 29.3384 30.0009 39.9921 30.0009V28.2902C29.3384 28.2902 18.6807 31.2436 8.02702 31.2436V32.9544ZM39.9921 17.0858V15.3751C34.5807 15.3751 29.1732 16.1341 23.7657 16.8853C18.5195 17.6089 13.2733 18.3247 8.03488 18.3247V29.7295C18.6886 29.7295 29.3423 26.78 40 26.78V25.0693C34.5886 25.0693 29.1811 25.8322 23.7736 26.5794V25.0693C29.1811 24.3181 34.5886 23.5591 40 23.5591V21.8326C34.5886 21.8326 29.1811 22.5956 23.7736 23.3428V21.8248C29.1811 21.0736 34.5886 20.3146 40 20.3146V18.6039C34.5886 18.6039 29.1811 19.3629 23.7736 20.114V18.5921C29.1732 17.8449 34.5807 17.0858 39.9921 17.0858ZM9.37987 29.002C9.30541 29.0041 9.23128 28.9912 9.16191 28.964C9.09255 28.9369 9.02937 28.896 8.97614 28.8439C8.92292 28.7917 8.88074 28.7294 8.85213 28.6607C8.82353 28.5919 8.80907 28.518 8.80963 28.4435C8.80753 28.3666 8.82062 28.29 8.84815 28.2181C8.87568 28.1462 8.91711 28.0804 8.97007 28.0245C9.02303 27.9686 9.08647 27.9237 9.15679 27.8924C9.22711 27.8611 9.30291 27.8439 9.37987 27.8418C9.454 27.8397 9.5278 27.8525 9.59691 27.8794C9.66601 27.9064 9.72901 27.9469 9.78218 27.9986C9.83535 28.0503 9.87761 28.1121 9.90645 28.1804C9.9353 28.2488 9.95014 28.3222 9.95011 28.3963C9.95436 28.5521 9.89676 28.7033 9.78991 28.8168C9.68307 28.9303 9.53565 28.9968 9.37987 29.002ZM9.37987 26.7997C9.30541 26.8018 9.23128 26.7889 9.16191 26.7617C9.09255 26.7345 9.02937 26.6937 8.97614 26.6415C8.92292 26.5894 8.88074 26.5271 8.85213 26.4583C8.82353 26.3895 8.80907 26.3157 8.80963 26.2412C8.807 26.1643 8.81976 26.0877 8.84714 26.0158C8.87452 25.9439 8.91599 25.8781 8.9691 25.8225C9.02221 25.7668 9.0859 25.7223 9.15643 25.6915C9.22697 25.6608 9.30293 25.6444 9.37987 25.6434C9.45414 25.6408 9.52819 25.6532 9.59754 25.6799C9.66688 25.7066 9.7301 25.7471 9.78339 25.7989C9.83667 25.8508 9.87891 25.9128 9.90756 25.9814C9.93622 26.05 9.95069 26.1236 9.95011 26.198C9.95015 26.3503 9.89045 26.4966 9.78383 26.6054C9.67722 26.7142 9.53218 26.7769 9.37987 26.78V26.7997ZM9.37987 24.5973C9.30541 24.5995 9.23128 24.5865 9.16191 24.5594C9.09255 24.5322 9.02937 24.4913 8.97614 24.4392C8.92292 24.3871 8.88074 24.3248 8.85213 24.256C8.82353 24.1872 8.80907 24.1134 8.80963 24.0389C8.807 23.962 8.81976 23.8853 8.84714 23.8134C8.87452 23.7415 8.91599 23.6758 8.9691 23.6201C9.02221 23.5645 9.0859 23.52 9.15643 23.4892C9.22697 23.4585 9.30293 23.4421 9.37987 23.4411C9.454 23.439 9.5278 23.4518 9.59691 23.4787C9.66601 23.5056 9.72901 23.5462 9.78218 23.5979C9.83535 23.6496 9.87761 23.7114 9.90645 23.7797C9.9353 23.8481 9.95014 23.9215 9.95011 23.9956C9.95015 24.148 9.89045 24.2943 9.78383 24.4031C9.67722 24.5119 9.53218 24.5746 9.37987 24.5777V24.5973ZM9.37987 22.3989C9.30536 22.4 9.23138 22.3862 9.16224 22.3584C9.0931 22.3306 9.03017 22.2894 8.97711 22.237C8.92406 22.1847 8.88193 22.1224 8.85317 22.0536C8.82442 21.9849 8.80962 21.9111 8.80963 21.8366C8.80754 21.7598 8.82066 21.6834 8.84823 21.6117C8.87581 21.54 8.9173 21.4745 8.9703 21.419C9.02331 21.3634 9.08679 21.3189 9.15708 21.288C9.22737 21.257 9.30309 21.2403 9.37987 21.2388C9.454 21.2367 9.5278 21.2495 9.59691 21.2764C9.66601 21.3033 9.72901 21.3438 9.78218 21.3955C9.83535 21.4472 9.87761 21.5091 9.90645 21.5774C9.9353 21.6457 9.95014 21.7191 9.95011 21.7933C9.94918 21.9457 9.88929 22.0919 9.78298 22.2011C9.67668 22.3104 9.53221 22.3742 9.37987 22.3793V22.3989ZM9.37987 20.1966C9.30555 20.1982 9.23166 20.1849 9.16254 20.1576C9.09342 20.1302 9.03045 20.0893 8.97734 20.0373C8.92423 19.9853 8.88204 19.9232 8.85324 19.8547C8.82444 19.7861 8.80961 19.7125 8.80963 19.6382C8.80701 19.5611 8.81973 19.4843 8.84707 19.4121C8.87441 19.34 8.91581 19.274 8.96887 19.218C9.02193 19.162 9.08559 19.1172 9.15615 19.086C9.2267 19.0548 9.30275 19.038 9.37987 19.0365C9.454 19.0344 9.5278 19.0472 9.59691 19.0741C9.66601 19.101 9.72901 19.1415 9.78218 19.1932C9.83535 19.2449 9.87761 19.3068 9.90645 19.3751C9.9353 19.4434 9.95014 19.5168 9.95011 19.591C9.94918 19.7434 9.88929 19.8896 9.78298 19.9988C9.67668 20.108 9.53221 20.1719 9.37987 20.177V20.1966ZM11.0041 27.8222C10.9302 27.8259 10.8563 27.8145 10.787 27.7887C10.7177 27.7629 10.6544 27.7231 10.601 27.6719C10.5476 27.6207 10.5052 27.5592 10.4764 27.491C10.4477 27.4228 10.4332 27.3495 10.4338 27.2755C10.4356 27.1226 10.4956 26.9761 10.6015 26.8658C10.7074 26.7555 10.8514 26.6897 11.0041 26.6817C11.0778 26.6774 11.1516 26.6882 11.2209 26.7136C11.2902 26.739 11.3535 26.7784 11.407 26.8293C11.4605 26.8801 11.5029 26.9415 11.5317 27.0094C11.5605 27.0774 11.575 27.1506 11.5743 27.2244C11.5726 27.3777 11.5128 27.5247 11.4069 27.6356C11.3011 27.7465 11.1571 27.8132 11.0041 27.8222ZM11.0041 25.6198C10.9299 25.6236 10.8557 25.6121 10.7861 25.586C10.7165 25.56 10.653 25.5199 10.5995 25.4683C10.5461 25.4166 10.5038 25.3546 10.4753 25.286C10.4468 25.2173 10.4327 25.1436 10.4338 25.0693C10.4356 24.9163 10.4956 24.7698 10.6015 24.6595C10.7074 24.5492 10.8514 24.4834 11.0041 24.4754C11.0778 24.4711 11.1516 24.482 11.2209 24.5074C11.2902 24.5328 11.3535 24.5721 11.407 24.623C11.4605 24.6739 11.5029 24.7352 11.5317 24.8032C11.5605 24.8712 11.575 24.9443 11.5743 25.0181C11.5746 25.1728 11.5157 25.3217 11.4096 25.4343C11.3036 25.547 11.1585 25.6147 11.0041 25.6238V25.6198ZM11.0041 23.4175C10.9302 23.4213 10.8563 23.4099 10.787 23.3841C10.7177 23.3582 10.6544 23.3185 10.601 23.2673C10.5476 23.2161 10.5052 23.1545 10.4764 23.0863C10.4477 23.0182 10.4332 22.9449 10.4338 22.8709C10.4356 22.718 10.4956 22.5715 10.6015 22.4612C10.7074 22.3509 10.8514 22.285 11.0041 22.277C11.0778 22.2727 11.1516 22.2836 11.2209 22.309C11.2902 22.3344 11.3535 22.3737 11.407 22.4246C11.4605 22.4755 11.5029 22.5368 11.5317 22.6048C11.5605 22.6728 11.575 22.7459 11.5743 22.8197C11.5736 22.9737 11.5142 23.1217 11.4083 23.2335C11.3024 23.3452 11.1578 23.4125 11.0041 23.4215V23.4175ZM11.0041 21.2152C10.9304 21.2195 10.8566 21.2086 10.7873 21.1833C10.718 21.1579 10.6546 21.1185 10.6012 21.0676C10.5477 21.0167 10.5052 20.9554 10.4765 20.8874C10.4477 20.8195 10.4332 20.7463 10.4338 20.6725C10.4347 20.5193 10.4943 20.3723 10.6004 20.2617C10.7065 20.1512 10.851 20.0857 11.0041 20.0786C11.0776 20.0738 11.1513 20.0841 11.2206 20.1091C11.2899 20.134 11.3533 20.173 11.4068 20.2236C11.4604 20.2741 11.5029 20.3352 11.5317 20.403C11.5605 20.4708 11.575 20.5438 11.5743 20.6174C11.5745 20.7717 11.5155 20.9202 11.4094 21.0322C11.3032 21.1441 11.1581 21.2111 11.0041 21.2191V21.2152ZM12.6322 28.8289C12.5589 28.8344 12.4853 28.8246 12.416 28.8001C12.3467 28.7756 12.2833 28.737 12.2297 28.6867C12.1761 28.6364 12.1335 28.5756 12.1046 28.508C12.0758 28.4404 12.0612 28.3676 12.062 28.2941C12.0645 28.1402 12.1243 27.9929 12.2298 27.8808C12.3353 27.7688 12.4788 27.7002 12.6322 27.6885C12.7051 27.6818 12.7786 27.6906 12.8479 27.7142C12.9171 27.7377 12.9807 27.7756 13.0345 27.8252C13.0882 27.8749 13.1309 27.9353 13.1599 28.0025C13.1888 28.0697 13.2033 28.1423 13.2025 28.2154C13.202 28.3711 13.1432 28.5209 13.0376 28.6352C12.932 28.7495 12.7873 28.8201 12.6322 28.8329V28.8289ZM12.6322 26.6266C12.5589 26.6321 12.4853 26.6222 12.416 26.5978C12.3467 26.5733 12.2833 26.5347 12.2297 26.4844C12.1761 26.4341 12.1335 26.3733 12.1046 26.3057C12.0758 26.2381 12.0612 26.1653 12.062 26.0918C12.0645 25.9379 12.1243 25.7905 12.2298 25.6785C12.3353 25.5665 12.4788 25.4979 12.6322 25.4861C12.7053 25.4801 12.7789 25.4894 12.8481 25.5134C12.9174 25.5374 12.9809 25.5757 13.0346 25.6256C13.0883 25.6756 13.1309 25.7362 13.1598 25.8036C13.1887 25.871 13.2033 25.9437 13.2025 26.017C13.204 26.174 13.146 26.3258 13.0403 26.4418C12.9345 26.5578 12.7887 26.6294 12.6322 26.6423V26.6266ZM12.6322 24.4243C12.5587 24.431 12.4845 24.422 12.4147 24.398C12.3449 24.374 12.2809 24.3354 12.227 24.2849C12.1732 24.2344 12.1306 24.173 12.1021 24.1049C12.0737 24.0367 12.06 23.9633 12.062 23.8894C12.0644 23.7352 12.1241 23.5873 12.2295 23.4747C12.3349 23.362 12.4785 23.2926 12.6322 23.2799C12.7053 23.2739 12.7789 23.2831 12.8481 23.3072C12.9174 23.3312 12.9809 23.3694 13.0346 23.4194C13.0883 23.4694 13.1309 23.53 13.1598 23.5974C13.1887 23.6648 13.2033 23.7375 13.2025 23.8108C13.202 23.9664 13.1432 24.1162 13.0376 24.2306C12.932 24.3449 12.7873 24.4154 12.6322 24.4282V24.4243ZM12.6322 22.222C12.559 22.2286 12.4852 22.2198 12.4157 22.196C12.3461 22.1722 12.2823 22.134 12.2285 22.0839C12.1747 22.0338 12.1321 21.9729 12.1034 21.9052C12.0747 21.8375 12.0606 21.7646 12.062 21.6911C12.0644 21.5368 12.1241 21.3889 12.2295 21.2763C12.3349 21.1636 12.4785 21.0942 12.6322 21.0815C12.7053 21.0755 12.7789 21.0848 12.8481 21.1088C12.9174 21.1328 12.9809 21.171 13.0346 21.221C13.0883 21.271 13.1309 21.3316 13.1598 21.399C13.1887 21.4664 13.2033 21.5391 13.2025 21.6124C13.201 21.7674 13.1418 21.9162 13.0363 22.0297C12.9308 22.1432 12.7867 22.2132 12.6322 22.2259V22.222ZM12.6322 20.0197C12.559 20.0263 12.4852 20.0174 12.4157 19.9936C12.3461 19.9699 12.2823 19.9317 12.2285 19.8816C12.1747 19.8315 12.1321 19.7706 12.1034 19.7029C12.0747 19.6352 12.0606 19.5622 12.062 19.4887C12.0645 19.3349 12.1243 19.1875 12.2298 19.0755C12.3353 18.9634 12.4788 18.8948 12.6322 18.8831C12.7051 18.8765 12.7786 18.8853 12.8479 18.9088C12.9171 18.9324 12.9807 18.9702 13.0345 19.0199C13.0882 19.0695 13.1309 19.1299 13.1599 19.1972C13.1888 19.2644 13.2033 19.3369 13.2025 19.4101C13.201 19.565 13.1418 19.7139 13.0363 19.8274C12.9308 19.9409 12.7867 20.0108 12.6322 20.0236V20.0197ZM14.2604 27.6019C14.1892 27.6074 14.1176 27.598 14.0502 27.5743C13.9828 27.5506 13.9211 27.5132 13.8689 27.4643C13.8168 27.4155 13.7754 27.3564 13.7473 27.2907C13.7192 27.225 13.7051 27.1542 13.7059 27.0828C13.7089 26.928 13.7687 26.7796 13.8738 26.6658C13.9788 26.5521 14.122 26.4807 14.2761 26.4654C14.3486 26.4576 14.4219 26.4653 14.4911 26.4879C14.5604 26.5105 14.6241 26.5476 14.678 26.5966C14.7319 26.6457 14.7748 26.7056 14.8038 26.7725C14.8328 26.8394 14.8473 26.9116 14.8463 26.9845C14.843 27.1422 14.7812 27.2931 14.6729 27.4079C14.5646 27.5227 14.4176 27.5932 14.2604 27.6059V27.6019ZM14.2604 25.3996C14.1892 25.4051 14.1176 25.3957 14.0502 25.372C13.9828 25.3483 13.9211 25.3108 13.8689 25.262C13.8168 25.2132 13.7754 25.1541 13.7473 25.0884C13.7192 25.0227 13.7051 24.9519 13.7059 24.8805C13.7131 24.7315 13.7726 24.5898 13.8741 24.4805C13.9755 24.3711 14.1123 24.3011 14.2604 24.2827C14.3328 24.2749 14.4061 24.2826 14.4754 24.3052C14.5447 24.3278 14.6084 24.3649 14.6623 24.414C14.7162 24.463 14.7591 24.523 14.7881 24.5898C14.8171 24.6567 14.8316 24.729 14.8306 24.8018C14.823 24.9537 14.7613 25.0978 14.6567 25.2081C14.5522 25.3185 14.4116 25.3878 14.2604 25.4035V25.3996ZM14.2604 23.1973C14.1892 23.2027 14.1176 23.1933 14.0502 23.1696C13.9828 23.146 13.9211 23.1085 13.8689 23.0597C13.8168 23.0109 13.7754 22.9518 13.7473 22.8861C13.7192 22.8204 13.7051 22.7496 13.7059 22.6782C13.7089 22.5233 13.7687 22.375 13.8738 22.2612C13.9788 22.1474 14.122 22.0761 14.2761 22.0607C14.3486 22.0529 14.4219 22.0606 14.4911 22.0832C14.5604 22.1059 14.6241 22.1429 14.678 22.192C14.7319 22.2411 14.7748 22.301 14.8038 22.3679C14.8328 22.4347 14.8473 22.507 14.8463 22.5799C14.843 22.7376 14.7812 22.8885 14.6729 23.0033C14.5646 23.1181 14.4176 23.1886 14.2604 23.2012V23.1973ZM14.2604 20.995C14.1892 21.0004 14.1176 20.991 14.0502 20.9673C13.9828 20.9436 13.9211 20.9062 13.8689 20.8574C13.8168 20.8086 13.7754 20.7494 13.7473 20.6838C13.7192 20.6181 13.7051 20.5473 13.7059 20.4759C13.7089 20.321 13.7687 20.1727 13.8738 20.0589C13.9788 19.9451 14.122 19.8738 14.2761 19.8584C14.3486 19.8506 14.4219 19.8583 14.4911 19.8809C14.5604 19.9035 14.6241 19.9406 14.678 19.9897C14.7319 20.0387 14.7748 20.0987 14.8038 20.1655C14.8328 20.2324 14.8473 20.3047 14.8463 20.3775C14.843 20.5353 14.7812 20.6862 14.6729 20.8009C14.5646 20.9157 14.4176 20.9863 14.2604 20.9989V20.995ZM15.8925 28.5458C15.8204 28.5548 15.7473 28.5482 15.678 28.5266C15.6087 28.5049 15.5449 28.4686 15.4908 28.4201C15.4367 28.3717 15.3937 28.3122 15.3646 28.2456C15.3356 28.1791 15.3211 28.1071 15.3222 28.0345C15.3313 27.8828 15.3933 27.739 15.4975 27.6283C15.6017 27.5176 15.7415 27.4471 15.8925 27.4289C15.9627 27.42 16.0339 27.4261 16.1017 27.4466C16.1694 27.4672 16.232 27.5018 16.2854 27.5482C16.3389 27.5946 16.3819 27.6517 16.4118 27.7159C16.4417 27.78 16.4577 27.8497 16.4588 27.9205C16.4561 28.076 16.3974 28.2254 16.2933 28.341C16.1892 28.4566 16.0469 28.5308 15.8925 28.5497V28.5458ZM15.8925 26.3435C15.8223 26.3529 15.7509 26.3474 15.683 26.3273C15.615 26.3073 15.5521 26.2731 15.4983 26.2271C15.4445 26.1811 15.401 26.1242 15.3706 26.0603C15.3403 25.9963 15.3238 25.9266 15.3222 25.8558C15.3258 25.6999 15.3854 25.5505 15.4901 25.435C15.5948 25.3194 15.7377 25.2454 15.8925 25.2266C15.9627 25.2177 16.0339 25.2238 16.1017 25.2443C16.1694 25.2649 16.232 25.2995 16.2854 25.3459C16.3389 25.3922 16.3819 25.4494 16.4118 25.5135C16.4417 25.5777 16.4577 25.6474 16.4588 25.7182C16.4561 25.8737 16.3974 26.0231 16.2933 26.1387C16.1892 26.2543 16.0469 26.3284 15.8925 26.3474V26.3435ZM15.8925 24.1411C15.8203 24.1508 15.7469 24.1448 15.6773 24.1233C15.6077 24.1019 15.5436 24.0656 15.4894 24.017C15.4352 23.9684 15.3922 23.9087 15.3633 23.8418C15.3344 23.775 15.3204 23.7027 15.3222 23.6299C15.3259 23.4744 15.3856 23.3255 15.4904 23.2106C15.5952 23.0957 15.738 23.0226 15.8925 23.0046C15.9644 22.9948 16.0377 23.0009 16.1071 23.0223C16.1765 23.0438 16.2403 23.0801 16.2943 23.1288C16.3482 23.1775 16.3908 23.2373 16.4192 23.3042C16.4476 23.371 16.4611 23.4432 16.4588 23.5158C16.4561 23.6714 16.3974 23.8207 16.2933 23.9364C16.1892 24.052 16.0469 24.1261 15.8925 24.1451V24.1411ZM15.8925 21.9428C15.8201 21.9518 15.7466 21.9452 15.677 21.9233C15.6074 21.9014 15.5434 21.8647 15.4893 21.8158C15.4352 21.7669 15.3922 21.7069 15.3634 21.6399C15.3346 21.5729 15.3205 21.5005 15.3222 21.4276C15.3259 21.2721 15.3856 21.1232 15.4904 21.0083C15.5952 20.8934 15.738 20.8202 15.8925 20.8023C15.9644 20.7925 16.0377 20.7986 16.1071 20.82C16.1765 20.8415 16.2403 20.8778 16.2943 20.9265C16.3482 20.9751 16.3908 21.035 16.4192 21.1018C16.4476 21.1687 16.4611 21.2409 16.4588 21.3135C16.4562 21.4695 16.3976 21.6194 16.2936 21.7356C16.1896 21.8519 16.0472 21.9269 15.8925 21.9467V21.9428ZM15.8925 19.7404C15.8201 19.7495 15.7466 19.7429 15.677 19.7209C15.6074 19.699 15.5434 19.6624 15.4893 19.6135C15.4352 19.5646 15.3922 19.5046 15.3634 19.4376C15.3346 19.3706 15.3205 19.2982 15.3222 19.2252C15.3259 19.0698 15.3856 18.9209 15.4904 18.806C15.5952 18.6911 15.738 18.6179 15.8925 18.5999C15.9646 18.5908 16.038 18.5974 16.1073 18.6194C16.1767 18.6413 16.2405 18.678 16.2944 18.727C16.3482 18.776 16.3908 18.836 16.4191 18.903C16.4475 18.97 16.461 19.0424 16.4588 19.1151C16.4561 19.2707 16.3974 19.42 16.2933 19.5357C16.1892 19.6513 16.0469 19.7254 15.8925 19.7444V19.7404ZM17.5206 27.2716C17.4487 27.2819 17.3753 27.2764 17.3057 27.2555C17.2361 27.2345 17.172 27.1987 17.1177 27.1504C17.0634 27.102 17.0203 27.0425 16.9914 26.9758C16.9625 26.9091 16.9485 26.8369 16.9503 26.7643C16.9538 26.6079 17.0133 26.458 17.1179 26.3418C17.2226 26.2256 17.3655 26.1508 17.5206 26.1311C17.5929 26.1207 17.6665 26.1263 17.7364 26.1475C17.8063 26.1686 17.8707 26.2048 17.9251 26.2536C17.9794 26.3023 18.0225 26.3624 18.0511 26.4296C18.0797 26.4967 18.0933 26.5694 18.0908 26.6423C18.0857 26.7978 18.0255 26.9463 17.9211 27.0615C17.8167 27.1768 17.6748 27.2512 17.5206 27.2716ZM17.5206 25.0693C17.449 25.0795 17.376 25.0741 17.3067 25.0534C17.2374 25.0327 17.1734 24.9972 17.1192 24.9493C17.065 24.9014 17.0218 24.8423 16.9926 24.7761C16.9635 24.7099 16.949 24.6382 16.9503 24.5659C16.9537 24.4091 17.013 24.2587 17.1176 24.1418C17.2222 24.025 17.3651 23.9494 17.5206 23.9288C17.5922 23.9185 17.6652 23.9239 17.7345 23.9446C17.8038 23.9654 17.8678 24.0009 17.922 24.0487C17.9762 24.0966 18.0194 24.1557 18.0486 24.2219C18.0777 24.2881 18.0921 24.3598 18.0908 24.4322C18.0875 24.5889 18.0282 24.7394 17.9236 24.8562C17.819 24.9731 17.6761 25.0486 17.5206 25.0693ZM17.5206 22.8669C17.449 22.8772 17.376 22.8718 17.3067 22.8511C17.2374 22.8304 17.1734 22.7948 17.1192 22.747C17.065 22.6991 17.0218 22.64 16.9926 22.5738C16.9635 22.5076 16.949 22.4359 16.9503 22.3636C16.9545 22.207 17.0141 22.057 17.1185 21.9403C17.223 21.8236 17.3655 21.7478 17.5206 21.7265C17.5922 21.7162 17.6652 21.7216 17.7345 21.7423C17.8038 21.763 17.8678 21.7985 17.922 21.8464C17.9762 21.8943 18.0194 21.9534 18.0486 22.0196C18.0777 22.0858 18.0921 22.1575 18.0908 22.2298C18.0875 22.3866 18.0282 22.537 17.9236 22.6539C17.819 22.7707 17.6761 22.8463 17.5206 22.8669ZM17.5206 20.6646C17.4489 20.6756 17.3756 20.6707 17.306 20.6502C17.2364 20.6298 17.1721 20.5943 17.1178 20.5463C17.0634 20.4983 17.0202 20.4389 16.9913 20.3724C16.9623 20.3058 16.9484 20.2338 16.9503 20.1612C16.9538 20.0049 17.0133 19.855 17.1179 19.7388C17.2226 19.6226 17.3655 19.5478 17.5206 19.5281C17.5921 19.5164 17.6653 19.5208 17.7349 19.5407C17.8045 19.5607 17.8689 19.5958 17.9233 19.6435C17.9778 19.6912 18.0211 19.7504 18.0501 19.8168C18.079 19.8832 18.0929 19.9551 18.0908 20.0275C18.0875 20.1843 18.0282 20.3347 17.9236 20.4516C17.819 20.5684 17.6761 20.644 17.5206 20.6646ZM19.1487 28.1761C19.0772 28.1877 19.0041 28.1834 18.9345 28.1635C18.8648 28.1435 18.8005 28.1084 18.746 28.0607C18.6915 28.013 18.6482 27.9538 18.6193 27.8874C18.5903 27.821 18.5764 27.7491 18.5785 27.6767C18.5825 27.5197 18.6419 27.3691 18.7463 27.2518C18.8507 27.1345 18.9933 27.0579 19.1487 27.0356C19.2199 27.0241 19.2927 27.0283 19.3621 27.048C19.4314 27.0678 19.4955 27.1025 19.5499 27.1498C19.6044 27.1971 19.6477 27.2558 19.6769 27.3217C19.7061 27.3876 19.7205 27.4591 19.719 27.5311C19.7151 27.6886 19.6558 27.8396 19.5515 27.9576C19.4472 28.0756 19.3045 28.153 19.1487 28.1761ZM19.1487 25.9738C19.0762 25.9856 19.002 25.9811 18.9315 25.9605C18.8609 25.9399 18.7959 25.9037 18.7412 25.8547C18.6865 25.8056 18.6435 25.7449 18.6153 25.6771C18.5872 25.6092 18.5746 25.5359 18.5785 25.4625C18.5825 25.3055 18.6419 25.155 18.7463 25.0377C18.8507 24.9203 18.9933 24.8438 19.1487 24.8215C19.2199 24.81 19.2927 24.8142 19.3621 24.8339C19.4314 24.8537 19.4955 24.8884 19.5499 24.9357C19.6044 24.983 19.6477 25.0416 19.6769 25.1075C19.7061 25.1734 19.7205 25.245 19.719 25.317C19.7187 25.4767 19.6609 25.631 19.5562 25.7516C19.4515 25.8722 19.3068 25.9511 19.1487 25.9738ZM19.1487 23.7715C19.0772 23.7831 19.0041 23.7788 18.9345 23.7588C18.8648 23.7389 18.8005 23.7038 18.746 23.656C18.6915 23.6083 18.6482 23.5492 18.6193 23.4828C18.5903 23.4164 18.5764 23.3444 18.5785 23.272C18.5825 23.115 18.6419 22.9645 18.7463 22.8472C18.8507 22.7298 18.9933 22.6532 19.1487 22.631C19.2202 22.6194 19.2934 22.6237 19.363 22.6436C19.4327 22.6636 19.497 22.6987 19.5515 22.7464C19.606 22.7941 19.6492 22.8533 19.6782 22.9197C19.7072 22.9861 19.7211 23.058 19.719 23.1304C19.715 23.2874 19.6555 23.4379 19.5512 23.5553C19.4468 23.6726 19.3042 23.7492 19.1487 23.7715ZM19.1487 21.5691C19.0772 21.5808 19.0041 21.5764 18.9345 21.5565C18.8648 21.5365 18.8005 21.5014 18.746 21.4537C18.6915 21.406 18.6482 21.3468 18.6193 21.2804C18.5903 21.2141 18.5764 21.1421 18.5785 21.0697C18.5825 20.9127 18.6419 20.7622 18.7463 20.6448C18.8507 20.5275 18.9933 20.4509 19.1487 20.4287C19.2202 20.417 19.2934 20.4214 19.363 20.4413C19.4327 20.4613 19.497 20.4964 19.5515 20.5441C19.606 20.5918 19.6492 20.651 19.6782 20.7174C19.7072 20.7838 19.7211 20.8557 19.719 20.9281C19.715 21.0851 19.6555 21.2356 19.5512 21.353C19.4468 21.4703 19.3042 21.5469 19.1487 21.5691ZM19.1487 19.3668C19.0772 19.3784 19.0041 19.3741 18.9345 19.3542C18.8648 19.3342 18.8005 19.2991 18.746 19.2514C18.6915 19.2037 18.6482 19.1445 18.6193 19.0781C18.5903 19.0117 18.5764 18.9398 18.5785 18.8674C18.5826 18.7108 18.6422 18.5608 18.7467 18.4441C18.8511 18.3275 18.9936 18.2517 19.1487 18.2303C19.22 18.218 19.2931 18.2217 19.3627 18.2412C19.4324 18.2606 19.4968 18.2953 19.5514 18.3427C19.606 18.3902 19.6494 18.4492 19.6783 18.5154C19.7073 18.5816 19.7212 18.6535 19.719 18.7258C19.715 18.8828 19.6555 19.0333 19.5512 19.1506C19.4468 19.268 19.3042 19.3446 19.1487 19.3668ZM20.7847 26.8626C20.7135 26.8749 20.6404 26.8711 20.5707 26.8517C20.5011 26.8322 20.4366 26.7975 20.3821 26.7501C20.3275 26.7027 20.2841 26.6437 20.2552 26.5775C20.2262 26.5112 20.2123 26.4393 20.2145 26.3671C20.2191 26.2098 20.2787 26.0592 20.3829 25.9414C20.4871 25.8235 20.6293 25.7459 20.7847 25.7221C20.8559 25.7105 20.9287 25.7148 20.9981 25.7345C21.0674 25.7542 21.1315 25.789 21.186 25.8363C21.2404 25.8836 21.2837 25.9422 21.3129 26.0081C21.3421 26.074 21.3565 26.1455 21.355 26.2176C21.3504 26.3748 21.2908 26.5255 21.1866 26.6433C21.0824 26.7611 20.9402 26.8387 20.7847 26.8626ZM20.7847 24.676C20.7135 24.6883 20.6404 24.6846 20.5707 24.6651C20.5011 24.6456 20.4366 24.6109 20.3821 24.5635C20.3275 24.5161 20.2841 24.4571 20.2552 24.3909C20.2262 24.3246 20.2123 24.2527 20.2145 24.1805C20.2155 24.0205 20.2734 23.8661 20.3779 23.7451C20.4824 23.624 20.6267 23.5441 20.7847 23.5198C20.8559 23.5082 20.9287 23.5125 20.9981 23.5322C21.0674 23.5519 21.1315 23.5867 21.186 23.6339C21.2404 23.6812 21.2837 23.7399 21.3129 23.8058C21.3421 23.8717 21.3565 23.9432 21.355 24.0153C21.3548 24.1755 21.2972 24.3303 21.1925 24.4515C21.0879 24.5728 20.9432 24.6524 20.7847 24.676ZM20.7847 22.4737C20.7138 22.4859 20.6411 22.4822 20.5717 22.463C20.5024 22.4438 20.4381 22.4094 20.3836 22.3624C20.3291 22.3154 20.2857 22.257 20.2564 22.1912C20.2272 22.1255 20.2129 22.054 20.2145 21.9821C20.2146 21.8219 20.2723 21.6671 20.3769 21.5459C20.4816 21.4246 20.6263 21.3449 20.7847 21.3214C20.8557 21.3092 20.9284 21.3128 20.9978 21.3321C21.0671 21.3513 21.1314 21.3856 21.1859 21.4326C21.2404 21.4796 21.2838 21.5381 21.3131 21.6038C21.3423 21.6696 21.3566 21.741 21.355 21.813C21.3511 21.9704 21.2918 22.1215 21.1875 22.2395C21.0832 22.3575 20.9405 22.4348 20.7847 22.4579V22.4737ZM20.7847 20.2753C20.7136 20.2868 20.6408 20.2826 20.5714 20.2629C20.5021 20.2431 20.438 20.2084 20.3835 20.1611C20.3291 20.1138 20.2858 20.0552 20.2566 19.9893C20.2274 19.9234 20.213 19.8518 20.2145 19.7798C20.2146 19.6196 20.2723 19.4648 20.3769 19.3435C20.4816 19.2223 20.6263 19.1426 20.7847 19.1191C20.8557 19.1069 20.9284 19.1105 20.9978 19.1297C21.0671 19.149 21.1314 19.1833 21.1859 19.2303C21.2404 19.2773 21.2838 19.3358 21.3131 19.4015C21.3423 19.4673 21.3566 19.5387 21.355 19.6107C21.3505 19.7683 21.2911 19.9195 21.1869 20.038C21.0828 20.1565 20.9405 20.2349 20.7847 20.2596V20.2753ZM22.4129 27.7474C22.3422 27.7597 22.2696 27.7561 22.2004 27.7369C22.1312 27.7176 22.0672 27.6832 22.013 27.6362C21.9588 27.5891 21.9157 27.5305 21.8869 27.4648C21.8581 27.399 21.8444 27.3276 21.8466 27.2559C21.8501 27.0985 21.9088 26.9474 22.0122 26.8289C22.1157 26.7103 22.2575 26.6318 22.4129 26.607C22.4838 26.5948 22.5566 26.5984 22.6259 26.6176C22.6953 26.6369 22.7595 26.6712 22.814 26.7182C22.8685 26.7652 22.912 26.8237 22.9412 26.8894C22.9704 26.9552 22.9848 27.0266 22.9831 27.0985C22.9774 27.2567 22.9165 27.4078 22.8108 27.5257C22.7052 27.6435 22.5616 27.7206 22.405 27.7435L22.4129 27.7474ZM22.4129 25.5451C22.3429 25.5584 22.2708 25.5561 22.2018 25.5384C22.1328 25.5206 22.0686 25.4878 22.0138 25.4424C21.9589 25.3969 21.9148 25.3399 21.8845 25.2754C21.8543 25.2109 21.8386 25.1405 21.8387 25.0693C21.8423 24.9119 21.9009 24.7608 22.0044 24.6423C22.1078 24.5237 22.2496 24.4452 22.405 24.4204C22.476 24.4082 22.5487 24.4118 22.6181 24.431C22.6874 24.4503 22.7516 24.4846 22.8061 24.5316C22.8607 24.5786 22.9041 24.6371 22.9333 24.7028C22.9626 24.7686 22.9769 24.84 22.9753 24.912C22.9664 25.0662 22.9049 25.2127 22.8012 25.3272C22.6974 25.4417 22.5576 25.5172 22.405 25.5412L22.4129 25.5451ZM22.4129 23.3428C22.3422 23.3551 22.2696 23.3515 22.2004 23.3322C22.1312 23.313 22.0672 23.2786 22.013 23.2315C21.9588 23.1844 21.9157 23.1259 21.8869 23.0601C21.8581 22.9943 21.8444 22.923 21.8466 22.8512C21.8503 22.6943 21.909 22.5438 22.0126 22.4259C22.1161 22.3079 22.2578 22.2302 22.4129 22.2062C22.4844 22.1944 22.5576 22.1987 22.6272 22.2189C22.6967 22.2391 22.7609 22.2747 22.8149 22.323C22.8689 22.3713 22.9113 22.4311 22.9391 22.4981C22.9668 22.565 22.9792 22.6373 22.9753 22.7096C22.9664 22.8639 22.9049 23.0104 22.8012 23.1249C22.6974 23.2394 22.5576 23.3149 22.405 23.3389L22.4129 23.3428ZM22.4129 21.1405C22.3422 21.1528 22.2696 21.1492 22.2004 21.1299C22.1312 21.1107 22.0672 21.0763 22.013 21.0292C21.9588 20.9821 21.9157 20.9236 21.8869 20.8578C21.8581 20.792 21.8444 20.7207 21.8466 20.6489C21.8503 20.492 21.909 20.3414 22.0126 20.2235C22.1161 20.1056 22.2578 20.0279 22.4129 20.0039C22.4838 19.9917 22.5566 19.9954 22.6259 20.0146C22.6953 20.0338 22.7595 20.0682 22.814 20.1152C22.8685 20.1622 22.912 20.2206 22.9412 20.2864C22.9704 20.3521 22.9848 20.4236 22.9831 20.4955C22.9773 20.6532 22.9162 20.8038 22.8105 20.921C22.7048 21.0382 22.5613 21.1145 22.405 21.1365L22.4129 21.1405ZM22.4129 18.9421C22.3422 18.9544 22.2696 18.9508 22.2004 18.9315C22.1312 18.9123 22.0672 18.8779 22.013 18.8308C21.9588 18.7837 21.9157 18.7252 21.8869 18.6594C21.8581 18.5936 21.8444 18.5223 21.8466 18.4505C21.8501 18.2932 21.9088 18.1421 22.0122 18.0235C22.1157 17.9049 22.2575 17.8264 22.4129 17.8016C22.4838 17.7894 22.5566 17.793 22.6259 17.8123C22.6953 17.8315 22.7595 17.8658 22.814 17.9128C22.8685 17.9598 22.912 18.0183 22.9412 18.0841C22.9704 18.1498 22.9848 18.2212 22.9831 18.2932C22.9774 18.4513 22.9165 18.6025 22.8108 18.7203C22.7052 18.8382 22.5616 18.9153 22.405 18.9382L22.4129 18.9421ZM6.37134 18.7966C3.8662 15.2571 1.19589 12.2132 1.19589 12.2132C1.19589 12.2132 0.562721 13.6369 0.130122 16.7594C-0.26315 19.532 0.0947277 23.8147 3.18191 28.8289C4.04056 30.1997 5.11797 31.4206 6.37134 32.4431V18.7966Z"/>
</svg>