<svg viewBox="0 0 41 41" xmlns="http://www.w3.org/2000/svg">
<g clip-path="url(#clip0_5001_55343)">
<path d="M26.623 37.4175C24.1897 38.1438 19.7463 38.4919 15.9703 38.4919C8.57833 38.4919 2.58594 36.7614 2.58594 34.6267C2.58594 32.9436 6.31136 31.5117 11.5109 30.9813C15.0987 33.8734 16.5614 36.0627 26.623 37.4175Z"/>
<path fill-rule="evenodd" clip-rule="evenodd" d="M16.9186 2.23193C8.57387 3.55856 2.40723 10.5519 2.40723 18.539C2.40723 19.3512 2.49344 20.1812 2.65891 21.0158C3.01594 22.8165 3.74196 24.6382 4.76722 26.3474C6.793 29.7245 9.98701 32.662 13.8112 34.1284C12.0941 32.1831 10.2654 29.2972 9.13521 26.313C8.64565 25.0203 8.28714 23.7092 8.12553 22.4481C8.06323 21.9619 8.03019 21.4832 8.03019 21.0158C8.03019 20.1688 8.08977 19.3423 8.20497 18.539C8.83641 14.1356 11.139 10.4308 14.4604 7.893C16.0335 6.69108 17.8351 5.75093 19.7959 5.1223C20.1828 4.99827 20.5758 4.88638 20.9746 4.78699C22.4538 4.41825 24.0111 4.22168 25.6192 4.2168C25.6397 4.21673 25.6602 4.2167 25.6807 4.2167C26.3157 4.2167 26.9307 4.23184 27.5485 4.29721C27.1943 4.16529 26.7961 4.00874 26.3678 3.84035C26.1462 3.75323 25.9165 3.66293 25.6807 3.57123C25.6602 3.56328 25.6397 3.55532 25.6192 3.54735C24.1488 2.97671 22.4478 2.35786 20.9746 2.11369C20.5603 2.04503 20.164 2.00599 19.7959 2.00599C18.8133 2.00599 17.8523 2.08349 16.9186 2.23193Z" fill="white"/>
<path fill-rule="evenodd" clip-rule="evenodd" d="M24.0902 36.2195C32.6148 36.2195 39.5253 29.3089 39.5253 20.7843C39.5253 12.2597 32.6148 5.34917 24.0902 5.34917C15.5656 5.34917 8.65499 12.2597 8.65499 20.7843C8.65499 29.3089 15.5656 36.2195 24.0902 36.2195ZM24.0902 37.6919C33.4279 37.6919 40.9977 30.1221 40.9977 20.7843C40.9977 11.4466 33.4279 3.87679 24.0902 3.87679C14.7524 3.87679 7.18262 11.4466 7.18262 20.7843C7.18262 30.1221 14.7524 37.6919 24.0902 37.6919Z"/>
<path fill-rule="evenodd" clip-rule="evenodd" d="M19.0662 2.49245C10.1511 2.49245 3.02706 9.8701 3.02706 18.8176C3.02706 26.7448 9.47666 33.3422 17.1664 34.6854L16.9131 36.1358C8.63083 34.6891 1.55469 27.5684 1.55469 18.8176C1.55469 9.08953 9.30573 1.02007 19.0662 1.02007C24.6681 1.02007 31.4849 3.85004 35.1563 7.93239L34.0616 8.91696C30.6934 5.17176 24.2877 2.49245 19.0662 2.49245Z"/>
<path fill-rule="evenodd" clip-rule="evenodd" d="M8.30128 25.6771L2.69141 23.4089L3.24333 22.0438L8.85321 24.3121L8.30128 25.6771Z"/>
<path fill-rule="evenodd" clip-rule="evenodd" d="M7.82626 20.0448L2.46644 17.2362L3.14984 15.9321L8.50965 18.7406L7.82626 20.0448Z"/>
<path d="M12.868 24.1952L11.2744 17.5201H12.654L13.6603 22.1052L14.8806 17.5201H16.4833L17.6535 22.1826L18.678 17.5201H20.0349L18.4139 24.1952H16.9842L15.6546 19.2048L14.3296 24.1952H12.868Z"/>
<path d="M20.4938 24.1952V17.5201H25.4432V18.6493H21.8416V20.1291H25.1928V21.2538H21.8416V23.0705H25.5707V24.1952H20.4938Z"/>
<path d="M27.983 24.1952V18.6493H26.0023V17.5201H31.3069V18.6493H29.3308V24.1952H27.983Z"/>
<path d="M31.9525 24.1952V17.5201H33.3003V20.1473H35.9412V17.5201H37.2889V24.1952H35.9412V21.2765H33.3003V24.1952H31.9525Z"/>
</g>
<defs>
<clipPath id="clip0_5001_55343">
<rect width="40.0033" height="40.0033" fill="white" transform="translate(0.994141)"/>
</clipPath>
</defs>
</svg>
